<?xml version="1.0" standalone="no"?><!DOCTYPE svg PUBLIC "-//W3C//DTD SVG 1.1//EN" "http://www.w3.org/Graphics/SVG/1.1/DTD/svg11.dtd" ><svg xmlns="http://www.w3.org/2000/svg"><metadata></metadata><defs><font id="1.000;SJ  ;SJzhenmiao-Regular" horiz-adv-x="1000"><font-face font-family="猫咪字体" font-weight="400" font-stretch="normal" units-per-em="1000" panose-1="0 0 5 0 0 0 0 0 0 0" ascent="1050" descent="-150" x-height="0" bbox="6 -177 987 836" underline-thickness="50" underline-position="-75" unicode-range="U+0020-ff1a" /><missing-glyph horiz-adv-x="1000"  /><glyph glyph-name="A" unicode="A" d="M64 44 q33 203 90.5 344 q57.5 141 128.5 211.5 q71 70.5 145 70.5 q75 0 143 -71 q68 -71 119 -212 q51 -141 74 -342 q1 -7 1 -20 q0 -28 -10 -42.5 q-10 -14.5 -25 -14.5 q-13 0 -23 11 q-10 11 -13 30 q-27 184 -69.5 311.5 q-42.5 127.5 -94 192 q-51.5 64.5 -107.5 64.5 q-55 0 -108.5 -64 q-53.5 -64 -100 -191.5 q-46.5 -127.5 -80.5 -313.5 q-4 -15 -14.5 -23.5 q-10.5 -8.5 -23.5 -8.5 q-14 0 -24.5 12 q-10.5 12 -10.5 34 q0 10 3 22 ZM564 217 q21 -1 32 -12 q11 -11 11 -24 q0 -15 -11.5 -25 q-11.5 -10 -31.5 -9 l-282 17 q-21 1 -32.5 12 q-11.5 11 -11.5 25 q0 14 12 24 q12 10 32 9 l282 -17 Z" /><glyph glyph-name="B" unicode="B" d="M221 645 q81 42 162 42 q74 0 134.5 -32.5 q60.5 -32.5 95.5 -86.5 q35 -54 35 -113 q0 -45 -21.5 -86.5 q-21.5 -41.5 -65.5 -75.5 q68 -81 68 -155 q0 -49 -29.5 -88 q-29.5 -39 -82 -60.5 q-52.5 -21.5 -118.5 -21.5 q-73 0 -153 28 q-20 7 -34 19 l3 -45 q2 -20 -8 -32 q-10 -12 -25 -12 q-14 0 -24.5 11 q-10.5 11 -12.5 32 l-41 662 q-2 19 8 31 q10 12 25 12 q14 0 24.5 -11 q10.5 -11 12.5 -32 l1 -13 l46 27 ZM265 65 q58 -22 120 -22 q68 0 114.5 25 q46.5 25 46.5 71 q0 55 -73 128 q-5 5 -12 11 q-7 6 -11 11 q-4 5 -4 11 q0 11 7.5 20 q7.5 9 20.5 13 q48 23 71.5 55 q23.5 32 23.5 67 q0 39 -26 74 q-26 35 -71 56.5 q-45 21.5 -99 21.5 q-84 0 -162 -50 q-18 -11 -32 -12 l30 -479 q9 6 24 6 q15 0 32 -7 Z" /><glyph glyph-name="C" unicode="C" d="M395 -35 q-104 0 -171 43 l1 0 q-59 32 -97 90 q-52 79 -52 186 q0 58 13 116 q19 86 68 160 q47 70 105 98 q37 16 94 16 q51 0 93 -10.5 q42 -10.5 88 -32.5 q40 -19 70 -39 q8 -5 22.5 -15 q14.5 -10 19.5 -16.5 q5 -6.5 7 -17.5 q1 -3 1 -9 q0 -15 -10 -25 q-10 -10 -28 -10 q-19 0 -32 10 q-1 1 -6.5 5 q-5.5 4 -15.5 11 q-95 64 -185 64 q-79 0 -135.5 -52 q-56.5 -52 -79.5 -152 q-12 -52 -12 -100 q0 -111 65 -176.5 q65 -65.5 177 -65.5 q61 0 124 25 q56 22 92 64 q11 11 29 11 q20 0 33 -11.5 q13 -11.5 11 -26.5 q-3 -14 -12 -28 q-47 -49 -122 -80 q-77 -32 -155 -32 Z" /><glyph glyph-name="D" unicode="D" d="M668 408 q13 -58 13 -116 q0 -107 -52 -186 q-38 -58 -97 -90 l1 0 q-67 -43 -171 -43 q-74 0 -155 32 l-23 10 l2 -37 q2 -20 -8 -32 q-10 -12 -25 -12 q-14 0 -24.5 11 q-10.5 11 -12.5 32 l-41 662 q-2 19 8 31 q10 12 25 12 q14 0 24.5 -11 q10.5 -11 12.5 -32 l3 -41 q0 0 2 2 q30 20 70 39 q40 19 81.5 26 q41.5 7 99.5 7 q54 0 94 -17 q34 -16 59 -36 q25 -20 46 -51 q49 -74 68 -160 ZM362 51 q112 0 177 65.5 q65 65.5 65 176.5 q0 48 -12 100 q-23 98 -80.5 147.5 q-57.5 49.5 -137.5 49.5 q-86 0 -182 -57 q-10 -6 -15.5 -10.5 q-5.5 -4.5 -6.5 -5.5 q-8 -7 -17 -8 l25 -399 q24 -20 60 -34 q63 -25 124 -25 Z" /><glyph glyph-name="E" unicode="E" d="M585 629 q21 -1 32 -12 q11 -11 11 -24 q0 -15 -11.5 -25 q-11.5 -10 -31.5 -9 l-428 19 l0 -432 l0 -34 q0 -26 3 -38.5 q3 -12.5 14.5 -18 q11.5 -5.5 35.5 -5.5 l274 0 q24 1 37.5 -9.5 q13.5 -10.5 13.5 -25.5 q0 -14 -13.5 -24.5 q-13.5 -10.5 -37.5 -10.5 l-283 0 q-52 0 -76 18 q-24 18 -30 47 q-6 29 -7 84 q-1 8 -1 24 l0 429 q-14 4 -22 13.5 q-8 9.5 -8 20.5 q0 15 12 25 q12 10 32 9 l484 -21 ZM523 343 q21 -1 32 -12 q11 -11 11 -24 q0 -15 -11.5 -25 q-11.5 -10 -31.5 -9 l-302 17 q-21 1 -32.5 12 q-11.5 11 -11.5 25 q0 14 12 24 q12 10 32 9 l302 -17 Z" /><glyph glyph-name="F" unicode="F" d="M149 5 q0 -24 -10 -37.5 q-10 -13.5 -25 -13.5 q-15 0 -25.5 14 q-10.5 14 -9.5 37 l0 473 q0 16 1 24 q1 55 7 84 q6 29 30 47 q24 18 76 18 l371 0 q24 0 37.5 -10.5 q13.5 -10.5 13.5 -24.5 q0 -15 -13.5 -25.5 q-13.5 -10.5 -37.5 -9.5 l-362 0 q-24 0 -35.5 -5.5 q-11.5 -5.5 -14.5 -18 q-3 -12.5 -3 -38.5 l0 -34 l0 -480 ZM513 330 q21 -1 32 -12 q11 -11 11 -24 q0 -15 -11.5 -25 q-11.5 -10 -31.5 -9 l-302 17 q-21 1 -32.5 12 q-11.5 11 -11.5 25 q0 14 12 24 q12 10 32 9 l302 -17 Z" /><glyph glyph-name="G" unicode="G" d="M356 259 q67 22 127 22 q59 0 103.5 -20.5 q44.5 -20.5 69 -57.5 q24.5 -37 24.5 -85 q0 -62 -42 -129 q-15 -19 -35 -19 q-14 0 -24 9 q-10 9 -10 23 q0 14 8 27 q28 42 31 79 q-29 -28 -65.5 -57 q-36.5 -29 -66.5 -42 q-73 -34 -142 -34 q-74 0 -135 40 l1 0 q-59 32 -97 90 q-52 79 -52 186 q0 58 13 116 q19 86 68 160 q47 70 105 98 q37 16 94 16 q51 0 93 -10.5 q42 -10.5 88 -32.5 q40 -19 70 -39 q8 -5 22.5 -15 q14.5 -10 19.5 -16.5 q5 -6.5 7 -17.5 q1 -3 1 -9 q0 -15 -10 -25 q-10 -10 -28 -10 q-19 0 -32 10 q-1 1 -6.5 5 q-5.5 4 -15.5 11 q-95 64 -185 64 q-79 0 -135.5 -52 q-56.5 -52 -79.5 -152 q-12 -52 -12 -100 q0 -68 32 -122.5 q32 -54.5 83.5 -85 q51.5 -30.5 107.5 -30.5 q48 0 89 22 q26 14 65.5 48 q39.5 34 53.5 50 q5 5 18 7 q-33 24 -94 24 q-49 0 -107 -16 q-12 -4 -17 -4 q-14 0 -23 11 q-9 11 -9 25 q0 13 7.5 23.5 q7.5 10.5 21.5 14.5 Z" /><glyph glyph-name="H" unicode="H" d="M593 612 q1 22 11.5 33.5 q10.5 11.5 24.5 11.5 q14 0 24.5 -11 q10.5 -11 9.5 -30 l-18 -577 q-1 -22 -11 -33.5 q-10 -11.5 -25 -11.5 q-14 0 -24 11 q-10 11 -10 31 l8 248 l-419 21 l9 -311 q0 -20 -10 -31 q-10 -11 -24 -11 q-15 0 -25 11.5 q-10 11.5 -11 33.5 l-20 659 q-1 19 9.5 30 q10.5 11 24.5 11 q14 0 24.5 -11.5 q10.5 -11.5 11.5 -33.5 l8 -277 l424 -21 l8 258 Z" /><glyph glyph-name="I" unicode="I" d="M165 15 q0 -20 -10 -31 q-10 -11 -24 -11 q-15 0 -25 11.5 q-10 11.5 -11 33.5 l-20 628 q-1 19 9.5 30 q10.5 11 24.5 11 q14 0 24.5 -11.5 q10.5 -11.5 11.5 -33.5 l20 -627 Z" /><glyph glyph-name="J" unicode="J" d="M356 208 q-5 89 -23 194 q-17 98 -44 198 q-2 10 -2 15 q0 14 5.5 25 q5.5 11 16.5 15 q6 2 10 2 q13 0 25.5 -10 q12.5 -10 17.5 -23 l9 -30 q10 -33 32 -145 q18 -92 23 -173 q3 -66 3 -74 q0 -53 -10 -87 q-17 -60 -62 -96.5 q-45 -36.5 -105 -48.5 q-24 -5 -52 -5 q-48 0 -82 23 q-34 23 -62 72 q-21 36 -21 69 q0 24 10 39 q10 15 25 15 q13 0 24.5 -13.5 q11.5 -13.5 17.5 -39.5 q2 -6 7 -19.5 q5 -13.5 10 -22.5 q26 -46 93 -46 q33 0 65 25 q32 25 51.5 64 q19.5 39 17.5 77 Z" /><glyph glyph-name="K" unicode="K" d="M633 599 q14 6 24 6 q16 0 25.5 -9.5 q9.5 -9.5 9.5 -22.5 q0 -24 -26 -36 l-431 -201 q-15 -7 -29 -5 l-26 -350 q-1 -18 -11.5 -28.5 q-10.5 -10.5 -23.5 -10.5 q-15 0 -25.5 13 q-10.5 13 -8.5 36 l49 658 q1 18 11 27.5 q10 9.5 24 9.5 q15 0 25.5 -13 q10.5 -13 8.5 -35 l-18 -236 l422 197 ZM640 125 q13 -6 19.5 -15.5 q6.5 -9.5 6.5 -19.5 q0 -13 -9.5 -23 q-9.5 -10 -24.5 -10 q-11 0 -25 6 l-288 143 q-13 6 -19.5 15.5 q-6.5 9.5 -6.5 19.5 q0 13 9.5 23 q9.5 10 25.5 10 q11 0 24 -6 l288 -143 Z" /><glyph glyph-name="L" unicode="L" d="M166 140 l0 -34 q0 -26 3 -38.5 q3 -12.5 14.5 -18 q11.5 -5.5 35.5 -5.5 l314 0 q24 1 37.5 -9.5 q13.5 -10.5 13.5 -25.5 q0 -14 -13.5 -24.5 q-13.5 -10.5 -37.5 -10.5 l-323 0 q-52 0 -76 18 q-24 18 -30 47 q-6 29 -7 84 q-1 8 -1 24 l0 474 q-1 23 9.5 37 q10.5 14 25.5 14 q14 0 24.5 -13.5 q10.5 -13.5 10.5 -37.5 l0 -481 Z" /><glyph glyph-name="M" unicode="M" d="M441 503 q41 62 84.5 91.5 q43.5 29.5 85.5 29.5 q56 0 103 -49.5 q47 -49.5 74 -134.5 q27 -85 27 -187 q0 -107 -30 -210 q-7 -24 -19 -36.5 q-12 -12.5 -25 -12.5 q-12 0 -21 11 q-9 11 -9 29 q0 16 5 28 q23 65 23 163 q0 78 -16 152 q-16 74 -46 120.5 q-30 46.5 -69 46.5 q-62 0 -133 -124 q-15 -27 -33 -27 q-11 0 -20 7.5 q-9 7.5 -13 20.5 q-28 51 -68.5 79 q-40.5 28 -80.5 28 q-52 0 -87 -47.5 q-35 -47.5 -35 -138.5 q0 -117 58 -272 q6 -16 6 -30 q0 -17 -8 -27 q-8 -10 -20 -10 q-20 0 -37 27 l-29 50 q-46 142 -46 254 q0 87 26.5 149 q26.5 62 70.5 93 q44 31 97 31 q49 0 97.5 -26.5 q48.5 -26.5 87.5 -77.5 Z" /><glyph glyph-name="N" unicode="N" d="M130 624 q-2 20 8.5 31 q10.5 11 25.5 11 q24 0 37 -20 l408 -505 l72 441 q4 18 14.5 27 q10.5 9 23.5 9 q13 0 23 -9.5 q10 -9.5 10 -25.5 q0 -3 -2 -13 l-83 -507 q-5 -17 -15 -26.5 q-10 -9.5 -23 -9.5 q-21 0 -37 25 l-392 485 l-1 -538 q2 -20 -8 -32 q-10 -12 -25 -12 q-14 0 -24.5 11 q-10.5 11 -12.5 32 l1 626 Z" /><glyph glyph-name="O" unicode="O" d="M433 -45 q-93 0 -166.5 44 q-73.5 44 -115 125 q-41.5 81 -41.5 188 q0 126 46 207 q46 81 119 118.5 q73 37.5 158 37.5 q157 0 239.5 -96 q82.5 -96 82.5 -267 q0 -110 -42 -191 q-42 -81 -115 -123.5 q-73 -42.5 -165 -42.5 ZM432 25 q74 0 131 34 q57 34 89.5 98 q32.5 64 32.5 151 q0 141 -64.5 219 q-64.5 78 -188.5 78 q-66 0 -123 -29 q-57 -29 -93 -95 q-36 -66 -36 -173 q0 -88 32 -152 q32 -64 89 -97.5 q57 -33.5 131 -33.5 Z" /><glyph glyph-name="P" unicode="P" d="M251 672 q77 24 140 24 q87 0 151 -39 q64 -39 97 -101.5 q33 -62.5 33 -132.5 q0 -68 -31.5 -126.5 q-31.5 -58.5 -95.5 -94.5 q-64 -36 -157 -36 q-42 0 -89.5 12.5 q-47.5 12.5 -91.5 33.5 l12 -253 q2 -20 -8 -32 q-10 -12 -25 -12 q-14 0 -24.5 11 q-10.5 11 -12.5 32 l-33 706 q-2 19 8 31 q10 12 25 12 q14 0 24.5 -11 q10.5 -11 12.5 -32 l1 -27 q36 26 64 35 ZM393 244 q96 11 145.5 63 q49.5 52 49.5 120 q0 48 -24 90.5 q-24 42.5 -69 69 q-45 26.5 -105 26.5 q-79 0 -167 -47 q-9 -5 -15 -10 q-6 -5 -7 -6 l-9 -6 l11 -236 q33 -29 80 -47 q47 -18 90 -18 q14 0 20 1 Z" /><glyph glyph-name="Q" unicode="Q" d="M692 45 q13 -16 13 -33 q0 -14 -9 -23 q-9 -9 -22 -9 q-18 0 -32 17 l-32 42 q-83 -68 -202 -68 q-93 0 -166.5 44 q-73.5 44 -115 125 q-41.5 81 -41.5 188 q0 126 46 207 q46 81 119 118.5 q73 37.5 158 37.5 q157 0 239.5 -96 q82.5 -96 82.5 -267 q0 -145 -72 -239 l34 -44 ZM407 41 q93 0 159 54 l-19 24 q-14 17 -14 33 q0 14 9.5 23.5 q9.5 9.5 22.5 9.5 q18 0 32 -17 l16 -21 q47 72 47 177 q0 141 -64.5 219 q-64.5 78 -188.5 78 q-66 0 -123 -29 q-57 -29 -93 -95 q-36 -66 -36 -173 q0 -88 32 -152 q32 -64 89 -97.5 q57 -33.5 131 -33.5 Z" /><glyph glyph-name="R" unicode="R" d="M626 53 q13 -16 13 -33 q0 -14 -9 -23 q-9 -9 -22 -9 q-18 0 -32 17 l-134 123 q-16 18 -14 35 q-24 -2 -40 -2 q-49 0 -103 12.5 q-54 12.5 -100 35.5 l12 -255 q2 -20 -8 -32 q-10 -12 -25 -12 q-14 0 -24.5 11 q-10.5 11 -12.5 32 l-33 706 q-2 19 8 31 q10 12 25 12 q14 0 24.5 -11 q10.5 -11 12.5 -32 l1 -28 q3 2 23 15.5 q20 13.5 43 20.5 q77 24 139 24 q87 0 150.5 -39.5 q63.5 -39.5 96.5 -103.5 q33 -64 33 -134 q0 -79 -41 -143.5 q-41 -64.5 -118 -92.5 l1 -1 l134 -124 ZM373 239 q96 11 146 60.5 q50 49.5 50 115.5 q0 47 -25.5 89.5 q-25.5 42.5 -72.5 69 q-47 26.5 -110 26.5 q-73 0 -158 -39 q-9 -4 -15 -9 q-6 -5 -7 -7 l-11 -7 l11 -233 q33 -30 80.5 -48.5 q47.5 -18.5 92.5 -18.5 q13 0 19 1 Z" /><glyph glyph-name="S" unicode="S" d="M309 -42 q-9 -1 -25 -1 q-80 0 -145 46 q-34 23 -45 39 q-20 29 -20 52 q0 14 7 22 q7 8 20 8 q26 0 60 -34 q32 -28 84 -48 q28 -11 57 -11 q49 0 96 32 q40 25 44 59 q2 34 -22 62 q-27 32 -57 43.5 q-30 11.5 -78 19.5 q-37 6 -61.5 12.5 q-24.5 6.5 -50.5 19.5 q-56 28 -86.5 74 q-30.5 46 -30.5 104 q0 18 3 36 q18 82 89.5 125 q71.5 43 167.5 43 q80 0 153 -29 q42 -17 71.5 -43.5 q29.5 -26.5 40.5 -58.5 q2 -10 2 -14 q0 -19 -11 -30.5 q-11 -11.5 -27 -11.5 q-14 0 -26 10 q-12 10 -18 28 q-8 26 -43 43.5 q-35 17.5 -81 25.5 q-46 8 -86 6 q-46 -2 -91.5 -31.5 q-45.5 -29.5 -59.5 -70.5 q-2 -18 -2 -26 q0 -39 17 -66 q17 -27 55 -48 q45 -24 143 -41 q49 -14 74.5 -27 q25.5 -13 55.5 -45 q20 -21 30 -48.5 q10 -27.5 10 -56.5 q0 -75 -60.5 -118 q-60.5 -43 -153.5 -51 Z" /><glyph glyph-name="T" unicode="T" d="M629 623 q21 -1 32 -12 q11 -11 11 -24 q0 -15 -11.5 -25 q-11.5 -10 -31.5 -9 l-244 10 l25 -571 q0 -20 -10 -31 q-10 -11 -24 -11 q-15 0 -25 11.5 q-10 11.5 -11 33.5 l-25 570 l-225 9 q-21 1 -32.5 12 q-11.5 11 -11.5 25 q0 14 12 24 q12 10 32 9 l539 -21 Z" /><glyph glyph-name="U" unicode="U" d="M208 130 q0 -32 9 -47 q9 -15 24 -19 q15 -4 42 -4 l261 0 l34 0 q26 0 38.5 3 q12.5 3 18 14.5 q5.5 11.5 5.5 35.5 l0 484 q-1 24 9.5 37.5 q10.5 13.5 25.5 13.5 q14 0 24.5 -13.5 q10.5 -13.5 10.5 -37.5 l0 -493 q0 -52 -18 -76 q-18 -24 -47 -30 q-29 -6 -84 -7 q-8 -1 -24 -1 l-247 0 q-60 0 -92.5 12.5 q-32.5 12.5 -46 41 q-13.5 28.5 -13.5 80.5 l0 482 q-1 23 9.5 37 q10.5 14 25.5 14 q14 0 24.5 -13.5 q10.5 -13.5 10.5 -37.5 l0 -476 Z" /><glyph glyph-name="V" unicode="V" d="M719 649 q3 13 11.5 20 q8.5 7 19.5 7 q14 0 24.5 -10 q10.5 -10 10.5 -27 q0 -11 -6 -26 q-39 -180 -109.5 -352.5 q-70.5 -172.5 -180.5 -266.5 q-7 -8 -15 -13 q-10 -10 -25 -10 q-18 0 -36 19 q-96 66 -166 176.5 q-70 110.5 -111 228.5 q-41 118 -57 219 q-6 15 -6 26 q0 17 10.5 27 q10.5 10 24.5 10 q11 0 19.5 -6.5 q8.5 -6.5 11.5 -20.5 q15 -94 54.5 -207.5 q39.5 -113.5 104 -221 q64.5 -107.5 148.5 -175.5 q67 66 119.5 170.5 q52.5 104.5 86 205.5 q33.5 101 67.5 227 Z" /><glyph glyph-name="W" unicode="W" d="M512 104 q-36 -55 -79 -82.5 q-43 -27.5 -88 -27.5 q-65 0 -123 55 q-58 55 -93.5 156.5 q-35.5 101.5 -35.5 234.5 q0 54 8 124 q5 38 21 59 q16 21 34 21 q14 0 23.5 -13 q9.5 -13 9.5 -37 q0 -6 -2 -20 q-11 -79 -11 -141 q0 -106 24.5 -186.5 q24.5 -80.5 64.5 -124 q40 -43.5 85 -43.5 q37 0 71 31 q34 31 59 93 q4 13 13 20.5 q9 7.5 20 7.5 q18 0 33 -27 q75 -130 137 -130 q43 0 74 57 q31 57 47 139.5 q16 82.5 16 154.5 q0 31 -3 53 q-1 5 -1 15 q0 25 11 41.5 q11 16.5 25 16.5 q13 0 23.5 -13.5 q10.5 -13.5 14.5 -40.5 q7 -39 7 -89 q0 -99 -30 -197.5 q-30 -98.5 -82 -161 q-52 -62.5 -113 -62.5 q-82 0 -160 117 Z" /><glyph glyph-name="X" unicode="X" d="M669 100 q11 -14 11 -28 q0 -14 -9 -23.5 q-9 -9.5 -23 -9.5 q-20 0 -36 20 l-195 223 l-206 -297 q-16 -24 -37 -24 q-13 0 -22.5 9.5 q-9.5 9.5 -9.5 23.5 q0 13 9 26 l219 317 l-252 288 q-11 12 -11 27 q0 14 9.5 23 q9.5 9 23.5 9 q20 0 36 -19 l235 -269 l158 229 q17 24 38 24 q14 0 23 -9.5 q9 -9.5 9 -23.5 q0 -13 -8 -25 l-173 -249 l211 -242 Z" /><glyph glyph-name="Y" unicode="Y" d="M621 635 q18 34 40 34 q11 0 19 -10 q8 -10 8 -26 q0 -18 -10 -37 q-42 -100 -114.5 -179.5 q-72.5 -79.5 -183.5 -159.5 l19 -262 q0 -20 -10 -31 q-10 -11 -24 -11 q-15 0 -25 11.5 q-10 11.5 -11 33.5 l-20 271 l-2 4 q-88 76 -141.5 161 q-53.5 85 -77.5 199 q-5 17 -5 28 q0 19 8.5 31 q8.5 12 20.5 12 q11 0 21.5 -10 q10.5 -10 17.5 -30 q23 -109 72.5 -191.5 q49.5 -82.5 129.5 -153.5 q97 73 162.5 148 q65.5 75 105.5 168 Z" /><glyph glyph-name="Z" unicode="Z" d="M568 57 q21 -1 32 -12 q11 -11 11 -24 q0 -15 -11.5 -25 q-11.5 -10 -31.5 -9 l-290 3 q-21 1 -32 11.5 q-11 10.5 -11 25.5 q0 7 1 10 q2 10 7 19 l284 525 l-435 4 q-21 1 -32.5 12 q-11.5 11 -11.5 25 q0 14 12 24 q12 10 32 9 l480 -4 q21 -1 32 -12 q11 -11 11 -24 l0 -5 q0 -13 -7 -27 l-284 -523 l244 -3 Z" /><glyph glyph-name="a" unicode="a" d="M527 42 q0 -20 -10 -31 q-10 -11 -24 -11 q-15 0 -25 11.5 q-10 11.5 -11 33.5 q-22 -16 -56 -31 q-71 -32 -135 -32 q-65 0 -111.5 33 q-46.5 33 -70 87 q-23.5 54 -23.5 115 q0 61 24 115 q24 54 71.5 87.5 q47.5 33.5 114.5 33.5 q62 0 133 -30 q9 -3 30 -15 l-2 35 q-1 19 9.5 30 q10.5 11 24.5 11 q14 0 24.5 -11.5 q10.5 -11.5 11.5 -33.5 l25 -397 ZM422 122 q7 10 29 15 l-10 162 q-18 3 -30 20 q-15 26 -58.5 41.5 q-43.5 15.5 -88.5 15.5 q-19 0 -35 -3 q-46 -16 -69.5 -55 q-23.5 -39 -23.5 -88 q0 -51 24 -96 q24 -45 65 -62 q21 -9 47 -9 q38 0 79.5 16.5 q41.5 16.5 70.5 42.5 Z" /><glyph glyph-name="b" unicode="b" d="M496 384 q27 -31 40.5 -79 q13.5 -48 13.5 -100 q0 -43 -9 -80.5 q-9 -37.5 -26 -61.5 q-33 -47 -92 -71 q-38 -13 -78 -13 q-61 0 -121 27 q-33 14 -56 33 q-1 -21 -11.5 -33 q-10.5 -12 -24.5 -12 q-14 0 -24 11.5 q-10 11.5 -10 31.5 l15 579 q1 22 11.5 33.5 q10.5 11.5 24.5 11.5 q14 0 24.5 -11 q10.5 -11 9.5 -30 l-6 -225 q20 16 44 26 q56 25 117 25 q48 0 90 -15.5 q42 -15.5 68 -46.5 ZM403 67 q36 16 55 52.5 q19 36.5 19 82.5 q0 51 -23.5 96.5 q-23.5 45.5 -64.5 66.5 q-24 4 -38 4 q-43 0 -82.5 -15 q-39.5 -15 -54.5 -40 q-15 -21 -39 -21 l-5 -160 l1 0 q24 -6 32 -16 q34 -29 72 -45 q38 -16 74 -16 q29 0 54 11 Z" /><glyph glyph-name="c" unicode="c" d="M478 59 q-28 -37 -87 -63 q-48 -22 -105 -22 q-44 0 -94 16 q-59 24 -89 71 q-21 33 -32 76 q-11 43 -11 89 q0 49 13 92 q13 43 38 72 q30 36 84 58 q54 22 110 22 q48 0 89 -18 q26 -12 47.5 -28.5 q21.5 -16.5 31.5 -32.5 q13 -22 13 -39 q0 -15 -9 -24 q-9 -9 -23 -9 q-27 0 -53 26 q-12 21 -42 33.5 q-30 12.5 -65 12.5 q-38 0 -68 -15 q-41 -20 -64.5 -68 q-23.5 -48 -23.5 -102 q0 -48 19 -86.5 q19 -38.5 55 -54.5 q31 -13 62 -13 q35 0 70.5 14 q35.5 14 67.5 41 q27 17 49 17 q15 0 23.5 -7.5 q8.5 -7.5 8.5 -21.5 q0 -16 -15 -36 Z" /><glyph glyph-name="d" unicode="d" d="M532 -11 q0 -20 -10 -31 q-10 -11 -24 -11 q-15 0 -25 11.5 q-10 11.5 -11 33.5 l-1 54 q-24 -18 -55 -32 q-60 -27 -121 -27 q-40 0 -78 13 q-59 24 -92 71 q-17 24 -26 61.5 q-9 37.5 -9 80.5 q0 52 13.5 100 q13.5 48 40.5 79 q26 31 68 46.5 q42 15.5 90 15.5 q61 0 117 -25 q23 -10 43 -25 l-5 224 q-1 19 9.5 30 q10.5 11 24.5 11 q14 0 24.5 -11.5 q10.5 -11.5 11.5 -33.5 l15 -635 ZM427 125 q8 10 31 16 l-3 160 q-25 0 -39 21 q-15 25 -54.5 40 q-39.5 15 -82.5 15 q-14 0 -38 -4 q-41 -21 -64.5 -66.5 q-23.5 -45.5 -23.5 -96.5 q0 -46 19 -82.5 q19 -36.5 55 -52.5 q25 -11 54 -11 q36 0 74 16 q38 16 72 45 Z" /><glyph glyph-name="e" unicode="e" d="M176 124 q-5 0 -6 1 l-7 0 q24 -37 68 -59.5 q44 -22.5 101 -22.5 q18 0 27 1 q30 3 47 -7 q17 -10 17 -26 q0 -16 -16.5 -28 q-16.5 -12 -44.5 -13 q-95 0 -158 29 q-63 29 -102 89 q-32 56 -32 118 q0 68 36.5 129.5 q36.5 61.5 100.5 96.5 q59 33 107 33 q62 -2 111 -33 q49 -31 76 -77.5 q27 -46.5 27 -93.5 q0 -47 -29 -81.5 q-29 -34.5 -86 -45.5 q-35 -6 -82 -10.5 q-47 -4.5 -87 -4.5 q-38 0 -68 5 ZM379 202 q60 11 76 29 q4 7 4 23 q0 17 -4 36 q-4 19 -11 32 q-38 71 -133 73 q-38 3 -74 -20 q-36 -23 -61 -64 l0 1 q-19 -35 -24.5 -61.5 q-5.5 -26.5 -4.5 -68.5 l1 1 l0 -1 q11 4 45 6 q34 2 41 2 q36 1 76.5 4 q40.5 3 68.5 8 Z" /><glyph glyph-name="f" unicode="f" d="M448 384 q21 -1 32 -12 q11 -11 11 -24 q0 -15 -11.5 -25 q-11.5 -10 -31.5 -9 l-172 8 l0 -317 q0 -24 -10 -37.5 q-10 -13.5 -25 -13.5 q-15 0 -25.5 14 q-10.5 14 -9.5 37 l0 320 l-130 6 q-21 1 -32.5 12 q-11.5 11 -11.5 25 q0 14 12 24 q12 10 32 9 l130 -6 l0 83 q0 16 1 24 q1 55 7 84 q6 29 30 47 q24 18 76 18 l105 0 q24 0 37.5 -10.5 q13.5 -10.5 13.5 -24.5 q0 -15 -13.5 -25.5 q-13.5 -10.5 -37.5 -9.5 l-96 0 q-24 0 -35.5 -5.5 q-11.5 -5.5 -14.5 -18 q-3 -12.5 -3 -38.5 l0 -34 l0 -93 l172 -8 Z" /><glyph glyph-name="g" unicode="g" d="M446 438 q0 24 10.5 37.5 q10.5 13.5 24.5 13.5 q15 0 25.5 -14 q10.5 -14 9.5 -37 l0 -413 q0 -16 -1 -24 q-1 -55 -7 -84 q-6 -29 -30 -47 q-24 -18 -76 -18 l-169 0 q-24 0 -37.5 10.5 q-13.5 10.5 -13.5 24.5 q0 15 13.5 25.5 q13.5 10.5 37.5 9.5 l160 0 q24 0 35.5 5.5 q11.5 5.5 14.5 18 q3 12.5 3 38.5 l0 34 l0 111 q-19 -13 -49 -26 q-79 -35 -144 -35 q-62 0 -106.5 29 q-44.5 29 -67 75.5 q-22.5 46.5 -22.5 99.5 q0 52 22.5 98.5 q22.5 46.5 68 75.5 q45.5 29 108.5 29 q65 0 144 -33 q26 -11 46 -26 l0 22 ZM418 211 q7 9 28 15 l0 91 q-24 0 -39 21 q-15 26 -58.5 41.5 q-43.5 15.5 -88.5 15.5 q-18 0 -35 -3 q-47 -16 -70 -45 q-23 -29 -23 -65 q0 -37 24 -70 q24 -33 65 -51 q21 -9 47 -9 q38 0 79.5 16.5 q41.5 16.5 70.5 42.5 Z" /><glyph glyph-name="h" unicode="h" d="M491 351 q28 -30 44 -72 q16 -42 16 -90 q0 -92 -58 -171 q-15 -19 -35 -19 q-14 0 -24 9 q-10 9 -10 23 q0 14 8 27 q26 41 36.5 69 q10.5 28 10.5 54 q0 17 -3 33 q-7 48 -42 91 q-10 13 -34 24 q-24 11 -55 16 q-30 4 -49 4 q-55 0 -116 -17 q-11 -5 -23 -3 l10 -314 q0 -20 -10 -31 q-10 -11 -24 -11 q-15 0 -25 11.5 q-10 11.5 -11 33.5 l-20 628 q-1 19 9.5 30 q10.5 11 24.5 11 q14 0 24.5 -11.5 q10.5 -11.5 11.5 -33.5 l8 -242 q2 2 5 2 q78 19 139 19 q36 0 66 -6 q41 -8 74.5 -26 q33.5 -18 51.5 -38 Z" /><glyph glyph-name="i" unicode="i" d="M150 631 q13 -16 13 -33 q0 -14 -9 -23 q-9 -9 -22 -9 q-18 0 -32 17 l-36 32 q-14 17 -14 33 q0 14 9.5 23.5 q9.5 9.5 22.5 9.5 q18 0 32 -17 l36 -33 ZM155 -5 q1 -20 -9 -31.5 q-10 -11.5 -25 -11.5 q-14 0 -24.5 11.5 q-10.5 11.5 -11.5 32.5 l-24 456 q-1 19 9.5 31 q10.5 12 24.5 12 q14 0 24.5 -11.5 q10.5 -11.5 11.5 -32.5 l24 -456 Z" /><glyph glyph-name="j" unicode="j" d="M250 624 q13 -16 13 -33 q0 -14 -9 -23 q-9 -9 -22 -9 q-18 0 -32 17 l-36 32 q-14 17 -14 33 q0 14 9.5 23.5 q9.5 9.5 22.5 9.5 q18 0 32 -17 l36 -33 ZM208 425 q0 24 10.5 37.5 q10.5 13.5 24.5 13.5 q15 0 25.5 -14 q10.5 -14 9.5 -37 l0 -393 q0 -16 -1 -24 q-1 -55 -7 -84 q-6 -29 -30 -47 q-24 -18 -76 -18 l-107 0 q-24 0 -37.5 10.5 q-13.5 10.5 -13.5 24.5 q0 15 13.5 25.5 q13.5 10.5 37.5 9.5 l98 0 q24 0 35.5 5.5 q11.5 5.5 14.5 18 q3 12.5 3 38.5 l0 34 l0 400 Z" /><glyph glyph-name="k" unicode="k" d="M205 246 q-5 -3 -17 -5 l-10 -250 q-1 -18 -11.5 -28.5 q-10.5 -10.5 -23.5 -10.5 q-15 0 -25.5 13 q-10.5 13 -8.5 36 l24 622 q1 18 11 27.5 q10 9.5 24 9.5 q15 0 25.5 -13 q10.5 -13 8.5 -35 l-11 -296 l281 116 q14 6 24 6 q16 0 25.5 -9.5 q9.5 -9.5 9.5 -22.5 q0 -24 -26 -36 l-300 -124 ZM524 103 q26 -13 26 -37 q0 -13 -9.5 -22 q-9.5 -9 -24.5 -9 q-12 0 -25 6 l-197 116 q-13 6 -19.5 15.5 q-6.5 9.5 -6.5 19.5 q0 13 9.5 23 q9.5 10 25.5 10 q11 0 24 -6 l197 -116 Z" /><glyph glyph-name="l" unicode="l" d="M145 5 q-1 -18 -11.5 -28.5 q-10.5 -10.5 -23.5 -10.5 q-15 0 -25.5 13 q-10.5 13 -8.5 36 l24 602 q1 18 11 27.5 q10 9.5 24 9.5 q15 0 25.5 -13 q10.5 -13 8.5 -35 l-24 -601 Z" /><glyph glyph-name="m" unicode="m" d="M413 313 q52 75 103 111.5 q51 36.5 95 36.5 q61 0 98.5 -64 q37.5 -64 37.5 -172 q0 -101 -35 -221 q-7 -25 -19 -37 q-12 -12 -25 -12 q-12 0 -21 11 q-9 11 -9 29 q0 16 5 28 q30 89 30 187 q0 76 -19.5 125 q-19.5 49 -55.5 49 q-29 0 -67.5 -37.5 q-38.5 -37.5 -83.5 -116.5 q-15 -27 -33 -27 q-11 0 -20 7.5 q-9 7.5 -13 20.5 q-33 62 -83 101 q-50 39 -92 39 q-35 0 -56 -29.5 q-21 -29.5 -21 -89.5 q0 -88 47 -229 q6 -18 6 -33 q0 -18 -8 -29 q-8 -11 -20 -11 q-10 0 -20 8.5 q-10 8.5 -17 24.5 q-61 134 -61 249 q0 65 19 114.5 q19 49.5 53 76.5 q34 27 77 27 q48 0 101 -34 q53 -34 107 -103 Z" /><glyph glyph-name="n" unicode="n" d="M506 362 q28 -30 44 -74 q16 -44 16 -94 q0 -96 -58 -175 q-15 -19 -35 -19 q-14 0 -24 9 q-10 9 -10 23 q0 14 8 27 q26 40 36.5 71 q10.5 31 10.5 60 q0 19 -3 35 q-7 48 -42 91 q-10 13 -34 24 q-24 11 -55 16 q-30 4 -55 4 q-69 0 -130 -17 q-11 -5 -24 -3 l11 -314 q0 -20 -10 -31 q-10 -11 -24 -11 q-15 0 -25 11.5 q-10 11.5 -11 33.5 l-13 381 q-1 19 9.5 30 q10.5 11 24.5 11 q13 0 23.5 -10 q10.5 -10 12.5 -30 l6 2 q78 19 154 19 q41 0 71 -6 q41 -8 74.5 -26 q33.5 -18 51.5 -38 Z" /><glyph glyph-name="o" unicode="o" d="M312 -37 q-67 0 -117 38.5 q-50 38.5 -76.5 100.5 q-26.5 62 -26.5 130 q0 65 24 120 q24 55 73.5 89 q49.5 34 122.5 34 q72 0 121.5 -34 q49.5 -34 74 -89 q24.5 -55 24.5 -119 q0 -68 -26.5 -130.5 q-26.5 -62.5 -76.5 -101 q-50 -38.5 -117 -38.5 ZM311 405 q-73 0 -112 -50.5 q-39 -50.5 -39 -122.5 q0 -50 18.5 -96 q18.5 -46 53 -74.5 q34.5 -28.5 79.5 -28.5 q46 0 80.5 28 q34.5 28 53 73.5 q18.5 45.5 18.5 94.5 q0 73 -39.5 124.5 q-39.5 51.5 -112.5 51.5 Z" /><glyph glyph-name="p" unicode="p" d="M178 452 q71 32 135 32 q65 0 111.5 -33.5 q46.5 -33.5 70 -88 q23.5 -54.5 23.5 -116.5 q0 -62 -23 -116.5 q-23 -54.5 -68.5 -88 q-45.5 -33.5 -109.5 -33.5 q-62 0 -136 35 l-16 8 l11 -158 q2 -23 -8.5 -36 q-10.5 -13 -26.5 -13 q-13 0 -23.5 10.5 q-10.5 10.5 -11.5 28.5 l-41 579 q-2 23 8.5 36 q10.5 13 25.5 13 q14 0 24 -10 q10 -10 11 -28 l3 -42 q16 10 41 21 ZM357 101 q41 17 65 62 q24 45 24 96 q0 49 -23.5 88 q-23.5 39 -69.5 55 q-14 2 -25 2 q-46 0 -103 -19 q-57 -19 -81 -44 l13 -187 l3 -3 q29 -26 70.5 -42.5 q41.5 -16.5 79.5 -16.5 q26 0 47 9 Z" /><glyph glyph-name="q" unicode="q" d="M506 -107 q24 1 37.5 -9.5 q13.5 -10.5 13.5 -25.5 q0 -14 -13.5 -24.5 q-13.5 -10.5 -37.5 -10.5 l-16 0 q-52 0 -76 18 q-24 18 -30 47 q-6 29 -7 84 q-1 8 -1 24 l0 10 q-54 -18 -103 -18 q-44 0 -77 12 q-59 24 -92 71 q-16 23 -24 57 q-8 34 -8 73 q0 54 15.5 106 q15.5 52 43.5 85 q26 31 66 46.5 q40 15.5 86 15.5 q59 0 115 -25 q26 -12 47.5 -28.5 q21.5 -16.5 31.5 -32.5 q8 -18 8 -30 q0 -17 -11.5 -27 q-11.5 -10 -28.5 -10 q-25 0 -40 21 q-15 25 -54 39.5 q-39 14.5 -82 14.5 q-15 0 -39 -4 q-41 -21 -64.5 -66.5 q-23.5 -45.5 -23.5 -96.5 q0 -45 19 -81.5 q19 -36.5 55 -52.5 q25 -11 54 -11 q51 0 106 33 l0 132 q-1 23 9.5 37 q10.5 14 25.5 14 q15 0 25 -13.5 q10 -13.5 10 -37.5 l0 -240 l0 -34 q0 -26 3 -38.5 q3 -12.5 14.5 -18 q11.5 -5.5 35.5 -5.5 l7 0 Z" /><glyph glyph-name="r" unicode="r" d="M368 454 q29 -1 45 -13 q16 -12 16 -27 q0 -13 -10.5 -20.5 q-10.5 -7.5 -28.5 -6.5 q-30 4 -45 4 q-104 0 -189 -83 l27 -310 q2 -21 -8.5 -33 q-10.5 -12 -25.5 -12 q-13 0 -24 11.5 q-11 11.5 -12 31.5 l-40 455 q-2 20 8.5 32 q10.5 12 25.5 12 q13 0 23.5 -11 q10.5 -11 12.5 -31 l6 -64 q78 69 174 69 q15 0 45 -4 Z" /><glyph glyph-name="s" unicode="s" d="M173 272 q10 -12 26.5 -19 q16.5 -7 45.5 -16 q39 -12 63.5 -24.5 q24.5 -12.5 41.5 -35.5 q22 -41 22 -82 q0 -57 -39 -95 q-39 -38 -104 -38 q-30 0 -64.5 12.5 q-34.5 12.5 -61 34 q-26.5 21.5 -35.5 47.5 q-2 8 -2 20 q0 20 9 30 q9 10 23 10 q14 0 28 -10 q14 -10 20 -26 q7 -20 30 -32 q23 -12 49 -12 q19 0 34 7.5 q15 7.5 22 21.5 q11 20 11 39 q0 27 -20 47 q-20 20 -54 23 q-63 10 -104 54 q-37 41 -37 94 q0 50 32.5 92.5 q32.5 42.5 84.5 55.5 q16 3 35 3 q58 0 116.5 -27.5 q58.5 -27.5 81.5 -69.5 l0 1 q8 -13 8 -28 q0 -16 -10 -26.5 q-10 -10.5 -24 -10.5 q-26 0 -44 31 q-14 26 -41 39.5 q-27 13.5 -59 13.5 q-42 0 -74.5 -20.5 q-32.5 -20.5 -32.5 -51.5 q0 -25 23 -52 Z" /><glyph glyph-name="t" unicode="t" d="M444 388 q20 1 31.5 -9 q11.5 -10 11.5 -25 q0 -13 -11 -24 q-11 -11 -32 -12 l-172 2 l0 -170 l0 -34 q0 -26 3 -38.5 q3 -12.5 14.5 -18 q11.5 -5.5 35.5 -5.5 l60 0 q24 1 37.5 -9.5 q13.5 -10.5 13.5 -25.5 q0 -14 -13.5 -24.5 q-13.5 -10.5 -37.5 -10.5 l-69 0 q-52 0 -76 18 q-24 18 -30 47 q-6 29 -7 84 q-1 8 -1 24 l0 164 l-117 1 q-20 -1 -32 9 q-12 10 -12 24 q0 14 11.5 25 q11.5 11 32.5 12 l117 -1 l0 139 q-1 23 9.5 37 q10.5 14 25.5 14 q15 0 25 -13.5 q10 -13.5 10 -37.5 l0 -140 l172 -2 Z" /><glyph glyph-name="u" unicode="u" d="M515 15 q0 -20 -10 -31 q-10 -11 -24 -11 q-15 0 -25 11.5 q-10 11.5 -11 33.5 l0 6 q-96 -23 -158 -23 q-26 0 -45 4 q-41 8 -74.5 26 q-33.5 18 -51.5 38 q-28 30 -44 76 q-16 46 -16 98 q0 46 14 92.5 q14 46.5 44 86.5 q15 21 37 21 q14 0 23.5 -9 q9.5 -9 9.5 -24 q0 -13 -9 -28 q-47 -72 -47 -140 q0 -19 3 -36 q7 -48 42 -91 q10 -13 34 -24 q24 -11 55 -16 q18 -2 29 -2 q55 0 148 25 l1 0 l-22 328 q-1 19 9.5 30 q10.5 11 24.5 11 q14 0 24.5 -11.5 q10.5 -11.5 11.5 -33.5 l27 -407 Z" /><glyph glyph-name="v" unicode="v" d="M74 427 q0 19 11 31.5 q11 12.5 25 12.5 q12 0 21 -9.5 q9 -9.5 13 -29.5 q20 -182 58 -278.5 q38 -96.5 85 -96.5 q45 0 91.5 87 q46.5 87 88.5 257 q12 36 36 36 q13 0 22.5 -12 q9.5 -12 9.5 -30 q0 -9 -3 -20 q-28 -129 -68.5 -219 q-40.5 -90 -86.5 -135 q-46 -45 -92 -45 q-49 0 -92 49.5 q-43 49.5 -74 149 q-31 99.5 -44 242.5 l-1 10 Z" /><glyph glyph-name="w" unicode="w" d="M347 88 q-82 -100 -151 -100 q-43 0 -75 37.5 q-32 37.5 -49 101.5 q-17 64 -17 141 q0 74 17 154 q4 17 11 25.5 q7 8.5 15 8.5 q15 0 25.5 -21 q10.5 -21 7.5 -53 q-4 -49 -4 -99 q0 -106 22.5 -156.5 q22.5 -50.5 58.5 -50.5 q26 0 55 25.5 q29 25.5 52 68.5 q4 13 13 20.5 q9 7.5 20 7.5 q18 0 33 -27 q67 -119 114 -119 q29 0 45 45.5 q16 45.5 16 116.5 q0 84 -19 164 q-2 8 -2 21 q0 21 9.5 34.5 q9.5 13.5 22.5 13.5 q12 0 22.5 -12.5 q10.5 -12.5 16.5 -37.5 q25 -110 25 -198 q0 -108 -33.5 -169 q-33.5 -61 -88.5 -61 q-37 0 -78.5 30 q-41.5 30 -83.5 89 Z" /><glyph glyph-name="x" unicode="x" d="M484 39 q10 -14 10 -28 q0 -13 -9 -22 q-9 -9 -22 -9 q-21 0 -38 23 l-148 157 l-108 -167 q-14 -30 -39 -30 q-13 0 -22 9 q-9 9 -9 24 q0 12 5 22 l125 193 l-176 188 q-9 14 -9 26 q0 14 9.5 23 q9.5 9 22.5 9 q20 0 37 -23 l154 -164 l116 178 q14 29 38 29 q13 0 22.5 -9.5 q9.5 -9.5 9.5 -23.5 q0 -8 -5 -20 l-133 -205 l169 -180 Z" /><glyph glyph-name="y" unicode="y" d="M440 446 q6 16 16.5 24 q10.5 8 21.5 8 q13 0 22.5 -9 q9.5 -9 9.5 -24 q0 -10 -4 -19 q-111 -285 -290 -542 q-9 -16 -21.5 -24.5 q-12.5 -8.5 -24.5 -8.5 q-12 0 -20 7.5 q-8 7.5 -8 19.5 q0 13 8 26 q66 96 117 185 q-7 6 -13 14 l-193 308 q-9 14 -9 26 q0 14 9.5 23 q9.5 9 22.5 9 q20 0 37 -23 l183 -292 q77 141 136 292 Z" /><glyph glyph-name="z" unicode="z" d="M450 40 q21 -1 32 -12 q11 -11 11 -24 q0 -15 -11.5 -25 q-11.5 -10 -31.5 -9 l-262 3 q-21 1 -32 11.5 q-11 10.5 -11 25.5 q0 7 1 10 q2 10 7 19 l238 353 l-300 3 q-21 1 -32.5 12 q-11.5 11 -11.5 25 q0 14 12 24 q12 10 32 9 l350 -4 q21 -1 32 -12 q11 -11 11 -24 l0 -5 q0 -13 -7 -27 l-238 -351 l211 -2 Z" /><glyph glyph-name="uni4E00" unicode="&#x4e00;" d="M779 427 q21 -1 32 -12 q11 -11 11 -24 q0 -15 -11.5 -25 q-11.5 -10 -31.5 -9 l-572 27 q-21 1 -32.5 12 q-11.5 11 -11.5 25 q0 14 12 24 q12 10 32 9 l572 -27 Z" /><glyph glyph-name="uni4E09" unicode="&#x4e09;" d="M246 549 q-20 0 -31 10 q-11 10 -11 24 q0 15 12 25.5 q12 10.5 33 9.5 l508 -6 q17 -1 27 -12 q10 -11 10 -26 q0 -13 -10.5 -22.5 q-10.5 -9.5 -30.5 -9.5 l-507 7 ZM702 347 q20 0 30.5 -9.5 q10.5 -9.5 10.5 -23.5 q0 -14 -10.5 -25.5 q-10.5 -11.5 -26.5 -10.5 l-398 3 q-21 1 -33 11.5 q-12 10.5 -12 24.5 q0 14 11 23.5 q11 9.5 31 9.5 l397 -3 ZM754 100 q21 1 33 -9 q12 -10 12 -24 q0 -14 -11 -24.5 q-11 -10.5 -31 -11.5 l-506 -38 q-17 -1 -28.5 10.5 q-11.5 11.5 -11.5 26.5 q0 13 9.5 22.5 q9.5 9.5 28.5 10.5 l505 37 Z" /><glyph glyph-name="uni4E0A" unicode="&#x4e0a;" d="M823 110 q27 1 42 -10 q15 -11 15 -26 q0 -13 -12 -22.5 q-12 -9.5 -33 -10.5 l-649 -23 q-27 -1 -42 10 q-15 11 -15 26 q0 13 12 22.5 q12 9.5 33 10.5 l222 8 l0 1 l27 572 q1 25 12 38 q11 13 25 13 q14 0 24 -14 q10 -14 9 -37 l-10 -201 l250 -20 q25 -2 38 -13 q13 -11 13 -25 q0 -15 -14 -24.5 q-14 -9.5 -37 -7.5 l-253 20 l-14 -300 l357 13 Z" /><glyph glyph-name="uni4E0B" unicode="&#x4e0b;" d="M829 678 q23 1 35.5 -8 q12.5 -9 12.5 -24 q0 -14 -12.5 -25.5 q-12.5 -11.5 -35.5 -12.5 l-336 -17 q1 -3 1 -9 l27 -591 q1 -23 -9.5 -37 q-10.5 -14 -24.5 -14 q-14 0 -24.5 13.5 q-10.5 13.5 -11.5 37.5 l-27 591 l0 5 l-250 -13 q-23 -1 -35.5 8.5 q-12.5 9.5 -12.5 23.5 q0 14 12.5 25.5 q12.5 11.5 35.5 12.5 l655 34 ZM839 275 q24 -17 24 -38 q0 -13 -9.5 -22 q-9.5 -9 -23.5 -9 q-15 0 -32 12 l-187 131 q-25 17 -25 39 q0 13 9.5 21.5 q9.5 8.5 23.5 8.5 q15 0 33 -12 l187 -131 Z" /><glyph glyph-name="uni4E0D" unicode="&#x4e0d;" d="M491 574 q-150 -299 -335 -453 q-29 -22 -49 -22 q-12 0 -18.5 7 q-6.5 7 -6.5 19 q0 21 18 40 q93 77 173 183 q80 106 144 229 l-259 9 q-22 1 -33.5 10 q-11.5 9 -11.5 22 q0 16 15 27 q15 11 42 10 l629 -23 q22 -1 33.5 -10 q11.5 -9 11.5 -22 q0 -15 -15 -26.5 q-15 -11.5 -42 -10.5 l-296 11 ZM552 -45 q1 -23 -8.5 -36 q-9.5 -13 -23.5 -13 q-14 0 -25 14.5 q-11 14.5 -12 40.5 l-13 462 q-1 23 8.5 36 q9.5 13 23.5 13 q15 0 26 -14.5 q11 -14.5 12 -40.5 l12 -462 ZM833 218 q14 -18 14 -35 q0 -13 -8.5 -22 q-8.5 -9 -21.5 -9 q-23 0 -42 25 l-138 176 q-14 18 -14 36 q0 13 8 21.5 q8 8.5 20 8.5 q22 0 44 -26 l138 -175 Z" /><glyph glyph-name="uni4E0E" unicode="&#x4e0e;" d="M739 352 q52 0 76 -18 q24 -18 30 -47 q6 -29 7 -84 q1 -8 1 -24 l0 -76 q0 -60 -12.5 -92.5 q-12.5 -32.5 -41 -46 q-28.5 -13.5 -80.5 -13.5 l-102 0 q-24 0 -37.5 10 q-13.5 10 -13.5 25 q0 15 13.5 25 q13.5 10 37.5 10 l96 0 q32 0 47 9 q15 9 19 24 q4 15 4 42 l0 90 l0 34 q0 26 -3 38.5 q-3 12.5 -14.5 18 q-11.5 5.5 -35.5 5.5 l-330 0 q-57 0 -81 21 q-24 21 -28.5 52 q-4.5 31 -4.5 100 l0 212 q0 24 10.5 37.5 q10.5 13.5 24.5 13.5 q15 0 25 -13.5 q10 -13.5 10 -37.5 l0 -80 l412 12 q24 1 38 -9.5 q14 -10.5 14 -24.5 q0 -14 -13.5 -24 q-13.5 -10 -37.5 -11 l-413 -12 l0 -70 l0 -34 q0 -26 3 -38.5 q3 -12.5 14.5 -18 q11.5 -5.5 35.5 -5.5 l330 0 ZM552 188 q26 1 40.5 -8.5 q14.5 -9.5 14.5 -23.5 q0 -14 -14.5 -25 q-14.5 -11 -39.5 -12 l-319 -8 q-25 -1 -39 8.5 q-14 9.5 -14 23.5 q0 14 14.5 25.5 q14.5 11.5 38.5 12.5 l318 7 Z" /><glyph glyph-name="uni4E14" unicode="&#x4e14;" d="M820 68 q20 0 30 -8.5 q10 -8.5 10 -21.5 q0 -15 -12.5 -27.5 q-12.5 -12.5 -33.5 -12.5 l-666 5 q-20 4 -30.5 13.5 q-10.5 9.5 -10.5 21.5 q0 14 12.5 24.5 q12.5 10.5 34.5 10.5 l87 -1 l2 524 q0 39 26 64.5 q26 25.5 66 25.5 l297 0 q40 0 66 -25.5 q26 -25.5 26 -64.5 l0 -527 l96 -1 ZM311 72 l342 -3 l0 159 l-216 -13 q-22 -1 -34.5 9.5 q-12.5 10.5 -12.5 25.5 q0 14 11 24 q11 10 30 11 l222 12 l0 259 q0 26 -17.5 43 q-17.5 17 -43.5 17 l-219 0 q-25 0 -42.5 -17 q-17.5 -17 -17.5 -43 l0 -60 l217 -17 q20 -1 30 -11 q10 -10 10 -23 q0 -15 -12.5 -26 q-12.5 -11 -33.5 -10 l-211 17 l-2 -354 Z" /><glyph glyph-name="uni4E1A" unicode="&#x4e1a;" d="M841 72 q21 -1 32.5 -11.5 q11.5 -10.5 11.5 -25.5 q0 -20 -13.5 -26.5 q-13.5 -6.5 -42.5 -5.5 l-630 27 q-21 1 -32.5 11.5 q-11.5 10.5 -11.5 25.5 q0 20 13.5 26.5 q13.5 6.5 42.5 5.5 l147 -6 l0 3 l-38 529 q-1 22 8.5 35.5 q9.5 13.5 26.5 13.5 q15 0 24 -13.5 q9 -13.5 11 -36.5 l38 -528 l0 -6 l130 -6 l41 614 q2 23 11 36.5 q9 13.5 24 13.5 q17 0 26.5 -13.5 q9.5 -13.5 8.5 -35.5 l-41 -618 l213 -9 ZM756 177 q-15 0 -26 10 q-11 10 -11 28 q0 8 1 12 l49 226 q5 25 12.5 37.5 q7.5 12.5 22.5 12.5 q15 0 25.5 -10.5 q10.5 -10.5 10.5 -27.5 q0 -7 -1 -11 l-49 -227 q-6 -27 -13 -38.5 q-7 -11.5 -21 -11.5 ZM173 438 q-1 4 -1 12 q0 16 10.5 26.5 q10.5 10.5 25.5 10.5 q14 0 21.5 -12 q7.5 -12 13.5 -38 l43 -168 q2 -10 2 -13 q0 -18 -11 -27.5 q-11 -9.5 -27 -9.5 q-14 0 -20.5 11 q-6.5 11 -13.5 39 l-43 169 Z" /><glyph glyph-name="uni4E24" unicode="&#x4e24;" d="M251 650 q-22 1 -33.5 11 q-11.5 10 -11.5 23 q0 15 15 25.5 q15 10.5 42 9.5 l537 -27 q22 -1 33.5 -11 q11.5 -10 11.5 -23 q0 -15 -15 -25.5 q-15 -10.5 -42 -9.5 l-537 27 ZM737 523 q52 0 76 -18 q24 -18 30 -47 q6 -29 7 -84 q1 -8 1 -24 l0 -209 q0 -60 -12.5 -92.5 q-12.5 -32.5 -41 -46 q-28.5 -13.5 -80.5 -13.5 l-32 0 q-23 -1 -37 9.5 q-14 10.5 -14 25.5 q0 15 13.5 25 q13.5 10 37.5 10 l26 0 q32 0 47 9 q15 9 19 24 q4 15 4 42 l0 223 l0 34 q0 26 -3 38.5 q-3 12.5 -14.5 18 q-11.5 5.5 -35.5 5.5 l-82 0 q-26 -97 -44 -154 q14 -7 26 -19 l70 -70 q18 -18 18 -35 q0 -11 -8.5 -18.5 q-8.5 -7.5 -21.5 -7.5 q-24 0 -48 24 l-58 59 q-22 -64 -40 -109 q-9 -21 -21.5 -32 q-12.5 -11 -25.5 -11 q-12 0 -19.5 8.5 q-7.5 8.5 -7.5 22.5 q0 9 5 24 q60 155 103 318 l-175 0 q-14 -59 -25 -97 q21 -4 38 -18 l53 -43 q21 -17 21 -35 q0 -11 -9 -19 q-9 -8 -22 -8 q-22 0 -45 19 l-53 43 l-1 1 q-21 -63 -42 -119 q-8 -21 -21 -32 q-13 -11 -26 -11 q-12 0 -19.5 8.5 q-7.5 8.5 -7.5 22.5 q0 9 5 24 q48 125 82 264 l-77 0 q-24 -1 -37.5 9.5 q-13.5 10.5 -13.5 25.5 q0 14 13.5 24.5 q13.5 10.5 37.5 10.5 l93 0 l12 61 q4 22 14.5 33 q10.5 11 22.5 11 q13 0 23 -12 q10 -12 10 -31 q0 -8 -1 -13 q-7 -36 -10 -49 l177 0 l10 46 q5 22 15.5 33 q10.5 11 23.5 11 q13 0 22.5 -11 q9.5 -11 9.5 -30 q0 -5 -2 -15 l-7 -34 l74 0 ZM128 392 q1 26 11.5 40 q10.5 14 24.5 14 q14 0 23.5 -12.5 q9.5 -12.5 9.5 -35.5 l-8 -346 q-1 -26 -11.5 -40 q-10.5 -14 -25.5 -14 q-14 0 -24 12.5 q-10 12.5 -9 35.5 l9 346 Z" /><glyph glyph-name="uni4E2A" unicode="&#x4e2a;" d="M464 646 q18 18 36 18 q14 0 22 -10 l335 -336 q13 -14 13 -30 q0 -13 -9 -22.5 q-9 -9.5 -23 -9.5 q-18 0 -35 17 l-306 307 l-313 -314 q-17 -17 -35 -17 q-13 0 -22.5 9.5 q-9.5 9.5 -9.5 22.5 q0 16 13 30 l334 335 ZM533 -29 q-1 -22 -11.5 -34.5 q-10.5 -12.5 -24.5 -12.5 q-13 0 -23 12 q-10 12 -11 35 l1 362 q1 21 12 32 q11 11 24 11 q15 0 25 -11.5 q10 -11.5 9 -31.5 l-1 -362 Z" /><glyph glyph-name="uni4E2D" unicode="&#x4e2d;" d="M728 552 q41 0 68 -20.5 q27 -20.5 27 -52.5 l0 -205 q0 -37 -26.5 -57 q-26.5 -20 -68.5 -20 l-197 0 l2 -204 q-1 -22 -12 -33.5 q-11 -11.5 -25 -11.5 q-14 0 -24.5 11.5 q-10.5 11.5 -9.5 31.5 l-2 206 l-165 0 q-44 0 -69.5 19.5 q-25.5 19.5 -25.5 57.5 l0 205 q0 33 26 53 q26 20 69 20 l161 0 l-1 120 q1 21 12.5 32.5 q11.5 11.5 25.5 11.5 q15 0 25 -11.5 q10 -11.5 9 -31.5 l1 -121 l200 0 ZM459 267 l-2 215 l-132 0 q-24 0 -39.5 -10 q-15.5 -10 -15.5 -29 l0 -131 q0 -23 15 -34 q15 -11 40 -11 l134 0 ZM753 443 q0 19 -15 29 q-15 10 -40 10 l-169 0 l2 -215 l167 0 q25 0 40 11 q15 11 15 34 l0 131 Z" /><glyph glyph-name="uni4E34" unicode="&#x4e34;" d="M486 438 q-6 -17 -16 -25.5 q-10 -8.5 -22 -8.5 q-13 0 -22.5 10 q-9.5 10 -9.5 25 q0 8 3 17 l118 291 q6 17 16.5 25.5 q10.5 8.5 21.5 8.5 q13 0 23 -10 q10 -10 10 -26 q0 -7 -3 -16 l-26 -63 l253 -16 q21 -1 32 -11.5 q11 -10.5 11 -24.5 q0 -15 -11.5 -25 q-11.5 -10 -31.5 -9 l-281 18 l-65 -160 ZM265 670 q1 21 12 32 q11 11 24 11 q15 0 25 -11.5 q10 -11.5 9 -31.5 l-18 -588 q-1 -21 -11.5 -32 q-10.5 -11 -24.5 -11 q-15 0 -25 11.5 q-10 11.5 -9 31.5 l18 588 ZM90 514 q1 21 12 32 q11 11 24 11 q15 0 25 -11.5 q10 -11.5 9 -31.5 l-18 -244 q-1 -21 -11.5 -32 q-10.5 -11 -24.5 -11 q-15 0 -25 11.5 q-10 11.5 -9 31.5 l18 244 ZM767 508 q21 -1 32.5 -11.5 q11.5 -10.5 11.5 -25.5 q0 -20 -13.5 -26.5 q-13.5 -6.5 -42.5 -5.5 l-122 3 q-21 1 -32.5 11.5 q-11.5 10.5 -11.5 25.5 q0 20 13.5 26.5 q13.5 6.5 42.5 5.5 l122 -3 ZM739 363 q43 0 78 -20 q35 -20 55 -55 q20 -35 20 -78 l0 -68 q0 -43 -20 -78 q-20 -35 -55 -55 q-35 -20 -78 -20 l-194 0 q-43 0 -78 20 q-35 20 -55 55 q-20 35 -20 78 l0 68 q0 43 20 78 q20 35 55 55 q35 20 78 20 l194 0 ZM832 182 q0 53 -34 87 q-34 34 -87 34 l-138 0 q-52 0 -86.5 -34 q-34.5 -34 -34.5 -87 l0 -12 q0 -52 34.5 -86.5 q34.5 -34.5 86.5 -34.5 l138 0 q53 0 87 34.5 q34 34.5 34 86.5 l0 12 ZM712 211 q21 -1 32.5 -11.5 q11.5 -10.5 11.5 -25.5 q0 -20 -13.5 -26.5 q-13.5 -6.5 -42.5 -5.5 l-122 3 q-21 1 -32.5 11.5 q-11.5 10.5 -11.5 25.5 q0 20 13.5 26.5 q13.5 6.5 42.5 5.5 l122 -3 Z" /><glyph glyph-name="uni4E3A" unicode="&#x4e3a;" d="M679 571 q52 0 76 -18 q24 -18 30 -47 q6 -29 7 -84 q1 -8 1 -24 l0 -244 q0 -60 -12.5 -92.5 q-12.5 -32.5 -41 -46 q-28.5 -13.5 -80.5 -13.5 l-32 0 q-23 -1 -36.5 8.5 q-13.5 9.5 -13.5 26.5 q0 17 13 26 q13 9 37 9 l26 0 q32 0 47 9 q15 9 19 24 q4 15 4 42 l0 258 l0 34 q0 26 -3 38.5 q-3 12.5 -14.5 18 q-11.5 5.5 -35.5 5.5 l-222 0 q-35 -129 -89 -269 q-54 -140 -102 -231 q-14 -27 -39 -27 q-13 0 -22.5 8.5 q-9.5 8.5 -9.5 21.5 q0 8 5 18 q46 81 97.5 215 q51.5 134 87.5 265 l-215 0 q-23 -1 -36.5 8.5 q-13.5 9.5 -13.5 25.5 q0 17 13.5 26.5 q13.5 9.5 36.5 9.5 l233 0 q23 96 27 158 q0 17 9.5 26 q9.5 9 22.5 9 q15 0 26 -11 q11 -11 11 -32 q0 -9 -1 -13 q-4 -58 -23 -138 l213 0 ZM188 661 q-22 15 -22 37 q0 14 9.5 23.5 q9.5 9.5 23.5 9.5 q11 0 25 -9 l79 -57 q22 -16 22 -37 q0 -14 -9.5 -23.5 q-9.5 -9.5 -22.5 -9.5 q-12 0 -25 9 l-80 57 ZM595 310 q23 -1 34.5 -11.5 q11.5 -10.5 11.5 -25.5 q0 -14 -10 -23.5 q-10 -9.5 -29 -9.5 l-98 1 q-22 1 -34 11.5 q-12 10.5 -12 25.5 q0 14 10.5 23.5 q10.5 9.5 29.5 9.5 l97 -1 Z" /><glyph glyph-name="uni4E3B" unicode="&#x4e3b;" d="M433 717 q-16 16 -16 33 q0 14 9 23.5 q9 9.5 22 9.5 q17 0 33 -16 l83 -80 q14 -13 14 -30 q0 -14 -9 -24 q-9 -10 -22 -10 q-16 0 -33 16 l-81 78 ZM249 525 q-21 0 -33 11 q-12 11 -12 26 q0 13 11 22.5 q11 9.5 32 9.5 l562 5 q19 0 30 -11 q11 -11 11 -26 q0 -14 -11 -23.5 q-11 -9.5 -32 -9.5 l-558 -4 ZM843 54 q22 1 34.5 -9 q12.5 -10 12.5 -24 q0 -14 -10.5 -24.5 q-10.5 -10.5 -27.5 -11.5 l-611 -26 q-22 -1 -34 8.5 q-12 9.5 -12 23.5 q0 14 11.5 25 q11.5 11 30.5 12 l251 11 l1 220 l-163 3 q-21 0 -32 9.5 q-11 9.5 -11 23.5 q0 15 12 26 q12 11 33 10 l161 -3 l1 118 q1 21 12 32 q11 11 24 11 q15 0 25 -11.5 q10 -11.5 9 -31.5 l-1 -119 l137 -2 q21 0 32 -10 q11 -10 11 -23 q0 -15 -11 -26.5 q-11 -11.5 -30 -10.5 l-139 3 l-1 -216 l285 12 Z" /><glyph glyph-name="uni4E48" unicode="&#x4e48;" d="M424 686 q17 14 33 14 q14 0 23.5 -9.5 q9.5 -9.5 9.5 -22.5 q0 -18 -17 -32 l-260 -218 q-17 -14 -33 -14 q-14 0 -23 10 q-9 10 -9 23 q0 16 13 28 l263 221 ZM892 56 q4 -8 4 -17 q0 -16 -11 -27.5 q-11 -11.5 -25 -11.5 q-20 0 -33 27 l-8 16 l-2 0 l-401 -22 q-53 -3 -88.5 30.5 q-35.5 33.5 -35.5 87.5 q0 28 10 55 q16 45 64 94 q48 49 103 90 q55 41 137 97 l60 41 q24 17 45 17 q15 0 23.5 -7.5 q8.5 -7.5 8.5 -18.5 q0 -19 -23 -36 q-39 -29 -100 -69 q-111 -75 -171 -123.5 q-60 -48.5 -77 -91.5 q-8 -20 -8 -38 q0 -29 19.5 -43.5 q19.5 -14.5 41.5 -14.5 l363 20 l-59 127 q-5 10 -5 23 q0 16 9.5 27 q9.5 11 22.5 11 q20 0 34 -28 l102 -215 Z" /><glyph glyph-name="uni4E49" unicode="&#x4e49;" d="M397 652 q-16 16 -16 33 q0 14 9 23.5 q9 9.5 22 9.5 q17 0 33 -16 l83 -80 q14 -13 14 -30 q0 -14 -9 -24 q-9 -10 -22 -10 q-16 0 -33 16 l-81 78 ZM750 50 q13 -12 13 -25 q0 -13 -10 -22 q-10 -9 -25 -9 q-18 0 -33 15 q-105 71 -209 175 q-80 -103 -172 -194 q-15 -21 -37 -21 q-14 0 -23.5 8.5 q-9.5 8.5 -9.5 21.5 q0 10 9 22 q93 87 187 211 q-71 75 -126.5 152 q-55.5 77 -85.5 143 q-9 17 -9 30 q0 16 10.5 26 q10.5 10 24.5 10 q24 0 32 -24 q27 -62 78 -135.5 q51 -73.5 116 -146.5 q65 93 112 184.5 q47 91.5 64 164.5 q3 14 12 21.5 q9 7.5 21 7.5 q14 0 24.5 -10 q10.5 -10 10.5 -28 q0 -12 -4 -23 q-19 -77 -70.5 -172.5 q-51.5 -95.5 -123.5 -193.5 q114 -119 224 -188 Z" /><glyph glyph-name="uni4E5F" unicode="&#x4e5f;" d="M735 537 q52 0 76 -18 q24 -18 30 -47 q6 -29 7 -84 q1 -8 1 -24 l0 -18 q0 -60 -12.5 -92.5 q-12.5 -32.5 -41 -46 q-28.5 -13.5 -80.5 -13.5 l-52 0 q-23 -1 -37 9.5 q-14 10.5 -14 25.5 q0 15 13.5 25 q13.5 10 37.5 10 l46 0 q32 0 47 9 q15 9 19 24 q4 15 4 42 l0 32 l0 34 q0 26 -3 38.5 q-3 12.5 -14.5 18 q-11.5 5.5 -35.5 5.5 l-130 0 l-7 -208 q-1 -21 -11.5 -32 q-10.5 -11 -24.5 -11 q-15 0 -25 11.5 q-10 11.5 -9 31.5 l7 208 l-209 0 l0 -303 l0 -34 q0 -26 3 -38.5 q3 -12.5 14.5 -18 q11.5 -5.5 35.5 -5.5 l314 0 q24 1 37.5 -9.5 q13.5 -10.5 13.5 -25.5 q0 -14 -13.5 -24.5 q-13.5 -10.5 -37.5 -10.5 l-323 0 q-52 0 -76 18 q-24 18 -30 47 q-6 29 -7 84 q-1 8 -1 24 l0 296 l-68 0 q-24 -1 -37.5 9.5 q-13.5 10.5 -13.5 25.5 q0 14 13.5 24.5 q13.5 10.5 37.5 10.5 l68 0 l0 37 q-1 23 9.5 37 q10.5 14 25.5 14 q15 0 25 -13.5 q10 -13.5 10 -37.5 l0 -37 l211 0 l3 100 q1 21 12 32 q11 11 24 11 q15 0 25 -11.5 q10 -11.5 9 -31.5 l-3 -100 l137 0 Z" /><glyph glyph-name="uni4E60" unicode="&#x4e60;" d="M488 26 q0 16 13 24.5 q13 8.5 37 8.5 l118 0 q32 0 47.5 8.5 q15.5 8.5 19 23.5 q3.5 15 4.5 43 l-1 371 l0 34 q0 27 -3.5 39.5 q-3.5 12.5 -14.5 18 q-11 5.5 -36 5.5 l-401 4 q-24 -1 -36.5 9 q-12.5 10 -12.5 28 q0 16 13 24.5 q13 8.5 36 8.5 l411 -4 q52 0 76 -18 q24 -18 30 -46.5 q6 -28.5 7 -83.5 l1 -25 l0 -358 q0 -60 -12 -92.5 q-12 -32.5 -40.5 -46 q-28.5 -13.5 -80.5 -13.5 l-124 0 q-24 -1 -37.5 9 q-13.5 10 -13.5 28 ZM260 456 q6 24 33 24 q13 0 25 -4 l131 -39 q42 -13 42 -39 q0 -3 -2 -9 q-8 -23 -35 -23 q-11 0 -23 4 l-131 39 q-23 7 -33 19.5 q-10 12.5 -7 27.5 ZM195 144 q0 13 10.5 23.5 q10.5 10.5 30.5 14.5 l284 60 q14 3 24 3 q27 0 34 -22 q2 -6 2 -9 q0 -14 -11.5 -24.5 q-11.5 -10.5 -30.5 -14.5 l-284 -60 q-13 -3 -25 -3 q-34 0 -34 32 Z" /><glyph glyph-name="uni4E86" unicode="&#x4e86;" d="M658 672 q47 -55 47 -128 q0 -90 -69 -185 l11 -204 q0 -16 -1 -24 q-1 -55 -7 -84 q-6 -29 -30 -47 q-24 -18 -76 -18 l-22 0 q-23 0 -36.5 9.5 q-13.5 9.5 -13.5 26.5 q0 16 13.5 25.5 q13.5 9.5 36.5 8.5 l13 0 q24 0 35.5 5.5 q11.5 5.5 14.5 18 q3 12.5 3 38.5 l0 34 l-11 215 l0 3 q-1 3 -0.5 6 q0.5 3 0.5 5 q3 19 13 28 q29 47 43.5 81 q14.5 34 14.5 61 q0 43 -36 79 q-31 31 -89 40 q-30 5 -100 5 q-116 0 -166 -15 q-12 -4 -17 -4 q-14 0 -23 11 q-9 11 -9 25 q0 13 7.5 23.5 q7.5 10.5 21.5 14.5 q33 8 87.5 12.5 q54.5 4.5 108.5 4.5 q70 0 110 -7 q41 -8 75 -26 q34 -18 51 -38 Z" /><glyph glyph-name="uni4E8E" unicode="&#x4e8e;" d="M844 320 q3 -18 -9.5 -30 q-12.5 -12 -36.5 -11 l-214 4 l8 -116 q4 -52 4 -77 q0 -61 -22 -96 q-22 -35 -83 -40 l-34 -3 q-25 -2 -39 7 q-14 9 -14 28 q0 15 12.5 24.5 q12.5 9.5 34.5 10.5 l25 2 q29 2 40 17.5 q11 15.5 11 47.5 q0 15 -4 67 l-9 129 l-272 5 q-29 1 -41.5 7 q-12.5 6 -12.5 25 q0 17 12 27.5 q12 10.5 35 9.5 l274 -5 l-17 250 l-215 -8 q-27 -1 -39.5 3.5 q-12.5 4.5 -16.5 20.5 q-1 3 -1 8 q0 16 12 26 q12 10 33 11 l439 15 q29 -1 40.5 -4.5 q11.5 -3.5 14.5 -19.5 q1 -3 1 -8 q0 -15 -11.5 -25 q-11.5 -10 -32.5 -11 l-154 -6 l17 -253 l212 -4 q30 -4 40 -8 q10 -4 13 -20 Z" /><glyph glyph-name="uni4E91" unicode="&#x4e91;" d="M318 595 q-21 1 -32.5 12 q-11.5 11 -11.5 25 q0 14 12 24 q12 10 32 9 l318 -17 q21 -1 32 -12 q11 -11 11 -24 q0 -15 -11.5 -25 q-11.5 -10 -31.5 -9 l-318 17 ZM798 377 q21 -1 32 -12 q11 -11 11 -24 q0 -15 -11.5 -25 q-11.5 -10 -31.5 -9 l-283 3 q-4 -12 -21 -24 q-39 -26 -95.5 -80 q-56.5 -54 -70.5 -76 q-13 -22 -13 -39 q0 -26 22.5 -41.5 q22.5 -15.5 43.5 -15.5 l285 0 l-39 92 q-5 12 -5 21 q0 17 10 28 q10 11 23 11 q21 0 33 -27 l70 -161 q4 -8 4 -17 q0 -16 -11 -28 q-11 -12 -25 -12 q-20 0 -31 24 q-5 -1 -16 -1 l-307 0 q-52 0 -91 33 q-39 33 -39 81 q0 28 16 59 q44 84 156 174 l-210 2 q-21 1 -32.5 12 q-11.5 11 -11.5 25 q0 14 12 24 q12 10 32 9 l594 -6 Z" /><glyph glyph-name="uni4EA4" unicode="&#x4ea4;" d="M461 771 q-4 12 -4 18 q0 15 9 24 q9 9 21 9 q27 0 42 -37 l26 -67 q3 -9 3 -18 q0 -15 -9.5 -24.5 q-9.5 -9.5 -21.5 -9.5 q-12 0 -23 9.5 q-11 9.5 -17 29.5 l-26 66 ZM782 642 q19 -1 30 -11.5 q11 -10.5 11 -24.5 q0 -15 -13.5 -24.5 q-13.5 -9.5 -39.5 -7.5 l-560 32 q-18 1 -29 12 q-11 11 -11 25 q0 14 13.5 23.5 q13.5 9.5 38.5 8.5 l560 -33 ZM317 528 q14 18 33 18 q13 0 22 -8.5 q9 -8.5 9 -22.5 q0 -18 -16 -37 l-118 -155 q-15 -18 -33 -18 q-13 0 -21.5 8 q-8.5 8 -8.5 22 q0 19 15 38 l118 155 ZM776 391 q14 -14 14 -32 q0 -13 -8 -22 q-8 -9 -21 -9 q-18 0 -39 21 l-113 111 q-15 15 -15 32 q0 14 8.5 23.5 q8.5 9.5 21.5 9.5 q19 0 40 -21 l112 -113 ZM692 -29 q22 -15 22 -33 q0 -12 -10 -20.5 q-10 -8.5 -24 -8.5 q-12 0 -25 8 q-93 58 -175 144 q-76 -76 -162 -129 q-14 -8 -26 -8 q-14 0 -24 8 q-10 8 -10 20 q0 18 23 34 q81 54 153 126 q-65 75 -128 178 q-16 19 -16 36 q0 15 10 24 q10 9 24 9 q19 0 31 -19 q62 -103 127 -178 q74 82 137 189 q11 19 31 19 q13 0 23 -9.5 q10 -9.5 10 -23.5 q0 -17 -16 -36 q-64 -107 -139 -190 q79 -83 164 -140 Z" /><glyph glyph-name="uni4EAB" unicode="&#x4eab;" d="M228 665 q-18 1 -29.5 12 q-11.5 11 -11.5 25 q0 14 12 23.5 q12 9.5 37 8.5 l245 -11 q-3 5 -7 17 l-15 44 q-3 9 -3 18 q0 15 8.5 24.5 q8.5 9.5 20.5 9.5 q11 0 22.5 -9.5 q11.5 -9.5 19.5 -28.5 l15 -45 q3 -9 3 -17 q0 -9 -3 -15 l239 -11 q19 -1 31 -11.5 q12 -10.5 12 -24.5 q0 -13 -13 -22.5 q-13 -9.5 -38 -9.5 l-545 23 ZM321 516 q1 18 11 28.5 q10 10.5 24 10.5 q15 0 25.5 -12 q10.5 -12 9.5 -35 l-4 -65 l171 -9 q34 -2 53 16.5 q19 18.5 20 37.5 q1 24 -9 43.5 q-10 19.5 -40 20.5 l-157 8 q-23 2 -35.5 11 q-12.5 9 -12.5 24 q0 18 13.5 27 q13.5 9 38.5 8 l165 -9 q36 -2 60 -22 q24 -20 35.5 -48 q11.5 -28 11.5 -54 q0 -59 -38 -97.5 q-38 -38.5 -103 -35.5 l-197 10 q-19 2 -30 7 q-19 10 -18 32 l6 103 ZM796 147 q25 0 38 -9.5 q13 -9.5 13 -22.5 q0 -14 -12 -24.5 q-12 -10.5 -31 -11.5 l-165 -7 q-1 -52 -7 -81 q-6 -29 -30.5 -46 q-24.5 -17 -75.5 -17 l-34 0 q-23 0 -36.5 9.5 q-13.5 9.5 -13.5 26.5 q0 16 13.5 25.5 q13.5 9.5 36.5 8.5 l25 0 q26 0 37 6 q11 6 13.5 19.5 q2.5 13.5 2.5 45.5 l-311 -14 q-25 -1 -37 8.5 q-12 9.5 -12 23.5 q0 14 11.5 25 q11.5 11 29.5 12 l319 13 q0 8 1 12 q-5 10 -5 17 q0 11 9 17 q16 10 16 30 q0 22 -23.5 39.5 q-23.5 17.5 -70.5 17.5 q-56 0 -130 -26 q-3 -1 -10 -1 q-12 0 -22 7 q-10 7 -13 19 q-2 8 -2 12 q0 11 7.5 20 q7.5 9 19.5 13 q92 28 162 28 q79 0 115.5 -34 q36.5 -34 36.5 -84 q0 -38 -21 -75 l0 -9 l156 7 Z" /><glyph glyph-name="uni4EBA" unicode="&#x4eba;" d="M824 110 q24 -20 24 -40 q0 -12 -9 -20.5 q-9 -8.5 -22 -8.5 q-18 0 -32 14 l-321 295 q-68 -87 -141.5 -167.5 q-73.5 -80.5 -131.5 -133.5 q-16 -15 -33 -15 q-14 0 -24.5 9.5 q-10.5 9.5 -10.5 22.5 q0 13 13 25 q70 60 162 165 q92 105 172 217 q80 112 116 193 q4 12 12.5 18 q8.5 6 18.5 6 q14 0 24.5 -10.5 q10.5 -10.5 10.5 -26.5 q0 -13 -9 -30 q-37 -83 -138 -220 l319 -293 Z" /><glyph glyph-name="uni4ED6" unicode="&#x4ed6;" d="M821 537 q55 0 79.5 -19 q24.5 -19 28 -40.5 q3.5 -21.5 6.5 -75.5 l0 -18 q0 -60 -12.5 -92.5 q-12.5 -32.5 -41 -46 q-28.5 -13.5 -80.5 -13.5 l-18 0 q-23 -1 -37 9.5 q-14 10.5 -14 25.5 q0 15 13.5 25 q13.5 10 37.5 10 l12 0 q32 0 47 9 q15 9 19 24 q4 15 4 42 l0 32 q0 5 0.5 24 q0.5 19 -12.5 26.5 q-13 7.5 -41 7.5 l-99 0 l-6 -178 q-1 -21 -11.5 -32 q-10.5 -11 -24.5 -11 q-15 0 -25 11.5 q-10 11.5 -9 31.5 l6 178 l-143 0 l0 -248 l0 -34 q0 -26 3 -38.5 q3 -12.5 14.5 -18 q11.5 -5.5 35.5 -5.5 l273 0 q24 1 37.5 -9.5 q13.5 -10.5 13.5 -25.5 q0 -14 -13.5 -24.5 q-13.5 -10.5 -37.5 -10.5 l-282 0 q-52 0 -76 18 q-24 18 -30 47 q-6 29 -7 84 q-1 8 -1 24 l0 241 l-35 0 q-24 -1 -37.5 9.5 q-13.5 10.5 -13.5 25.5 q0 14 13.5 24.5 q13.5 10.5 37.5 10.5 l35 0 l0 37 q-1 23 9.5 37 q10.5 14 25.5 14 q14 0 24.5 -13.5 q10.5 -13.5 10.5 -37.5 l0 -37 l146 0 l3 83 q1 21 12 32 q11 11 24 11 q15 0 25 -11.5 q10 -11.5 9 -31.5 l-3 -83 l105 0 ZM270 578 q15 16 31 16 q13 0 21.5 -10 q8.5 -10 8.5 -24 q0 -18 -13 -32 q-50 -56 -120.5 -109.5 q-70.5 -53.5 -127.5 -83.5 q-14 -7 -27 -7 q-14 0 -23.5 9.5 q-9.5 9.5 -9.5 21.5 q0 10 6.5 20 q6.5 10 18.5 16 q55 28 119.5 77.5 q64.5 49.5 115.5 105.5 ZM268 119 q1 -23 -10 -35.5 q-11 -12.5 -26 -12.5 q-13 0 -23 10.5 q-10 10.5 -10 28.5 l-3 268 q-1 22 10.5 34 q11.5 12 26.5 12 q13 0 22.5 -9.5 q9.5 -9.5 9.5 -27.5 l3 -268 Z" /><glyph glyph-name="uni4EE4" unicode="&#x4ee4;" d="M852 488 q14 -6 21.5 -15 q7.5 -9 7.5 -19 q0 -12 -10.5 -21 q-10.5 -9 -27.5 -9 q-14 0 -25 5 q-80 31 -148 80 q-68 49 -162 133 q-51 -48 -50 -47 q-86 -80 -141.5 -123.5 q-55.5 -43.5 -119.5 -68.5 q-11 -5 -25 -5 q-17 0 -27.5 9 q-10.5 9 -10.5 21 q0 22 29 34 q65 28 117.5 68.5 q52.5 40.5 133.5 117.5 l63 59 q13 13 30 13 q14 0 25 -9 q3 -1 7 -5 q96 -88 162 -135 q66 -47 151 -83 ZM455 469 q-14 13 -14 30 q0 14 9.5 25 q9.5 11 22.5 11 q15 0 29 -14 l73 -79 q21 -21 21 -42 q0 -13 -8.5 -22 q-8.5 -9 -21.5 -9 q-18 0 -36 19 l-75 81 ZM303 320 q50 13 111 21.5 q61 8.5 117 8.5 q135 0 181 -54 q33 -40 33 -85 q0 -62 -55.5 -124.5 q-55.5 -62.5 -136.5 -110.5 q5 -12 5 -19 q0 -14 -8.5 -22.5 q-8.5 -8.5 -22.5 -8.5 q-18 0 -36 19 l-124 133 q-15 18 -15 34 q0 14 9 23.5 q9 9.5 22 9.5 q16 0 31 -15 l88 -95 q166 97 166 173 q0 22 -13 42 q-20 30 -110 30 q-53 0 -116 -9.5 q-63 -9.5 -106 -20.5 q-10 -2 -13 -2 q-16 0 -26 11 q-10 11 -10 25 q0 12 7.5 22 q7.5 10 21.5 14 Z" /><glyph glyph-name="uni4EE5" unicode="&#x4ee5;" d="M453 472 q6 -13 6 -24 q0 -16 -10 -25.5 q-10 -9.5 -23 -9.5 q-10 0 -19.5 6.5 q-9.5 6.5 -15.5 18.5 l-73 163 q-6 14 -6 24 q0 15 10 25 q10 10 23 10 q10 0 19.5 -6.5 q9.5 -6.5 15.5 -20.5 l73 -161 ZM815 113 q17 -20 17 -37 q0 -13 -9 -21.5 q-9 -8.5 -21 -8.5 q-20 0 -34 20 l-129 185 q-39 -97 -97 -187 q-16 -24 -38 -24 q-14 0 -23.5 8.5 q-9.5 8.5 -9.5 21.5 q0 11 7 21 q74 108 117.5 234.5 q43.5 126.5 67.5 275.5 q1 16 10.5 24 q9.5 8 22.5 8 q15 0 25.5 -10.5 q10.5 -10.5 10.5 -29.5 q0 -12 -2 -18 q-22 -134 -62 -250 q2 -1 3 -3 q1 -2 2 -3 l142 -206 ZM372 160 q24 1 37.5 -9.5 q13.5 -10.5 13.5 -25.5 q0 -14 -13.5 -24.5 q-13.5 -10.5 -37.5 -10.5 l-134 0 q-52 0 -76 18 q-24 18 -30 47 q-6 29 -7 84 q-1 8 -1 24 l0 192 q-1 23 9.5 37 q10.5 14 25.5 14 q14 0 24.5 -13.5 q10.5 -13.5 10.5 -37.5 l0 -199 l0 -34 q0 -26 3 -38.5 q3 -12.5 14.5 -18 q11.5 -5.5 35.5 -5.5 l125 0 Z" /><glyph glyph-name="uni4EEC" unicode="&#x4eec;" d="M559 667 q15 -15 15 -32 q0 -13 -8.5 -21 q-8.5 -8 -21.5 -8 q-22 0 -45 24 l-40 43 q-17 18 -17 36 q0 11 8 18 q8 7 20 7 q24 0 48 -24 l41 -43 ZM792 72 q32 0 47 9 q15 9 19 24 q4 15 4 42 l0 380 l0 34 q0 26 -3 38.5 q-3 12.5 -14.5 18 q-11.5 5.5 -35.5 5.5 l-157 0 q-24 -1 -37.5 9.5 q-13.5 10.5 -13.5 25.5 q0 14 13.5 24.5 q13.5 10.5 37.5 10.5 l166 0 q52 0 76 -18 q24 -18 30 -47 q6 -29 7 -84 q1 -8 1 -24 l0 -366 q0 -60 -12.5 -92.5 q-12.5 -32.5 -41 -46 q-28.5 -13.5 -80.5 -13.5 l-19 0 q-23 -1 -37 9.5 q-14 10.5 -14 25.5 q0 15 13.5 25 q13.5 10 37.5 10 l13 0 ZM311 539 q-89 -99 -219 -167 q-14 -7 -27 -7 q-14 0 -23.5 9.5 q-9.5 9.5 -9.5 21.5 q0 10 6.5 20 q6.5 10 18.5 16 q58 29 107 65.5 q49 36.5 99 91.5 q15 16 31 16 q13 0 21.5 -10 q8.5 -10 8.5 -24 q0 -18 -13 -32 ZM440 142 q-1 -26 -11.5 -40 q-10.5 -14 -25.5 -14 q-14 0 -24 12.5 q-10 12.5 -9 35.5 l9 376 q1 26 11.5 40 q10.5 14 24.5 14 q14 0 23.5 -12.5 q9.5 -12.5 9.5 -35.5 l-8 -376 ZM276 187 q1 -23 -9 -35.5 q-10 -12.5 -25 -12.5 q-13 0 -23.5 10.5 q-10.5 10.5 -11.5 28.5 l-13 211 q-1 22 9.5 34 q10.5 12 25.5 12 q13 0 23 -9.5 q10 -9.5 11 -27.5 l13 -211 Z" /><glyph glyph-name="uni4EF6" unicode="&#x4ef6;" d="M866 270 q25 1 38.5 -9 q13.5 -10 13.5 -24 q0 -14 -11 -24.5 q-11 -10.5 -28 -11.5 l-191 -7 l4 -190 q1 -23 -10 -35.5 q-11 -12.5 -26 -12.5 q-13 0 -23 10.5 q-10 10.5 -10 28.5 l-5 196 l-212 -8 q-25 -3 -39 7 q-14 10 -14 24 q0 14 11 24 q11 10 30 11 l223 10 l-6 236 l-134 7 q-14 -24 -52 -74 q-19 -25 -44 -25 q-13 0 -21.5 7.5 q-8.5 7.5 -8.5 19.5 q0 13 9 23 q23 30 36 49 q13 19 23 40 q2 7 6 11 q12 28 33 89 q10 31 33 31 q13 0 23.5 -12 q10.5 -12 10.5 -29 q0 -10 -2 -15 l-16 -50 l103 -4 l-3 117 q-1 22 10.5 34 q11.5 12 26.5 12 q13 0 22.5 -9.5 q9.5 -9.5 9.5 -27.5 l3 -129 l162 -6 q24 -1 36.5 -11 q12.5 -10 12.5 -24 q0 -14 -12 -25 q-12 -11 -30 -10 l-167 8 l5 -230 l180 8 ZM280 582 q15 16 31 16 q13 0 21.5 -10 q8.5 -10 8.5 -24 q0 -18 -13 -32 q-112 -121 -219 -177 q-18 -8 -29 -8 q-15 0 -25 9.5 q-10 9.5 -10 21.5 q0 21 23 32 q103 54 212 172 ZM278 123 q1 -23 -10 -35.5 q-11 -12.5 -26 -12.5 q-13 0 -23 10.5 q-10 10.5 -10 28.5 l-3 268 q-1 22 10.5 34 q11.5 12 26.5 12 q13 0 22.5 -9.5 q9.5 -9.5 9.5 -27.5 l3 -268 Z" /><glyph glyph-name="uni4EFB" unicode="&#x4efb;" d="M696 281 l5 -194 l124 1 q23 0 35 -9 q12 -9 12 -23 q0 -14 -13 -25 q-13 -11 -34 -12 l-334 -4 q-23 0 -35 9 q-12 9 -12 23 q0 14 13 25 q13 11 34 12 l141 2 l-5 194 l-131 -1 q-23 0 -35 9 q-12 9 -12 23 q0 14 13 25 q13 11 34 12 l129 1 l-5 219 q-80 -13 -145 -13 q-24 0 -38 11 q-14 11 -14 25 q0 13 11 22 q11 9 30 9 q84 1 180 19 q2 1 6 1 q92 20 166 47 q11 4 22 4 q14 0 21 -7.5 q7 -7.5 7 -18.5 q0 -13 -10 -26 q-10 -13 -28 -19 q-62 -23 -139 -41 l6 -231 l158 2 q23 0 35 -9 q12 -9 12 -23 q0 -14 -13 -25 q-13 -11 -34 -12 l-157 -2 ZM300 562 q15 16 31 16 q13 0 21.5 -10 q8.5 -10 8.5 -24 q0 -18 -13 -32 q-51 -57 -110 -104 q-59 -47 -113 -75 q-16 -8 -28 -8 q-15 0 -24 9 q-9 9 -9 22 q0 21 24 34 q103 52 212 172 ZM298 103 q1 -23 -10 -35.5 q-11 -12.5 -26 -12.5 q-13 0 -23 10.5 q-10 10.5 -10 28.5 l-3 268 q-1 22 10.5 34 q11.5 12 26.5 12 q13 0 22.5 -9.5 q9.5 -9.5 9.5 -27.5 l3 -268 Z" /><glyph glyph-name="uni4EFD" unicode="&#x4efd;" d="M535 676 q11 20 29 20 q13 0 22.5 -10 q9.5 -10 9.5 -26 q0 -16 -8 -29 q-30 -55 -83 -123.5 q-53 -68.5 -96 -106.5 q-15 -14 -32 -14 q-14 0 -23 9 q-9 9 -9 22 q0 17 17 33 q43 39 93.5 105 q50.5 66 79.5 120 ZM928 479 q10 -16 10 -30 q0 -14 -9.5 -23 q-9.5 -9 -22.5 -9 q-21 0 -35 21 l-116 159 q-10 16 -10 30 q0 14 9.5 23 q9.5 9 22.5 9 q20 0 33 -21 l118 -159 ZM280 582 q15 16 31 16 q13 0 21.5 -10 q8.5 -10 8.5 -24 q0 -18 -13 -32 q-52 -58 -111 -106 q-59 -48 -113 -76 q-14 -7 -27 -7 q-15 0 -24 9.5 q-9 9.5 -9 22.5 q0 22 24 35 q103 52 212 172 ZM278 123 q1 -23 -10 -35.5 q-11 -12.5 -26 -12.5 q-13 0 -23 10.5 q-10 10.5 -10 28.5 l-3 268 q-1 22 10.5 34 q11.5 12 26.5 12 q13 0 22.5 -9.5 q9.5 -9.5 9.5 -27.5 l3 -268 ZM765 399 q52 0 76 -18 q24 -18 30 -47 q6 -29 7 -84 q1 -8 1 -24 l0 -71 q0 -60 -12.5 -92.5 q-12.5 -32.5 -41 -46 q-28.5 -13.5 -80.5 -13.5 l-32 0 q-23 -1 -37 9.5 q-14 10.5 -14 25.5 q0 14 13.5 24.5 q13.5 10.5 37.5 10.5 l26 0 q32 0 47 9 q15 9 19 24 q4 15 4 42 l0 85 l0 34 q0 26 -3 38.5 q-3 12.5 -14.5 18 q-11.5 5.5 -35.5 5.5 l-124 0 l0 -2 q-4 -74 -24 -158 q-20 -84 -46 -141 q-6 -14 -17 -21.5 q-11 -7.5 -22 -7.5 q-12 0 -21 9 q-9 9 -9 23 q0 12 5 23 q24 57 43 131.5 q19 74.5 23 143.5 l-82 0 q-24 -1 -37.5 9.5 q-13.5 10.5 -13.5 25.5 q0 14 13.5 24.5 q13.5 10.5 37.5 10.5 l283 0 Z" /><glyph glyph-name="uni4F01" unicode="&#x4f01;" d="M875 457 q14 -6 21.5 -15 q7.5 -9 7.5 -19 q0 -12 -10.5 -21 q-10.5 -9 -27.5 -9 q-14 0 -25 5 q-78 31 -148.5 83.5 q-70.5 52.5 -173.5 145.5 q-118 -108 -203.5 -175.5 q-85.5 -67.5 -161.5 -97.5 q-11 -5 -25 -5 q-17 0 -27.5 9 q-10.5 9 -10.5 21 q0 22 29 34 q79 33 163 100 q84 67 206 179 q13 13 30 13 q14 0 25 -9 q3 -1 7 -5 q105 -96 173.5 -148 q68.5 -52 150.5 -86 ZM793 78 q19 -1 29.5 -10.5 q10.5 -9.5 10.5 -22.5 q0 -14 -11.5 -24.5 q-11.5 -10.5 -31.5 -11.5 l-574 -11 q-20 1 -31 12 q-11 11 -11 24 q0 15 12.5 25.5 q12.5 10.5 33.5 8.5 l69 1 l3 231 q1 21 12 32 q11 11 24 11 q15 0 25 -11.5 q10 -11.5 9 -31.5 l-3 -230 l132 3 l8 351 q1 21 12 32 q11 11 24 11 q15 0 25 -11.5 q10 -11.5 9 -31.5 l-2 -90 l208 -24 q16 -3 25.5 -13.5 q9.5 -10.5 9.5 -22.5 q0 -14 -11 -24 q-11 -10 -30 -10 q-7 0 -11 1 l-193 23 l-4 -190 l232 4 Z" /><glyph glyph-name="uni4F18" unicode="&#x4f18;" d="M883 46 q24 1 37.5 -9.5 q13.5 -10.5 13.5 -25.5 q0 -14 -13.5 -24.5 q-13.5 -10.5 -37.5 -10.5 l-139 0 q-52 0 -76 18 q-24 18 -30 47 q-6 29 -7 84 q-1 8 -1 24 l0 244 l0 5 l-31 -1 q-24 -120 -59.5 -233.5 q-35.5 -113.5 -58.5 -158.5 q-7 -14 -17.5 -21.5 q-10.5 -7.5 -20.5 -7.5 q-12 0 -20.5 9 q-8.5 9 -8.5 23 q0 11 6 23 q24 49 56.5 150.5 q32.5 101.5 54.5 214.5 l-117 -2 q-21 0 -32 9.5 q-11 9.5 -11 23.5 q0 14 12 24.5 q12 10.5 34 11.5 l126 2 q18 104 19 194 q1 24 11.5 38.5 q10.5 14.5 24.5 14.5 q13 0 22 -13 q9 -13 9 -37 q0 -91 -17 -195 l216 4 q16 1 26.5 -10.5 q10.5 -11.5 10.5 -25.5 q0 -14 -10.5 -24 q-10.5 -10 -30.5 -10 l-124 -2 l0 -6 l0 -251 l0 -34 q0 -26 3 -38.5 q3 -12.5 14.5 -18 q11.5 -5.5 35.5 -5.5 l130 0 ZM796 607 q-13 16 -13 30 q0 13 10 21.5 q10 8.5 24 8.5 q19 0 35 -17 l52 -66 q13 -16 13 -30 q0 -13 -9.5 -22 q-9.5 -9 -23.5 -9 q-20 0 -36 19 l-52 65 ZM280 582 q15 16 31 16 q13 0 21.5 -10 q8.5 -10 8.5 -24 q0 -18 -13 -32 q-54 -58 -113 -106.5 q-59 -48.5 -112 -75.5 q-14 -7 -27 -7 q-14 0 -23.5 9.5 q-9.5 9.5 -9.5 21.5 q0 10 6.5 20 q6.5 10 18.5 16 q103 54 212 172 ZM278 123 q1 -23 -10 -35.5 q-11 -12.5 -26 -12.5 q-13 0 -23 10.5 q-10 10.5 -10 28.5 l-3 268 q-1 22 10.5 34 q11.5 12 26.5 12 q13 0 22.5 -9.5 q9.5 -9.5 9.5 -27.5 l3 -268 Z" /><glyph glyph-name="uni4F1A" unicode="&#x4f1a;" d="M875 438 q14 -6 21.5 -15 q7.5 -9 7.5 -19 q0 -12 -10.5 -21 q-10.5 -9 -27.5 -9 q-14 0 -25 5 q-78 31 -162.5 93.5 q-84.5 62.5 -189.5 156.5 q-108 -98 -181.5 -155 q-73.5 -57 -150.5 -87 q-11 -5 -25 -5 q-17 0 -27.5 9 q-10.5 9 -10.5 21 q0 22 29 34 q80 34 152 89.5 q72 55.5 184 158.5 q13 13 30 13 q14 0 25 -9 q3 -1 7 -5 q103 -94 187.5 -157.5 q84.5 -63.5 166.5 -97.5 ZM384 395 q-21 1 -32.5 12 q-11.5 11 -11.5 25 q0 14 12 24 q12 10 32 9 l212 -12 q21 -1 32 -12 q11 -11 11 -24 q0 -15 -11.5 -25 q-11.5 -10 -31.5 -9 l-212 12 ZM740 -4 q3 -9 3 -17 q0 -16 -11 -28 q-11 -12 -25 -12 q-21 0 -32 28 l-6 16 q-15 -12 -39 -12 l-200 0 q-66 0 -99.5 24.5 q-33.5 24.5 -33.5 65.5 q0 33 22 72 q22 39 63 75 l-68 -1 q-21 1 -32.5 12 q-11.5 11 -11.5 25 q0 14 12 24 q12 10 32 9 l373 3 q21 -1 32 -12 q11 -11 11 -24 q0 -15 -11.5 -25 q-11.5 -10 -31.5 -9 l-189 -2 q-1 0 -3 -2 q-54 -37 -88.5 -73 q-34.5 -36 -34.5 -60 q0 -32 67 -32 l191 0 q12 0 17 -1 l-22 55 q-8 19 -8 36 q0 16 7.5 24.5 q7.5 8.5 18.5 8.5 q12 0 24 -9.5 q12 -9.5 19 -26.5 l54 -132 Z" /><glyph glyph-name="uni4F20" unicode="&#x4f20;" d="M859 420 q25 0 38 -10 q13 -10 13 -24 q0 -15 -14 -26 q-14 -11 -37 -10 l-293 3 l-16 -60 q48 6 89 6 q101 0 153.5 -34 q52.5 -34 52.5 -93 q0 -40 -24.5 -88 q-24.5 -48 -72.5 -99 l9 -6 q31 -20 31 -45 q0 -12 -8.5 -20 q-8.5 -8 -21.5 -8 q-14 0 -30 10 l-135 89 q-33 22 -33 46 q0 12 8 19.5 q8 7.5 21 7.5 q17 0 33 -11 l65 -42 q86 89 86 142 q0 34 -33 49.5 q-33 15.5 -90 15.5 q-70 0 -165 -23 q-6 -2 -17 -2 q-17 0 -26.5 9.5 q-9.5 9.5 -9.5 23.5 q0 13 9 24.5 q9 11.5 24 14.5 l10 2 l20 73 l-96 1 q-25 0 -38 10 q-13 10 -13 24 q0 15 14 26 q14 11 37 10 l114 -1 l37 137 l-89 2 q-21 0 -33 9.5 q-12 9.5 -12 22.5 q0 16 15.5 28 q15.5 12 42.5 11 l95 -2 l35 129 q6 22 17 33 q11 11 24 11 q12 0 21 -10 q9 -10 9 -27 q0 -9 -3 -20 l-32 -118 l193 -5 q23 -1 37 -12 q14 -11 14 -25 q0 -14 -13.5 -24 q-13.5 -10 -37.5 -9 l-212 5 l-36 -137 l274 -3 ZM325 582 q15 16 31 16 q13 0 21.5 -10 q8.5 -10 8.5 -24 q0 -18 -13 -32 q-51 -57 -127.5 -117 q-76.5 -60 -131.5 -89 q-14 -7 -27 -7 q-16 0 -26 10 q-10 10 -10 23 q0 22 23 33 q55 28 127.5 84.5 q72.5 56.5 123.5 112.5 ZM299 100 q3 -22 -7.5 -35 q-10.5 -13 -25.5 -13 q-14 0 -24.5 9.5 q-10.5 9.5 -11.5 27.5 l-18 260 q-2 23 8 35.5 q10 12.5 25 12.5 q13 0 23.5 -9.5 q10.5 -9.5 11.5 -27.5 l19 -260 Z" /><glyph glyph-name="uni4F53" unicode="&#x4f53;" d="M763 152 q23 1 35.5 -8 q12.5 -9 12.5 -23 q0 -14 -12.5 -25.5 q-12.5 -11.5 -33.5 -12.5 l-82 -4 l0 -51 q0 -25 -10 -39 q-10 -14 -24 -14 q-15 0 -25 13.5 q-10 13.5 -10 39.5 l0 48 l-94 -4 q-23 -1 -35.5 8 q-12.5 9 -12.5 23 q0 14 12.5 25.5 q12.5 11.5 33.5 12.5 l96 4 l-1 307 l-29 -51 q-51 -92 -86.5 -146.5 q-35.5 -54.5 -90.5 -115.5 q-21 -24 -45 -24 q-13 0 -21 7.5 q-8 7.5 -8 19.5 q0 19 18 38 q62 67 100.5 127.5 q38.5 60.5 95.5 165.5 l19 35 l-144 1 q-22 0 -33.5 9.5 q-11.5 9.5 -11.5 22.5 q0 15 13 26.5 q13 11.5 35 10.5 l187 -2 l0 134 q0 23 10 36 q10 13 23 13 q15 0 26 -14.5 q11 -14.5 11 -40.5 l0 -128 l180 -2 q22 0 33.5 -9.5 q11.5 -9.5 11.5 -22.5 q0 -15 -13 -26.5 q-13 -11.5 -35 -10.5 l-177 2 l1 -359 l80 4 ZM273 562 q15 16 31 16 q13 0 21.5 -10 q8.5 -10 8.5 -24 q0 -18 -13 -32 q-93 -104 -224 -172 q-14 -7 -27 -7 q-14 0 -23.5 9.5 q-9.5 9.5 -9.5 21.5 q0 10 6.5 20 q6.5 10 18.5 16 q118 60 211 162 ZM920 282 q14 -18 14 -35 q0 -13 -8.5 -22 q-8.5 -9 -21.5 -9 q-23 0 -42 25 l-102 130 q-14 18 -14 36 q0 13 8 21.5 q8 8.5 20 8.5 q22 0 44 -26 l102 -129 ZM283 131 q3 -24 -7.5 -37.5 q-10.5 -13.5 -26.5 -13.5 q-13 0 -22.5 9 q-9.5 9 -11.5 26 l-28 243 q-3 22 8 35.5 q11 13.5 27 13.5 q13 0 22 -8.5 q9 -8.5 11 -24.5 l28 -243 Z" /><glyph glyph-name="uni4F5C" unicode="&#x4f5c;" d="M859 214 q21 1 32 -8.5 q11 -9.5 11 -23.5 q0 -14 -11 -25.5 q-11 -11.5 -30 -12.5 l-207 -5 l-7 0 l-6 -132 q-3 -20 -13.5 -30 q-10.5 -10 -23.5 -10 q-15 0 -25.5 13 q-10.5 13 -7.5 33 l23 487 l-87 2 l-3 0 q-25 -53 -58 -98 q-18 -23 -41 -23 q-13 0 -22 8 q-9 8 -9 21 q0 12 10 25 q72 96 112 245 q4 17 13.5 25.5 q9.5 8.5 20.5 8.5 q13 0 23.5 -11 q10.5 -11 10.5 -28 q0 -3 -2 -13 q-16 -56 -29 -91 l320 -6 q21 0 32 -10 q11 -10 11 -23 q0 -15 -11 -26.5 q-11 -11.5 -30 -10.5 l-191 4 l-5 -107 l179 -6 q21 -1 32 -10.5 q11 -9.5 11 -23.5 q0 -15 -11.5 -26 q-11.5 -11 -29.5 -10 l-184 7 l-6 -115 l6 0 l203 6 ZM271 572 q15 16 31 16 q13 0 21.5 -10 q8.5 -10 8.5 -24 q0 -18 -13 -32 q-104 -116 -212 -172 q-16 -8 -29 -8 q-17 0 -28 10.5 q-11 10.5 -11 23.5 q0 19 21 30 q111 57 211 166 ZM269 137 q1 -23 -10 -35.5 q-11 -12.5 -26 -12.5 q-13 0 -23 10.5 q-10 10.5 -10 28.5 l-3 244 q-1 22 10.5 34 q11.5 12 26.5 12 q13 0 22.5 -9.5 q9.5 -9.5 9.5 -27.5 l3 -244 Z" /><glyph glyph-name="uni4F60" unicode="&#x4f60;" d="M798 453 q1 17 -2 25.5 q-3 8.5 -15 12 q-12 3.5 -38 2.5 l-221 2 q-21 0 -34 7 q-43 -79 -84 -116 q-23 -20 -43 -20 q-13 0 -21.5 8.5 q-8.5 8.5 -8.5 20.5 q0 20 20 39 q31 27 56 67.5 q25 40.5 60 109.5 l32 61 q13 24 33 24 q13 0 22.5 -10.5 q9.5 -10.5 9.5 -25.5 q0 -12 -7 -25 l-36 -70 l4 0 l228 -3 q57 -1 81.5 -15 q24.5 -14 29 -35 q4.5 -21 3.5 -66 l2 -16 q0 -23 -9.5 -37 q-9.5 -14 -24.5 -14 q-34 0 -36 51 l-1 23 ZM269 557 q15 16 31 16 q13 0 21.5 -10 q8.5 -10 8.5 -24 q0 -18 -13 -32 q-93 -104 -224 -172 q-14 -7 -27 -7 q-14 0 -23.5 9.5 q-9.5 9.5 -9.5 21.5 q0 10 6.5 20 q6.5 10 18.5 16 q118 60 211 162 ZM704 173 l1 -54 q0 -40 -7.5 -64.5 q-7.5 -24.5 -31 -39.5 q-23.5 -15 -69.5 -18 l-62 -4 q-25 -1 -39 9 q-14 10 -14 25 q0 15 13.5 25.5 q13.5 10.5 36.5 10.5 l53 3 q32 1 41.5 11.5 q9.5 10.5 9.5 39.5 q0 28 -1 47 l-22 213 q-3 25 7 39 q10 14 26 14 q15 0 26 -13.5 q11 -13.5 11 -36.5 l21 -207 ZM267 144 q1 -23 -10 -35.5 q-11 -12.5 -26 -12.5 q-13 0 -23 10.5 q-10 10.5 -10 28.5 l-3 221 q-1 22 10.5 34 q11.5 12 26.5 12 q13 0 22.5 -9.5 q9.5 -9.5 9.5 -27.5 l3 -221 ZM435 277 q6 12 15.5 18 q9.5 6 18.5 6 q13 0 22.5 -9.5 q9.5 -9.5 9.5 -24.5 q0 -13 -7 -26 l-62 -128 q-6 -11 -15.5 -17.5 q-9.5 -6.5 -18.5 -6.5 q-13 0 -23 9.5 q-10 9.5 -10 23.5 q0 11 8 27 l62 128 ZM895 197 q15 -15 15 -33 q0 -13 -9.5 -22.5 q-9.5 -9.5 -23.5 -9.5 q-16 0 -31 16 l-65 63 q-14 15 -14 32 q0 14 9.5 23.5 q9.5 9.5 22.5 9.5 q16 0 31 -16 l65 -63 Z" /><glyph glyph-name="uni4F6C" unicode="&#x4f6c;" d="M835 468 q21 3 34 -7.5 q13 -10.5 13 -25.5 q0 -12 -11 -22.5 q-11 -10.5 -31 -13.5 l-136 -6 q-65 -70 -131 -119 q4 -8 4 -23 l1 -67 l191 51 q9 3 16 3 q16 0 26 -9.5 q10 -9.5 10 -22.5 q0 -12 -9 -22.5 q-9 -10.5 -26 -16.5 l-208 -55 q0 -27 3 -40 q3 -13 14.5 -18.5 q11.5 -5.5 35.5 -5.5 l156 0 q24 1 37.5 -9.5 q13.5 -10.5 13.5 -25.5 q0 -14 -13.5 -24.5 q-13.5 -10.5 -37.5 -10.5 l-165 0 q-52 0 -76 18 q-24 18 -30 47 q-6 29 -7 84 q-1 8 -1 24 l-1 77 q-40 -26 -89 -55 q-12 -8 -27 -8 q-14 0 -23.5 8.5 q-9.5 8.5 -9.5 20.5 q0 20 25 35 q77 46 127 82 q50 36 93 77 l-175 -8 q-21 -3 -33.5 8 q-12.5 11 -12.5 27 q0 14 10.5 24 q10.5 10 30.5 11 l111 5 l4 114 l-150 4 q-18 0 -28.5 10 q-10.5 10 -10.5 24 q0 15 12 25.5 q12 10.5 34 9.5 l144 -4 l2 60 q-1 20 9.5 31.5 q10.5 11.5 24.5 11.5 q14 0 24.5 -11 q10.5 -11 11.5 -33 l-2 -61 l93 -3 q19 -1 29.5 -11 q10.5 -10 10.5 -24 q0 -15 -12 -25 q-12 -10 -35 -9 l-87 3 l-3 -109 l70 3 l107 121 q15 16 30 16 q12 0 20.5 -9 q8.5 -9 8.5 -22 q0 -18 -16 -38 l-55 -64 l65 3 ZM262 574 q15 16 31 16 q13 0 21.5 -10 q8.5 -10 8.5 -24 q0 -18 -13 -32 q-93 -104 -224 -172 q-14 -7 -27 -7 q-14 0 -23.5 9.5 q-9.5 9.5 -9.5 21.5 q0 10 6.5 20 q6.5 10 18.5 16 q118 60 211 162 ZM258 137 q1 -23 -10 -35.5 q-11 -12.5 -26 -12.5 q-13 0 -23 10.5 q-10 10.5 -10 28.5 l-3 244 q-1 22 10.5 34 q11.5 12 26.5 12 q13 0 22.5 -9.5 q9.5 -9.5 9.5 -27.5 l3 -244 Z" /><glyph glyph-name="uni4F7F" unicode="&#x4f7f;" d="M743 504 q43 0 71.5 -21.5 q28.5 -21.5 28.5 -57.5 l0 -108 q0 -41 -28 -63.5 q-28 -22.5 -72 -22.5 l-134 0 q-16 -57 -36 -105 l219 -85 q13 -5 19.5 -14.5 q6.5 -9.5 6.5 -21.5 q0 -13 -9 -23.5 q-9 -10.5 -23 -10.5 q-5 0 -13 3 l-229 88 q-39 -72 -89 -122 q-18 -18 -38 -18 q-13 0 -21.5 7.5 q-8.5 7.5 -8.5 19.5 q0 18 22 37 q43 37 76 99 l-89 34 q-29 11 -29 36 q0 14 9.5 24.5 q9.5 10.5 23.5 10.5 q7 0 14 -3 l100 -39 q15 38 27 83 l-88 0 q-45 0 -72 22 q-27 22 -27 64 l0 108 q0 36 27.5 57.5 q27.5 21.5 71.5 21.5 l135 0 l5 63 l-158 -2 q-21 0 -31.5 9.5 q-10.5 9.5 -10.5 24.5 q0 14 10 25 q10 11 26 11 l167 1 q2 62 2 94 q0 16 9 25.5 q9 9.5 22 9.5 q13 0 22.5 -11 q9.5 -11 9.5 -31 q0 -58 -1 -86 l120 1 q21 1 33.5 -10 q12.5 -11 12.5 -25 q0 -14 -11 -24 q-11 -10 -31 -10 l-126 -1 l-5 -64 l90 0 ZM281 598 q15 16 31 16 q13 0 21.5 -10 q8.5 -10 8.5 -24 q0 -18 -13 -32 q-49 -54 -110.5 -99.5 q-61.5 -45.5 -121.5 -76.5 q-14 -7 -27 -7 q-14 0 -23.5 9.5 q-9.5 9.5 -9.5 21.5 q0 10 6.5 20 q6.5 10 18.5 16 q126 64 219 166 ZM279 163 q1 -23 -10 -35.5 q-11 -12.5 -26 -12.5 q-13 0 -23 10.5 q-10 10.5 -10 28.5 l-3 244 q-1 22 10.5 34 q11.5 12 26.5 12 q13 0 22.5 -9.5 q9.5 -9.5 9.5 -27.5 l3 -244 ZM558 301 q16 73 22 133 l-98 0 q-26 0 -42 -11 q-16 -11 -16 -33 l0 -39 q0 -25 16 -37.5 q16 -12.5 42 -12.5 l76 0 ZM773 390 q0 22 -16 33 q-16 11 -43 11 l-67 0 q-10 -78 -22 -133 l89 0 q27 0 43 12.5 q16 12.5 16 37.5 l0 39 Z" /><glyph glyph-name="uni4F8B" unicode="&#x4f8b;" d="M428 460 q24 3 45 3 q74 0 112 -32 q38 -32 38 -86 q0 -59 -43.5 -131 q-43.5 -72 -122.5 -139 q-20 -17 -39 -17 q-13 0 -21.5 8 q-8.5 8 -8.5 20 q0 19 22 40 q39 35 74 75 l-117 48 q-14 6 -21.5 17 q-7.5 11 -7.5 23 q0 12 8.5 20.5 q8.5 8.5 23.5 8.5 q12 0 28 -6 l128 -54 q28 47 28 78 q0 55 -79 55 q-42 0 -102 -16 l-42 -64 q-17 -20 -36 -20 q-13 0 -22.5 9.5 q-9.5 9.5 -9.5 23.5 q0 16 11 28 l129 198 l-87 8 q-18 1 -29 13 q-11 12 -11 26 q0 14 13.5 23.5 q13.5 9.5 38.5 6.5 l244 -24 q19 -1 30 -12 q11 -11 11 -25 q0 -14 -13.5 -23.5 q-13.5 -9.5 -39.5 -7.5 l-79 7 l-53 -82 ZM824 558 q0 25 10 38 q10 13 24 13 q15 0 26 -13.5 q11 -13.5 10 -37.5 l0 -322 q0 -15 -1 -22 q-1 -56 -7 -84.5 q-6 -28.5 -30 -46.5 q-24 -18 -76 -20 l-33 -1 q-23 -1 -36.5 10 q-13.5 11 -13.5 26 q0 15 13 25 q13 10 37 9 l24 0 q24 0 35.5 5.5 q11.5 5.5 14.5 18 q3 12.5 3 38.5 l0 34 l0 330 ZM230 548 q15 16 31 16 q13 0 21.5 -10 q8.5 -10 8.5 -24 q0 -18 -13 -32 q-53 -59 -101.5 -98.5 q-48.5 -39.5 -101.5 -67.5 q-14 -7 -27 -7 q-14 0 -23.5 9.5 q-9.5 9.5 -9.5 21.5 q0 10 6.5 20 q6.5 10 18.5 16 q52 26 93.5 61 q41.5 35 96.5 95 ZM723 262 q-1 -21 -11.5 -32 q-10.5 -11 -24.5 -11 q-15 0 -25 11.5 q-10 11.5 -9 31.5 l3 227 q1 21 12 32 q11 11 24 11 q15 0 25 -11.5 q10 -11.5 9 -31.5 l-3 -227 ZM228 113 q1 -23 -10 -35.5 q-11 -12.5 -26 -12.5 q-13 0 -23 10.5 q-10 10.5 -10 28.5 l-3 244 q-1 22 10.5 34 q11.5 12 26.5 12 q13 0 22.5 -9.5 q9.5 -9.5 9.5 -27.5 l3 -244 Z" /><glyph glyph-name="uni4F9B" unicode="&#x4f9b;" d="M862 265 q20 1 31.5 -9 q11.5 -10 11.5 -25 q0 -13 -11 -24 q-11 -11 -32 -12 l-540 -27 q-20 -1 -32 9 q-12 10 -12 24 q0 14 11.5 25 q11.5 11 32.5 12 l156 8 l-28 234 l-81 5 q-21 1 -32.5 12 q-11.5 11 -11.5 25 q0 14 12 24 q12 10 32 9 l73 -4 l-9 78 q-2 22 8.5 35 q10.5 13 25.5 13 q13 0 23.5 -10 q10.5 -10 11.5 -28 l11 -92 l190 -11 l12 103 q1 18 11.5 28 q10.5 10 23.5 10 q15 0 25.5 -13 q10.5 -13 8.5 -35 l-11 -97 l69 -4 q21 -1 32 -12 q11 -11 11 -24 q0 -15 -11.5 -25 q-11.5 -10 -31.5 -9 l-77 4 l-24 -203 l121 6 ZM246 560 q15 16 31 16 q13 0 21.5 -10 q8.5 -10 8.5 -24 q0 -18 -13 -32 q-93 -104 -224 -172 q-14 -7 -27 -7 q-14 0 -23.5 9.5 q-9.5 9.5 -9.5 21.5 q0 10 6.5 20 q6.5 10 18.5 16 q118 60 211 162 ZM521 476 l26 -227 l123 6 l25 211 l-174 10 ZM241 111 q1 -23 -10 -35.5 q-11 -12.5 -26 -12.5 q-13 0 -23 10.5 q-10 10.5 -10 28.5 l-3 268 q-1 22 10.5 34 q11.5 12 26.5 12 q13 0 22.5 -9.5 q9.5 -9.5 9.5 -27.5 l3 -268 ZM834 -28 q5 -10 5 -22 q0 -15 -9 -24 q-9 -9 -21 -9 q-11 0 -22 8 q-11 8 -19 24 l-60 123 q-4 9 -4 21 q0 16 10 26.5 q10 10.5 23 10.5 q11 0 21.5 -8 q10.5 -8 16.5 -24 l59 -126 ZM453 89 q6 16 16.5 24 q10.5 8 21.5 8 q14 0 24 -10.5 q10 -10.5 10 -26.5 q0 -8 -5 -21 l-60 -123 q-8 -16 -19 -24 q-11 -8 -22 -8 q-12 0 -21 9 q-9 9 -9 24 q0 12 5 22 l59 126 Z" /><glyph glyph-name="uni4FA7" unicode="&#x4fa7;" d="M593 542 q0 32 -9 47 q-9 15 -24 19 q-15 4 -42 4 l-24 0 l-34 0 q-26 0 -38.5 -3 q-12.5 -3 -18 -14.5 q-5.5 -11.5 -5.5 -35.5 l0 -217 q1 -24 -9.5 -37.5 q-10.5 -13.5 -25.5 -13.5 q-14 0 -24.5 13.5 q-10.5 13.5 -10.5 37.5 l0 226 q0 52 21 76 q21 24 53.5 30 q32.5 6 98.5 8 l10 0 q60 0 92.5 -12.5 q32.5 -12.5 46 -41 q13.5 -28.5 13.5 -80.5 l0 -201 q1 -23 -9.5 -37 q-10.5 -14 -25.5 -14 q-14 0 -24.5 13.5 q-10.5 13.5 -10.5 37.5 l0 195 ZM300 555 q-104 -116 -212 -172 q-14 -7 -27 -7 q-15 0 -24.5 9 q-9.5 9 -9.5 22 q0 21 24 34 q52 26 99.5 65.5 q47.5 39.5 101.5 98.5 q15 16 31 16 q13 0 21.5 -10 q8.5 -10 8.5 -24 q0 -18 -13 -32 ZM918 282 q0 -15 -1 -22 q-1 -56 -7 -84.5 q-6 -28.5 -30 -46.5 q-24 -18 -76 -20 l-33 -1 q-23 -1 -36.5 10 q-13.5 11 -13.5 26 q0 15 13 25 q13 10 37 9 l24 0 q24 0 35.5 5.5 q11.5 5.5 14.5 18 q3 12.5 3 38.5 l0 34 l0 294 q0 25 10 38 q10 13 24 13 q15 0 26 -13.5 q11 -13.5 10 -37.5 l0 -286 ZM762 282 q-1 -21 -11.5 -32 q-10.5 -11 -24.5 -11 q-15 0 -25 11.5 q-10 11.5 -9 31.5 l13 209 q1 21 12 32 q11 11 24 11 q15 0 25 -11.5 q10 -11.5 9 -31.5 l-13 -209 ZM534 401 q-28 -132 -47.5 -200 q-19.5 -68 -56.5 -137 q-15 -28 -38 -28 q-13 0 -22.5 10 q-9.5 10 -9.5 25 q0 10 6 22 q38 72 58 140.5 q20 68.5 49 204.5 l7 32 q4 17 12.5 25.5 q8.5 8.5 19.5 8.5 q13 0 23.5 -11.5 q10.5 -11.5 10.5 -28.5 q0 -8 -1 -12 l-11 -51 ZM250 146 q1 -23 -10 -35.5 q-11 -12.5 -26 -12.5 q-13 0 -23 10.5 q-10 10.5 -10 28.5 l-3 268 q-1 22 10.5 34 q11.5 12 26.5 12 q13 0 22.5 -9.5 q9.5 -9.5 9.5 -27.5 l3 -268 ZM521 156 q-26 23 -26 46 q0 13 7.5 21 q7.5 8 20.5 8 q16 0 35 -16 l71 -63 q25 -18 25 -40 q0 -13 -9 -21.5 q-9 -8.5 -23 -8.5 q-16 0 -30 13 l-71 61 Z" /><glyph glyph-name="uni4FE1" unicode="&#x4fe1;" d="M885 631 q21 0 33.5 -11.5 q12.5 -11.5 12.5 -25.5 q0 -14 -12 -24 q-12 -10 -34 -10 l-482 3 q-20 0 -31.5 11 q-11.5 11 -11.5 26 q0 15 10.5 25 q10.5 10 31.5 10 l212 -2 l-27 65 q-2 6 -2 17 q0 17 10 27.5 q10 10.5 23 10.5 q11 0 21 -8 q10 -8 14 -24 l36 -84 l1 -4 l195 -2 ZM283 570 q15 16 31 16 q13 0 21.5 -10 q8.5 -10 8.5 -24 q0 -18 -13 -32 q-51 -56 -107.5 -100.5 q-56.5 -44.5 -112.5 -73.5 q-14 -7 -27 -7 q-15 0 -25 10 q-10 10 -10 23 q0 10 6 19 q6 9 18 15 q113 57 210 164 ZM770 510 q20 -1 32 -12.5 q12 -11.5 12 -25.5 q0 -14 -12 -24 q-12 -10 -35 -9 l-267 9 q-20 1 -31 12 q-11 11 -11 26 q0 15 11 25 q11 10 32 9 l269 -10 ZM281 171 q1 -23 -10 -35.5 q-11 -12.5 -26 -12.5 q-13 0 -23 10.5 q-10 10.5 -10 28.5 l-3 208 q-1 22 10.5 34 q11.5 12 26.5 12 q13 0 22.5 -9.5 q9.5 -9.5 9.5 -27.5 l3 -208 ZM747 378 q21 -1 33.5 -12.5 q12.5 -11.5 12.5 -25.5 q0 -14 -12 -23.5 q-12 -9.5 -34 -9.5 l-233 3 q-20 1 -31.5 12 q-11.5 11 -11.5 26 q0 15 10.5 24.5 q10.5 9.5 31.5 9.5 l234 -4 ZM725 254 q40 0 66 -25.5 q26 -25.5 26 -64.5 l0 -101 q0 -39 -26 -65 q-26 -26 -66 -26 l-168 0 q-40 0 -66 26 q-26 26 -26 65 l0 101 q0 39 26 64.5 q26 25.5 66 25.5 l168 0 ZM746 124 q0 26 -17.5 43 q-17.5 17 -43.5 17 l-90 0 q-25 0 -42.5 -17 q-17.5 -17 -17.5 -43 l0 -22 q0 -25 17.5 -42.5 q17.5 -17.5 42.5 -17.5 l90 0 q26 0 43.5 17 q17.5 17 17.5 43 l0 22 Z" /><glyph glyph-name="uni4FEE" unicode="&#x4fee;" d="M892 431 q16 -6 23.5 -16.5 q7.5 -10.5 7.5 -21.5 q0 -13 -9 -22.5 q-9 -9.5 -24 -9.5 q-11 0 -20 4 l-159 55 q-84 -53 -211 -111 q-14 -7 -27 -7 q-13 0 -21 7.5 q-8 7.5 -8 18.5 q0 11 8 22 q8 11 24 19 q57 28 152 79 l-62 22 q-32 11 -32 38 q0 13 10 22.5 q10 9.5 24 9.5 q10 0 18 -4 l121 -41 q78 50 78 74 q0 17 -30 24.5 q-30 7.5 -101 17.5 q-19 2 -59 8 l-8 1 q-62 -62 -117 -93 q-13 -7 -24 -7 q-13 0 -21.5 9.5 q-8.5 9.5 -8.5 21.5 q0 20 20 33 q82 54 147 141 q15 21 36 21 q15 0 25 -9.5 q10 -9.5 10 -24.5 q0 -12 -9 -26 q107 -10 162 -36.5 q55 -26.5 55 -66.5 q0 -49 -81 -114 l111 -38 ZM263 570 q15 16 31 16 q13 0 21.5 -10 q8.5 -10 8.5 -24 q0 -18 -13 -32 q-50 -56 -99.5 -94.5 q-49.5 -38.5 -105.5 -67.5 q-14 -7 -27 -7 q-15 0 -25 10 q-10 10 -10 23 q0 10 6 19 q6 9 18 15 q56 28 100 62 q44 34 95 90 ZM401 269 q1 -23 -8.5 -35.5 q-9.5 -12.5 -24.5 -12.5 q-14 0 -24.5 10 q-10.5 10 -11.5 29 l-8 118 q-1 22 9.5 34 q10.5 12 25.5 12 q13 0 23 -9.5 q10 -9.5 11 -27.5 l8 -118 ZM271 171 q1 -23 -9 -35.5 q-10 -12.5 -25 -12.5 q-13 0 -23.5 10.5 q-10.5 10.5 -11.5 28.5 l-13 208 q-1 22 9.5 34 q10.5 12 25.5 12 q13 0 23 -9.5 q10 -9.5 11 -27.5 l13 -208 ZM753 290 q-29 -26 -78.5 -54 q-49.5 -28 -87.5 -34 q-4 -1 -13 -1 q-18 0 -28 9 q-10 9 -10 22 q0 12 8 22 q8 10 23 13 q23 5 71.5 32 q48.5 27 71.5 48 q14 13 29 13 q13 0 22 -10.5 q9 -10.5 9 -24.5 q0 -21 -17 -35 ZM799 183 q-29 -26 -78.5 -54 q-49.5 -28 -87.5 -34 q-4 -1 -13 -1 q-18 0 -28 9 q-10 9 -10 22 q0 12 8 22 q8 10 23 13 q23 5 71.5 32 q48.5 27 71.5 48 q14 13 29 13 q13 0 22 -10.5 q9 -10.5 9 -24.5 q0 -21 -17 -35 ZM806 111 q14 13 29 13 q13 0 22 -10.5 q9 -10.5 9 -24.5 q0 -21 -17 -35 q-33 -29 -91.5 -61.5 q-58.5 -32.5 -95.5 -32.5 q-18 0 -28 9 q-10 9 -10 22 q0 12 8 22 q8 10 23 13 q23 5 75.5 34.5 q52.5 29.5 75.5 50.5 Z" /><glyph glyph-name="uni503C" unicode="&#x503c;" d="M867 62 q21 0 33.5 -10 q12.5 -10 12.5 -24 q0 -12 -11 -22 q-11 -10 -31 -11 l-477 -5 q-23 -1 -35.5 9.5 q-12.5 10.5 -12.5 25.5 q0 14 11 24 q11 10 29 10 l24 0 l0 371 q0 36 27.5 57.5 q27.5 21.5 71.5 21.5 l94 0 l17 60 l-150 2 q-24 1 -36.5 12 q-12.5 11 -12.5 26 q0 13 10 22 q10 9 28 9 l180 -4 l17 59 q5 18 16 27.5 q11 9.5 23 9.5 q12 0 20 -9.5 q8 -9.5 8 -26.5 q0 -9 -1 -14 l-13 -47 l130 -3 q22 -1 35.5 -11 q13.5 -10 13.5 -23 q0 -12 -10.5 -21 q-10.5 -9 -30.5 -12 l-156 2 l-16 -58 l83 0 q43 0 71.5 -21.5 q28.5 -21.5 28.5 -57.5 l0 -368 l9 0 ZM270 567 q15 16 31 16 q13 0 21.5 -10 q8.5 -10 8.5 -24 q0 -18 -13 -32 q-93 -104 -224 -172 q-14 -7 -27 -7 q-14 0 -23.5 9.5 q-9.5 9.5 -9.5 21.5 q0 10 6.5 20 q6.5 10 18.5 16 q118 60 211 162 ZM480 60 l308 2 l0 149 l-180 4 q-23 1 -35.5 12 q-12.5 11 -12.5 25 q0 14 10.5 23.5 q10.5 9.5 29.5 8.5 l188 -6 l0 117 q0 22 -16 33 q-16 11 -43 11 l-191 0 q-26 0 -42 -11 q-16 -11 -16 -32 l214 -7 q21 -1 33.5 -11 q12.5 -10 12.5 -24 q0 -12 -10.5 -21.5 q-10.5 -9.5 -31.5 -10.5 l-218 5 l0 -139 l222 -7 q21 -1 33.5 -11.5 q12.5 -10.5 12.5 -23.5 q0 -12 -10.5 -21.5 q-10.5 -9.5 -31.5 -10.5 l-226 5 l0 -59 ZM268 169 q3 -22 -7.5 -35 q-10.5 -13 -25.5 -13 q-14 0 -24.5 9.5 q-10.5 9.5 -11.5 27.5 l-14 195 q-2 23 8 35.5 q10 12.5 25 12.5 q13 0 23.5 -9.5 q10.5 -9.5 11.5 -27.5 l15 -195 Z" /><glyph glyph-name="uni5077" unicode="&#x5077;" d="M400 487 q-13 -7 -26 -7 q-15 0 -24.5 9.5 q-9.5 9.5 -9.5 22.5 q0 22 23 35 q50 18 85.5 38.5 q35.5 20.5 64 44.5 q28.5 24 79.5 72 q16 8 26 8 q9 0 15 -3 l9 -3 q82 -58 139.5 -88.5 q57.5 -30.5 131.5 -45.5 q14 -5 21 -15 q7 -10 7 -21 q0 -13 -9.5 -23 q-9.5 -10 -26.5 -10 q-11 0 -20 4 q-72 14 -128.5 44 q-56.5 30 -135.5 86 q-67 -63 -109 -93 q-42 -30 -112 -55 ZM245 590 q13 17 31 17 q14 0 23.5 -9.5 q9.5 -9.5 9.5 -24.5 q0 -16 -15 -33 q-73 -81 -103.5 -113 q-30.5 -32 -77.5 -69 q-18 -15 -35 -15 q-14 0 -22 10 q-8 10 -8 23 q0 20 16 32 q62 47 92 77 q30 30 89 105 ZM803 499 q21 -1 32 -11.5 q11 -10.5 11 -24.5 q0 -15 -11.5 -25 q-11.5 -10 -31.5 -9 l-286 15 q-20 1 -31.5 12 q-11.5 11 -11.5 24 q0 15 12 25 q12 10 32 9 l285 -15 ZM174 377 q1 21 12 32 q11 11 24 11 q15 0 25 -11.5 q10 -11.5 9 -31.5 l5 -267 q-1 -21 -11.5 -32 q-10.5 -11 -24.5 -11 q-15 0 -25 11.5 q-10 11.5 -9 31.5 l-5 267 ZM545 375 q7 1 19 1 q43 0 63 -18.5 q20 -18.5 25 -48 q5 -29.5 6 -82.5 q1 -8 1 -25 l0 -98 q0 -60 -12.5 -92.5 q-12.5 -32.5 -41 -46 q-28.5 -13.5 -80.5 -13.5 l-12 0 q-23 -1 -36.5 8.5 q-13.5 9.5 -13.5 26.5 q0 17 13 26 q13 9 37 9 l6 0 q35 0 50 10.5 q15 10.5 18 31.5 l-111 2 q-21 3 -31.5 13.5 q-10.5 10.5 -10.5 24.5 q0 15 12 25.5 q12 10.5 33 8.5 l110 -4 l0 75 l0 34 q0 26 -3 38.5 q-3 12.5 -14.5 18 q-11.5 5.5 -35.5 5.5 l-125 -11 q2 -26 4 -39 l8 0 l89 -4 q20 -3 30.5 -13 q10.5 -10 10.5 -23 q0 -15 -12.5 -25 q-12.5 -10 -32.5 -8 l-88 2 l1 -36 q0 -68 -11 -149 q-2 -20 -13 -30.5 q-11 -10.5 -26 -10.5 q-14 0 -23 10 q-9 10 -7 28 q12 72 12 140 q0 37 -3.5 76 q-3.5 39 -8.5 75 q-6 44 -8 63 q-4 19 8.5 32 q12.5 13 29.5 13 q26 0 32 -32 l142 12 ZM864 320 q0 25 10 37.5 q10 12.5 24 12.5 q15 0 26 -14.5 q11 -14.5 10 -38.5 l1 -188 q-1 -8 -1 -23 q-4 -57 -11 -85 q-7 -28 -31.5 -45 q-24.5 -17 -76.5 -16 l-53 1 q-23 0 -36.5 10.5 q-13.5 10.5 -13.5 25.5 q0 15 14 25 q14 10 38 9 l44 -1 q29 -1 40 6.5 q11 7.5 13 22.5 q2 15 3 65 l0 196 ZM787 115 q-1 -21 -11.5 -32 q-10.5 -11 -24.5 -11 q-15 0 -25 11.5 q-10 11.5 -9 31.5 l-1 124 q1 21 12 32 q11 11 24 11 q15 0 25 -11.5 q10 -11.5 9 -31.5 l1 -124 Z" /><glyph glyph-name="uni50CF" unicode="&#x50cf;" d="M798 562 q43 0 71.5 -21.5 q28.5 -21.5 28.5 -57.5 l0 -95 q0 -41 -28 -63.5 q-28 -22.5 -72 -22.5 l-158 0 q22 -38 38 -82 l111 65 q14 9 26 9 q14 0 23.5 -9.5 q9.5 -9.5 9.5 -23.5 q0 -21 -23 -37 l-123 -71 l-4 -3 q7 -35 7 -72 q0 -66 -26.5 -106.5 q-26.5 -40.5 -74.5 -40.5 l-29 0 q-24 0 -37.5 10.5 q-13.5 10.5 -13.5 24.5 q0 15 13.5 25.5 q13.5 10.5 37.5 9.5 l20 0 q42 0 42 70 q0 47 -19 108 q-19 61 -50 110 q-55 -49 -131 -85 q-13 -6 -25 -6 q-15 0 -25 10.5 q-10 10.5 -10 24.5 q0 10 6 19 q6 9 18 15 q46 22 69 35 q-40 3 -63.5 25 q-23.5 22 -23.5 61 l0 95 q0 24 13 42.5 q13 18.5 36 27.5 q-17 9 -17 27 q0 14 11 28 l99 171 q17 21 39 21 q13 0 22.5 -8.5 q9.5 -8.5 9.5 -21.5 q0 -15 -11 -30 l-16 -27 q28 3 55 3 q70 0 113 -25.5 q43 -25.5 43 -82.5 q0 -20 -6 -46 l24 0 ZM485 570 q-4 -6 -7 -8 l4 0 l224 0 q4 15 4 28 q0 60 -80 60 q-46 0 -108 -19 q0 0 -0.5 0 q-0.5 0 -0.5 -1 l-36 -60 ZM240 572 q16 23 39 23 q13 0 22.5 -8.5 q9.5 -8.5 9.5 -21.5 q0 -18 -18 -39 q-117 -138 -201 -179 q-15 -7 -29 -7 q-15 0 -25.5 9 q-10.5 9 -10.5 21 q0 18 22 33 q60 38 107 77.5 q47 39.5 84 91.5 ZM453 422 q0 -25 16 -37.5 q16 -12.5 42 -12.5 l43 0 q39 49 57 120 l-100 0 q-26 0 -42 -11 q-16 -11 -16 -33 l0 -26 ZM828 448 q0 22 -16 33 q-16 11 -43 11 l-86 0 q0 -5 -1 -8 q-11 -59 -44 -112 l131 0 q27 0 43 12.5 q16 12.5 16 37.5 l0 26 ZM256 165 q3 -23 -6 -35 q-9 -12 -24 -12 q-14 0 -25.5 10.5 q-11.5 10.5 -14.5 29.5 l-12 195 q-1 23 9.5 35 q10.5 12 25.5 12 q14 0 24 -10.5 q10 -10.5 11 -29.5 l12 -195 ZM543 152 q-36 -32 -70.5 -54.5 q-34.5 -22.5 -71.5 -28.5 q-4 -1 -13 -1 q-18 0 -28 9 q-10 9 -10 22 q0 12 8 22 q8 10 23 13 q22 5 57.5 28.5 q35.5 23.5 61.5 46.5 q14 13 29 13 q13 0 22 -10.5 q9 -10.5 9 -24.5 q0 -21 -17 -35 ZM860 79 q23 -16 23 -38 q0 -13 -9.5 -22.5 q-9.5 -9.5 -23.5 -9.5 q-13 0 -26 9 l-93 64 q-23 15 -23 37 q0 14 9.5 23 q9.5 9 23.5 9 q12 0 25 -9 l94 -63 ZM541 115 q14 13 29 13 q13 0 22 -10.5 q9 -10.5 9 -24.5 q0 -21 -17 -35 q-36 -32 -70.5 -54.5 q-34.5 -22.5 -71.5 -28.5 q-4 -1 -13 -1 q-18 0 -28 9 q-10 9 -10 22 q0 12 8 22 q8 10 23 13 q22 5 57.5 28.5 q35.5 23.5 61.5 46.5 Z" /><glyph glyph-name="uni5145" unicode="&#x5145;" d="M780 28 q24 1 37.5 -9.5 q13.5 -10.5 13.5 -25.5 q0 -14 -13.5 -24.5 q-13.5 -10.5 -37.5 -10.5 l-185 0 q-52 0 -76 18 q-24 18 -30 47 q-6 29 -7 84 q-1 8 -1 24 l0 149 l-88 0 q-8 -85 -34.5 -167.5 q-26.5 -82.5 -62.5 -139.5 q-15 -25 -37 -25 q-12 0 -20.5 9 q-8.5 9 -8.5 22 q0 14 8 26 q34 53 56 125 q22 72 31 154 q-41 10 -68.5 40.5 q-27.5 30.5 -27.5 70.5 q0 29 16 58 q36 67 99 137 l-153 5 q-19 1 -31 12.5 q-12 11.5 -12 25.5 q0 14 11.5 23.5 q11.5 9.5 33.5 8.5 l296 -9 l-40 66 q-8 14 -8 25 q0 14 9 23.5 q9 9.5 22 9.5 q23 0 38 -25 l54 -87 q4 -7 6 -14 l187 -6 q17 -1 27.5 -12 q10.5 -11 10.5 -25 q0 -15 -11.5 -25 q-11.5 -10 -33.5 -9 l-312 10 q-36 -31 -71.5 -73 q-35.5 -42 -51.5 -68 q-13 -22 -13 -39 q0 -26 22.5 -41.5 q22.5 -15.5 43.5 -15.5 l256 -1 q26 1 42 -13 l-46 94 q-5 10 -5 23 q0 16 9.5 26.5 q9.5 10.5 22.5 10.5 q21 0 34 -27 l80 -161 q4 -8 4 -18 q0 -15 -10.5 -26.5 q-10.5 -11.5 -24.5 -11.5 q-21 0 -34 27 l-21 44 q1 -16 -12.5 -27 q-13.5 -11 -38.5 -11 l-73 0 l0 -155 l0 -34 q0 -26 3 -38.5 q3 -12.5 14.5 -18 q11.5 -5.5 35.5 -5.5 l176 0 Z" /><glyph glyph-name="uni5148" unicode="&#x5148;" d="M869 349 q20 -3 30.5 -12.5 q10.5 -9.5 10.5 -21.5 q0 -14 -12.5 -24.5 q-12.5 -10.5 -32.5 -11.5 l-217 -6 l0 -2 l0 -178 l0 -34 q0 -26 3 -38.5 q3 -12.5 14.5 -18 q11.5 -5.5 35.5 -5.5 l93 0 q24 1 37.5 -9.5 q13.5 -10.5 13.5 -25.5 q0 -14 -13.5 -24.5 q-13.5 -10.5 -37.5 -10.5 l-102 0 q-52 0 -76 18 q-24 18 -30 47 q-6 29 -7 84 q-1 8 -1 24 l0 171 l-195 -5 l0 -14 q-4 -60 -27 -152 q-23 -92 -47 -147 q-6 -13 -15.5 -20 q-9.5 -7 -20.5 -7 q-14 0 -24 9.5 q-10 9.5 -10 25.5 q0 10 6 24 q24 52 44 135 q20 83 23 144 l-153 -4 q-20 0 -31 10 q-11 10 -11 24 q0 16 12 27 q12 11 33 9 l309 8 l13 215 l-176 3 q-9 1 -19 5 q-51 -108 -98 -166 q-14 -17 -33 -17 q-14 0 -24 9.5 q-10 9.5 -10 23.5 q0 17 14 32 q60 70 125 248 q5 14 15 21.5 q10 7.5 22 7.5 q14 0 23.5 -10 q9.5 -10 9.5 -28 q0 -11 -6 -28 q-2 -6 -4.5 -12.5 q-2.5 -6.5 -5.5 -15.5 l170 -3 l5 80 q1 21 11.5 32 q10.5 11 24.5 11 q15 0 25 -12 q10 -12 9 -32 l-5 -80 l194 -4 q20 -3 30.5 -13 q10.5 -10 10.5 -24 q0 -15 -12.5 -25 q-12.5 -10 -32.5 -8 l-193 4 l-12 -212 l327 9 Z" /><glyph glyph-name="uni5165" unicode="&#x5165;" d="M875 116 q12 -16 12 -34 q0 -15 -10.5 -25 q-10.5 -10 -23.5 -10 q-20 0 -30 21 q-44 75 -131 171 q-87 96 -188 185 q-69 -116 -152 -207 q-83 -91 -195 -172 q-15 -12 -30 -12 q-15 0 -25.5 10 q-10.5 10 -10.5 23 q0 15 15 27 q108 74 191 166 q83 92 154 211 q-79 65 -125 96 q-15 12 -15 27 q0 13 10.5 23 q10.5 10 25.5 10 q14 0 30 -12 q82 -59 181 -147 q99 -88 186 -182 q87 -94 131 -169 Z" /><glyph glyph-name="uni5168" unicode="&#x5168;" d="M881 455 q17 -14 17 -32 q0 -14 -9.5 -24 q-9.5 -10 -23.5 -10 q-16 0 -33 13 q-57 29 -163.5 117.5 q-106.5 88.5 -180.5 162.5 q-66 -81 -166.5 -183 q-100.5 -102 -154.5 -138 q-16 -16 -34 -16 q-14 0 -23.5 10 q-9.5 10 -9.5 24 q0 17 13 30 q58 38 170 151.5 q112 113.5 169 186.5 q3 3 9 7 q10 10 23 10 q16 0 33 -13 q65 -68 184 -166 q119 -98 180 -130 ZM704 68 q19 0 29.5 -10.5 q10.5 -10.5 10.5 -24.5 q0 -14 -11 -24 q-11 -10 -33 -11 l-338 -30 q-19 0 -30 10.5 q-11 10.5 -11 24.5 q0 15 11.5 25 q11.5 10 32.5 10 l139 12 l-7 152 l-140 7 q-18 3 -27.5 13 q-9.5 10 -9.5 23 q0 16 13.5 26 q13.5 10 36.5 7 l124 -6 l-6 127 l-149 -3 q-19 1 -29 11.5 q-10 10.5 -10 24.5 q0 15 12.5 25 q12.5 10 34.5 9 l340 6 q18 -1 28 -11.5 q10 -10.5 10 -24.5 q0 -14 -12.5 -24.5 q-12.5 -10.5 -34.5 -9.5 l-120 -2 l6 -132 l105 -5 q17 -2 26.5 -12.5 q9.5 -10.5 9.5 -22.5 q0 -15 -13.5 -25.5 q-13.5 -10.5 -36.5 -8.5 l-88 4 l6 -142 l131 12 Z" /><glyph glyph-name="uni516C" unicode="&#x516c;" d="M387 689 q18 22 38 22 q13 0 22 -9.5 q9 -9.5 9 -22.5 q0 -15 -11 -29 l-229 -289 q-17 -21 -36 -21 q-13 0 -23 10 q-10 10 -10 23 q0 13 9 23 l231 293 ZM831 397 q8 -9 8 -22 q0 -14 -9.5 -24 q-9.5 -10 -22.5 -10 q-19 0 -36 21 l-191 242 q-11 14 -11 29 q0 14 9 23 q9 9 22 9 q21 0 37 -22 l194 -246 ZM718 13 q5 -10 5 -23 q0 -15 -9.5 -24.5 q-9.5 -9.5 -23.5 -9.5 q-12 0 -23.5 8.5 q-11.5 8.5 -18.5 24.5 l-9 20 l-238 -25 q-9 -1 -27 -1 q-63 0 -100 30.5 q-37 30.5 -37 80.5 q0 57 52.5 125.5 q52.5 68.5 157.5 132.5 q22 13 38 13 q14 0 22 -7.5 q8 -7.5 8 -19.5 q0 -10 -7.5 -21 q-7.5 -11 -22.5 -20 q-83 -48 -130 -101.5 q-47 -53.5 -47 -92.5 q0 -23 18.5 -36.5 q18.5 -13.5 53.5 -13.5 q15 0 23 1 l207 22 l-32 74 q-4 9 -4 20 q0 16 10 27 q10 11 23 11 q24 0 36 -29 l75 -166 Z" /><glyph glyph-name="uni5171" unicode="&#x5171;" d="M851 324 q20 1 31.5 -9 q11.5 -10 11.5 -25 q0 -13 -11 -24 q-11 -11 -32 -12 l-760 -27 q-20 -1 -32 9 q-12 10 -12 24 q0 14 11.5 25 q11.5 11 32.5 12 l233 8 l-28 234 l-118 5 q-21 1 -32.5 12 q-11.5 11 -11.5 25 q0 14 12 24 q12 10 32 9 l110 -5 l-9 79 q-2 22 8.5 35 q10.5 13 25.5 13 q13 0 23.5 -10 q10.5 -10 11.5 -28 l11 -92 l266 -11 l12 103 q1 18 11.5 28 q10.5 10 23.5 10 q15 0 25.5 -13 q10.5 -13 8.5 -35 l-11 -96 l115 -5 q21 -1 32 -12 q11 -11 11 -24 q0 -15 -11.5 -25 q-11.5 -10 -31.5 -9 l-123 5 l-24 -205 l188 7 ZM367 536 l27 -228 l198 7 l25 210 l-250 11 ZM302 146 q6 16 16.5 24 q10.5 8 21.5 8 q14 0 24 -10.5 q10 -10.5 10 -26.5 q0 -8 -5 -21 l-60 -123 q-8 -16 -19 -24 q-11 -8 -22 -8 q-12 0 -21 9 q-9 9 -9 24 q0 12 5 22 l59 126 ZM779 20 q5 -10 5 -22 q0 -15 -9 -24 q-9 -9 -21 -9 q-11 0 -22 8 q-11 8 -19 24 l-60 123 q-4 9 -4 21 q0 16 10 26.5 q10 10.5 23 10.5 q11 0 21.5 -8 q10.5 -8 16.5 -24 l59 -126 Z" /><glyph glyph-name="uni5173" unicode="&#x5173;" d="M846 352 q20 1 30.5 -8.5 q10.5 -9.5 10.5 -23.5 q0 -14 -10.5 -25.5 q-10.5 -11.5 -26.5 -12.5 l-242 -6 l187 -234 q12 -15 12 -30 q0 -13 -9.5 -21.5 q-9.5 -8.5 -23.5 -8.5 q-21 0 -35 18 l-219 273 l-50 -1 q-46 -122 -136 -286 q-7 -11 -17 -16.5 q-10 -5.5 -20 -5.5 q-13 0 -22 8.5 q-9 8.5 -9 22.5 q0 14 8 27 q76 131 122 248 l-227 -6 q-22 -1 -34 9 q-12 10 -12 25 q0 14 11 24 q11 10 32 11 l255 7 q27 80 45 162 l-190 8 q-20 1 -31 11 q-11 10 -11 24 q0 15 12 25 q12 10 33 9 l280 -12 l144 180 q17 18 35 18 q15 0 24.5 -8.5 q9.5 -8.5 9.5 -22.5 q0 -14 -13 -30 l-113 -140 l139 -6 q16 -1 26.5 -12.5 q10.5 -11.5 10.5 -25.5 q0 -13 -10.5 -22.5 q-10.5 -9.5 -30.5 -8.5 l-245 10 q-18 -83 -42 -157 l352 10 ZM376 692 q-13 16 -13 30 q0 13 10 21.5 q10 8.5 24 8.5 q19 0 35 -17 l65 -69 q14 -15 14 -30 q0 -13 -10 -21 q-10 -8 -25 -8 q-21 0 -35 17 l-65 68 Z" /><glyph glyph-name="uni5176" unicode="&#x5176;" d="M860 209 q21 0 33 -10 q12 -10 12 -24 q0 -13 -11.5 -22.5 q-11.5 -9.5 -32.5 -10.5 l-694 -1 q-23 0 -35 10 q-12 10 -12 25 q0 14 11.5 24 q11.5 10 30.5 10 l129 0 l-7 384 l-93 -2 q-19 0 -29.5 9.5 q-10.5 9.5 -10.5 23.5 q0 14 12.5 24.5 q12.5 10.5 35.5 11.5 l83 2 l-1 65 q1 21 11.5 33 q10.5 12 24.5 12 q14 0 24.5 -12 q10.5 -12 9.5 -31 l1 -66 l292 6 l-1 62 q1 21 11.5 33 q10.5 12 24.5 12 q14 0 24.5 -12 q10.5 -12 9.5 -31 l1 -63 l82 2 q21 -1 31.5 -10.5 q10.5 -9.5 10.5 -22.5 q0 -13 -12.5 -23 q-12.5 -10 -33.5 -11 l-77 -2 l8 -392 l0 -3 l137 0 ZM361 210 l292 -1 l0 2 l-1 76 l-202 8 q-22 1 -33.5 11 q-11.5 10 -11.5 24 q0 15 12 25 q12 10 32 9 l201 -10 l-5 249 l-291 -7 l1 -64 l185 -10 q20 -1 31.5 -11 q11.5 -10 11.5 -24 q0 -13 -12 -22.5 q-12 -9.5 -34 -9.5 l-181 8 l5 -253 ZM803 -22 q13 -16 13 -31 q0 -13 -8 -21.5 q-8 -8.5 -21 -8.5 q-18 0 -36 19 l-93 103 q-15 16 -15 33 q0 14 9.5 23 q9.5 9 23.5 9 q19 0 33 -17 l94 -109 ZM312 75 q14 17 33 17 q14 0 23.5 -9 q9.5 -9 9.5 -22 q0 -18 -15 -34 l-93 -103 q-16 -19 -36 -19 q-13 0 -21 8.5 q-8 8.5 -8 21.5 q0 15 13 31 l94 109 Z" /><glyph glyph-name="uni5177" unicode="&#x5177;" d="M793 151 q20 0 30 -9 q10 -9 10 -22 q0 -15 -12.5 -27.5 q-12.5 -12.5 -33.5 -11.5 l-608 10 q-20 4 -30.5 13.5 q-10.5 9.5 -10.5 22.5 q0 14 13 24.5 q13 10.5 34 9.5 l65 -1 l2 479 q0 39 26 64.5 q26 25.5 66 25.5 l299 0 q40 0 66 -25.5 q26 -25.5 26 -64.5 l0 -487 l58 -1 ZM320 159 l344 -6 l0 217 l-4 0 l-216 -14 q-22 -1 -34.5 9.5 q-12.5 10.5 -12.5 25.5 q0 14 11 24 q11 10 30 11 l215 13 l11 0 l0 160 q0 26 -17.5 43 q-17.5 17 -43.5 17 l-221 0 q-25 0 -42.5 -17 q-17.5 -17 -17.5 -43 l0 -15 l233 -18 q20 -1 30 -11 q10 -10 10 -23 q0 -15 -12.5 -26 q-12.5 -11 -33.5 -10 l-227 17 l-1 -209 l237 -18 q20 -1 30 -11 q10 -10 10 -23 q0 -15 -12.5 -26 q-12.5 -11 -33.5 -10 l-231 18 l-1 -75 ZM343 49 q16 12 32 12 q14 0 22.5 -9.5 q8.5 -9.5 8.5 -22.5 q0 -19 -18 -33 l-124 -95 q-15 -11 -31 -11 q-14 0 -23.5 9 q-9.5 9 -9.5 23 q0 19 19 33 l124 94 ZM764 -46 q19 -14 19 -34 q0 -13 -9.5 -22 q-9.5 -9 -23.5 -9 q-16 0 -31 11 l-124 95 q-18 14 -18 34 q0 13 9 22 q9 9 22 9 q16 0 32 -12 l124 -94 Z" /><glyph glyph-name="uni5185" unicode="&#x5185;" d="M733 650 q52 0 76 -18 q24 -18 30 -47 q6 -29 7 -84 q1 -8 1 -24 l0 -290 q0 -60 -12.5 -92.5 q-12.5 -32.5 -41 -46 q-28.5 -13.5 -80.5 -13.5 l-31 0 q-23 -1 -37 9.5 q-14 10.5 -14 25.5 q0 15 13.5 25 q13.5 10 37.5 10 l25 0 q32 0 47 9 q15 9 19 24 q4 15 4 42 l0 304 l0 34 q0 26 -3 38.5 q-3 12.5 -14.5 18 q-11.5 5.5 -35.5 5.5 l-187 0 l-9 -23 q-38 -97 -47 -117 q2 0 4 -2 l161 -132 q20 -14 20 -33 q0 -14 -9 -23 q-9 -9 -24 -9 q-16 0 -31 11 l-149 123 q-49 -111 -91 -177 q-15 -25 -38 -25 q-13 0 -22 9 q-9 9 -9 22 q0 13 8 25 q73 118 162 351 l-234 0 l-3 -474 q-1 -21 -11.5 -33 q-10.5 -12 -24.5 -12 q-14 0 -24.5 12 q-10.5 12 -9.5 31 l3 546 q1 21 11.5 33 q10.5 12 24.5 12 q14 0 24.5 -12 q10.5 -12 9.5 -31 l0 -2 l259 0 q14 37 40 110 q6 16 15 24 q9 8 20 8 q14 0 24 -10.5 q10 -10.5 10 -26.5 q0 -8 -3 -17 l-12 -33 q-3 -7 -20 -55 l171 0 Z" /><glyph glyph-name="uni518C" unicode="&#x518c;" d="M892 388 q21 0 33.5 -10 q12.5 -10 12.5 -24 q0 -12 -11 -22 q-11 -10 -31 -11 l-77 0 l0 -130 q0 -60 -12 -92.5 q-12 -32.5 -40.5 -46 q-28.5 -13.5 -80.5 -13.5 l-18 0 q-24 -1 -37.5 9 q-13.5 10 -13.5 28 q0 16 13 24.5 q13 8.5 37 8.5 l12 0 q32 0 47.5 8.5 q15.5 8.5 19 23.5 q3.5 15 4.5 43 l0 137 l-156 0 l2 -130 q1 -24 -10 -37.5 q-11 -13.5 -26 -13.5 q-13 0 -22.5 10 q-9.5 10 -9.5 28 l-2 143 l-77 0 l0 -170 q0 -60 -12 -92.5 q-12 -32.5 -40.5 -46 q-28.5 -13.5 -80.5 -13.5 l-18 0 q-24 -1 -37.5 9 q-13.5 10 -13.5 28 q0 16 13 24.5 q13 8.5 37 8.5 l12 0 q32 0 47.5 8.5 q15.5 8.5 19 23.5 q3.5 15 4.5 43 l0 177 l-157 0 l3 -180 q1 -24 -10 -37.5 q-11 -13.5 -26 -13.5 q-13 0 -22.5 10 q-9.5 10 -9.5 28 l-2 193 l-39 0 q-23 0 -35.5 10.5 q-12.5 10.5 -12.5 25.5 q0 13 11 23 q11 10 29 10 l46 0 l-1 87 q-1 22 9 35.5 q10 13.5 24 13.5 q12 0 21 -10.5 q9 -10.5 12 -29.5 l2 -96 l157 -1 l0 118 l0 33 q0 27 -3.5 39.5 q-3.5 12.5 -14.5 18 q-11 5.5 -36 6.5 l-111 4 q-24 -1 -36.5 9 q-12.5 10 -12.5 28 q0 16 13.5 25 q13.5 9 35.5 8 l121 -4 q52 -2 76 -19.5 q24 -17.5 30 -46 q6 -28.5 7 -82.5 l1 -25 l0 -112 l77 0 l-2 168 q-1 22 9 35.5 q10 13.5 24 13.5 q12 0 21 -10.5 q9 -10.5 12 -29.5 l3 -177 l156 -1 l0 159 l0 33 q0 27 -3.5 39.5 q-3.5 12.5 -14.5 18 q-11 5.5 -36 6.5 l-111 4 q-24 -1 -36.5 9 q-12.5 10 -12.5 28 q0 16 13.5 25 q13.5 9 35.5 8 l121 -4 q52 -2 76 -19.5 q24 -17.5 30 -46 q6 -28.5 7 -82.5 l1 -25 l0 -153 l73 0 Z" /><glyph glyph-name="uni518D" unicode="&#x518d;" d="M877 185 q21 -2 31.5 -12 q10.5 -10 10.5 -23 q0 -15 -12.5 -25.5 q-12.5 -10.5 -33.5 -8.5 l-62 0 q-1 -58 -13 -90 q-12 -32 -40.5 -45 q-28.5 -13 -80.5 -13 l-32 0 q-23 -1 -36.5 8.5 q-13.5 9.5 -13.5 26.5 q0 17 13 26 q13 9 37 9 l26 0 q32 0 47 9 q15 9 19 24 q4 15 4 42 l0 2 l-480 -3 l-1 -60 q-2 -53 -32 -53 q-17 0 -28 12 q-11 12 -10 35 l2 66 l-76 -1 q-20 2 -30.5 12.5 q-10.5 10.5 -10.5 23.5 q0 15 12 25 q12 10 33 8 l74 0 l5 205 q1 27 8.5 40 q7.5 13 25.5 13 q16 0 26 -12.5 q10 -12.5 9 -34.5 l-5 -210 l218 1 l-5 113 l-112 11 q-20 3 -30 13.5 q-10 10.5 -10 23.5 q0 15 12.5 25 q12.5 10 33.5 7 l103 -10 l-5 109 l-158 1 q-23 -1 -36.5 8.5 q-13.5 9.5 -13.5 25.5 q0 17 13.5 26.5 q13.5 9.5 36.5 9.5 l155 -1 l-4 104 l-190 1 q-20 2 -30.5 12.5 q-10.5 10.5 -10.5 23.5 q0 15 12 25 q12 10 33 8 l444 -2 q21 -2 31.5 -12 q10.5 -10 10.5 -23 q0 -15 -12.5 -25.5 q-12.5 -10.5 -33.5 -8.5 l-184 1 l4 -105 l162 -1 q52 0 76 -18 q24 -18 30 -47 q6 -29 7 -84 q1 -8 1 -24 l0 -184 l66 0 ZM741 184 l0 192 l0 34 q0 26 -3 38.5 q-3 12.5 -14.5 18 q-11.5 5.5 -35.5 5.5 l-150 1 l6 -115 l76 -8 q20 -3 30.5 -13 q10.5 -10 10.5 -23 q0 -15 -12.5 -25.5 q-12.5 -10.5 -33.5 -7.5 l-68 7 l4 -105 l190 1 Z" /><glyph glyph-name="uni5199" unicode="&#x5199;" d="M829 671 q13 -2 22 -15 q9 -13 8 -32 l-4 -109 q-1 -23 -10.5 -34.5 q-9.5 -11.5 -22.5 -11.5 q-15 0 -26.5 13 q-11.5 13 -10.5 32 l6 101 q-119 34 -251 34 q-133 0 -288 -34 l18 -98 q2 -12 2 -16 q0 -19 -9 -29 q-9 -10 -22 -10 q-13 0 -24 10 q-11 10 -14 26 l-29 161 q-1 6 -1 16 q0 19 8.5 29.5 q8.5 10.5 21.5 10.5 q11 0 21.5 -9.5 q10.5 -9.5 14.5 -26.5 q3 2 13 4 q157 34 292 34 q144 0 269 -39 q10 -3 16 -7 ZM671 337 q52 0 76 -18 q24 -18 30 -47 q6 -29 7 -84 q1 -8 1 -24 l0 -61 q0 -60 -12.5 -92.5 q-12.5 -32.5 -41 -46 q-28.5 -13.5 -80.5 -13.5 l-84 0 q-24 0 -37.5 10 q-13.5 10 -13.5 25 q0 15 13.5 25 q13.5 10 37.5 10 l78 0 q32 0 47 9 q15 9 19 24 q4 15 4 42 l0 75 l0 34 q0 26 -3 38.5 q-3 12.5 -14.5 18 q-11.5 5.5 -35.5 5.5 l-262 0 q-57 0 -81 21 q-24 21 -28.5 52 q-4.5 31 -4.5 100 l0 82 q0 24 10.5 37.5 q10.5 13.5 24.5 13.5 q15 0 25 -13.5 q10 -13.5 10 -37.5 l0 -28 l1 0 l323 18 q24 1 38 -8.5 q14 -9.5 14 -24.5 q0 -14 -13.5 -24.5 q-13.5 -10.5 -37.5 -11.5 l-324 -18 l-1 0 q0 -44 1.5 -58.5 q1.5 -14.5 12.5 -22 q11 -7.5 39 -7.5 l262 0 ZM518 174 q26 1 40.5 -8.5 q14.5 -9.5 14.5 -23.5 q0 -14 -14.5 -25 q-14.5 -11 -39.5 -12 l-319 -8 q-25 -1 -39 8.5 q-14 9.5 -14 23.5 q0 14 14.5 25.5 q14.5 11.5 38.5 12.5 l318 7 Z" /><glyph glyph-name="uni51FA" unicode="&#x51fa;" d="M831 27 q1 -23 -9.5 -35 q-10.5 -12 -25.5 -12 q-14 0 -24 10.5 q-10 10.5 -11 28.5 l-2 19 q-67 -22 -148 -34.5 q-81 -12.5 -164 -12.5 q-155 0 -265 40 q-22 6 -33 19 q-11 13 -11 27 q0 9 2 12 l28 172 q0 21 10.5 32.5 q10.5 11.5 24.5 11.5 q15 0 25.5 -11.5 q10.5 -11.5 9.5 -30.5 l-29 -172 q106 -32 246 -30 l-8 290 q-114 2 -222 40 q-22 6 -33 19 q-11 13 -11 27 q0 9 2 12 l28 172 q0 21 10.5 32.5 q10.5 11.5 24.5 11.5 q15 0 25.5 -11.5 q10.5 -11.5 9.5 -30.5 l-29 -172 q91 -28 193 -30 l-6 234 q1 22 11.5 34 q10.5 12 24.5 12 q14 0 24.5 -11.5 q10.5 -11.5 10.5 -30.5 l6 -236 q98 7 204 42 l-19 139 q-1 23 9.5 35 q10.5 12 25.5 12 q14 0 24 -10.5 q10 -10.5 10 -29.5 l31 -224 q1 -23 -9.5 -35 q-10.5 -12 -25.5 -12 q-14 0 -24 10.5 q-10 10.5 -11 28.5 l-2 19 q-103 -36 -211 -45 l8 -290 q120 9 224 42 l-19 139 q-1 23 9.5 35 q10.5 12 25.5 12 q14 0 24 -11 q10 -11 10 -29 l31 -224 Z" /><glyph glyph-name="uni51FB" unicode="&#x51fb;" d="M841 39 q1 -23 -9.5 -35 q-10.5 -12 -25.5 -12 q-14 0 -24 10.5 q-10 10.5 -11 28.5 l-3 19 q-67 -23 -145.5 -35 q-78.5 -12 -159.5 -12 q-149 0 -259 40 q-25 7 -36 23 q-11 16 -8 31 l12 188 q0 21 10.5 32.5 q10.5 11.5 24.5 11.5 q15 0 25.5 -11.5 q10.5 -11.5 9.5 -30.5 l-12 -183 q97 -29 216 -31 l0 4 l4 293 l-280 -8 q-20 -1 -32 9 q-12 10 -12 24 q0 14 11.5 25 q11.5 11 32.5 12 l281 8 l2 152 l-190 12 q-21 1 -32.5 12 q-11.5 11 -11.5 25 q0 14 12 24 q12 10 32 9 l191 -12 l1 64 q1 18 11.5 28 q10.5 10 23.5 10 q15 0 25.5 -13 q10.5 -13 8.5 -35 l-1 -58 l170 -11 q21 -1 32 -12 q11 -11 11 -24 q0 -15 -11.5 -25 q-11.5 -10 -31.5 -9 l-171 11 l-2 -147 l283 8 q20 1 31.5 -9 q11.5 -10 11.5 -25 q0 -13 -11 -24 q-11 -11 -32 -12 l-284 -8 l-4 -297 q131 6 243 42 l-23 160 q-3 23 6.5 35 q9.5 12 24.5 12 q14 0 25 -10.5 q11 -10.5 13 -29.5 l37 -244 Z" /><glyph glyph-name="uni5206" unicode="&#x5206;" d="M350 688 q11 20 29 20 q13 0 22.5 -10 q9.5 -10 9.5 -26 q0 -16 -8 -29 q-29 -53 -105 -147.5 q-76 -94.5 -121 -134.5 q-15 -14 -32 -14 q-14 0 -23 9 q-9 9 -9 22 q0 17 17 33 q45 40 118.5 132 q73.5 92 101.5 145 ZM837 469 q10 -16 10 -30 q0 -14 -9.5 -23 q-9.5 -9 -22.5 -9 q-21 0 -35 21 l-155 197 q-10 16 -10 30 q0 14 9.5 23 q9.5 9 22.5 9 q20 0 33 -21 l157 -197 ZM643 380 q52 0 76 -18 q24 -18 30 -47 q6 -29 7 -84 q1 -8 1 -24 l0 -50 q0 -60 -12.5 -92.5 q-12.5 -32.5 -41 -46 q-28.5 -13.5 -80.5 -13.5 l-56 0 q-23 -1 -37 9.5 q-14 10.5 -14 25.5 q0 15 13.5 25 q13.5 10 37.5 10 l50 0 q32 0 47 9 q15 9 19 24 q4 15 4 42 l0 64 l0 34 q0 26 -3 38.5 q-3 12.5 -14.5 18 q-11.5 5.5 -35.5 5.5 l-153 0 l0 -2 q-3 -68 -25.5 -132.5 q-22.5 -64.5 -59.5 -146.5 q-6 -14 -17 -21.5 q-11 -7.5 -22 -7.5 q-12 0 -21 9 q-9 9 -9 23 q0 12 5 23 q8 20 13 30 q29 67 46 118.5 q17 51.5 22 106.5 l-105 0 q-24 -1 -37.5 9.5 q-13.5 10.5 -13.5 25.5 q0 14 13.5 24.5 q13.5 10.5 37.5 10.5 l335 0 Z" /><glyph glyph-name="uni5207" unicode="&#x5207;" d="M250 309 l0 -34 q0 -26 3 -38.5 q3 -12.5 14.5 -18 q11.5 -5.5 35.5 -5.5 l73 0 q24 1 37.5 -9.5 q13.5 -10.5 13.5 -25.5 q0 -14 -13.5 -24.5 q-13.5 -10.5 -37.5 -10.5 l-82 0 q-52 0 -76 18 q-24 18 -30 47 q-6 29 -7 84 q-1 8 -1 24 l0 72 l-73 2 q-18 1 -28.5 11 q-10.5 10 -10.5 24 q0 16 12 27 q12 11 34 10 l66 -2 l0 136 q-1 23 9.5 37 q10.5 14 25.5 14 q15 0 25 -13.5 q10 -13.5 10 -37.5 l0 -138 l138 -5 q19 -1 30 -11 q11 -10 11 -24 q0 -15 -12.5 -26 q-12.5 -11 -35.5 -10 l-131 4 l0 -77 ZM800 634 q52 0 76 -18 q24 -18 30 -47 q6 -29 7 -84 q1 -8 1 -24 l0 -221 q0 -60 -12.5 -92.5 q-12.5 -32.5 -41 -46 q-28.5 -13.5 -80.5 -13.5 l-115 0 q-23 -1 -37 9.5 q-14 10.5 -14 25.5 q0 15 13.5 25 q13.5 10 37.5 10 l109 0 q32 0 47 9 q15 9 19 24 q4 15 4 42 l0 235 l0 34 q0 26 -3 38.5 q-3 12.5 -14.5 18 q-11.5 5.5 -35.5 5.5 l-163 0 q1 -3 0.5 -5 q-0.5 -2 -0.5 -4 q-25 -171 -49.5 -282 q-24.5 -111 -70.5 -213 q-9 -20 -21.5 -29.5 q-12.5 -9.5 -25.5 -9.5 q-12 0 -20 8 q-8 8 -8 22 q0 12 7 26 q47 102 69.5 202 q22.5 100 45.5 259 l4 26 l-51 0 q-24 -1 -37.5 9.5 q-13.5 10.5 -13.5 25.5 q0 14 13.5 24.5 q13.5 10.5 37.5 10.5 l292 0 Z" /><glyph glyph-name="uni5219" unicode="&#x5219;" d="M435 542 q0 32 -9 47 q-9 15 -24 19 q-15 4 -42 4 l-106 0 l-34 0 q-26 0 -38.5 -3 q-12.5 -3 -18 -14.5 q-5.5 -11.5 -5.5 -35.5 l0 -257 q1 -24 -9.5 -37.5 q-10.5 -13.5 -25.5 -13.5 q-14 0 -24.5 13.5 q-10.5 13.5 -10.5 37.5 l0 266 q0 52 21 76 q21 24 53.5 30 q32.5 6 98.5 8 l92 0 q60 0 92.5 -12.5 q32.5 -12.5 46 -41 q13.5 -28.5 13.5 -80.5 l0 -272 q1 -23 -9.5 -37 q-10.5 -14 -25.5 -14 q-14 0 -24.5 13.5 q-10.5 13.5 -10.5 37.5 l0 266 ZM854 236 q0 -15 -1 -22 q-1 -56 -7 -84.5 q-6 -28.5 -30 -46.5 q-24 -18 -76 -20 l-33 -1 q-23 -1 -36.5 10 q-13.5 11 -13.5 26 q0 15 13 25 q13 10 37 9 l24 0 q24 0 35.5 5.5 q11.5 5.5 14.5 18 q3 12.5 3 38.5 l0 34 l0 364 q0 25 10 38 q10 13 24 13 q15 0 26 -13.5 q11 -13.5 10 -37.5 l0 -356 ZM672 253 q-1 -21 -11.5 -32 q-10.5 -11 -24.5 -11 q-15 0 -25 11.5 q-10 11.5 -9 31.5 l13 253 q1 21 12 32 q11 11 24 11 q15 0 25 -11.5 q10 -11.5 9 -31.5 l-13 -253 ZM343 490 q-37 -173 -65.5 -259.5 q-28.5 -86.5 -75.5 -173.5 q-15 -28 -38 -28 q-13 0 -22.5 10 q-9.5 10 -9.5 25 q0 10 6 22 q48 89 76 171 q28 82 64 251 q4 17 12.5 25.5 q8.5 8.5 19.5 8.5 q13 0 23.5 -11.5 q10.5 -11.5 10.5 -28.5 q0 -8 -1 -12 ZM331 169 q-26 22 -26 46 q0 13 7.5 21 q7.5 8 20.5 8 q16 0 35 -16 l86 -77 q25 -18 25 -40 q0 -13 -9 -21.5 q-9 -8.5 -23 -8.5 q-16 0 -30 13 l-86 75 Z" /><glyph glyph-name="uni521A" unicode="&#x521a;" d="M456 695 q52 0 76 -18 q24 -18 30 -47 q6 -29 7 -84 q1 -8 1 -24 l0 -315 q0 -60 -12.5 -92.5 q-12.5 -32.5 -41 -46 q-28.5 -13.5 -80.5 -13.5 l-32 0 q-23 -1 -37 9.5 q-14 10.5 -14 25.5 q0 15 13.5 25 q13.5 10 37.5 10 l26 0 q32 0 47 9 q15 9 19 24 q4 15 4 42 l0 329 l0 34 q0 26 -3 38.5 q-3 12.5 -14.5 18 q-11.5 5.5 -35.5 5.5 l-278 0 l-3 -491 q-1 -21 -11.5 -33 q-10.5 -12 -24.5 -12 q-14 0 -24.5 12 q-10.5 12 -9.5 31 l3 563 q1 21 11.5 33 q10.5 12 24.5 12 q14 0 24.5 -12 q10.5 -12 9.5 -31 l0 -2 l287 0 ZM784 639 q0 25 10 38 q10 13 24 13 q15 0 26 -13.5 q11 -13.5 10 -37.5 l0 -433 q0 -15 -1 -22 q-1 -56 -7 -84.5 q-6 -28.5 -30 -46.5 q-24 -18 -76 -20 l-33 -1 q-23 -1 -36.5 10 q-13.5 11 -13.5 26 q0 15 13 25 q13 10 37 9 l24 0 q24 0 35.5 5.5 q11.5 5.5 14.5 18 q3 12.5 3 38.5 l0 34 l0 441 ZM385 276 q-28 23 -60 60 q-47 -59 -77 -83 q-19 -16 -38 -16 q-14 0 -23.5 9 q-9.5 9 -9.5 21 q0 15 16 30 q44 38 88 94 q-37 50 -60 93 q-6 12 -6 23 q0 15 9.5 26 q9.5 11 21.5 11 q19 0 32 -24 q16 -30 46 -73 q27 38 49 79 q13 24 32 24 q12 0 21.5 -10.5 q9.5 -10.5 9.5 -25.5 q0 -11 -6 -23 q-26 -47 -63 -99 q38 -42 71 -71 q16 -15 16 -31 q0 -12 -9 -21 q-9 -9 -22 -9 q-18 0 -38 16 ZM703 232 q-1 -21 -11.5 -32 q-10.5 -11 -24.5 -11 q-15 0 -25 11.5 q-10 11.5 -9 31.5 l13 273 q1 21 12 32 q11 11 24 11 q15 0 25 -11.5 q10 -11.5 9 -31.5 l-13 -273 Z" /><glyph glyph-name="uni521B" unicode="&#x521b;" d="M610 524 q20 -16 20 -35 q0 -13 -9 -22 q-9 -9 -22 -9 q-16 0 -33 13 q-51 38 -84 75 q-33 37 -89 112 q-11 15 -30 40 q-16 -21 -17 -23 q-64 -83 -98 -121 q-34 -38 -88 -79 q-17 -13 -33 -13 q-13 0 -22 9 q-9 9 -9 22 q0 19 20 35 q56 44 87.5 79 q31.5 35 94.5 119 l29 37 q15 19 36 19 l0 0 q21 0 36 -19 l40 -52 q58 -77 88.5 -111.5 q30.5 -34.5 82.5 -75.5 ZM794 639 q0 25 10 38 q10 13 24 13 q15 0 26 -13.5 q11 -13.5 10 -37.5 l0 -433 q0 -15 -1 -22 q-1 -56 -7 -84.5 q-6 -28.5 -30 -46.5 q-24 -18 -76 -20 l-33 -1 q-23 -1 -36.5 10 q-13.5 11 -13.5 26 q0 15 13 25 q13 10 37 9 l24 0 q24 0 35.5 5.5 q11.5 5.5 14.5 18 q3 12.5 3 38.5 l0 34 l0 441 ZM713 232 q-1 -21 -11.5 -32 q-10.5 -11 -24.5 -11 q-15 0 -25 11.5 q-10 11.5 -9 31.5 l13 273 q1 21 12 32 q11 11 24 11 q15 0 25 -11.5 q10 -11.5 9 -31.5 l-13 -273 ZM216 411 q-24 -1 -37.5 9.5 q-13.5 10.5 -13.5 25.5 q0 14 13.5 24.5 q13.5 10.5 37.5 10.5 l193 0 q53 0 77.5 -18.5 q24.5 -18.5 30 -48.5 q5.5 -30 6.5 -90 q-2 -50 -15.5 -78 q-13.5 -28 -41.5 -40 q-28 -12 -77 -12 l-22 0 q-23 -1 -37 9.5 q-14 10.5 -14 25.5 q0 15 13.5 25 q13.5 10 37.5 10 l16 0 q32 0 47 9 q15 9 19 24 q4 15 4 42 l0 -24 l0 34 q0 26 -3 38.5 q-3 12.5 -14.5 18 q-11.5 5.5 -35.5 5.5 l-184 0 ZM494 107 q24 1 37.5 -9.5 q13.5 -10.5 13.5 -25.5 q0 -14 -13.5 -24.5 q-13.5 -10.5 -37.5 -10.5 l-203 0 q-52 0 -76 18 q-24 18 -30 47 q-6 29 -7 84 q-1 8 -1 24 l0 130 q-1 23 9.5 37 q10.5 14 25.5 14 q14 0 24.5 -13.5 q10.5 -13.5 10.5 -37.5 l0 -137 l0 -34 q0 -26 3 -38.5 q3 -12.5 14.5 -18 q11.5 -5.5 35.5 -5.5 l194 0 Z" /><glyph glyph-name="uni522B" unicode="&#x522b;" d="M405 300 q52 0 76 -18 q24 -18 30 -47 q6 -29 7 -84 q1 -8 1 -24 l0 -5 q0 -60 -12.5 -92.5 q-12.5 -32.5 -41 -46 q-28.5 -13.5 -80.5 -13.5 l-27 0 q-23 -1 -37 9.5 q-14 10.5 -14 25.5 q0 15 13.5 25 q13.5 10 37.5 10 l21 0 q32 0 47 9 q15 9 19 24 q4 15 4 42 l0 19 l0 34 q0 26 -3 38.5 q-3 12.5 -14.5 18 q-11.5 5.5 -35.5 5.5 l-104 0 q-14 -59 -36.5 -110 q-22.5 -51 -66.5 -120 q-9 -14 -20.5 -21.5 q-11.5 -7.5 -21.5 -7.5 q-12 0 -19.5 8 q-7.5 8 -7.5 22 q0 15 10 32 q38 62 58 106 q20 44 32 91 l-64 0 q-24 -1 -37.5 9.5 q-13.5 10.5 -13.5 25.5 q0 14 13.5 24.5 q13.5 10.5 37.5 10.5 l79 0 l14 91 l-2 0 q-45 0 -72 22 q-27 22 -27 64 l0 147 q0 36 27.5 57.5 q27.5 21.5 71.5 21.5 l151 0 q43 0 71.5 -21.5 q28.5 -21.5 28.5 -57.5 l0 -147 q0 -41 -28 -63.5 q-28 -22.5 -72 -22.5 l-79 0 l0 -1 q-10 -70 -14 -90 l100 0 ZM218 503 q0 -25 16 -37.5 q16 -12.5 42 -12.5 l96 0 q27 0 43 12.5 q16 12.5 16 37.5 l0 87 q0 22 -16 33 q-16 11 -43 11 l-96 0 q-26 0 -42 -11 q-16 -11 -16 -33 l0 -87 ZM764 527 q0 24 10.5 37.5 q10.5 13.5 25.5 13.5 q14 0 24.5 -13.5 q10.5 -13.5 9.5 -37.5 l0 -333 q0 -16 -1 -24 q-1 -55 -7 -84 q-6 -29 -30 -47 q-24 -18 -76 -18 l-54 0 q-24 0 -37.5 10.5 q-13.5 10.5 -13.5 25.5 q0 14 13.5 24.5 q13.5 10.5 37.5 9.5 l45 0 q24 0 35.5 5.5 q11.5 5.5 14.5 18 q3 12.5 3 38.5 l0 34 l0 340 ZM680 259 q-1 -21 -11 -32 q-10 -11 -24 -11 q-15 0 -25.5 12 q-10.5 12 -9.5 32 l-1 188 q1 21 11.5 32.5 q10.5 11.5 24.5 11.5 q15 0 25 -12 q10 -12 9 -32 l1 -189 Z" /><glyph glyph-name="uni5230" unicode="&#x5230;" d="M530 680 q21 -1 32 -12 q11 -11 11 -24 q0 -15 -11.5 -25 q-11.5 -10 -31.5 -9 l-271 18 l0 -2 l-19 -53 q-11 -29 -16 -45 q-5 -16 -5 -30 q0 -17 8 -31 q8 -14 28 -29 q23 -18 77 -18 l20 1 q29 1 73 23 l-17 26 q-7 14 -7 26 q0 15 9.5 25 q9.5 10 22.5 10 q22 0 35 -24 l80 -125 q7 -14 7 -26 q0 -15 -9.5 -24.5 q-9.5 -9.5 -22.5 -9.5 q-22 0 -34 23 l-25 39 q-67 -33 -115 -36 l-16 -1 l-16 1 q15 -17 15 -48 l2 -30 l98 -2 q23 0 36 -10.5 q13 -10.5 13 -25.5 q0 -14 -14 -24 q-14 -10 -40 -10 l-90 2 l7 -126 l110 12 q25 3 41 -8.5 q16 -11.5 16 -27.5 q0 -12 -11.5 -21.5 q-11.5 -9.5 -33.5 -12.5 l-320 -36 q-26 -3 -42 8.5 q-16 11.5 -16 27.5 q0 12 11.5 22 q11.5 10 34.5 13 l141 15 l-7 135 l-113 2 q-23 0 -36 10.5 q-13 10.5 -13 25.5 q0 15 14 25.5 q14 10.5 40 9.5 l105 -2 l-2 36 q0 31 16 45 q-39 8 -68 26 q-32 22 -47.5 49 q-15.5 27 -15.5 63 q0 50 35 142 l-64 4 q-21 1 -32.5 12 q-11.5 11 -11.5 25 q0 14 12 24 q12 10 32 9 l411 -27 ZM901 185 q0 -41 -6.5 -65 q-6.5 -24 -30 -39.5 q-23.5 -15.5 -71.5 -22.5 l-50 -7 l-9 -1 q-19 0 -30.5 9.5 q-11.5 9.5 -11.5 25.5 q0 16 13 26 q13 10 36 10 l41 6 q31 1 41 11 q10 10 10 39 q0 8 -2 48 l-16 211 q-1 24 8.5 37.5 q9.5 13.5 26.5 13.5 q17 0 26 -13 q9 -13 9 -36 l16 -204 l0 -49 ZM699 243 q0 -21 -9.5 -32.5 q-9.5 -11.5 -23.5 -11.5 q-15 0 -26 13.5 q-11 13.5 -10 36.5 l4 179 q2 21 11.5 31 q9.5 10 22.5 10 q15 0 26 -13 q11 -13 9 -34 l-4 -179 Z" /><glyph glyph-name="uni5236" unicode="&#x5236;" d="M507 292 q56 0 80 -14.5 q24 -14.5 28 -32.5 q4 -18 6 -64 l0 -64 q0 -58 -23.5 -85 q-23.5 -27 -70.5 -27 l-21 0 q-23 -1 -37 9.5 q-14 10.5 -14 25.5 q0 15 13.5 25 q13.5 10 37.5 10 l15 0 q18 0 24 12.5 q6 12.5 6 22.5 l0 78 q0 4 0 17 q0 13 -11 15 q-11 2 -42 2 l-90 0 l1 -199 q-1 -21 -11.5 -33 q-10.5 -12 -24.5 -12 q-14 0 -24.5 12 q-10.5 12 -9.5 31 l-1 201 l-148 0 l-2 -158 q-1 -21 -11.5 -33 q-10.5 -12 -24.5 -12 q-14 0 -24.5 12 q-10.5 12 -9.5 31 l3 230 q1 21 11.5 33 q10.5 12 24.5 12 q14 0 24.5 -12 q10.5 -12 9.5 -31 l0 -2 l146 0 l0 57 l-146 -2 q-23 -2 -35.5 8 q-12.5 10 -12.5 26 q0 14 10 24 q10 10 27 11 l157 2 l-1 126 l-147 3 l-2 0 l-25 -62 q-7 -14 -17 -21 q-10 -7 -21 -7 q-13 0 -22.5 9.5 q-9.5 9.5 -9.5 24.5 q0 12 5 22 l87 211 q15 28 38 28 q13 0 22.5 -9.5 q9.5 -9.5 9.5 -24.5 q0 -10 -6 -22 l-33 -81 l121 -3 l-1 121 q1 21 11.5 33 q10.5 12 24.5 12 q14 0 24.5 -12 q10.5 -12 9.5 -31 l1 -124 l110 -3 q23 1 36 -9.5 q13 -10.5 13 -25.5 q0 -13 -10.5 -23 q-10.5 -10 -28.5 -11 l-120 3 l1 -123 l120 2 q23 1 36 -9.5 q13 -10.5 13 -25.5 q0 -13 -10.5 -23 q-10.5 -10 -28.5 -11 l-130 -2 l0 -58 l100 0 ZM910 165 q0 -41 -6.5 -65 q-6.5 -24 -30 -39.5 q-23.5 -15.5 -71.5 -22.5 l-50 -7 l-10 -1 q-19 0 -30 10 q-11 10 -11 24 q0 15 13 26 q13 11 36 11 l41 6 q31 1 41 11 q10 10 10 39 q0 8 -2 48 l-16 319 q-1 25 9 38.5 q10 13.5 25 13.5 q15 0 25.5 -13.5 q10.5 -13.5 10.5 -36.5 l16 -312 l0 -49 ZM730 208 q-1 -20 -10.5 -30.5 q-9.5 -10.5 -22.5 -10.5 q-15 0 -26.5 13 q-11.5 13 -9.5 34 l11 222 q2 21 11.5 31 q9.5 10 22.5 10 q15 0 26 -13 q11 -13 9 -34 l-11 -222 Z" /><glyph glyph-name="uni524D" unicode="&#x524d;" d="M629 637 q-7 -10 -17 -15.5 q-10 -5.5 -19 -5.5 q-13 0 -22.5 8.5 q-9.5 8.5 -9.5 22.5 q0 15 11 30 l60 82 q13 22 34 22 q13 0 23 -9 q10 -9 10 -23 q0 -15 -11 -30 l-59 -82 ZM295 707 q-11 14 -11 29 q0 14 10 23.5 q10 9.5 24 9.5 q21 0 34 -22 l60 -82 q11 -15 11 -30 q0 -14 -9.5 -22.5 q-9.5 -8.5 -22.5 -8.5 q-22 0 -36 21 l-60 82 ZM191 523 q-21 1 -32.5 12 q-11.5 11 -11.5 25 q0 14 12 24 q12 10 32 9 l608 10 q21 -1 32 -12 q11 -11 11 -24 q0 -15 -11.5 -25 q-11.5 -10 -31.5 -9 l-608 -10 ZM416 448 q52 3 76 -15 q24 -18 30 -48 q6 -30 7 -86 q1 -8 1 -24 l0 -158 q0 -60 -12.5 -92.5 q-12.5 -32.5 -41 -46 q-28.5 -13.5 -80.5 -13.5 l-12 0 q-22 -1 -33 8 q-11 9 -11 23 q0 15 12.5 27 q12.5 12 31.5 12 l6 0 q32 0 47 9 q15 9 19 24 q4 15 4 42 l0 1 l-4 0 l-140 18 q-21 3 -31.5 13.5 q-10.5 10.5 -10.5 24.5 q0 15 12 25.5 q12 10.5 33 8.5 l141 -20 l0 101 l0 34 q0 26 -3 38.5 q-3 12.5 -14.5 18 q-11.5 5.5 -35.5 5.5 l-187 -11 l6 -57 l11 0 l124 -12 q20 -3 30.5 -13 q10.5 -10 10.5 -23 q0 -15 -12.5 -25 q-12.5 -10 -32.5 -8 l-124 10 q2 -24 2 -76 q0 -70 -8 -134 q-2 -20 -13 -30.5 q-11 -10.5 -26 -10.5 q-14 0 -23 10 q-9 10 -7 28 q10 56 10 129 q0 47 -4 89 q-4 42 -13 108 l-9 71 q-4 19 8.5 32 q12.5 13 29.5 13 q26 0 32 -32 l204 12 ZM852 106 q0 -41 -6.5 -65 q-6.5 -24 -30 -39.5 q-23.5 -15.5 -71.5 -22.5 l-50 -7 l-10 -1 q-19 0 -30 10 q-11 10 -11 24 q0 15 13 26 q13 11 36 11 l41 6 q31 1 41 11 q10 10 10 39 q0 8 -2 48 l-16 239 q-1 24 9.5 38 q10.5 14 25.5 14 q14 0 24.5 -13 q10.5 -13 10.5 -37 l16 -232 l0 -49 ZM687 153 q-1 -20 -11.5 -30.5 q-10.5 -10.5 -23.5 -10.5 q-14 0 -24.5 10.5 q-10.5 10.5 -10.5 27.5 q0 6 1 9 l13 174 q2 21 11.5 31 q9.5 10 22.5 10 q15 0 26 -13 q11 -13 9 -34 l-13 -174 Z" /><glyph glyph-name="uni529F" unicode="&#x529f;" d="M801 567 q52 0 76 -18 q24 -18 30 -47 q6 -29 7 -84 q1 -8 1 -24 l0 -135 q0 -60 -12.5 -92.5 q-12.5 -32.5 -41 -46 q-28.5 -13.5 -80.5 -13.5 l-63 0 q-23 -1 -37 9.5 q-14 10.5 -14 25.5 q0 15 13.5 25 q13.5 10 37.5 10 l57 0 q32 0 47 9 q15 9 19 24 q4 15 4 42 l0 149 l0 34 q0 26 -3 38.5 q-3 12.5 -14.5 18 q-11.5 5.5 -35.5 5.5 l-123 0 q-27 -128 -64 -244 q-37 -116 -74 -191 q-9 -18 -21.5 -27.5 q-12.5 -9.5 -24.5 -9.5 q-12 0 -20 8.5 q-8 8.5 -8 21.5 q0 13 7 27 q40 76 75 183.5 q35 107.5 62 231.5 l-114 0 q-24 -1 -37.5 9.5 q-13.5 10.5 -13.5 25.5 q0 14 13.5 24.5 q13.5 10.5 37.5 10.5 l128 0 q11 61 21 130 q3 21 12.5 32 q9.5 11 21.5 11 q15 0 25.5 -14.5 q10.5 -14.5 7.5 -38.5 q-5 -43 -19 -120 l117 0 ZM385 282 q23 2 36 -8 q13 -10 13 -25 q0 -13 -10 -23.5 q-10 -10.5 -28 -11.5 l-277 -34 q-22 -1 -35 9.5 q-13 10.5 -13 25.5 q0 14 9.5 24 q9.5 10 27.5 12 l102 11 l9 230 q0 4 1 6 l-77 -7 q-22 -1 -35 9.5 q-13 10.5 -13 25.5 q0 14 9.5 24 q9.5 10 27.5 12 l223 16 q23 2 36 -8 q13 -10 13 -25 q0 -13 -10 -23.5 q-10 -10.5 -28 -11.5 l-77 -7 l0 -11 l-9 -222 l105 12 Z" /><glyph glyph-name="uni52A0" unicode="&#x52a0;" d="M408 536 q52 0 76 -18 q24 -18 30 -47 q6 -29 7 -84 q1 -8 1 -24 l0 -112 q0 -60 -12.5 -92.5 q-12.5 -32.5 -41 -46 q-28.5 -13.5 -80.5 -13.5 l-32 0 q-23 -1 -37 9.5 q-14 10.5 -14 25.5 q0 15 13.5 25 q13.5 10 37.5 10 l26 0 q32 0 47 9 q15 9 19 24 q4 15 4 42 l0 126 l0 34 q0 26 -3 38.5 q-3 12.5 -14.5 18 q-11.5 5.5 -35.5 5.5 l-87 0 q-20 -71 -51 -142.5 q-31 -71.5 -79 -162.5 q-7 -18 -20 -27.5 q-13 -9.5 -27 -9.5 q-12 0 -19.5 7.5 q-7.5 7.5 -7.5 20.5 q0 11 8 30 q87 154 125 285 l-83 0 q-24 -1 -37.5 9.5 q-13.5 10.5 -13.5 25.5 q0 14 13.5 24.5 q13.5 10.5 37.5 10.5 l100 0 q14 63 18 133 q0 17 9.5 26 q9.5 9 22.5 9 q15 0 26 -11 q11 -11 11 -32 q0 -9 -1 -13 q-4 -58 -15 -113 l79 0 ZM820 493 q43 0 71.5 -21.5 q28.5 -21.5 28.5 -57.5 l0 -174 q0 -41 -28 -63.5 q-28 -22.5 -72 -22.5 l-132 0 q-45 0 -72 22 q-27 22 -27 64 l0 174 q0 36 27.5 57.5 q27.5 21.5 71.5 21.5 l132 0 ZM853 380 q0 22 -16 33 q-16 11 -43 11 l-77 0 q-26 0 -42 -11 q-16 -11 -16 -33 l0 -114 q0 -25 16 -37.5 q16 -12.5 42 -12.5 l77 0 q27 0 43 12.5 q16 12.5 16 37.5 l0 114 Z" /><glyph glyph-name="uni52A1" unicode="&#x52a1;" d="M802 414 q14 -4 21 -14.5 q7 -10.5 7 -22.5 q0 -14 -8.5 -23.5 q-8.5 -9.5 -24.5 -9.5 q-11 0 -20 4 l-217 73 q-69 -43 -151 -81 q-82 -38 -158 -63 q-18 -9 -33 -9 q-15 0 -24.5 8.5 q-9.5 8.5 -9.5 21.5 q0 19 19 35 q151 60 263 120 l-138 46 q-16 6 -24.5 16.5 q-8.5 10.5 -8.5 22.5 q0 13 9.5 22 q9.5 9 24.5 9 q9 0 19 -3 l199 -67 q99 64 99 108 q0 73 -279 81 q-31 -44 -66.5 -80 q-35.5 -36 -86.5 -74 q-17 -12 -31 -12 q-14 0 -23 9.5 q-9 9.5 -9 22.5 q0 17 15 30 q53 45 78.5 68.5 q25.5 23.5 52 58 q26.5 34.5 56.5 88.5 q13 23 35 23 q13 0 21.5 -9 q8.5 -9 8.5 -24 q0 -12 -8 -30 q173 -13 252 -49 q79 -36 79 -89 q0 -64 -109 -150 l170 -57 ZM665 275 q55 0 79.5 -18 q24.5 -18 28 -36.5 q3.5 -18.5 6.5 -63.5 l0 -58 q0 -60 -12.5 -92.5 q-12.5 -32.5 -41 -46 q-28.5 -13.5 -80.5 -13.5 l-37 0 q-23 -1 -37 9.5 q-14 10.5 -14 25.5 q0 14 13.5 24.5 q13.5 10.5 37.5 10.5 l31 0 q32 0 47 9 q15 9 19 24 q4 15 4 42 l0 72 q0 3 0.5 15.5 q0.5 12.5 -13 19 q-13.5 6.5 -40.5 6.5 l-124 0 q-20 -51 -43.5 -98.5 q-23.5 -47.5 -60.5 -115.5 q-10 -18 -23.5 -27.5 q-13.5 -9.5 -26.5 -9.5 q-12 0 -19.5 7 q-7.5 7 -7.5 19 q0 11 9 28 q65 110 98 197 l-140 0 q-24 -1 -37.5 9.5 q-13.5 10.5 -13.5 25.5 q0 14 13.5 24.5 q13.5 10.5 37.5 10.5 l164 0 q11 35 17 60 q6 21 16.5 32 q10.5 11 22.5 11 q13 0 22 -11.5 q9 -11.5 9 -30.5 q0 -11 -2 -18 l-12 -43 l110 0 Z" /><glyph glyph-name="uni52A8" unicode="&#x52a8;" d="M161 599 q-21 1 -32.5 12 q-11.5 11 -11.5 25 q0 14 12 24 q12 10 32 9 l245 -25 q21 -1 32 -12 q11 -11 11 -24 q0 -15 -11.5 -25 q-11.5 -10 -31.5 -9 l-245 25 ZM793 493 q52 0 76 -18 q24 -18 30 -47 q6 -29 7 -84 q1 -8 1 -24 l0 -85 q0 -60 -12.5 -92.5 q-12.5 -32.5 -41 -46 q-28.5 -13.5 -80.5 -13.5 l-32 0 q-23 -1 -37 9.5 q-14 10.5 -14 25.5 q0 15 13.5 25 q13.5 10 37.5 10 l26 0 q32 0 47 9 q15 9 19 24 q4 15 4 42 l0 99 l0 34 q0 26 -3 38.5 q-3 12.5 -14.5 18 q-11.5 5.5 -35.5 5.5 l-73 0 q-15 -85 -42 -154.5 q-27 -69.5 -79 -158.5 q-9 -16 -20.5 -23.5 q-11.5 -7.5 -21.5 -7.5 q-13 0 -22.5 10 q-9.5 10 -9.5 24 q0 11 6 21 q50 89 76.5 151 q26.5 62 41.5 138 l-55 0 q-24 -1 -37.5 9.5 q-13.5 10.5 -13.5 25.5 q0 14 13.5 24.5 q13.5 10.5 37.5 10.5 l66 0 q6 49 8 84 q-2 19 10 32 q12 13 27 13 q14 0 24 -12 q10 -12 10 -36 q0 -25 -5 -52 l-3 -29 l71 0 ZM457 427 q21 -1 32 -12 q11 -11 11 -24 q0 -15 -11.5 -25 q-11.5 -10 -31.5 -9 l-158 2 q-7 -10 -18 -17 q-52 -35 -83 -77 q-31 -42 -31 -74 q0 -25 19.5 -39.5 q19.5 -14.5 58.5 -14.5 l156 0 l-13 66 q-3 14 -3 24 q0 20 8 30.5 q8 10.5 21 10.5 q13 0 24.5 -11.5 q11.5 -11.5 15.5 -31.5 l30 -140 q1 -3 1 -9 q0 -17 -12 -29.5 q-12 -12.5 -26 -12.5 q-11 0 -19.5 8.5 q-8.5 8.5 -12.5 24.5 l-179 0 q-69 0 -105.5 33.5 q-36.5 33.5 -36.5 86.5 q0 43 24.5 89 q24.5 46 70.5 84 l-96 1 q-21 1 -32.5 12 q-11.5 11 -11.5 25 q0 14 12 24 q12 10 32 9 l364 -4 Z" /><glyph glyph-name="uni533A" unicode="&#x533a;" d="M215 659 q-18 3 -28 13.5 q-10 10.5 -10 23.5 q0 13 10.5 23 q10.5 10 27.5 10 q7 0 11 -1 l533 -29 q18 -3 27.5 -12.5 q9.5 -9.5 9.5 -21.5 q0 -14 -12.5 -25 q-12.5 -11 -33.5 -10 l-535 29 ZM757 73 q23 1 36.5 -8.5 q13.5 -9.5 13.5 -25.5 q0 -17 -13.5 -26.5 q-13.5 -9.5 -36.5 -9.5 l-462 0 q-55 0 -79.5 19 q-24.5 19 -28 40 q-3.5 21 -6.5 74 l0 419 q-1 23 8.5 36.5 q9.5 13.5 26.5 13.5 q17 0 26 -13 q9 -13 9 -37 l0 -426 q0 -5 -0.5 -23.5 q-0.5 -18.5 12.5 -25.5 q13 -7 41 -7 l453 0 ZM450 217 q-17 -14 -33 -14 q-14 0 -23.5 9.5 q-9.5 9.5 -9.5 22.5 q0 16 16 31 q59 47 114 99 q-62 64 -112 125 q-16 15 -16 31 q0 14 9.5 23.5 q9.5 9.5 23.5 9.5 q16 0 33 -14 q52 -66 111 -126 q52 53 102 116 q17 14 33 14 q14 0 23.5 -9.5 q9.5 -9.5 9.5 -22.5 q0 -16 -16 -31 q-48 -60 -101 -116 q49 -46 103 -88 q16 -15 16 -32 q0 -14 -9.5 -23.5 q-9.5 -9.5 -23.5 -9.5 q-15 0 -33 15 q-56 45 -103 89 q-56 -53 -114 -99 Z" /><glyph glyph-name="uni534F" unicode="&#x534f;" d="M687 537 q52 0 76 -18 q24 -18 30 -47 q6 -29 7 -84 q1 -8 1 -24 l0 -110 q0 -60 -12.5 -92.5 q-12.5 -32.5 -41 -46 q-28.5 -13.5 -80.5 -13.5 l-32 0 q-23 -1 -37 9.5 q-14 10.5 -14 25.5 q0 15 13.5 25 q13.5 10 37.5 10 l26 0 q32 0 47 9 q15 9 19 24 q4 15 4 42 l0 124 l0 34 q0 26 -3 38.5 q-3 12.5 -14.5 18 q-11.5 5.5 -35.5 5.5 l-64 0 q-45 -169 -146 -363 q-14 -27 -39 -27 q-13 0 -22.5 8.5 q-9.5 8.5 -9.5 21.5 q0 8 5 18 q91 160 141 343 l-102 0 q-24 -1 -37.5 9.5 q-13.5 10.5 -13.5 25.5 q0 14 13.5 24.5 q13.5 10.5 37.5 10.5 l118 0 q16 72 20 137 q0 17 9.5 26 q9.5 9 22.5 9 q15 0 26 -11 q11 -11 11 -32 q0 -9 -1 -13 q-4 -50 -16 -117 l56 0 ZM302 468 q20 2 31.5 -9 q11.5 -11 11.5 -27 q0 -15 -11 -25.5 q-11 -10.5 -31 -10.5 l-68 -1 l2 -302 q0 -19 -11 -30 q-11 -11 -25 -11 q-13 0 -23 10.5 q-10 10.5 -10 30.5 l-3 302 l-94 -1 q-18 0 -29.5 10.5 q-11.5 10.5 -11.5 24.5 q0 13 10.5 22.5 q10.5 9.5 30.5 10.5 l93 2 l-1 114 q-2 20 9 31.5 q11 11.5 27 11.5 q14 0 24.5 -11 q10.5 -11 10.5 -31 l1 -113 l67 2 ZM944 272 q7 -13 7 -24 q0 -14 -10 -23.5 q-10 -9.5 -23 -9.5 q-23 0 -34 22 l-64 121 q-7 13 -7 24 q0 15 10.5 25 q10.5 10 24.5 10 q22 0 34 -25 l62 -120 ZM376 374 q12 25 34 25 q14 0 24.5 -10 q10.5 -10 10.5 -25 q0 -11 -7 -24 l-64 -121 q-6 -11 -15 -17 q-9 -6 -19 -6 q-13 0 -23 9.5 q-10 9.5 -10 23.5 q0 12 7 25 l62 120 Z" /><glyph glyph-name="uni5355" unicode="&#x5355;" d="M608 639 q-16 -15 -32 -15 q-13 0 -22.5 10 q-9.5 10 -9.5 24 q0 19 15 33 l90 84 q15 15 32 15 q13 0 22 -9 q9 -9 9 -23 q0 -18 -16 -34 l-88 -85 ZM257 718 q-16 16 -16 34 q0 14 9 23 q9 9 22 9 q18 0 33 -15 l89 -84 q15 -14 15 -32 q0 -14 -9.5 -24.5 q-9.5 -10.5 -22.5 -10.5 q-17 0 -32 15 l-88 85 ZM679 605 q40 0 66 -25.5 q26 -25.5 26 -64.5 l0 -218 q0 -39 -26 -65 q-26 -26 -66 -26 l-170 0 l-1 -96 l188 2 q23 0 35.5 -9.5 q12.5 -9.5 12.5 -23.5 q0 -14 -13 -24.5 q-13 -10.5 -35 -11.5 l-188 -3 l-1 -86 q0 -20 -10.5 -32 q-10.5 -12 -24.5 -12 q-14 0 -23.5 13.5 q-9.5 13.5 -9.5 38.5 l0 78 l-186 -3 q-25 0 -38 9.5 q-13 9.5 -13 22.5 q0 15 14 26 q14 11 37 12 l187 2 l0 97 l-167 0 q-40 0 -66 26 q-26 26 -26 65 l0 218 q0 39 26 64.5 q26 25.5 66 25.5 l406 0 ZM441 276 l0 92 l-103 -2 q-25 -1 -38 8.5 q-13 9.5 -13 23.5 q0 15 14 26 q14 11 37 12 l103 2 l1 97 l-131 0 q-25 0 -42.5 -17 q-17.5 -17 -17.5 -43 l0 -139 q0 -25 17.5 -42.5 q17.5 -17.5 42.5 -17.5 l130 0 ZM700 475 q0 26 -17.5 43 q-17.5 17 -43.5 17 l-128 0 l-1 -96 l117 2 q23 0 35.5 -9.5 q12.5 -9.5 12.5 -23.5 q0 -14 -13 -24.5 q-13 -10.5 -35 -11.5 l-117 -2 l-1 -94 l130 0 q26 0 43.5 17 q17.5 17 17.5 43 l0 139 Z" /><glyph glyph-name="uni535A" unicode="&#x535a;" d="M744 742 q-27 16 -27 38 q0 14 9.5 23.5 q9.5 9.5 24.5 9.5 q12 0 23 -7 l55 -26 q26 -16 26 -38 q0 -13 -9.5 -22.5 q-9.5 -9.5 -24.5 -9.5 q-12 0 -23 7 l-54 25 ZM451 304 q-1 -21 -11.5 -33 q-10.5 -12 -24.5 -12 q-14 0 -24.5 12 q-10.5 12 -9.5 31 l3 294 q1 21 11.5 32.5 q10.5 11.5 24.5 11.5 q14 0 24 -10.5 q10 -10.5 10 -29.5 l126 0 l0 39 l-127 3 q-21 1 -32.5 12 q-11.5 11 -11.5 25 q0 14 12 24 q12 10 32 9 l127 -3 l0 64 q1 21 11.5 33 q10.5 12 24.5 12 q14 0 24.5 -12 q10.5 -12 9.5 -31 l0 -68 l138 -4 q21 -1 32 -12 q11 -11 11 -24 q0 -15 -11.5 -25 q-11.5 -10 -31.5 -9 l-138 4 l0 -37 l111 0 q52 0 76 -21.5 q24 -21.5 30 -55 q6 -33.5 7 -91.5 q1 -8 1 -25 l0 -7 q0 -85 -22.5 -118.5 q-22.5 -33.5 -71.5 -33.5 l-11 0 q-23 -1 -37 9.5 q-14 10.5 -14 25.5 q0 15 13.5 25 q13.5 10 37.5 10 l5 0 q19 0 24.5 17.5 q5.5 17.5 5.5 57.5 l0 21 l0 35 q0 45 -9.5 63 q-9.5 18 -43.5 18 l-102 0 l0 -46 l45 -1 q21 -1 32 -12 q11 -11 11 -24 q0 -15 -11.5 -25 q-11.5 -10 -31.5 -9 l-45 1 l0 -33 l46 -1 q21 -1 32 -12 q11 -11 11 -24 q0 -15 -11.5 -25 q-11.5 -10 -31.5 -9 l-46 1 l0 -25 q-1 -21 -11.5 -33 q-10.5 -12 -24.5 -12 q-14 0 -24.5 12 q-10.5 12 -9.5 31 l0 29 l-58 1 q-21 1 -32.5 12 q-11.5 11 -11.5 25 q0 14 12 24 q12 10 32 9 l58 -1 l0 33 l-59 1 q-21 1 -32.5 12 q-11.5 11 -11.5 25 q0 14 12 24 q12 10 32 9 l59 -1 l0 44 l-127 0 l-2 -226 ZM290 445 q21 -1 32 -12 q11 -11 11 -24 q0 -15 -11.5 -25 q-11.5 -10 -31.5 -9 l-63 0 l-2 -219 q-1 -21 -11.5 -33 q-10.5 -12 -24.5 -12 q-14 0 -24.5 12 q-10.5 12 -9.5 31 l2 220 l-71 0 q-21 1 -32.5 12 q-11.5 11 -11.5 25 q0 14 12 24 q12 10 32 9 l71 0 l1 121 q1 21 11.5 33 q10.5 12 24.5 12 q14 0 24.5 -12 q10.5 -12 9.5 -31 l-1 -122 l63 0 ZM904 179 q21 -1 32 -12 q11 -11 11 -24 q0 -15 -11.5 -25 q-11.5 -10 -31.5 -9 l-99 2 l0 -13 q0 -20 -1 -30 q-1 -53 -5 -81 q-4 -28 -22 -45 q-18 -17 -56 -17 l-24 0 q-24 0 -37.5 10.5 q-13.5 10.5 -13.5 25.5 q0 14 13.5 24.5 q13.5 10.5 37.5 9.5 l15 0 q15 0 19.5 9 q4.5 9 4.5 34 l-1 53 l1 21 l-315 6 q-21 1 -32.5 12 q-11.5 11 -11.5 25 q0 14 12 24 q12 10 32 9 l317 -6 l0 8 q1 24 11.5 37.5 q10.5 13.5 24.5 13.5 q15 0 25 -13.5 q10 -13.5 9 -37.5 l0 -9 l96 -2 ZM575 59 q26 -16 26 -38 q0 -13 -9.5 -22.5 q-9.5 -9.5 -24.5 -9.5 q-12 0 -23 7 l-54 25 q-27 16 -27 38 q0 14 9.5 23.5 q9.5 9.5 24.5 9.5 q12 0 23 -7 l55 -26 Z" /><glyph glyph-name="uni5361" unicode="&#x5361;" d="M830 398 q21 -1 34 -11.5 q13 -10.5 13 -24.5 q0 -14 -12.5 -23.5 q-12.5 -9.5 -34.5 -9.5 l-321 3 l0 -8 l-16 -350 q-1 -25 -11.5 -38 q-10.5 -13 -24.5 -13 q-15 0 -25 14 q-10 14 -9 37 l16 350 q0 6 1 9 l-273 2 q-21 1 -34 11.5 q-13 10.5 -13 24.5 q0 14 12.5 23.5 q12.5 9.5 34.5 9.5 l254 -2 l13 313 q1 25 11.5 38 q10.5 13 24.5 13 q15 0 25 -14 q10 -14 9 -37 l-4 -105 l244 -6 q25 -1 38 -11 q13 -10 13 -23 q0 -15 -14 -26 q-14 -11 -37 -10 l-247 6 l-6 -139 l339 -3 ZM793 115 q32 -17 32 -41 q0 -12 -9.5 -20.5 q-9.5 -8.5 -24.5 -8.5 q-11 0 -29 8 l-190 100 q-31 17 -31 40 q0 12 9.5 21 q9.5 9 24.5 9 q16 0 29 -8 l189 -100 Z" /><glyph glyph-name="uni538B" unicode="&#x538b;" d="M265 618 q1 -20 1 -59 q0 -123 -18.5 -231.5 q-18.5 -108.5 -63.5 -220.5 q-6 -16 -16.5 -24 q-10.5 -8 -22.5 -8 q-13 0 -22.5 8.5 q-9.5 8.5 -9.5 22.5 q0 8 3 15 q45 103 63 210 q18 107 18 233 l-1 57 l-22 1 q-21 1 -32.5 12 q-11.5 11 -11.5 25 q0 14 12 24 q12 10 32 9 l602 -27 q21 -1 32 -12 q11 -11 11 -24 q0 -15 -11.5 -25 q-11.5 -10 -31.5 -9 l-511 23 ZM820 132 q25 2 40.5 -9.5 q15.5 -11.5 15.5 -26.5 q0 -13 -12 -23 q-12 -10 -35 -11 l-512 -38 q-25 -2 -41 9.5 q-16 11.5 -16 26.5 q0 14 12.5 24 q12.5 10 35.5 11 l233 17 l-3 192 l-180 11 q-23 1 -36.5 12.5 q-13.5 11.5 -13.5 25.5 q0 15 14.5 25 q14.5 10 40.5 8 l174 -11 l-2 134 q0 24 9.5 37.5 q9.5 13.5 22.5 13.5 q15 0 26 -15.5 q11 -15.5 11 -43.5 l2 -131 l158 -10 q23 -1 36 -12.5 q13 -11.5 13 -25.5 q0 -15 -14 -24 q-14 -9 -40 -8 l-152 9 l4 -182 l209 15 ZM801 205 q9 -15 9 -28 q0 -13 -8.5 -21 q-8.5 -8 -20.5 -8 q-11 0 -23.5 8 q-12.5 8 -21.5 24 l-25 39 q-4 11 -4 23 q0 15 7 22.5 q7 7.5 19 7.5 q24 0 43 -28 l25 -39 Z" /><glyph glyph-name="uni539F" unicode="&#x539f;" d="M289 689 q2 -132 -39 -320 q-41 -188 -96 -327 q-10 -21 -22 -31.5 q-12 -10.5 -23 -10.5 q-11 0 -19 10 q-8 10 -8 25 q0 10 4 21 q55 125 94.5 312.5 q39.5 187.5 38.5 323.5 l-11 1 q-21 1 -32.5 12 q-11.5 11 -11.5 25 q0 14 12 24 q12 10 32 9 l578 -26 q21 -1 32 -12 q11 -11 11 -24 q0 -15 -11.5 -25 q-11.5 -10 -31.5 -9 l-497 22 ZM776 295 q0 -40 -25 -61.5 q-25 -21.5 -64 -21.5 l-71 0 q1 -6 1 -19 l0 -101 q0 -16 -1 -24 q-1 -55 -7 -84 q-6 -29 -30 -47 q-24 -18 -76 -18 l-50 0 q-23 0 -36.5 9.5 q-13.5 9.5 -13.5 26.5 q0 16 13.5 25.5 q13.5 9.5 36.5 8.5 l41 0 q24 0 35.5 5.5 q11.5 5.5 14.5 18 q3 12.5 3 38.5 l0 34 l0 108 q0 14 1 19 l-95 0 q-41 0 -64.5 21.5 q-23.5 21.5 -23.5 61.5 l0 204 q0 35 24 56 q24 21 64 21 l54 0 l15 51 q4 15 14 23 q10 8 21 8 q13 0 22 -10.5 q9 -10.5 9 -27.5 q0 -12 -2 -18 l-8 -26 l109 0 q38 0 63.5 -21 q25.5 -21 25.5 -56 l0 -204 ZM654 282 q24 0 38 12 q14 12 14 36 l0 135 q0 20 -14 30.5 q-14 10.5 -38 10.5 l-168 0 q-23 0 -37 -10.5 q-14 -10.5 -14 -30.5 l0 -135 q0 -24 14 -36 q14 -12 37 -12 l168 0 ZM649 422 q17 -2 27.5 -13 q10.5 -11 10.5 -24 q0 -13 -12 -22 q-12 -9 -35 -8 l-149 15 q-20 2 -31.5 13.5 q-11.5 11.5 -11.5 25.5 q0 13 10.5 22.5 q10.5 9.5 30.5 9.5 q8 0 12 -1 l148 -18 ZM347 130 q15 18 35 18 q14 0 23 -8.5 q9 -8.5 9 -21.5 q0 -16 -14 -31 l-80 -91 q-12 -15 -32 -15 q-14 0 -24 8.5 q-10 8.5 -10 21.5 q0 15 13 29 l80 90 ZM835 50 q14 -14 14 -29 q0 -13 -9.5 -22 q-9.5 -9 -23.5 -9 q-18 0 -34 16 l-78 78 q-15 17 -15 31 q0 13 9 21 q9 8 22 8 q20 0 37 -17 l78 -77 Z" /><glyph glyph-name="uni53C8" unicode="&#x53c8;" d="M810 63 q22 -18 22 -37 q0 -14 -9.5 -23 q-9.5 -9 -23.5 -9 q-14 0 -27 10 l-260 178 q-135 -113 -233 -182 q-24 -17 -45 -17 q-15 0 -23.5 7.5 q-8.5 7.5 -8.5 18.5 q0 19 23 36 q122 92 228 177 l-242 166 q-22 15 -22 37 q0 13 9.5 22.5 q9.5 9.5 23.5 9.5 q13 0 26 -10 l261 -179 q194 163 217 219 q10 24 10 44 q0 27 -18 39.5 q-18 12.5 -45 12.5 l-426 0 q-23 -1 -36.5 8.5 q-13.5 9.5 -13.5 25.5 q0 17 13.5 26.5 q13.5 9.5 36.5 9.5 l435 0 q58 0 91.5 -31 q33.5 -31 33.5 -82 q0 -31 -11 -60 q-26 -76 -229 -251 l243 -166 Z" /><glyph glyph-name="uni53C9" unicode="&#x53c9;" d="M838 106 q26 -15 26 -38 q0 -13 -9.5 -22.5 q-9.5 -9.5 -23.5 -9.5 q-12 0 -23 7 l-285 141 q-127 -106 -236 -184 q-24 -17 -45 -17 q-15 0 -23.5 7.5 q-8.5 7.5 -8.5 18.5 q0 19 23 36 q108 80 223 173 l-257 127 q-27 14 -27 37 q0 13 9.5 22.5 q9.5 9.5 24.5 9.5 q10 0 22 -6 l286 -142 q199 167 220 221 q10 24 10 44 q0 27 -18 39.5 q-18 12.5 -45 12.5 l-426 0 q-23 -1 -36.5 8.5 q-13.5 9.5 -13.5 25.5 q0 17 13.5 26.5 q13.5 9.5 36.5 9.5 l435 0 q58 0 91.5 -31 q33.5 -31 33.5 -82 q0 -31 -11 -60 q-26 -74 -224 -246 l258 -128 ZM535 421 q12 -13 12 -30 q0 -14 -8.5 -23.5 q-8.5 -9.5 -21.5 -9.5 q-18 0 -36 19 l-86 98 q-13 14 -13 31 q0 14 9.5 24 q9.5 10 22.5 10 q17 0 35 -19 l86 -100 Z" /><glyph glyph-name="uni53CB" unicode="&#x53cb;" d="M844 606 q21 -2 31.5 -12.5 q10.5 -10.5 10.5 -24.5 q0 -15 -12 -25 q-12 -10 -32 -8 l-432 11 q-57 -213 -169 -431 q-10 -19 -24 -29.5 q-14 -10.5 -27 -10.5 q-11 0 -18 7 q-7 7 -7 20 q0 13 9 32 q108 206 164 414 l-138 3 q-20 2 -31 13 q-11 11 -11 24 q0 15 12 25 q12 10 33 8 l153 -4 q9 35 20 95 q4 20 13.5 30 q9.5 10 20.5 10 q14 0 24 -13 q10 -13 10 -34 q0 -6 -2 -18 q-6 -36 -15 -72 l417 -10 ZM753 42 q22 -15 22 -37 q0 -14 -9.5 -23.5 q-9.5 -9.5 -24.5 -9.5 q-14 0 -30 10 l-94 61 q-66 -66 -135 -91 q-16 -6 -29 -6 q-16 0 -25.5 8 q-9.5 8 -9.5 19 q0 10 7 19.5 q7 9.5 21 16.5 q52 25 108 75 l-144 93 q-19 13 -19 32 q0 14 10.5 25 q10.5 11 25.5 11 q14 0 28 -11 l151 -97 q33 37 52 71.5 q19 34.5 19 59.5 q0 48 -71 48 l-155 2 q-23 -1 -36.5 8.5 q-13.5 9.5 -13.5 25.5 q0 17 13.5 26.5 q13.5 9.5 36.5 9.5 l164 -2 q66 -3 97 -31.5 q31 -28.5 31 -75.5 q0 -39 -20.5 -87 q-20.5 -48 -56.5 -94 l87 -56 Z" /><glyph glyph-name="uni53CC" unicode="&#x53cc;" d="M867 100 q20 -16 20 -36 q0 -13 -9 -22 q-9 -9 -23 -9 q-17 0 -33 12 l-111 81 q-80 -104 -129 -130 q-18 -9 -31 -9 q-14 0 -22.5 7.5 q-8.5 7.5 -8.5 19.5 q0 20 26 39 q28 19 106 116 l-156 114 q-17 13 -17 31 q0 15 10 25.5 q10 10.5 25 10.5 q15 0 29 -14 l151 -110 q86 117 98 161 q7 23 7 43 q0 55 -49 55 l-211 2 q-23 -1 -36.5 8.5 q-13.5 9.5 -13.5 25.5 q0 17 13.5 26.5 q13.5 9.5 36.5 9.5 l220 -2 q34 0 59 -19.5 q25 -19.5 38 -50 q13 -30.5 13 -62.5 q0 -20 -7 -43 q-12 -36 -41.5 -89 q-29.5 -53 -68.5 -108 l115 -83 ZM466 130 q23 -14 23 -37 q0 -13 -9.5 -22.5 q-9.5 -9.5 -24.5 -9.5 q-13 0 -28 9 l-112 66 q-74 -86 -125 -112 q-18 -9 -31 -9 q-14 0 -22.5 7.5 q-8.5 7.5 -8.5 19.5 q0 20 26 39 q33 23 96 92 l-147 86 q-20 13 -20 32 q0 15 10 26 q10 11 25 11 q13 0 27 -11 l153 -89 q71 86 84 129 q7 23 7 43 q0 55 -49 55 l-171 2 q-23 -1 -36.5 8.5 q-13.5 9.5 -13.5 25.5 q0 17 13.5 26.5 q13.5 9.5 36.5 9.5 l180 -2 q34 0 59 -19.5 q25 -19.5 38 -50 q13 -30.5 13 -62.5 q0 -20 -7 -43 q-22 -67 -92 -158 l106 -62 Z" /><glyph glyph-name="uni53D1" unicode="&#x53d1;" d="M443 422 q-105 -183 -237 -349 q-16 -24 -36 -24 q-13 0 -22.5 10 q-9.5 10 -9.5 24 q0 13 8 25 q120 153 216 314 l-67 0 q-52 0 -76 18 q-24 18 -30 47 q-6 29 -7 84 q-1 8 -1 24 l0 22 q-1 23 8.5 36.5 q9.5 13.5 26.5 13.5 q17 0 26 -13 q9 -13 9 -37 l0 -29 l0 -34 q0 -26 3 -38.5 q3 -12.5 14.5 -18 q11.5 -5.5 35.5 -5.5 l99 0 q75 133 131 257 q16 24 37 24 q14 0 23 -9.5 q9 -9.5 9 -23.5 q0 -13 -8 -25 q-58 -125 -112 -223 l225 0 q23 1 36.5 -8.5 q13.5 -9.5 13.5 -25.5 q0 -17 -13.5 -26.5 q-13.5 -9.5 -36.5 -9.5 l-265 0 ZM680 634 q-7 13 -7 25 q0 15 9.5 25.5 q9.5 10.5 22.5 10.5 q20 0 32 -22 l44 -73 q7 -11 7 -23 q0 -16 -9.5 -27 q-9.5 -11 -23.5 -11 q-19 0 -33 24 l-42 71 ZM762 54 q14 -6 21.5 -17 q7.5 -11 7.5 -22 q0 -13 -9.5 -22.5 q-9.5 -9.5 -26.5 -9.5 q-13 0 -24 5 l-76 34 q-53 -61 -105 -89 q-16 -9 -30 -9 q-14 0 -23 8 q-9 8 -9 19 q0 22 26 39 q31 21 70 64 l-145 65 q-13 5 -19.5 14.5 q-6.5 9.5 -6.5 19.5 q0 15 10 26 q10 11 25 11 q12 0 23 -7 l161 -72 q38 51 49 89 q5 17 5 31 q0 22 -11 36 q-11 14 -34 15 l-168 2 q-23 -1 -36.5 8.5 q-13.5 9.5 -13.5 25.5 q0 17 13.5 26.5 q13.5 9.5 36.5 9.5 l177 -2 q52 -1 80 -32.5 q28 -31.5 28 -79.5 q0 -25 -7 -47 q-18 -57 -52 -111 l63 -28 Z" /><glyph glyph-name="uni53D6" unicode="&#x53d6;" d="M535 205 q20 1 32.5 -10.5 q12.5 -11.5 12.5 -26.5 q0 -13 -10 -22.5 q-10 -9.5 -30 -10.5 l-64 -4 l-4 -164 q0 -21 -10.5 -32.5 q-10.5 -11.5 -24.5 -11.5 q-15 0 -25.5 11.5 q-10.5 11.5 -9.5 31.5 l4 161 l-312 -18 q-21 -1 -33.5 10.5 q-12.5 11.5 -12.5 26.5 q0 13 10.5 23 q10.5 10 30.5 11 l75 4 l4 402 l-17 0 q-21 -1 -33 11 q-12 12 -12 27 q0 14 11 24 q11 10 32 10 l360 6 q20 1 32 -10.5 q12 -11.5 12 -26.5 q0 -14 -10.5 -23.5 q-10.5 -9.5 -31.5 -9.5 l-25 -1 l-9 -391 l58 3 ZM407 198 l1 56 l-2 0 l-120 20 q-16 4 -24 13.5 q-8 9.5 -8 21.5 q0 14 11 24.5 q11 10.5 30 10.5 q9 0 14 -1 l101 -19 l6 268 l-178 -4 l-1 -84 l2 -1 l122 -33 q14 -5 22 -15 q8 -10 8 -21 q0 -13 -10 -22.5 q-10 -9.5 -27 -9.5 q-3 0 -15 2 l-103 25 l-3 -241 l174 10 ZM917 125 q21 -15 21 -36 q0 -14 -9.5 -23.5 q-9.5 -9.5 -23.5 -9.5 q-16 0 -31 11 l-107 73 q-72 -82 -123 -109 q-18 -9 -31 -9 q-14 0 -22.5 7.5 q-8.5 7.5 -8.5 19.5 q0 20 26 39 q15 10 42 36 q27 26 56 58 l-142 97 q-18 12 -18 31 q0 15 10 25.5 q10 10.5 25 10.5 q16 0 29 -12 l143 -98 q70 84 83 128 q7 23 7 43 q0 55 -49 55 l-191 2 q-23 -1 -36.5 8.5 q-13.5 9.5 -13.5 25.5 q0 17 13.5 26.5 q13.5 9.5 36.5 9.5 l200 -2 q34 0 59 -19.5 q25 -19.5 38 -50 q13 -30.5 13 -62.5 q0 -20 -7 -43 q-11 -33 -36 -75.5 q-25 -42.5 -58 -85.5 l105 -71 Z" /><glyph glyph-name="uni53D8" unicode="&#x53d8;" d="M219 624 q-21 0 -32.5 10.5 q-11.5 10.5 -11.5 25.5 q0 15 11 25 q11 10 31 10 q7 0 11 -1 l274 0 l-36 33 q-18 15 -18 38 q0 14 8 24 q8 10 21 10 q15 0 29 -13 l44 -39 q20 -17 20 -40 q0 -4 -2 -12 l237 0 q21 0 32.5 -9.5 q11.5 -9.5 11.5 -23.5 q0 -15 -14 -26 q-14 -11 -38 -11 l-149 0 q1 -6 1 -20 l3 -204 q1 -23 -9.5 -35 q-10.5 -12 -27.5 -12 q-33 0 -33 53 l-2 204 q0 9 1 14 l-134 -1 l0 -10 l-7 -196 q-1 -22 -11.5 -33.5 q-10.5 -11.5 -25.5 -11.5 q-18 0 -26 14 q-8 14 -7 42 l8 195 l-159 0 ZM842 478 q19 -18 19 -40 q0 -15 -8 -25 q-8 -10 -21 -10 q-15 0 -31 16 l-93 91 q-17 17 -17 37 q0 14 8.5 24.5 q8.5 10.5 20.5 10.5 q14 0 28 -13 l94 -91 ZM257 559 q14 13 29 13 q13 0 21 -10 q8 -10 8 -24 q0 -21 -18 -38 l-93 -81 q-17 -14 -32 -14 q-13 0 -21 9 q-8 9 -8 23 q0 22 20 41 l94 81 ZM738 48 q27 -14 27 -39 q0 -13 -9.5 -22.5 q-9.5 -9.5 -25.5 -9.5 q-11 0 -25 6 l-168 67 q-99 -60 -206 -83 q-8 -2 -21 -2 q-20 0 -32 8.5 q-12 8.5 -12 20.5 q0 9 7.5 17 q7.5 8 21.5 13 q63 21 145 65 l-147 59 q-23 12 -23 33 q0 15 9.5 26 q9.5 11 24.5 11 q13 0 25 -8 l191 -76 q53 34 84 62 q31 28 31 46 q0 23 -56 23 l-247 2 q-23 -1 -36.5 8.5 q-13.5 9.5 -13.5 25.5 q0 17 13.5 26.5 q13.5 9.5 36.5 9.5 l256 -2 q66 -1 97.5 -20.5 q31.5 -19.5 31.5 -54.5 q0 -33 -29.5 -75.5 q-29.5 -42.5 -80.5 -84.5 l131 -52 Z" /><glyph glyph-name="uni53EF" unicode="&#x53ef;" d="M777 684 q24 0 37.5 -10.5 q13.5 -10.5 13.5 -24.5 q0 -14 -13.5 -24.5 q-13.5 -10.5 -37.5 -10.5 l-63 0 l3 -455 q0 -16 -1 -24 q-1 -55 -7 -84 q-6 -29 -30 -47 q-24 -18 -76 -18 l-54 0 q-24 0 -37.5 10.5 q-13.5 10.5 -13.5 25.5 q0 14 13.5 24.5 q13.5 10.5 37.5 9.5 l45 0 q24 0 35.5 5.5 q11.5 5.5 14.5 18 q3 12.5 3 38.5 l0 34 l-3 463 l-427 2 q-24 0 -37.5 10.5 q-13.5 10.5 -13.5 24.5 q0 14 13.5 24.5 q13.5 10.5 37.5 10.5 l560 -3 ZM387 510 q43 0 71.5 -21.5 q28.5 -21.5 28.5 -57.5 l0 -160 q0 -41 -28 -63.5 q-28 -22.5 -72 -22.5 l-118 0 q-45 0 -72 22 q-27 22 -27 64 l0 160 q0 36 27.5 57.5 q27.5 21.5 71.5 21.5 l118 0 ZM417 396 q0 22 -16 33 q-16 11 -43 11 l-60 0 q-26 0 -42 -11 q-16 -11 -16 -33 l0 -91 q0 -25 16 -37.5 q16 -12.5 42 -12.5 l60 0 q27 0 43 12.5 q16 12.5 16 37.5 l0 91 Z" /><glyph glyph-name="uni53F0" unicode="&#x53f0;" d="M447 708 q-40 -34 -95.5 -93.5 q-55.5 -59.5 -69.5 -81.5 q-13 -22 -13 -39 q0 -26 22.5 -41.5 q22.5 -15.5 43.5 -15.5 l339 -1 q24 1 37.5 -9.5 q13.5 -10.5 13.5 -25.5 q0 -14 -13.5 -24.5 q-13.5 -10.5 -37.5 -10.5 l-348 1 q-52 0 -91 33 q-39 33 -39 81 q0 28 16 59 q36 68 181 213 q21 21 42 21 q14 0 22.5 -8.5 q8.5 -8.5 8.5 -21.5 q0 -20 -19 -36 ZM837 374 q4 -8 4 -18 q0 -15 -10.5 -26.5 q-10.5 -11.5 -24.5 -11.5 q-21 0 -34 27 l-76 157 q-5 10 -5 23 q0 16 9.5 26.5 q9.5 10.5 22.5 10.5 q21 0 34 -27 l80 -161 ZM394 -56 q-45 0 -72 22 q-27 22 -27 64 l0 187 q0 36 27.5 57.5 q27.5 21.5 71.5 21.5 l206 0 q43 0 71.5 -21.5 q28.5 -21.5 28.5 -57.5 l0 -187 q0 -41 -28 -63.5 q-28 -22.5 -72 -22.5 l-206 0 ZM571 14 q27 0 43 12.5 q16 12.5 16 37.5 l0 118 q0 22 -16 33 q-16 11 -43 11 l-148 0 q-26 0 -42 -11 q-16 -11 -16 -33 l0 -118 q0 -25 16 -37.5 q16 -12.5 42 -12.5 l148 0 Z" /><glyph glyph-name="uni53F7" unicode="&#x53f7;" d="M400 473 q-45 0 -72 22 q-27 22 -27 64 l0 160 q0 36 27.5 57.5 q27.5 21.5 71.5 21.5 l118 0 q43 0 71.5 -21.5 q28.5 -21.5 28.5 -57.5 l0 -160 q0 -41 -28 -63.5 q-28 -22.5 -72 -22.5 l-118 0 ZM371 593 q0 -25 16 -37.5 q16 -12.5 42 -12.5 l60 0 q27 0 43 12.5 q16 12.5 16 37.5 l0 91 q0 22 -16 33 q-16 11 -43 11 l-60 0 q-26 0 -42 -11 q-16 -11 -16 -33 l0 -91 ZM794 445 q20 1 31.5 -10 q11.5 -11 11.5 -26 q0 -14 -11 -24 q-11 -10 -32 -10 l-469 -10 l0 -85 q0 -2 -0.5 -13 q-0.5 -11 13 -17.5 q13.5 -6.5 40.5 -6.5 l225 0 q44 0 67.5 -6.5 q23.5 -6.5 34.5 -23.5 q11 -17 12 -50 l0 -93 q0 -65 -24.5 -93 q-24.5 -28 -79.5 -28 l-155 0 q-24 0 -37.5 10 q-13.5 10 -13.5 25 q0 14 13.5 24.5 q13.5 10.5 37.5 10.5 l149 0 q26 0 33 10.5 q7 10.5 7 33.5 l0 77 q0 13 -3 19.5 q-3 6.5 -14.5 10 q-11.5 3.5 -35.5 3.5 l-225 0 q-55 0 -80 18 q-25 18 -29.5 40 q-4.5 22 -4.5 56 l0 77 l-119 -3 q-20 -1 -32 10 q-12 11 -12 26 q0 14 11.5 24 q11.5 10 32.5 10 l658 14 Z" /><glyph glyph-name="uni5403" unicode="&#x5403;" d="M462 478 q-14 -24 -38 -24 q-14 0 -24 8.5 q-10 8.5 -10 20.5 q0 12 8 21 q94 123 116 243 q3 16 13.5 25.5 q10.5 9.5 23.5 9.5 q14 0 23 -10 q9 -10 9 -29 q0 -9 -3 -23 q-12 -46 -35 -93 l301 -6 q21 0 32 -10 q11 -10 11 -23 q0 -15 -11 -26.5 q-11 -11.5 -30 -10.5 l-328 7 q-8 0 -11 1 q-15 -27 -47 -81 ZM296 535 q40 0 66.5 -20 q26.5 -20 26.5 -53 l0 -179 q0 -38 -26 -59 q-26 -21 -67 -21 l-133 0 q-41 0 -66 20.5 q-25 20.5 -25 59.5 l0 179 q0 33 25.5 53 q25.5 20 65.5 20 l133 0 ZM319 424 q0 20 -15 30.5 q-15 10.5 -40 10.5 l-68 0 q-24 0 -39 -10.5 q-15 -10.5 -15 -30.5 l0 -104 q0 -24 15 -35.5 q15 -11.5 39 -11.5 l68 0 q25 0 40 11.5 q15 11.5 15 35.5 l0 104 ZM885 43 q24 0 37.5 -10 q13.5 -10 13.5 -25 q0 -15 -13.5 -25 q-13.5 -10 -37.5 -10 l-205 0 q-46 0 -78.5 16 q-32.5 16 -49 42 q-16.5 26 -16.5 54 q0 20 10 40 q16 30 44 50.5 q28 20.5 71 42.5 q44 23 64.5 40.5 q20.5 17.5 20.5 43.5 q0 26 -53 26 l-191 0 q-24 0 -37.5 10.5 q-13.5 10.5 -13.5 24.5 q0 14 13.5 24.5 q13.5 10.5 37.5 10.5 l200 0 q114 0 114 -103 q-3 -50 -37.5 -78.5 q-34.5 -28.5 -94.5 -55.5 q-29 -13 -45 -22.5 q-16 -9.5 -23 -20.5 q-8 -13 -8 -25 q0 -21 20.5 -35.5 q20.5 -14.5 57.5 -14.5 l199 0 Z" /><glyph glyph-name="uni540C" unicode="&#x540c;" d="M717 695 q52 0 76 -18 q24 -18 30 -47 q6 -29 7 -84 q1 -8 1 -24 l0 -412 q0 -60 -12.5 -92.5 q-12.5 -32.5 -41 -46 q-28.5 -13.5 -80.5 -13.5 l-31 0 q-23 -1 -37 9.5 q-14 10.5 -14 25.5 q0 15 13.5 25 q13.5 10 37.5 10 l25 0 q32 0 47 9 q15 9 19 24 q4 15 4 42 l0 426 l0 34 q0 26 -3 38.5 q-3 12.5 -14.5 18 q-11.5 5.5 -35.5 5.5 l-476 0 l-3 -588 q-1 -21 -11.5 -33 q-10.5 -12 -24.5 -12 q-14 0 -24.5 12 q-10.5 12 -9.5 31 l3 660 q1 21 11.5 33 q10.5 12 24.5 12 q14 0 24.5 -12 q10.5 -12 9.5 -31 l0 -2 l485 0 ZM375 449 q-23 -1 -35.5 10 q-12.5 11 -12.5 26 q0 13 11 23 q11 10 29 11 l214 8 q23 1 35.5 -9.5 q12.5 -10.5 12.5 -25.5 q0 -14 -10.5 -24 q-10.5 -10 -29.5 -11 l-214 -8 ZM633 137 q0 -38 -26 -59 q-26 -21 -67 -21 l-117 0 q-41 0 -66 20.5 q-25 20.5 -25 59.5 l0 161 q0 33 25.5 53 q25.5 20 65.5 20 l117 0 q40 0 66.5 -20 q26.5 -20 26.5 -53 l0 -161 ZM563 260 q0 20 -15 30.5 q-15 10.5 -40 10.5 l-52 0 q-24 0 -39 -10.5 q-15 -10.5 -15 -30.5 l0 -86 q0 -24 15 -35.5 q15 -11.5 39 -11.5 l52 0 q25 0 40 11.5 q15 11.5 15 35.5 l0 86 Z" /><glyph glyph-name="uni540D" unicode="&#x540d;" d="M708 506 q-18 -54 -106 -117 q-88 -63 -190.5 -114.5 q-102.5 -51.5 -169.5 -78.5 q-31 -12 -52 -12 q-19 0 -28.5 7.5 q-9.5 7.5 -9.5 18.5 q0 11 9 22 q9 11 25 17 q69 28 169 79 q100 51 179 101.5 q79 50.5 93 80.5 q10 21 10 39 q0 27 -21 40.5 q-21 13.5 -46 15.5 l-223 15 l-8 0 q-12 0 -20 3 q-47 -44 -108 -89 q-18 -14 -38 -14 q-15 0 -25 7.5 q-10 7.5 -10 19.5 q0 19 25 37 q70 50 108.5 87 q38.5 37 83.5 97 q14 20 35 20 q13 0 22.5 -8.5 q9.5 -8.5 9.5 -21.5 q0 -20 -19 -39 l-25 -31 l198 -13 q64 -5 102.5 -36.5 q38.5 -31.5 38.5 -82.5 q0 -23 -9 -50 ZM401 417 q11 -12 11 -26 q0 -13 -9.5 -22 q-9.5 -9 -23.5 -9 q-20 0 -36 19 l-72 86 q-12 17 -12 30 q0 13 8.5 20.5 q8.5 7.5 21.5 7.5 q22 0 39 -21 l73 -85 ZM687 286 q43 0 71.5 -21.5 q28.5 -21.5 28.5 -57.5 l0 -181 q0 -41 -28 -63.5 q-28 -22.5 -72 -22.5 l-184 0 q-45 0 -72 22 q-27 22 -27 64 l0 181 q0 36 27.5 57.5 q27.5 21.5 71.5 21.5 l184 0 ZM717 172 q0 22 -16 33 q-16 11 -43 11 l-126 0 q-26 0 -42 -11 q-16 -11 -16 -33 l0 -112 q0 -25 16 -37.5 q16 -12.5 42 -12.5 l126 0 q27 0 43 12.5 q16 12.5 16 37.5 l0 112 Z" /><glyph glyph-name="uni540E" unicode="&#x540e;" d="M685 659 q-59 -16 -168 -26.5 q-109 -10.5 -203 -11.5 q-3 -57 -22.5 -166 q-19.5 -109 -45.5 -213 q-26 -104 -49 -151 q-16 -34 -42 -34 q-13 0 -21.5 8.5 q-8.5 8.5 -8.5 21.5 q0 7 5 19 q31 66 68.5 241 q37.5 175 45.5 275 q-19 2 -29.5 12.5 q-10.5 10.5 -10.5 24.5 q0 13 9.5 22.5 q9.5 9.5 26.5 8.5 q91 -2 229 9 q138 11 207 30 q10 2 15 2 q16 0 26 -9 q10 -9 10 -22 q0 -13 -10.5 -24 q-10.5 -11 -31.5 -17 ZM768 467 q25 0 38.5 -10 q13.5 -10 13.5 -24 q0 -14 -14 -24.5 q-14 -10.5 -38 -10.5 l-394 -1 q-24 0 -37 9.5 q-13 9.5 -13 23.5 q0 15 13.5 25.5 q13.5 10.5 36.5 10.5 l394 1 ZM682 335 q43 0 71.5 -21.5 q28.5 -21.5 28.5 -57.5 l0 -192 q0 -41 -28 -63.5 q-28 -22.5 -72 -22.5 l-214 0 q-45 0 -72 22 q-27 22 -27 64 l0 192 q0 36 27.5 57.5 q27.5 21.5 71.5 21.5 l214 0 ZM712 221 q0 22 -16 33 q-16 11 -43 11 l-156 0 q-26 0 -42 -11 q-16 -11 -16 -33 l0 -123 q0 -25 16 -37.5 q16 -12.5 42 -12.5 l156 0 q27 0 43 12.5 q16 12.5 16 37.5 l0 123 Z" /><glyph glyph-name="uni5411" unicode="&#x5411;" d="M274 605 q-11 -4 -21 -4 q-16 0 -26 9.5 q-10 9.5 -10 22.5 q0 11 7.5 21 q7.5 10 21.5 15 l254 93 q11 4 22 4 q16 0 25.5 -9.5 q9.5 -9.5 9.5 -22.5 q0 -11 -7 -21 q-7 -10 -21 -15 l-255 -93 ZM751 548 q52 0 76 -18 q24 -18 30 -47 q6 -29 7 -84 q1 -8 1 -24 l0 -261 q0 -60 -12.5 -92.5 q-12.5 -32.5 -41 -46 q-28.5 -13.5 -80.5 -13.5 l-31 0 q-23 -1 -37 9.5 q-14 10.5 -14 25.5 q0 15 13.5 25 q13.5 10 37.5 10 l25 0 q32 0 47 9 q15 9 19 24 q4 15 4 42 l0 275 l0 34 q0 26 -3 38.5 q-3 12.5 -14.5 18 q-11.5 5.5 -35.5 5.5 l-465 0 l-3 -445 q-1 -21 -11.5 -33 q-10.5 -12 -24.5 -12 q-14 0 -24.5 12 q-10.5 12 -9.5 31 l3 517 q1 21 11.5 33 q10.5 12 24.5 12 q14 0 24.5 -12 q10.5 -12 9.5 -31 l0 -2 l474 0 ZM659 182 q0 -38 -26 -59 q-26 -21 -67 -21 l-94 0 q-41 0 -66 20.5 q-25 20.5 -25 59.5 l0 121 q0 33 25.5 53 q25.5 20 65.5 20 l94 0 q40 0 66.5 -20 q26.5 -20 26.5 -53 l0 -121 ZM589 265 q0 20 -15 30.5 q-15 10.5 -40 10.5 l-29 0 q-24 0 -39 -10.5 q-15 -10.5 -15 -30.5 l0 -46 q0 -24 15 -35.5 q15 -11.5 39 -11.5 l29 0 q25 0 40 11.5 q15 11.5 15 35.5 l0 46 Z" /><glyph glyph-name="uni5416" unicode="&#x5416;" d="M719 427 q-17 -20 -36 -20 q-13 0 -22.5 9.5 q-9.5 9.5 -9.5 22.5 q0 16 11 28 l163 206 q17 20 36 20 q14 0 23.5 -9.5 q9.5 -9.5 9.5 -23.5 q0 -13 -11 -27 l-164 -206 ZM562 468 q9 -12 9 -27 q0 -14 -9 -23.5 q-9 -9.5 -22 -9.5 q-19 0 -36 22 l-125 172 q-10 14 -10 28 q0 14 9 24 q9 10 22 10 q21 0 36 -22 l126 -174 ZM174 217 q-41 0 -66 20.5 q-25 20.5 -25 59.5 l0 167 q0 33 25.5 53 q25.5 20 65.5 20 l123 0 q40 0 66.5 -20 q26.5 -20 26.5 -53 l0 -167 q0 -38 -26 -59 q-26 -21 -67 -21 l-123 0 ZM265 287 q25 0 40 11.5 q15 11.5 15 35.5 l0 92 q0 20 -15 30.5 q-15 10.5 -40 10.5 l-58 0 q-24 0 -39 -10.5 q-15 -10.5 -15 -30.5 l0 -92 q0 -24 15 -35.5 q15 -11.5 39 -11.5 l58 0 ZM645 -12 q-1 -21 -11.5 -32 q-10.5 -11 -24.5 -11 q-15 0 -25 11.5 q-10 11.5 -9 31.5 l7 361 q1 21 12 32 q11 11 24 11 q15 0 25 -11.5 q10 -11.5 9 -31.5 l-7 -361 Z" /><glyph glyph-name="uni5426" unicode="&#x5426;" d="M816 676 q22 -1 33.5 -10.5 q11.5 -9.5 11.5 -22.5 q0 -15 -15 -26 q-15 -11 -42 -10 l-290 11 q-6 -9 -7 -10 l-20 -25 q-57 -72 -87 -105.5 q-30 -33.5 -69.5 -68.5 q-39.5 -35 -117.5 -96 q-21 -12 -37 -12 q-15 0 -23.5 9 q-8.5 9 -8.5 23 q0 10 6 21 q6 11 17 19 q114 86 157 126.5 q43 40.5 108 121.5 l-227 9 q-22 1 -33.5 10.5 q-11.5 9.5 -11.5 22.5 q0 15 15 26 q15 11 42 10 l599 -23 ZM545 325 q0 -23 -10 -36 q-10 -13 -24 -13 q-14 0 -25 14.5 q-11 14.5 -10 40.5 l3 189 q0 23 10 36 q10 13 25 13 q15 0 25.5 -14.5 q10.5 -14.5 9.5 -40.5 l-4 -189 ZM798 390 q15 -18 15 -35 q0 -13 -8.5 -21.5 q-8.5 -8.5 -21.5 -8.5 q-22 0 -43 24 l-98 118 q-16 19 -16 37 q0 13 8 21 q8 8 21 8 q23 0 45 -26 l98 -117 ZM620 258 q43 0 71.5 -21.5 q28.5 -21.5 28.5 -57.5 l0 -184 q0 -41 -28 -63.5 q-28 -22.5 -72 -22.5 l-204 0 q-45 0 -72 22 q-27 22 -27 64 l0 184 q0 36 27.5 57.5 q27.5 21.5 71.5 21.5 l204 0 ZM650 144 q0 22 -16 33 q-16 11 -43 11 l-146 0 q-26 0 -42 -11 q-16 -11 -16 -33 l0 -115 q0 -25 16 -37.5 q16 -12.5 42 -12.5 l146 0 q27 0 43 12.5 q16 12.5 16 37.5 l0 115 Z" /><glyph glyph-name="uni5427" unicode="&#x5427;" d="M782 632 q52 0 76 -18 q24 -18 30 -47 q6 -29 7 -84 q1 -8 1 -24 l0 -54 q0 -60 -12.5 -92.5 q-12.5 -32.5 -41 -46 q-28.5 -13.5 -80.5 -13.5 l-279 2 q1 -13 1 -56 q3 -28 6.5 -43 q3.5 -15 15 -24.5 q11.5 -9.5 35.5 -9.5 l151 0 q24 1 37.5 -9.5 q13.5 -10.5 13.5 -25.5 q0 -14 -13.5 -24.5 q-13.5 -10.5 -37.5 -10.5 l-160 0 q-51 0 -75.5 17.5 q-24.5 17.5 -30.5 42.5 q-6 25 -11 77 q-3 29 -3 74 l0 -1 l0 1 l0 7 l6 219 q-1 24 9.5 37.5 q10.5 13.5 25.5 13.5 q15 0 25.5 -13.5 q10.5 -13.5 9.5 -37.5 l-4 -164 l272 -2 q32 0 47 9 q15 9 19 24 q4 15 4 42 l0 68 q0 8 0.5 39.5 q0.5 31.5 -12.5 44 q-13 12.5 -41 12.5 l-85 0 l-10 -156 q0 -22 -10.5 -34 q-10.5 -12 -24.5 -12 q-14 0 -24.5 11 q-10.5 11 -10.5 30 l8 161 l-148 0 q-24 -1 -37.5 9.5 q-13.5 10.5 -13.5 25.5 q0 14 13.5 24.5 q13.5 10.5 37.5 10.5 l314 0 ZM275 569 q40 0 66.5 -20 q26.5 -20 26.5 -53 l0 -167 q0 -38 -26 -59 q-26 -21 -67 -21 l-112 0 q-41 0 -66 20.5 q-25 20.5 -25 59.5 l0 167 q0 33 25.5 53 q25.5 20 65.5 20 l112 0 ZM298 458 q0 20 -15 30.5 q-15 10.5 -40 10.5 l-48 0 q-24 0 -39 -10.5 q-15 -10.5 -15 -30.5 l0 -92 q0 -24 15 -35.5 q15 -11.5 39 -11.5 l48 0 q25 0 40 11.5 q15 11.5 15 35.5 l0 92 Z" /><glyph glyph-name="uni542F" unicode="&#x542f;" d="M453 765 q-19 18 -19 36 q0 14 9.5 23 q9.5 9 22.5 9 q17 0 30 -12 l77 -54 q19 -16 19 -36 q0 -13 -9.5 -22 q-9.5 -9 -23.5 -9 q-16 0 -28 11 l-78 54 ZM722 686 q50 0 74.5 -20.5 q24.5 -20.5 31 -52.5 q6.5 -32 7.5 -87 q-2 -63 -16 -96 q-14 -33 -41 -45.5 q-27 -12.5 -76 -12.5 l-447 0 l-1 0 q-29 -287 -126 -368 q-18 -15 -34 -15 q-12 0 -20 7.5 q-8 7.5 -8 20.5 q0 22 24 47 q42 43 63.5 121.5 q21.5 78.5 28.5 161 q7 82.5 10 191.5 q1 7 1 22 q0 16 10.5 25 q10.5 9 24.5 9 q14 0 24.5 -9.5 q10.5 -9.5 10.5 -26.5 q0 -48 -3 -116 l436 0 q29 0 43 8 q14 8 19.5 25 q5.5 17 6.5 50 q-4 91 -52 91 l-493 0 q-23 -1 -36.5 8.5 q-13.5 9.5 -13.5 25.5 q0 17 13.5 26.5 q13.5 9.5 36.5 9.5 l502 0 ZM680 312 q43 0 71.5 -21.5 q28.5 -21.5 28.5 -57.5 l0 -209 q0 -41 -28 -63.5 q-28 -22.5 -72 -22.5 l-252 0 q-45 0 -72 22 q-27 22 -27 64 l0 209 q0 36 27.5 57.5 q27.5 21.5 71.5 21.5 l252 0 ZM700 197 q0 20 -15 30 q-15 10 -39 10 l-182 0 q-24 0 -38.5 -10.5 q-14.5 -10.5 -14.5 -29.5 l0 -138 q0 -23 14.5 -34.5 q14.5 -11.5 38.5 -11.5 l182 0 q25 0 39.5 11.5 q14.5 11.5 14.5 34.5 l0 138 Z" /><glyph glyph-name="uni544A" unicode="&#x544a;" d="M810 377 q24 -1 37 -11.5 q13 -10.5 13 -24.5 q0 -15 -14 -24.5 q-14 -9.5 -38 -8.5 l-602 25 q-23 1 -36.5 11.5 q-13.5 10.5 -13.5 24.5 q0 15 13.5 24.5 q13.5 9.5 38.5 8.5 l287 -12 l3 142 l-184 -2 q-11 0 -16 1 q-25 -44 -46 -71 q-8 -10 -19 -15.5 q-11 -5.5 -21 -5.5 q-14 0 -23 7.5 q-9 7.5 -9 19.5 q0 14 11 28 q62 79 109 219 q4 13 12.5 19.5 q8.5 6.5 18.5 6.5 q14 0 24 -10.5 q10 -10.5 10 -28.5 q0 -11 -4 -22 q-17 -49 -30 -79 l168 2 l2 98 q1 19 12 30 q11 11 25 11 q14 0 23.5 -11.5 q9.5 -11.5 9.5 -32.5 l-2 -94 l127 1 q24 1 38 -9.5 q14 -10.5 14 -25.5 q0 -14 -13 -24 q-13 -10 -37 -10 l-130 -1 l-3 -146 l245 -10 ZM632 269 q40 0 66 -25.5 q26 -25.5 26 -64.5 l0 -160 q0 -39 -26 -65 q-26 -26 -66 -26 l-202 0 q-40 0 -66 26 q-26 26 -26 65 l0 160 q0 39 26 64.5 q26 25.5 66 25.5 l202 0 ZM653 139 q0 26 -17.5 43 q-17.5 17 -43.5 17 l-124 0 q-25 0 -42.5 -17 q-17.5 -17 -17.5 -43 l0 -81 q0 -25 17.5 -42.5 q17.5 -17.5 42.5 -17.5 l124 0 q26 0 43.5 17 q17.5 17 17.5 43 l0 81 Z" /><glyph glyph-name="uni548C" unicode="&#x548c;" d="M356 344 l1 -55 q7 4 17 4 q16 0 33 -13 l83 -66 q17 -14 17 -32 q0 -14 -9.5 -23.5 q-9.5 -9.5 -24.5 -9.5 q-16 0 -32 13 l-82 67 q0 0 -0.5 0 q-0.5 0 -0.5 1 l4 -216 q0 -21 -10.5 -32.5 q-10.5 -11.5 -24.5 -11.5 q-15 0 -25.5 11.5 q-10.5 11.5 -9.5 31.5 l-4 222 q-29 -30 -58 -52.5 q-29 -22.5 -70 -49.5 q-13 -9 -28 -9 q-16 0 -26.5 9.5 q-10.5 9.5 -10.5 22.5 q0 18 22 32 q109 66 167 150 l2 3 l0 2 l-143 -1 q-21 -1 -33 11 q-12 12 -12 27 q0 14 11 23.5 q11 9.5 32 9.5 l144 1 l-3 162 q-31 -2 -87 -2 q-21 1 -34 13.5 q-13 12.5 -13 27.5 q0 13 10 21.5 q10 8.5 30 7.5 q63 -2 132.5 4 q69.5 6 128.5 21 q10 2 13 2 q15 0 24.5 -9 q9.5 -9 9.5 -22 q0 -14 -10 -25 q-10 -11 -30 -16 q-52 -13 -104 -17 l0 -2 l3 -166 l109 1 q20 0 32 -11.5 q12 -11.5 12 -26.5 q0 -13 -11 -22.5 q-11 -9.5 -31 -9.5 l-110 -1 ZM810 477 q43 0 71.5 -21.5 q28.5 -21.5 28.5 -57.5 l0 -171 q0 -41 -28 -63.5 q-28 -22.5 -72 -22.5 l-156 0 q-45 0 -72 22 q-27 22 -27 64 l0 171 q0 36 27.5 57.5 q27.5 21.5 71.5 21.5 l156 0 ZM840 363 q0 22 -16 33 q-16 11 -43 11 l-98 0 q-26 0 -42 -11 q-16 -11 -16 -33 l0 -102 q0 -25 16 -37.5 q16 -12.5 42 -12.5 l98 0 q27 0 43 12.5 q16 12.5 16 37.5 l0 102 Z" /><glyph glyph-name="uni54C8" unicode="&#x54c8;" d="M943 442 q20 -16 20 -35 q0 -13 -9 -22 q-9 -9 -22 -9 q-16 0 -33 13 q-58 44 -101 92.5 q-43 48.5 -122 151.5 q-78 -100 -122 -149.5 q-44 -49.5 -102 -93.5 q-17 -13 -33 -13 q-13 0 -22 9 q-9 9 -9 22 q0 19 20 35 q62 49 106 98.5 q44 49.5 126 156.5 q15 19 36 19 l0 0 q21 0 36 -19 q84 -109 126.5 -158 q42.5 -49 104.5 -98 ZM266 560 q40 0 66.5 -20 q26.5 -20 26.5 -53 l0 -167 q0 -38 -26 -59 q-26 -21 -67 -21 l-130 0 q-41 0 -66 20.5 q-25 20.5 -25 59.5 l0 167 q0 33 25.5 53 q25.5 20 65.5 20 l130 0 ZM289 449 q0 20 -15 30.5 q-15 10.5 -40 10.5 l-65 0 q-24 0 -39 -10.5 q-15 -10.5 -15 -30.5 l0 -92 q0 -24 15 -35.5 q15 -11.5 39 -11.5 l65 0 q25 0 40 11.5 q15 11.5 15 35.5 l0 92 ZM562 374 q-20 1 -31.5 11.5 q-11.5 10.5 -11.5 24.5 q0 14 12 24 q12 10 34 9 l224 -11 q16 -1 26.5 -13 q10.5 -12 10.5 -26 q0 -14 -10.5 -23 q-10.5 -9 -30.5 -8 l-223 12 ZM759 306 q40 0 66.5 -20 q26.5 -20 26.5 -53 l0 -178 q0 -38 -26 -59 q-26 -21 -67 -21 l-176 0 q-41 0 -66 20.5 q-25 20.5 -25 59.5 l0 178 q0 33 25.5 53 q25.5 20 65.5 20 l176 0 ZM784 195 q0 20 -15 30.5 q-15 10.5 -40 10.5 l-113 0 q-24 0 -39 -10.5 q-15 -10.5 -15 -30.5 l0 -107 q0 -24 15 -35.5 q15 -11.5 39 -11.5 l113 0 q25 0 40 11.5 q15 11.5 15 35.5 l0 107 Z" /><glyph glyph-name="uni54E5" unicode="&#x54e5;" d="M254 680 q-23 1 -35.5 10 q-12.5 9 -12.5 25 q0 17 13.5 26.5 q13.5 9.5 38.5 8.5 l511 -18 q23 -1 35.5 -10.5 q12.5 -9.5 12.5 -25.5 q0 -36 -52 -34 l-48 2 l5 -219 q1 -24 -10 -37.5 q-11 -13.5 -26 -13.5 q-13 0 -22.5 10 q-9.5 10 -9.5 28 l-4 234 l-396 14 ZM438 653 q43 0 71.5 -21.5 q28.5 -21.5 28.5 -57.5 l0 -98 q0 -41 -28 -63.5 q-28 -22.5 -72 -22.5 l-78 0 q-45 0 -72 22 q-27 22 -27 64 l0 98 q0 36 27.5 57.5 q27.5 21.5 71.5 21.5 l78 0 ZM471 540 q0 22 -16 33 q-16 11 -43 11 l-23 0 q-26 0 -42 -11 q-16 -11 -16 -33 l0 -38 q0 -25 16 -37.5 q16 -12.5 42 -12.5 l23 0 q27 0 43 12.5 q16 12.5 16 37.5 l0 38 ZM769 368 q23 0 35.5 -10 q12.5 -10 12.5 -26 q0 -34 -52 -34 l-25 0 l3 -231 q0 -16 -1 -24 q-1 -55 -7 -84 q-6 -29 -30 -47 q-24 -18 -76 -18 l-54 0 q-23 0 -36.5 9.5 q-13.5 9.5 -13.5 26.5 q0 16 13.5 25.5 q13.5 9.5 36.5 8.5 l45 0 q24 0 35.5 5.5 q11.5 5.5 14.5 18 q3 12.5 3 38.5 l0 34 l-3 238 l-452 2 q-23 0 -35.5 9.5 q-12.5 9.5 -12.5 25.5 q0 35 52 35 l547 -2 ZM544 70 q0 -41 -28 -63.5 q-28 -22.5 -72 -22.5 l-78 0 q-45 0 -72 22 q-27 22 -27 64 l0 98 q0 36 27.5 57.5 q27.5 21.5 71.5 21.5 l78 0 q43 0 71.5 -21.5 q28.5 -21.5 28.5 -57.5 l0 -98 ZM477 134 q0 22 -16 33 q-16 11 -43 11 l-23 0 q-26 0 -42 -11 q-16 -11 -16 -33 l0 -38 q0 -25 16 -37.5 q16 -12.5 42 -12.5 l23 0 q27 0 43 12.5 q16 12.5 16 37.5 l0 38 Z" /><glyph glyph-name="uni54F2" unicode="&#x54f2;" d="M819 562 q22 1 34 -9 q12 -10 12 -24 q0 -14 -11 -25 q-11 -11 -30 -12 l-83 -4 l23 -187 q1 -4 1 -11 q0 -19 -9.5 -29.5 q-9.5 -10.5 -23.5 -10.5 q-13 0 -23.5 9.5 q-10.5 9.5 -12.5 26.5 l-25 199 l-102 -5 q-3 -32 -11.5 -71.5 q-8.5 -39.5 -19.5 -82.5 q-4 -21 -16 -32.5 q-12 -11.5 -26 -11.5 q-12 0 -20 8.5 q-8 8.5 -8 23.5 q0 4 2 16 l13 65 q10 48 14 76 q4 28 4 64 q0 39 -4 83 q-12 4 -18 12.5 q-6 8.5 -6 18.5 q0 12 9.5 22 q9.5 10 26.5 13 q87 9 143 22.5 q56 13.5 126 39.5 q10 3 18 3 q14 0 22 -8.5 q8 -8.5 8 -20.5 q0 -12 -8 -24 q-8 -12 -24 -18 q-52 -22 -104 -35.5 q-52 -13.5 -123 -21.5 q4 -36 4 -71 l248 12 ZM344 379 q0 -35 -7.5 -57 q-7.5 -22 -30 -36.5 q-22.5 -14.5 -66.5 -20.5 l-23 -3 q-24 -3 -38.5 8 q-14.5 11 -14.5 27 q0 14 12.5 24.5 q12.5 10.5 35.5 11.5 l14 0 q29 2 39.5 11.5 q10.5 9.5 10.5 31.5 q0 7 -2 29 l-51 -5 l-9 -1 q-19 0 -30.5 10.5 q-11.5 10.5 -11.5 24.5 q0 12 9.5 22 q9.5 10 26.5 13 l59 5 l-9 72 l-96 2 q-21 2 -31.5 12.5 q-10.5 10.5 -10.5 24.5 q0 15 12 25 q12 10 33 8 l85 -1 l-8 65 q-3 25 7 39 q10 14 26 14 q14 0 24.5 -12.5 q10.5 -12.5 11.5 -35.5 l9 -72 l80 -1 q21 -2 31.5 -12.5 q10.5 -10.5 10.5 -24.5 q0 -15 -12 -25 q-12 -10 -32 -8 l-69 1 l8 -65 l19 2 l10 1 q19 0 29.5 -10 q10.5 -10 10.5 -24 q0 -13 -9 -23 q-9 -10 -26 -12 l-28 -3 l1 -32 ZM607 259 q43 0 71.5 -21.5 q28.5 -21.5 28.5 -57.5 l0 -164 q0 -41 -28 -63.5 q-28 -22.5 -72 -22.5 l-194 0 q-45 0 -72 22 q-27 22 -27 64 l0 164 q0 36 27.5 57.5 q27.5 21.5 71.5 21.5 l194 0 ZM637 145 q0 22 -16 33 q-16 11 -43 11 l-136 0 q-26 0 -42 -11 q-16 -11 -16 -33 l0 -95 q0 -25 16 -37.5 q16 -12.5 42 -12.5 l136 0 q27 0 43 12.5 q16 12.5 16 37.5 l0 95 Z" /><glyph glyph-name="uni5546" unicode="&#x5546;" d="M194 617 q-19 -1 -30.5 9.5 q-11.5 10.5 -11.5 25.5 q0 14 11.5 24.5 q11.5 10.5 31.5 11.5 l251 15 l-13 62 q-3 8 -3 16 q0 16 10 26 q10 10 24 10 q11 0 21.5 -8.5 q10.5 -8.5 16.5 -25.5 l16 -76 l248 15 q19 1 30 -10 q11 -11 11 -25 q0 -14 -11 -24.5 q-11 -10.5 -32 -11.5 l-570 -34 ZM716 462 q57 0 85.5 -21 q28.5 -21 37.5 -56.5 q9 -35.5 11 -95.5 l0 -186 q0 -59 -5.5 -89 q-5.5 -30 -27.5 -46.5 q-22 -16.5 -71 -16.5 l-32 0 q-23 -1 -36.5 8.5 q-13.5 9.5 -13.5 26.5 q0 17 13 26 q13 9 37 9 l26 0 q27 0 33.5 21.5 q6.5 21.5 6.5 53.5 l0 200 l0 34 q0 26 -3 38.5 q-3 12.5 -14.5 18 q-11.5 5.5 -35.5 5.5 l-421 0 q-23 -1 -36.5 8.5 q-13.5 9.5 -13.5 25.5 q0 17 13.5 26.5 q13.5 9.5 36.5 9.5 l29 0 l-38 67 q-9 12 -9 27 q0 14 9.5 24 q9.5 10 22.5 10 q21 0 37 -22 l47 -82 q9 -12 9 -24 l135 0 q0 15 9 27 l47 82 q17 22 37 22 q13 0 22.5 -10 q9.5 -10 9.5 -24 q0 -13 -9 -27 l-40 -70 l92 0 ZM252 23 q1 -26 -9.5 -40.5 q-10.5 -14.5 -24.5 -14.5 q-14 0 -24 12.5 q-10 12.5 -11 34.5 l-8 310 q-1 26 9 40.5 q10 14.5 25 14.5 q13 0 23 -12.5 q10 -12.5 11 -34.5 l9 -310 ZM374 230 q-16 -22 -37 -22 q-13 0 -22.5 10 q-9.5 10 -9.5 25 q0 13 9 26 l54 70 q17 22 37 22 q13 0 22.5 -10 q9.5 -10 9.5 -24 q0 -13 -9 -27 l-54 -70 ZM687 247 q9 -13 9 -27 q0 -14 -9.5 -24 q-9.5 -10 -23.5 -10 q-21 0 -36 22 l-57 92 q-9 12 -9 27 q0 14 9.5 24 q9.5 10 22.5 10 q21 0 37 -22 l57 -92 ZM545 217 q41 0 68 -20.5 q27 -20.5 27 -52.5 l0 -94 q0 -37 -26.5 -57 q-26.5 -20 -68.5 -20 l-97 0 q-44 0 -69.5 19.5 q-25.5 19.5 -25.5 57.5 l0 94 q0 33 26 53 q26 20 69 20 l97 0 ZM570 108 q0 19 -15 29 q-15 10 -40 10 l-37 0 q-24 0 -39.5 -10 q-15.5 -10 -15.5 -29 l0 -20 q0 -23 15 -34 q15 -11 40 -11 l37 0 q25 0 40 11 q15 11 15 34 l0 20 Z" /><glyph glyph-name="uni5565" unicode="&#x5565;" d="M898 492 q20 -16 20 -35 q0 -13 -9 -22 q-9 -9 -22 -9 q-16 0 -33 13 q-59 45 -99.5 89 q-40.5 44 -112.5 138 q-77 -101 -115 -143.5 q-38 -42.5 -95 -86.5 q-17 -13 -33 -13 q-13 0 -22 9 q-9 9 -9 22 q0 19 20 35 q57 45 91.5 83.5 q34.5 38.5 107.5 133.5 l19 25 q15 19 36 19 l0 0 q21 0 36 -19 q78 -102 117 -145 q39 -43 103 -94 ZM219 558 q43 0 71.5 -21.5 q28.5 -21.5 28.5 -57.5 l0 -113 q0 -41 -28 -63.5 q-28 -22.5 -72 -22.5 l-82 0 q-45 0 -72 22 q-27 22 -27 64 l0 113 q0 36 27.5 57.5 q27.5 21.5 71.5 21.5 l82 0 ZM810 352 q16 0 26.5 -11.5 q10.5 -11.5 10.5 -25.5 q0 -14 -10.5 -23.5 q-10.5 -9.5 -30.5 -9.5 l-139 1 l-2 -52 l32 0 q43 0 71.5 -21.5 q28.5 -21.5 28.5 -57.5 l0 -148 q0 -41 -28 -63.5 q-28 -22.5 -72 -22.5 l-138 0 q-45 0 -72 22 q-27 22 -27 64 l0 148 q0 36 27.5 57.5 q27.5 21.5 71.5 21.5 l36 0 l2 53 l-142 1 q-20 0 -31.5 10 q-11.5 10 -11.5 24 q0 14 12 24.5 q12 10.5 34 10.5 l142 -1 l3 66 l-65 3 q-20 1 -31.5 11.5 q-11.5 10.5 -11.5 24.5 q0 14 12 24 q12 10 34 9 l224 -11 q16 -1 26.5 -13 q10.5 -12 10.5 -26 q0 -14 -10.5 -23 q-10.5 -9 -30.5 -8 l-89 5 l-2 -62 l140 -1 ZM249 444 q0 22 -16 33 q-16 11 -43 11 l-24 0 q-26 0 -42 -11 q-16 -11 -16 -33 l0 -44 q0 -25 16 -37.5 q16 -12.5 42 -12.5 l24 0 q27 0 43 12.5 q16 12.5 16 37.5 l0 44 ZM727 117 q0 22 -16 33 q-16 11 -43 11 l-80 0 q-26 0 -42 -11 q-16 -11 -16 -33 l0 -79 q0 -25 16 -37.5 q16 -12.5 42 -12.5 l80 0 q27 0 43 12.5 q16 12.5 16 37.5 l0 79 Z" /><glyph glyph-name="uni5566" unicode="&#x5566;" d="M703 641 q-8 18 -8 30 q0 15 9 24.5 q9 9.5 21 9.5 q10 0 19.5 -6.5 q9.5 -6.5 16.5 -20.5 l36 -71 q6 -12 6 -22 q0 -16 -9.5 -26.5 q-9.5 -10.5 -22.5 -10.5 q-21 0 -35 27 l-33 66 ZM484 265 q2 -46 2 -62 q0 -33 -7.5 -54 q-7.5 -21 -30 -36 q-22.5 -15 -66.5 -24 l-15 -3 q-4 -1 -13 -1 q-18 0 -28.5 10.5 q-10.5 10.5 -10.5 26.5 q0 15 12.5 24.5 q12.5 9.5 34.5 10.5 l6 0 q29 2 39.5 11.5 q10.5 9.5 10.5 32.5 q0 8 -4 56 l-60 -8 l-9 -1 q-19 0 -30.5 10.5 q-11.5 10.5 -11.5 24.5 q0 12 9.5 22 q9.5 10 26.5 13 l71 8 l-8 122 l-86 0 q-20 0 -31 10 q-11 10 -11 23 q0 15 12 26.5 q12 11.5 33 10.5 l79 0 l-5 77 q-2 24 6.5 38 q8.5 14 26.5 14 q16 0 25.5 -12 q9.5 -12 10.5 -35 l5 -81 l54 0 q20 -1 31 -10.5 q11 -9.5 11 -22.5 q0 -15 -12 -26 q-12 -11 -32 -11 l-47 0 l8 -114 l26 3 l10 1 q19 0 29.5 -10 q10.5 -10 10.5 -24 q0 -13 -9 -23 q-9 -10 -26 -12 l-37 -5 ZM604 484 q-21 1 -33 13 q-12 12 -12 26 q0 14 11 22.5 q11 8.5 32 7.5 l278 -12 q18 -1 29.5 -12.5 q11.5 -11.5 11.5 -26.5 q0 -14 -11 -23 q-11 -9 -32 -8 l-274 13 ZM180 513 q43 0 71.5 -21.5 q28.5 -21.5 28.5 -57.5 l0 -110 q0 -41 -28 -63.5 q-28 -22.5 -72 -22.5 l-64 0 q-45 0 -72 22 q-27 22 -27 64 l0 110 q0 36 27.5 57.5 q27.5 21.5 71.5 21.5 l64 0 ZM210 399 q0 22 -16 33 q-16 11 -43 11 l-6 0 q-26 0 -42 -11 q-16 -11 -16 -33 l0 -41 q0 -25 16 -37.5 q16 -12.5 42 -12.5 l6 0 q27 0 43 12.5 q16 12.5 16 37.5 l0 41 ZM601 348 q-2 6 -2 18 q0 18 9.5 28.5 q9.5 10.5 22.5 10.5 q11 0 21.5 -9 q10.5 -9 14.5 -27 l18 -72 q1 -3 1 -10 q0 -16 -11.5 -28 q-11.5 -12 -25.5 -12 q-25 0 -33 35 l-15 66 ZM943 208 q19 1 31.5 -10.5 q12.5 -11.5 12.5 -26.5 q0 -13 -10 -22.5 q-10 -9.5 -30 -10.5 l-403 -28 q-21 -1 -34.5 10 q-13.5 11 -13.5 26 q0 12 10 21.5 q10 9.5 30 10.5 l221 16 l54 176 q11 34 36 34 q13 0 23 -10.5 q10 -10.5 10 -27.5 q0 -8 -3 -17 l-46 -149 l112 8 Z" /><glyph glyph-name="uni559C" unicode="&#x559c;" d="M276 718 q-20 1 -31.5 12 q-11.5 11 -11.5 26 q0 14 11.5 23.5 q11.5 9.5 32.5 8.5 l177 -6 l0 1 q-1 22 10.5 34 q11.5 12 26.5 12 q13 0 22.5 -9.5 q9.5 -9.5 9.5 -27.5 l0 -12 l170 -6 q19 -1 30.5 -12 q11.5 -11 11.5 -26 q0 -14 -11 -23.5 q-11 -9.5 -32 -8.5 l-167 6 l1 -59 l98 3 q20 1 32 -10.5 q12 -11.5 12 -26.5 q0 -13 -10.5 -22.5 q-10.5 -9.5 -30.5 -10.5 l-270 -8 q-21 -1 -33.5 10 q-12.5 11 -12.5 26 q0 14 11 23.5 q11 9.5 32 10.5 l103 3 l-2 63 l-179 6 ZM291 457 q-1 19 9.5 30.5 q10.5 11.5 24.5 11.5 q14 0 25 -12 q11 -12 12 -34 l0 -36 l208 0 l31 0 q23 0 32 3 q9 3 9 12 q0 3 0 18.5 q0 15.5 -10.5 23.5 q-10.5 8 -31.5 8 l-194 1 q-24 0 -37 9 q-13 9 -13 26 q0 17 13 26 q13 9 36 9 l202 -1 q56 0 80.5 -36.5 q24.5 -36.5 24.5 -79.5 q0 -51 -33 -70 q-33 -19 -102 -19 l-234 0 q-20 0 -31 5 q-20 9 -20 31 l-1 74 ZM817 244 q19 -1 30.5 -12 q11.5 -11 11.5 -26 q0 -13 -11 -22.5 q-11 -9.5 -32 -9.5 l-600 14 q-20 1 -31.5 12 q-11.5 11 -11.5 25 q0 14 11.5 23.5 q11.5 9.5 32.5 9.5 l164 -4 l-11 23 q-7 14 -7 26 q0 14 9 22.5 q9 8.5 22 8.5 q11 0 21 -6 q10 -6 15 -18 l18 -39 q5 -11 6 -19 l126 -2 q1 4 7 21 l18 39 q5 12 15 18 q10 6 21 6 q13 0 22 -8.5 q9 -8.5 9 -22.5 q0 -12 -7 -26 l-14 -29 l166 -4 ZM627 142 q56 0 80.5 -36.5 q24.5 -36.5 24.5 -79.5 q0 -55 -35.5 -87 q-35.5 -32 -99.5 -32 l-209 0 q-20 0 -31 5 q-20 9 -20 31 l-1 104 q-1 19 9.5 30.5 q10.5 11.5 24.5 11.5 q14 0 25 -12 q11 -12 12 -34 l0 -66 l183 0 q35 0 53.5 14.5 q18.5 14.5 18.5 31.5 q0 3 0 18 q0 15 -10.5 23 q-10.5 8 -31.5 8 l-169 1 q-24 0 -37 9 q-13 9 -13 26 q0 17 13 26 q13 9 36 9 l177 -1 Z" /><glyph glyph-name="uni561F" unicode="&#x561f;" d="M679 482 q19 1 30 -10 q11 -11 11 -25 q0 -14 -11.5 -24 q-11.5 -10 -32.5 -11 l-118 -3 q-50 -53 -97.5 -88.5 q-47.5 -35.5 -147.5 -97.5 q-16 -10 -31 -10 q-16 0 -26 10 q-13 -16 -34 -24.5 q-21 -8.5 -47 -8.5 l-60 0 q-44 0 -69.5 19.5 q-25.5 19.5 -25.5 57.5 l0 140 q0 33 26 53 q26 20 69 20 l60 0 q41 0 68 -20.5 q27 -20.5 27 -52.5 l0 -129 q70 44 110.5 72 q40.5 28 73.5 57 l-142 -3 q-19 -1 -30.5 9.5 q-11.5 10.5 -11.5 25.5 q0 14 11.5 24.5 q11.5 10.5 32.5 10.5 l128 3 l2 93 l-99 4 q-18 1 -27.5 11 q-9.5 10 -9.5 23 q0 16 13 26.5 q13 10.5 36 8.5 l89 -4 l1 37 q-1 20 11 31.5 q12 11.5 27 11.5 q15 0 25 -11.5 q10 -11.5 9 -32.5 l-1 -38 l63 -3 q17 -1 26.5 -11.5 q9.5 -10.5 9.5 -23.5 q0 -15 -12.5 -25.5 q-12.5 -10.5 -35.5 -9.5 l-53 2 l-3 -88 l13 1 l74 80 q16 17 32 17 q13 0 21.5 -10 q8.5 -10 8.5 -24 q0 -19 -14 -34 l-24 -27 l55 1 ZM935 362 q21 -17 32 -40.5 q11 -23.5 11 -49.5 q0 -33 -18.5 -62 q-18.5 -29 -55 -47.5 q-36.5 -18.5 -88.5 -18.5 l-7 0 l6 -77 q0 -21 -9 -32 q-9 -11 -23 -11 q-15 0 -27 13 q-12 13 -11 34 l-17 234 q2 20 12.5 31 q10.5 11 23.5 11 q15 0 25.5 -12 q10.5 -12 8.5 -33 l6 -88 l11 0 q43 1 68 19.5 q25 18.5 25 42.5 q0 19 -18.5 32.5 q-18.5 13.5 -52.5 14.5 q-24 -1 -38 9.5 q-14 10.5 -14 25.5 q0 15 13.5 25 q13.5 10 37.5 10 l10 3 q47 16 47 48 q0 25 -28 45 q-28 20 -69 20 q-30 0 -54 -9 q-11 -4 -23 -4 q-17 0 -27 9 q-10 9 -10 21 q0 13 10.5 24 q10.5 11 30.5 17 q36 11 73 11 q50 0 91 -20 q41 -20 64 -52.5 q23 -32.5 23 -66.5 q0 -45 -39 -77 ZM205 371 q0 19 -15 29 q-15 10 -40 10 l-9 0 q-24 0 -39.5 -10 q-15.5 -10 -15.5 -29 l0 -66 q0 -23 15 -34 q15 -11 40 -11 l9 0 q25 0 40 11 q15 11 15 34 l0 66 ZM619 309 q40 0 66 -25.5 q26 -25.5 26 -64.5 l0 -106 q0 -59 -25 -90 q-25 -31 -67 -31 l-140 0 q-40 0 -66 26 q-26 26 -26 65 l0 136 q0 39 26 64.5 q26 25.5 66 25.5 l140 0 ZM641 179 q0 26 -17.5 43 q-17.5 17 -43.5 17 l-63 0 q-25 0 -42.5 -17 q-17.5 -17 -17.5 -43 l0 -57 q0 -25 17.5 -42.5 q17.5 -17.5 42.5 -17.5 l63 0 q26 0 43.5 17 q17.5 17 17.5 43 l0 57 ZM578 187 q20 -4 31 -15.5 q11 -11.5 11 -25.5 q0 -13 -9.5 -21.5 q-9.5 -8.5 -28.5 -8.5 q-8 0 -12 1 l-53 8 q-19 3 -29.5 15 q-10.5 12 -10.5 26 q0 13 9.5 22.5 q9.5 9.5 25.5 9.5 q8 0 12 -1 l54 -10 Z" /><glyph glyph-name="uni5668" unicode="&#x5668;" d="M622 524 q-33 0 -55 22 q-22 22 -22 55 l0 141 q0 33 22 54.5 q22 21.5 55 21.5 l129 0 q33 0 54.5 -21.5 q21.5 -21.5 21.5 -54.5 l0 -141 q0 -33 -21.5 -55 q-21.5 -22 -54.5 -22 l-129 0 ZM235 494 q-33 0 -55 22 q-22 22 -22 55 l0 141 q0 33 22 54.5 q22 21.5 55 21.5 l129 0 q33 0 54.5 -21.5 q21.5 -21.5 21.5 -54.5 l0 -141 q0 -33 -21.5 -55 q-21.5 -22 -54.5 -22 l-129 0 ZM615 651 q0 -25 16.5 -41 q16.5 -16 40.5 -16 l29 0 q24 0 40 16 q16 16 16 41 l0 40 q0 25 -16 41 q-16 16 -40 16 l-29 0 q-24 0 -40.5 -16 q-16.5 -16 -16.5 -41 l0 -40 ZM228 621 q0 -25 16.5 -41 q16.5 -16 40.5 -16 l29 0 q24 0 40 16 q16 16 16 41 l0 40 q0 25 -16 41 q-16 16 -40 16 l-29 0 q-24 0 -40.5 -16 q-16.5 -16 -16.5 -41 l0 -40 ZM412 361 q-82 -87 -187 -177 q-15 -14 -32 -14 q-14 0 -23.5 9.5 q-9.5 9.5 -9.5 22.5 q0 16 16 31 q86 75 147 136 l-155 14 q-19 1 -30 12.5 q-11 11.5 -11 25.5 q0 14 12.5 23.5 q12.5 9.5 34.5 7.5 l210 -19 q39 43 102 119 q15 14 33 14 q14 0 23.5 -9.5 q9.5 -9.5 9.5 -23.5 q0 -19 -17 -33 l-64 -75 l205 -18 l-50 30 q-23 19 -23 39 q0 13 8.5 21 q8.5 8 22.5 8 q16 0 32 -11 l59 -34 q21 -17 21 -35 q0 -14 -11 -23 l65 -6 q19 -1 29.5 -13 q10.5 -12 10.5 -26 q0 -14 -12 -23.5 q-12 -9.5 -34 -7.5 l-132 12 l91 -92 q20 -20 20 -38 q0 -13 -8.5 -20.5 q-8.5 -7.5 -21.5 -7.5 q-19 0 -35 16 l-119 117 q-16 16 -18 33 l-159 15 ZM424 188 q33 0 54.5 -21.5 q21.5 -21.5 21.5 -54.5 l0 -138 q0 -33 -21.5 -55 q-21.5 -22 -54.5 -22 l-129 0 q-33 0 -55 22 q-22 22 -22 55 l0 138 q0 33 22 54.5 q22 21.5 55 21.5 l129 0 ZM765 168 q33 0 54.5 -21.5 q21.5 -21.5 21.5 -54.5 l0 -118 q0 -33 -21.5 -55 q-21.5 -22 -54.5 -22 l-129 0 q-33 0 -55 22 q-22 22 -22 55 l0 118 q0 33 22 54.5 q22 21.5 55 21.5 l129 0 ZM430 61 q0 25 -16 41 q-16 16 -40 16 l-29 0 q-24 0 -40.5 -16 q-16.5 -16 -16.5 -41 l0 -37 q0 -25 16.5 -41 q16.5 -16 40.5 -16 l29 0 q24 0 40 16 q16 16 16 41 l0 37 ZM771 41 q0 25 -16 41 q-16 16 -40 16 l-29 0 q-24 0 -40.5 -16 q-16.5 -16 -16.5 -41 l0 -17 q0 -25 16.5 -41 q16.5 -16 40.5 -16 l29 0 q24 0 40 16 q16 16 16 41 l0 17 Z" /><glyph glyph-name="uni56DE" unicode="&#x56de;" d="M250 17 q-45 0 -72 22 q-27 22 -27 64 l0 485 q0 36 27.5 57.5 q27.5 21.5 71.5 21.5 l527 0 q43 0 71.5 -21.5 q28.5 -21.5 28.5 -57.5 l0 -485 q0 -41 -28 -63.5 q-28 -22.5 -72 -22.5 l-527 0 ZM748 87 q27 0 43 12.5 q16 12.5 16 37.5 l0 416 q0 22 -16 33 q-16 11 -43 11 l-469 0 q-26 0 -42 -11 q-16 -11 -16 -33 l0 -416 q0 -25 16 -37.5 q16 -12.5 42 -12.5 l469 0 ZM444 173 q-45 0 -72 22 q-27 22 -27 64 l0 170 q0 36 27.5 57.5 q27.5 21.5 71.5 21.5 l138 0 q43 0 71.5 -21.5 q28.5 -21.5 28.5 -57.5 l0 -170 q0 -41 -28 -63.5 q-28 -22.5 -72 -22.5 l-138 0 ZM553 243 q27 0 43 12.5 q16 12.5 16 37.5 l0 101 q0 22 -16 33 q-16 11 -43 11 l-80 0 q-26 0 -42 -11 q-16 -11 -16 -33 l0 -101 q0 -25 16 -37.5 q16 -12.5 42 -12.5 l80 0 Z" /><glyph glyph-name="uni56E0" unicode="&#x56e0;" d="M747 686 q43 0 71.5 -21.5 q28.5 -21.5 28.5 -57.5 l0 -524 q0 -41 -28 -63.5 q-28 -22.5 -72 -22.5 l-496 0 q-45 0 -72 22 q-27 22 -27 64 l0 524 q0 36 27.5 57.5 q27.5 21.5 71.5 21.5 l496 0 ZM777 572 q0 22 -16 33 q-16 11 -43 11 l-438 0 q-26 0 -42 -11 q-16 -11 -16 -33 l0 -455 q0 -25 16 -37.5 q16 -12.5 42 -12.5 l438 0 q27 0 43 12.5 q16 12.5 16 37.5 l0 455 ZM657 456 q21 -1 31.5 -11 q10.5 -10 10.5 -23 q0 -15 -12.5 -25.5 q-12.5 -10.5 -32.5 -9.5 l-138 -2 q-31 -114 -70 -216 q-6 -16 -16.5 -24.5 q-10.5 -8.5 -21.5 -8.5 q-14 0 -23.5 10 q-9.5 10 -9.5 25 q0 8 3 17 q39 105 65 196 l-136 -2 q-20 1 -31 11 q-11 10 -11 24 q0 14 12.5 24.5 q12.5 10.5 33.5 9.5 l151 2 q18 76 25 114 q6 16 16.5 24.5 q10.5 8.5 21.5 8.5 q13 0 22.5 -9.5 q9.5 -9.5 9.5 -24.5 q0 -9 -3 -18 q-7 -38 -20 -94 l123 2 ZM628 216 q21 -17 21 -37 q0 -13 -9.5 -22.5 q-9.5 -9.5 -23.5 -9.5 q-13 0 -27 11 l-67 44 q-21 17 -21 37 q0 14 9.5 23 q9.5 9 22.5 9 q16 0 28 -11 l67 -44 Z" /><glyph glyph-name="uni56FD" unicode="&#x56fd;" d="M757 701 q43 0 71.5 -21.5 q28.5 -21.5 28.5 -57.5 l0 -536 q0 -41 -28 -63.5 q-28 -22.5 -72 -22.5 l-507 0 q-45 0 -72 22 q-27 22 -27 64 l0 536 q0 36 27.5 57.5 q27.5 21.5 71.5 21.5 l507 0 ZM787 587 q0 22 -16 33 q-16 11 -43 11 l-449 0 q-26 0 -42 -11 q-16 -11 -16 -33 l0 -467 q0 -25 16 -37.5 q16 -12.5 42 -12.5 l449 0 q27 0 43 12.5 q16 12.5 16 37.5 l0 467 ZM684 199 q21 -1 33.5 -11 q12.5 -10 12.5 -23 q0 -13 -10.5 -22.5 q-10.5 -9.5 -31.5 -10.5 l-325 5 q-23 1 -35.5 11.5 q-12.5 10.5 -12.5 24.5 q0 14 10.5 23.5 q10.5 9.5 29.5 9.5 l99 -2 l-4 136 l-83 2 q-23 1 -35.5 11.5 q-12.5 10.5 -12.5 24.5 q0 14 10.5 23.5 q10.5 9.5 29.5 9.5 l89 -2 l-3 104 l-66 1 q-23 1 -35.5 11.5 q-12.5 10.5 -12.5 24.5 q0 14 10.5 23.5 q10.5 9.5 29.5 9.5 l105 -3 q4 2 9 0 l156 -4 q21 -1 33.5 -11 q12.5 -10 12.5 -23 q0 -13 -10.5 -22.5 q-10.5 -9.5 -31.5 -10.5 l-130 2 l3 -104 l91 -3 q21 -1 33.5 -11 q12.5 -10 12.5 -24 q0 -12 -10.5 -21.5 q-10.5 -9.5 -31.5 -10.5 l-93 2 l4 -137 l160 -3 ZM685 272 q14 -17 14 -34 q0 -13 -8 -22 q-8 -9 -20 -9 q-17 0 -35 18 l-28 33 q-14 17 -14 34 q0 14 9 23.5 q9 9.5 22 9.5 q18 0 31 -17 l29 -36 Z" /><glyph glyph-name="uni56FE" unicode="&#x56fe;" d="M715 751 q43 0 71.5 -21.5 q28.5 -21.5 28.5 -57.5 l0 -608 q0 -41 -28 -63.5 q-28 -22.5 -72 -22.5 l-481 0 q-45 0 -72 22 q-27 22 -27 64 l0 608 q0 36 27.5 57.5 q27.5 21.5 71.5 21.5 l481 0 ZM745 637 q0 22 -16 33 q-16 11 -43 11 l-423 0 q-26 0 -42 -11 q-16 -11 -16 -33 l0 -539 q0 -25 16 -37.5 q16 -12.5 42 -12.5 l423 0 q27 0 43 12.5 q16 12.5 16 37.5 l0 539 ZM671 386 q14 -7 21.5 -17.5 q7.5 -10.5 7.5 -21.5 q0 -13 -9.5 -22.5 q-9.5 -9.5 -24.5 -9.5 q-11 0 -25 6 l-101 35 q-36 -22 -73.5 -35 q-37.5 -13 -88.5 -26 l-25 -7 q-34 -9 -55 -9 q-19 0 -28.5 6.5 q-9.5 6.5 -9.5 16.5 q0 11 10.5 22.5 q10.5 11.5 28.5 18.5 q49 19 95 33 l44 15 l-61 21 q-13 5 -19.5 14.5 q-6.5 9.5 -6.5 19.5 q0 15 10 25.5 q10 10.5 25 10.5 q11 0 24 -7 l120 -41 l2 2 q30 27 30 52 q0 19 -14 31 q-14 12 -35 12 l-88 3 q-10 0 -22 2 q-23 -25 -44.5 -43.5 q-21.5 -18.5 -66.5 -54.5 q-17 -14 -34 -14 q-14 0 -23 9 q-9 9 -9 22 q0 17 15 31 q64 52 93 79.5 q29 27.5 68 82.5 q16 24 35 24 q11 0 19 -10 q8 -10 8 -25 q0 -16 -9 -34 l67 -2 q53 -1 83.5 -31.5 q30.5 -30.5 30.5 -74.5 q0 -28 -15 -57 q-6 -13 -19 -29 l69 -23 ZM579 267 q14 -5 21.5 -14.5 q7.5 -9.5 7.5 -20.5 q0 -13 -11 -23.5 q-11 -10.5 -28 -10.5 q-6 0 -20 4 l-90 31 q-13 5 -19.5 14.5 q-6.5 9.5 -6.5 19.5 q0 15 10 25.5 q10 10.5 25 10.5 q11 0 24 -7 l87 -29 ZM579 136 q14 -5 21.5 -14.5 q7.5 -9.5 7.5 -20.5 q0 -13 -11 -23.5 q-11 -10.5 -28 -10.5 q-6 0 -20 4 l-120 31 q-16 5 -24.5 14.5 q-8.5 9.5 -8.5 20.5 q0 14 11 24 q11 10 29 10 q11 0 26 -6 l117 -29 Z" /><glyph glyph-name="uni5728" unicode="&#x5728;" d="M832 607 q24 -1 38 -13.5 q14 -12.5 14 -27.5 q0 -14 -12.5 -22.5 q-12.5 -8.5 -36.5 -7.5 l-432 28 q-68 -112 -138 -205 q11 -14 14 -40 l48 -331 q1 -21 -9.5 -33.5 q-10.5 -12.5 -25.5 -12.5 q-14 0 -24 11.5 q-10 11.5 -11 32.5 l-43 307 l-42 -50 q-18 -25 -41 -25 q-12 0 -20 8.5 q-8 8.5 -8 22.5 q0 17 15 39 q111 129 207 281 l-156 10 q-25 1 -39 13.5 q-14 12.5 -14 27.5 q0 14 13 23 q13 9 37 8 l202 -13 q26 44 61 108 q20 27 41 27 q12 0 19.5 -8.5 q7.5 -8.5 7.5 -22.5 q0 -20 -17 -43 q-29 -52 -37 -66 l389 -26 ZM798 97 q25 1 41 -11 q16 -12 16 -27 q0 -13 -11.5 -22 q-11.5 -9 -33.5 -10 l-417 -26 q-26 -1 -42 10.5 q-16 11.5 -16 27.5 q0 13 11.5 22.5 q11.5 9.5 34.5 10.5 l180 11 l-7 218 l-155 11 q-23 1 -36.5 12.5 q-13.5 11.5 -13.5 26.5 q0 15 14.5 24.5 q14.5 9.5 40.5 7.5 l148 -11 l-3 91 q0 21 9.5 32 q9.5 11 22.5 11 q15 0 26 -13.5 q11 -13.5 11 -37.5 l3 -88 l134 -10 q23 -1 36 -12.5 q13 -11.5 13 -26.5 q0 -14 -14 -23 q-14 -9 -40 -8 l-127 9 l7 -209 l168 10 Z" /><glyph glyph-name="uni5730" unicode="&#x5730;" d="M841 567 q55 0 79.5 -19 q24.5 -19 28 -40.5 q3.5 -21.5 6.5 -75.5 l0 -28 q0 -59 -11.5 -92 q-11.5 -33 -36 -46.5 q-24.5 -13.5 -66.5 -13.5 l-18 0 q-23 -1 -37 9.5 q-14 10.5 -14 25.5 q0 15 13.5 25 q13.5 10 37.5 10 l12 0 q33 0 41.5 17.5 q8.5 17.5 8.5 57.5 l0 42 q0 7 0.5 25.5 q0.5 18.5 -7.5 25.5 q-8 7 -26 7 l-99 0 l-6 -188 q-1 -21 -11.5 -32 q-10.5 -11 -24.5 -11 q-15 0 -25 11.5 q-10 11.5 -9 31.5 l6 188 l-163 0 l0 -258 l0 -34 q0 -26 3 -38.5 q3 -12.5 14.5 -18 q11.5 -5.5 35.5 -5.5 l293 0 q24 1 37.5 -9.5 q13.5 -10.5 13.5 -25.5 q0 -14 -13.5 -24.5 q-13.5 -10.5 -37.5 -10.5 l-302 0 q-52 0 -76 18 q-24 18 -30 47 q-6 29 -7 84 q-1 8 -1 24 l0 251 l-35 0 q-24 -1 -37.5 9.5 q-13.5 10.5 -13.5 25.5 q0 14 13.5 24.5 q13.5 10.5 37.5 10.5 l35 0 l0 37 q-1 23 9.5 37 q10.5 14 25.5 14 q14 0 24.5 -13.5 q10.5 -13.5 10.5 -37.5 l0 -37 l165 0 l4 118 q1 21 12 32 q11 11 24 11 q15 0 25 -11.5 q10 -11.5 9 -31.5 l-4 -118 l86 0 ZM338 479 q17 -3 26 -13 q9 -10 9 -23 q0 -14 -10.5 -24 q-10.5 -10 -29.5 -10 q-6 0 -10 1 l-58 5 l-5 -163 l46 8 q21 3 33 -6.5 q12 -9.5 12 -24.5 q0 -12 -9 -23 q-9 -11 -26 -15 l-195 -35 q-21 -2 -33.5 7.5 q-12.5 9.5 -12.5 24.5 q0 12 9 22.5 q9 10.5 27 14.5 l79 14 l0 10 l6 172 l-103 9 q-17 3 -26.5 12.5 q-9.5 9.5 -9.5 22.5 q0 14 11 24.5 q11 10.5 30 10.5 q6 0 10 -1 l90 -8 l3 99 q1 21 12 32 q11 11 24 11 q15 0 25 -11.5 q10 -11.5 9 -31.5 l-3 -105 l70 -6 Z" /><glyph glyph-name="uni5740" unicode="&#x5740;" d="M894 142 q19 -1 29.5 -10.5 q10.5 -9.5 10.5 -22.5 q0 -14 -11.5 -24.5 q-11.5 -10.5 -31.5 -11.5 l-493 -4 q-20 1 -31 12 q-11 11 -11 24 q0 15 12.5 25.5 q12.5 10.5 33.5 8.5 l69 0 l3 268 q1 21 12 32 q11 11 24 11 q15 0 25 -11.5 q10 -11.5 9 -31.5 l-3 -267 l117 1 l14 534 q1 21 12 32 q11 11 24 11 q15 0 25 -11.5 q10 -11.5 9 -31.5 l-6 -237 l1 0 l123 -27 q15 -4 23.5 -14 q8.5 -10 8.5 -22 q0 -13 -10.5 -23 q-10.5 -10 -27.5 -10 q-11 0 -17 2 l-103 23 l-6 -226 l166 1 ZM321 231 q17 0 27 -9 q10 -9 10 -22 q0 -13 -9.5 -24 q-9.5 -11 -26.5 -15 l-225 -45 q-22 -3 -35.5 7.5 q-13.5 10.5 -13.5 25.5 q0 14 10 24 q10 10 29 11 l84 17 l6 182 l-71 5 q-18 2 -27.5 12.5 q-9.5 10.5 -9.5 23.5 q0 16 13 26.5 q13 10.5 36 7.5 l61 -5 l3 85 q1 21 12 32 q11 11 24 11 q15 0 25 -11.5 q10 -11.5 9 -31.5 l-3 -90 l77 -6 q18 -1 27.5 -11.5 q9.5 -10.5 9.5 -23.5 q0 -16 -13 -26.5 q-13 -10.5 -36 -8.5 l-67 5 l-5 -161 l70 14 l9 1 Z" /><glyph glyph-name="uni57DF" unicode="&#x57df;" d="M711 697 q-20 14 -20 37 q0 15 9 25 q9 10 23 10 q14 0 28 -11 l57 -54 q19 -18 19 -42 q0 -14 -7.5 -23 q-7.5 -9 -19.5 -9 q-16 0 -31 14 l-58 53 ZM833 359 q18 15 34 15 q14 0 23 -9.5 q9 -9.5 9 -22.5 q0 -17 -15 -31 l-109 -110 q35 -69 91 -143 q11 -16 11 -31 q0 -11 -7 -17 q-7 -6 -18 -6 q-13 0 -27 8.5 q-14 8.5 -25 24.5 q-40 52 -76 113 l-47 -47 q-18 -15 -33 -15 q-13 0 -22.5 9.5 q-9.5 9.5 -9.5 22.5 q0 16 15 32 l63 64 q-29 62 -48.5 131 q-19.5 69 -35.5 155 l-207 -21 q-23 -3 -36.5 8 q-13.5 11 -13.5 27 q0 13 9.5 23 q9.5 10 26.5 11 l209 21 q-5 33 -8 57 l-6 41 q-2 12 -2 16 q0 18 9.5 28 q9.5 10 23.5 10 q12 0 21.5 -8.5 q9.5 -8.5 13.5 -24.5 q7 -51 17 -112 l139 14 l10 1 q19 0 29.5 -10 q10.5 -10 10.5 -24 q0 -13 -9 -23 q-9 -10 -26 -13 l-142 -14 q28 -145 68 -240 l90 90 ZM268 280 q21 3 33 -6.5 q12 -9.5 12 -24.5 q0 -12 -9 -23 q-9 -11 -27 -15 l-188 -40 q-23 -2 -36 8.5 q-13 10.5 -13 25.5 q0 14 10.5 24 q10.5 10 29.5 11 l66 14 l5 159 l-86 2 q-18 2 -28 12.5 q-10 10.5 -10 23.5 q0 15 13 25.5 q13 10.5 36 8.5 l78 -2 l2 58 q1 21 12 32 q11 11 24 11 q15 0 25 -11.5 q10 -11.5 9 -31.5 l-2 -60 l69 -2 q18 -1 27.5 -11.5 q9.5 -10.5 9.5 -24.5 q0 -15 -12.5 -25 q-12.5 -10 -35.5 -9 l-61 2 l-5 -142 l52 11 ZM327 364 q0 33 26 53 q26 20 69 20 l64 0 q41 0 68 -20.5 q27 -20.5 27 -52.5 l0 -105 q0 -37 -26.5 -57 q-26.5 -20 -68.5 -20 l-64 0 q-44 0 -69.5 19.5 q-25.5 19.5 -25.5 57.5 l0 105 ZM397 297 q0 -23 15 -34 q15 -11 40 -11 l4 0 q25 0 40 11 q15 11 15 34 l0 31 q0 19 -15 29 q-15 10 -40 10 l-4 0 q-24 0 -39.5 -10 q-15.5 -10 -15.5 -29 l0 -31 ZM564 142 q19 0 29.5 -10 q10.5 -10 10.5 -24 q0 -13 -9 -23 q-9 -10 -26 -13 l-208 -32 q-23 -3 -36.5 7.5 q-13.5 10.5 -13.5 26.5 q0 13 9.5 22.5 q9.5 9.5 26.5 12.5 l207 32 l10 1 Z" /><glyph glyph-name="uni586B" unicode="&#x586b;" d="M867 166 q21 0 33.5 -10 q12.5 -10 12.5 -24 q0 -12 -11 -22 q-11 -10 -31 -11 l-492 -5 q-23 -1 -35.5 9.5 q-12.5 10.5 -12.5 25.5 q0 14 11 24 q11 10 29 10 l29 0 l0 325 q0 36 27.5 57.5 q27.5 21.5 71.5 21.5 l105 0 l10 60 l-192 11 q-24 1 -36.5 13 q-12.5 12 -12.5 27 q0 13 10 21.5 q10 8.5 28 7.5 l214 -13 l10 60 q3 19 13 28.5 q10 9.5 23 9.5 q13 0 22 -10 q9 -10 9 -29 q0 -8 -1 -12 l-8 -51 l146 -9 q22 -1 35.5 -11.5 q13.5 -10.5 13.5 -23.5 q0 -11 -10.5 -20 q-10.5 -9 -30.5 -12 l-164 9 l-9 -56 l84 0 q43 0 71.5 -21.5 q28.5 -21.5 28.5 -57.5 l0 -322 l9 0 ZM299 294 q21 3 33 -6.5 q12 -9.5 12 -24.5 q0 -12 -9 -23 q-9 -11 -27 -15 l-200 -40 q-23 -2 -36 8.5 q-13 10.5 -13 25.5 q0 14 10.5 24 q10.5 10 29.5 11 l67 13 l6 161 l-95 2 q-18 2 -28 12.5 q-10 10.5 -10 23.5 q0 15 13 25.5 q13 10.5 36 8.5 l87 -2 l2 67 q1 21 12 32 q11 11 24 11 q15 0 25 -11.5 q10 -11.5 9 -31.5 l-2 -69 l79 -2 q18 -1 27.5 -11.5 q9.5 -10.5 9.5 -24.5 q0 -15 -12.5 -25 q-12.5 -10 -35.5 -9 l-71 2 l-5 -144 l62 12 ZM470 164 l318 2 l0 129 l-190 4 q-23 1 -35.5 11.5 q-12.5 10.5 -12.5 25.5 q0 14 10.5 23.5 q10.5 9.5 29.5 8.5 l198 -6 l0 91 q0 22 -16 33 q-16 11 -43 11 l-201 0 q-22 0 -37 -8 q-15 -8 -19 -24 l222 -6 q21 -1 33.5 -11 q12.5 -10 12.5 -24 q0 -12 -10.5 -21.5 q-10.5 -9.5 -31.5 -10.5 l-228 5 l0 -123 l232 -7 q21 -1 33.5 -11.5 q12.5 -10.5 12.5 -23.5 q0 -12 -10.5 -21.5 q-10.5 -9.5 -31.5 -10.5 l-236 5 l0 -41 ZM853 -32 q5 -12 5 -20 q0 -15 -9.5 -25 q-9.5 -10 -23.5 -10 q-24 0 -38 31 l-38 88 q-5 11 -5 23 q0 15 8.5 24 q8.5 9 21.5 9 q10 0 20.5 -7.5 q10.5 -7.5 16.5 -21.5 l42 -91 ZM468 49 q6 16 16 24.5 q10 8.5 22 8.5 q13 0 21.5 -9.5 q8.5 -9.5 8.5 -25.5 q0 -7 -3 -18 l-28 -91 q-6 -18 -16 -26.5 q-10 -8.5 -21 -8.5 q-14 0 -24 10 q-10 10 -10 26 q0 7 3 16 l31 94 Z" /><glyph glyph-name="uni58C1" unicode="&#x58c1;" d="M569 620 q-19 1 -29 11.5 q-10 10.5 -10 24.5 q0 15 12.5 25 q12.5 10 34.5 9 l125 3 q-2 5 -2 20 l5 19 q2 21 14.5 34 q12.5 13 26.5 13 q14 0 22.5 -12 q8.5 -12 6.5 -34 l-4 -18 q-1 -9 -7 -21 l103 2 q18 -1 28 -11.5 q10 -10.5 10 -24.5 q0 -14 -12.5 -24.5 q-12.5 -10.5 -34.5 -9.5 l-289 -6 ZM260 501 q-12 0 -17 1 q-9 -36 -19 -61 q-10 -25 -31 -67 l-17 -34 q-6 -14 -16 -21 q-10 -7 -21 -7 q-14 0 -24 10 q-10 10 -10 26 q0 5 4 19 l18 36 q28 55 40.5 91.5 q12.5 36.5 22.5 105.5 q4 14 12.5 21 q8.5 7 18.5 7 q14 0 25 -11 q11 -11 11 -30 q0 -5 -2 -15 l0 -1 l5 0 l91 0 q36 0 48.5 1.5 q12.5 1.5 17 7.5 q4.5 6 4.5 22 q0 19 -10.5 27.5 q-10.5 8.5 -42.5 8.5 l-146 0 q-23 -1 -36.5 8.5 q-13.5 9.5 -13.5 25.5 q0 17 13.5 26.5 q13.5 9.5 36.5 9.5 l155 0 q49 0 72 -10.5 q23 -10.5 31.5 -33.5 q8.5 -23 10.5 -71 q0 -54 -33.5 -73 q-33.5 -19 -100.5 -19 l-97 0 ZM899 501 q16 -3 25 -13 q9 -10 9 -23 q0 -16 -13.5 -26 q-13.5 -10 -36.5 -7 l-130 10 q1 -3 1 -11 l5 -50 l93 2 q18 -1 28 -11.5 q10 -10.5 10 -24.5 q0 -14 -12.5 -24.5 q-12.5 -10.5 -34.5 -9.5 l-76 -2 l4 -42 q2 -22 -6.5 -34 q-8.5 -12 -22.5 -12 q-15 0 -27.5 14 q-12.5 14 -13.5 38 l-4 35 l-128 -3 q-19 1 -29 11.5 q-10 10.5 -10 24.5 q0 15 12.5 25 q12.5 10 34.5 9 l113 2 l-6 58 l1 11 l-163 13 q-17 4 -26 14 q-9 10 -9 23 q0 14 10 23.5 q10 9.5 28 9.5 q8 0 12 -1 l94 -8 q-11 11 -16 24 l-8 17 q-4 11 -4 22 q0 14 8 22 q8 8 20 8 q13 0 25.5 -9.5 q12.5 -9.5 18.5 -26.5 l9 -18 q3 -10 3 -20 q0 -13 -7 -22 l76 -7 q-2 6 -2 11 q0 11 6 26 l11 17 q7 16 19 23.5 q12 7.5 25 7.5 q12 0 20 -7.5 q8 -7.5 8 -21.5 q0 -10 -6 -25 l-10 -16 q-4 -8 -15 -19 l87 -7 ZM290 241 q-31 0 -50 15 q-19 15 -19 42 l0 109 q0 24 19 39 q19 15 50 15 l92 0 q29 0 49 -15 q20 -15 20 -39 l0 -109 q0 -27 -19.5 -42 q-19.5 -15 -49.5 -15 l-92 0 ZM280 329 q0 -17 11 -25.5 q11 -8.5 29 -8.5 l33 0 q19 0 30 8.5 q11 8.5 11 25.5 l0 44 q0 14 -11 21.5 q-11 7.5 -30 7.5 l-33 0 q-18 0 -29 -7.5 q-11 -7.5 -11 -21.5 l0 -44 ZM720 34 q21 -1 33.5 -12.5 q12.5 -11.5 12.5 -25.5 q0 -14 -12 -23.5 q-12 -9.5 -34 -9.5 l-390 3 q-20 0 -31.5 11.5 q-11.5 11.5 -11.5 26.5 q0 14 11 24 q11 10 31 10 l157 -2 l4 82 l-100 -3 q-23 -1 -36 10.5 q-13 11.5 -13 27.5 q0 14 10.5 23.5 q10.5 9.5 30.5 10.5 l112 3 l2 44 q2 20 12.5 31 q10.5 11 23.5 11 q15 0 25 -12 q10 -12 8 -32 l-2 -40 l85 3 q22 1 36 -11 q14 -12 14 -28 q0 -13 -11 -22 q-11 -9 -32 -10 l-96 -3 l-4 -85 l165 -2 Z" /><glyph glyph-name="uni5904" unicode="&#x5904;" d="M771 68 q22 -18 22 -37 q0 -14 -9.5 -23 q-9.5 -9 -23.5 -9 q-14 0 -27 10 l-318 190 q-52 -55 -107 -104 q-55 -49 -91 -76 q-18 -14 -37 -14 q-14 0 -23 7.5 q-9 7.5 -9 19.5 q0 18 19 33 q96 81 185 172 l-85 51 q-22 15 -22 37 q0 13 9.5 22.5 q9.5 9.5 23.5 9.5 q13 0 26 -10 l97 -58 q99 109 115 169 q4 15 4 29 q0 35 -26.5 50.5 q-26.5 15.5 -62.5 14.5 l-123 -3 l-7 0 q-67 -131 -138 -199 q-18 -18 -36 -18 q-12 0 -19.5 8.5 q-7.5 8.5 -7.5 20.5 q0 18 16 33 q53 51 101 137 q48 86 77 171 q6 17 16.5 25.5 q10.5 8.5 21.5 8.5 q13 0 23 -10.5 q10 -10.5 10 -27.5 q0 -14 -7 -28 l-22 -50 l93 3 q80 2 120.5 -37 q40.5 -39 35.5 -117 q-5 -80 -122 -217 l308 -184 ZM874 367 q15 -18 15 -33 q0 -14 -9.5 -23.5 q-9.5 -9.5 -23.5 -9.5 q-16 0 -31 16 l-71 74 l-1 -179 q-1 -21 -11.5 -32 q-10.5 -11 -24.5 -11 q-15 0 -25 11.5 q-10 11.5 -9 31.5 l2 343 q1 21 12 32 q11 11 24 11 q15 0 25 -11.5 q10 -11.5 9 -31.5 l0 -65 q7 -4 10 -9 l109 -114 Z" /><glyph glyph-name="uni5907" unicode="&#x5907;" d="M835 426 q29 -11 29 -35 q0 -14 -10.5 -24.5 q-10.5 -10.5 -24.5 -10.5 q-8 0 -16 4 l-269 94 q-122 -62 -341 -137 q-20 -6 -34 -6 q-17 0 -26.5 7.5 q-9.5 7.5 -9.5 18.5 q0 10 8.5 20.5 q8.5 10.5 25.5 16.5 q0 0 110 44 q128 52 170 70 l-116 41 q-16 6 -24 16 q-8 10 -8 21 q0 13 10 23 q10 10 25 10 q10 0 18 -4 l184 -64 q86 45 86 80 q0 26 -48.5 50 q-48.5 24 -154.5 49 l-14 4 q-99 -91 -202 -148 q-14 -10 -29 -10 q-15 0 -25 9.5 q-10 9.5 -10 22.5 q0 7 4.5 14.5 q4.5 7.5 13.5 12.5 q135 84 244 196 q12 13 29 13 q15 0 26.5 -9.5 q11.5 -9.5 11.5 -23.5 q0 -10 -7 -20 q130 -36 191.5 -75 q61.5 -39 61.5 -83 q0 -53 -91 -113 l212 -74 ZM668 356 q40 0 66.5 -20 q26.5 -20 26.5 -53 l0 -273 q0 -38 -26 -59 q-26 -21 -67 -21 l-283 0 q-41 0 -66 20.5 q-25 20.5 -25 59.5 l0 273 q0 33 25.5 53 q25.5 20 65.5 20 l283 0 ZM691 245 q0 20 -15 30.5 q-15 10.5 -40 10.5 l-218 0 q-24 0 -39 -10.5 q-15 -10.5 -15 -30.5 l0 -198 q0 -24 15 -35.5 q15 -11.5 39 -11.5 l218 0 q25 0 40 11.5 q15 11.5 15 35.5 l0 198 ZM622 181 q21 1 32 -9 q11 -10 11 -24 q0 -14 -11 -24.5 q-11 -10.5 -29 -11.5 l-65 -3 l0 -50 q0 -21 -9 -32 q-9 -11 -23 -11 q-14 0 -25.5 12 q-11.5 12 -11.5 31 l0 48 l-65 -3 q-21 -1 -32 8 q-11 9 -11 23 q0 15 11.5 26.5 q11.5 11.5 29.5 12.5 l67 2 l0 52 q0 21 9.5 31.5 q9.5 10.5 23.5 10.5 q14 0 25 -11.5 q11 -11.5 11 -30.5 l0 -49 l62 2 Z" /><glyph glyph-name="uni590D" unicode="&#x590d;" d="M722 714 q21 -2 31.5 -12.5 q10.5 -10.5 10.5 -24.5 q0 -15 -12 -25 q-12 -10 -32 -8 l-355 26 q-13 1 -25 8 q-50 -59 -97 -101 q-16 -13 -33 -13 q-15 0 -25.5 8.5 q-10.5 8.5 -10.5 21.5 q0 16 17 30 q78 66 161 186 q13 20 32 20 q13 0 22 -9.5 q9 -9.5 9 -24.5 q0 -16 -11 -33 l-17 -24 l335 -25 ZM371 284 q-41 0 -64.5 21.5 q-23.5 21.5 -23.5 61.5 l0 175 q0 35 24 56 q24 21 64 21 l242 0 q38 0 63.5 -21 q25.5 -21 25.5 -56 l0 -175 q0 -40 -25 -61.5 q-25 -21.5 -64 -21.5 l-242 0 ZM355 402 q0 -24 14 -36 q14 -12 37 -12 l174 0 q24 0 38 12 q14 12 14 36 l0 99 q0 20 -14 30.5 q-14 10.5 -38 10.5 l-174 0 q-23 0 -37 -10.5 q-14 -10.5 -14 -30.5 l0 -99 ZM407 424 q-20 2 -31 13 q-11 11 -11 24 q0 15 12 25 q12 10 33 8 l164 -13 q21 -2 31.5 -12.5 q10.5 -10.5 10.5 -24.5 q0 -15 -12 -25 q-12 -10 -32 -8 l-165 13 ZM673 -32 q16 -5 24.5 -15.5 q8.5 -10.5 8.5 -22.5 q0 -13 -10 -22.5 q-10 -9.5 -27 -9.5 q-8 0 -19 3 l-140 50 q-48 -21 -129 -52 l-20 -7 q-15 -5 -25 -5 q-16 0 -26.5 8.5 q-10.5 8.5 -10.5 20.5 q0 19 26 33 q14 7 89 37 l-79 28 q-14 4 -21.5 14 q-7.5 10 -7.5 21 q0 14 9.5 25 q9.5 11 25.5 11 q8 0 20 -5 l151 -54 q57 26 69 42 q8 9 8 26 q0 18 -12 31.5 q-12 13.5 -34 14.5 l-157 2 q-20 0 -32 6 q-27 -28 -50.5 -48 q-23.5 -20 -55.5 -41 q-15 -9 -29 -9 q-16 0 -26.5 9.5 q-10.5 9.5 -10.5 22.5 q0 17 21 31 q37 23 61 45 q24 22 67 68 l23 25 q14 15 30 15 q13 0 22.5 -9.5 q9.5 -9.5 9.5 -23.5 q0 -10 -6 -21 l142 -2 q50 -1 81 -32 q31 -31 31 -74 q0 -22 -11 -46 q-16 -33 -59 -61 l79 -29 Z" /><glyph glyph-name="uni5927" unicode="&#x5927;" d="M801 503 q21 -1 32 -12 q11 -11 11 -24 q0 -15 -11.5 -25 q-11.5 -10 -31.5 -9 l-280 13 q-63 -110 -142 -220.5 q-79 -110.5 -143 -181.5 q-16 -19 -35 -19 q-14 0 -24 9.5 q-10 9.5 -10 22.5 q0 13 9 23 q59 63 132.5 164 q73.5 101 134.5 205 l-241 11 q-21 1 -32.5 12 q-11.5 11 -11.5 25 q0 14 12 24 q12 10 32 9 l280 -13 q55 102 80 176 q4 14 13.5 21 q9.5 7 19.5 7 q13 0 23 -10.5 q10 -10.5 10 -28.5 q0 -10 -5 -25 q-21 -63 -64 -143 l242 -11 ZM806 101 q16 -16 16 -35 q0 -14 -9 -23.5 q-9 -9.5 -23 -9.5 q-16 0 -30 14 l-222 208 q-17 17 -17 35 q0 13 9.5 22.5 q9.5 9.5 22.5 9.5 q16 0 30 -13 l223 -208 Z" /><glyph glyph-name="uni5929" unicode="&#x5929;" d="M786 377 q19 1 31 -10.5 q12 -11.5 12 -26.5 q0 -14 -10.5 -23.5 q-10.5 -9.5 -31.5 -9.5 l-347 -8 q-50 -114 -157 -298 q-17 -28 -40 -28 q-13 0 -22 9 q-9 9 -9 23 q0 12 7 23 q99 173 144 269 l-193 -4 q-20 -1 -32 10 q-12 11 -12 26 q0 14 11 24 q11 10 32 10 l225 5 q42 106 66 210 q-71 -4 -150 -4 l-42 0 q-21 1 -33 12 q-12 11 -12 25 q0 13 11 22.5 q11 9.5 32 9.5 q203 0 464 29 q20 2 32.5 -8 q12.5 -10 12.5 -24 q0 -14 -11 -24.5 q-11 -10.5 -32 -13.5 q-82 -11 -199 -20 q-24 -109 -63 -212 l316 7 ZM782 41 q17 -20 17 -37 q0 -13 -9 -21 q-9 -8 -22 -8 q-19 0 -34 19 l-165 218 q-13 19 -13 34 q0 14 9 23 q9 9 21 9 q17 0 30 -17 l166 -220 Z" /><glyph glyph-name="uni592A" unicode="&#x592a;" d="M511 446 q-69 -128 -145 -246 q-76 -118 -118 -162 q-27 -28 -49 -28 q-12 0 -19 8 q-7 8 -7 20 q0 19 14 33 q39 42 106.5 147.5 q67.5 105.5 134.5 226.5 l-207 -3 q-20 -1 -32 10 q-12 11 -12 26 q0 14 11 24 q11 10 32 10 l246 4 q64 122 98 213 q5 14 16 22.5 q11 8.5 23 8.5 q12 0 20 -9 q8 -9 8 -26 q0 -12 -6 -32 q-26 -75 -77 -176 l261 4 q19 1 31 -10.5 q12 -11.5 12 -26.5 q0 -14 -10.5 -23.5 q-10.5 -9.5 -31.5 -9.5 l-299 -5 ZM830 70 q15 -19 15 -37 q0 -12 -8 -19 q-8 -7 -20 -7 q-21 0 -38 18 l-206 221 q-16 17 -16 32 q0 12 9.5 20 q9.5 8 23.5 8 q18 0 33 -15 l207 -221 ZM491 116 q21 -15 21 -35 q0 -13 -10.5 -22.5 q-10.5 -9.5 -24.5 -9.5 q-15 0 -28 10 l-81 52 q-21 17 -21 36 q0 14 9.5 23 q9.5 9 23.5 9 q14 0 28 -11 l83 -52 Z" /><glyph glyph-name="uni5934" unicode="&#x5934;" d="M355 664 q-16 17 -16 34 q0 13 10 21.5 q10 8.5 23 8.5 q17 0 29 -13 l68 -78 q20 -20 20 -39 q0 -12 -9 -20 q-9 -8 -21 -8 q-20 0 -34 17 l-70 77 ZM861 337 q19 -1 31 -12.5 q12 -11.5 12 -25.5 q0 -14 -10.5 -23 q-10.5 -9 -31.5 -9 l-330 4 q-80 -146 -181 -265 q-20 -23 -46 -23 q-13 0 -22 6.5 q-9 6.5 -9 17.5 q0 14 13 28 q93 108 165 237 l-302 3 q-21 1 -32.5 12 q-11.5 11 -11.5 26 q0 14 11 23 q11 9 32 9 l340 -4 q80 159 128 338 q4 16 13.5 24 q9.5 8 20.5 8 q14 0 23.5 -10.5 q9.5 -10.5 9.5 -29.5 q0 -9 -3 -20 q-45 -168 -114 -311 l294 -3 ZM221 504 q-16 17 -16 34 q0 13 10 21.5 q10 8.5 23 8.5 q17 0 29 -13 l68 -78 q20 -20 20 -39 q0 -12 -9 -20 q-9 -8 -21 -8 q-20 0 -34 17 l-70 77 ZM794 43 q23 -19 23 -39 q0 -12 -9 -20 q-9 -8 -22 -8 q-18 0 -32 13 l-150 133 q-20 19 -20 35 q0 12 10.5 21 q10.5 9 24.5 9 q15 0 26 -10 l149 -134 Z" /><glyph glyph-name="uni5956" unicode="&#x5956;" d="M521 519 q-16 -20 -36 -20 q-12 0 -20.5 8 q-8.5 8 -8.5 20 q0 19 16 38 l155 205 q13 16 30 16 q13 0 22 -9 q9 -9 9 -23 q0 -15 -13 -34 l-4 -5 l22 1 q80 0 123.5 -36 q43.5 -36 43.5 -93 q0 -58 -46.5 -120.5 q-46.5 -62.5 -134.5 -112.5 q-22 -14 -40 -14 q-15 0 -24.5 9 q-9.5 9 -9.5 21 q0 19 20 32 q78 38 120 86 q42 48 42 90 q0 31 -23.5 49.5 q-23.5 18.5 -67.5 18.5 q-36 0 -89 -15 l-86 -112 ZM423 407 q-2 -20 -12.5 -30.5 q-10.5 -10.5 -23.5 -10.5 q-15 0 -25.5 12.5 q-10.5 12.5 -8.5 32.5 l9 330 q2 20 12.5 31 q10.5 11 23.5 11 q15 0 25.5 -12.5 q10.5 -12.5 8.5 -32.5 l-9 -331 ZM192 647 q-20 3 -30 12.5 q-10 9.5 -10 21.5 q0 15 12.5 26 q12.5 11 31.5 8 l108 -17 q22 -4 33 -14 q11 -10 11 -22 q0 -14 -14.5 -24 q-14.5 -10 -36.5 -7 l-105 16 ZM666 557 q19 -7 28 -17.5 q9 -10.5 9 -21.5 q0 -12 -10.5 -20.5 q-10.5 -8.5 -26.5 -8.5 q-8 0 -19 3 l-51 18 q-18 6 -26.5 16.5 q-8.5 10.5 -8.5 21.5 q0 13 10.5 22.5 q10.5 9.5 25.5 9.5 q7 0 15 -3 l54 -20 ZM204 453 q-5 -2 -14 -2 q-15 0 -26 10 q-11 10 -11 23 q0 25 35 36 l82 26 q10 3 19 3 q16 0 26.5 -9 q10.5 -9 10.5 -21 q0 -10 -9 -20.5 q-9 -10.5 -28 -17.5 l-85 -28 ZM753 282 q19 1 31 -10.5 q12 -11.5 12 -26.5 q0 -14 -10.5 -23.5 q-10.5 -9.5 -31.5 -9.5 l-268 -4 q-27 -55 -60 -101 q-33 -46 -83 -97 q-16 -15 -32 -15 q-15 0 -25 9.5 q-10 9.5 -10 22.5 q0 13 12 25 q72 78 117 155 l-161 -3 q-20 -1 -32 10 q-12 11 -12 26 q0 14 11 24 q11 10 32 10 l199 3 q8 18 31 69 q4 11 12 17.5 q8 6.5 18 6.5 q14 0 24.5 -10.5 q10.5 -10.5 10.5 -26.5 q0 -13 -9 -30 l-11 -25 l235 4 ZM743 66 q23 -19 23 -39 q0 -12 -8.5 -19.5 q-8.5 -7.5 -22.5 -7.5 q-14 0 -31 12 l-119 92 q-22 18 -22 35 q0 13 10.5 22 q10.5 9 24.5 9 q16 0 26 -9 l119 -95 Z" /><glyph glyph-name="uni5979" unicode="&#x5979;" d="M841 537 q55 0 79.5 -19 q24.5 -19 28 -40.5 q3.5 -21.5 6.5 -75.5 l0 -18 q0 -59 -11.5 -92 q-11.5 -33 -36 -46.5 q-24.5 -13.5 -66.5 -13.5 l-18 0 q-23 -1 -37 9.5 q-14 10.5 -14 25.5 q0 15 13.5 25 q13.5 10 37.5 10 l12 0 q33 0 41.5 17.5 q8.5 17.5 8.5 57.5 l0 32 q0 5 0.5 24 q0.5 19 -12.5 26.5 q-13 7.5 -41 7.5 l-64 0 l-6 -178 q-1 -21 -11.5 -32 q-10.5 -11 -24.5 -11 q-15 0 -25 11.5 q-10 11.5 -9 31.5 l6 178 l-128 0 l0 -248 l0 -34 q0 -26 3 -38.5 q3 -12.5 14.5 -18 q11.5 -5.5 35.5 -5.5 l243 0 q24 1 37.5 -9.5 q13.5 -10.5 13.5 -25.5 q0 -14 -13.5 -24.5 q-13.5 -10.5 -37.5 -10.5 l-252 0 q-52 0 -76 18 q-24 18 -30 47 q-6 29 -7 84 q-1 8 -1 24 l0 241 l-35 0 q-24 -1 -37.5 9.5 q-13.5 10.5 -13.5 25.5 q0 14 13.5 24.5 q13.5 10.5 37.5 10.5 l35 0 l0 37 q-1 23 9.5 37 q10.5 14 25.5 14 q15 0 25 -13.5 q10 -13.5 10 -37.5 l0 -37 l131 0 l3 83 q1 21 12 32 q11 11 24 11 q15 0 25 -11.5 q10 -11.5 9 -31.5 l-3 -83 l70 0 ZM374 464 q20 -2 30.5 -12.5 q10.5 -10.5 10.5 -24.5 q0 -15 -12 -25.5 q-12 -10.5 -32 -8.5 l-25 2 q1 -11 1 -31 q0 -51 -12.5 -93.5 q-12.5 -42.5 -42.5 -81.5 q27 -10 76 -20 q12 -2 18 -10 q6 -8 6 -18 q0 -13 -11.5 -23.5 q-11.5 -10.5 -32.5 -10.5 q-6 0 -18 2 q-44 11 -85 29 q-35 -32 -71 -56 q-15 -9 -27 -9 q-14 0 -22 10 q-8 10 -8 23 q0 21 19 36 l44 32 q-89 65 -89 174 q0 33 8 70 l-38 4 q-21 2 -32 12.5 q-11 10.5 -11 24.5 q0 15 12 25 q12 10 33 8 l56 -5 q20 55 53 119 q18 35 41 35 q13 0 22.5 -11 q9.5 -11 9.5 -27 q0 -10 -4 -18 l-21 -45 q-24 -51 -28 -60 l78 -7 l-3 22 q-5 20 -5 38 q0 19 9.5 30 q9.5 11 23.5 11 q14 0 25 -11.5 q11 -11.5 13 -32.5 l7 -63 l34 -3 ZM231 217 q26 27 37 58 q11 31 11 78 q0 31 -2 49 l-110 10 q-10 -37 -10 -67 q0 -82 74 -128 Z" /><glyph glyph-name="uni5982" unicode="&#x5982;" d="M499 470 q19 -2 28.5 -11.5 q9.5 -9.5 9.5 -21.5 q0 -15 -13.5 -26.5 q-13.5 -11.5 -34.5 -9.5 l-41 5 q-3 -82 -18.5 -143 q-15.5 -61 -49.5 -108 l31 -9 q5 -1 20 -5 q12 -2 19.5 -11 q7.5 -9 7.5 -20 q0 -13 -11.5 -22 q-11.5 -9 -34.5 -9 q-5 0 -19 2 q-41 8 -67 16 q-43 -35 -103 -63 q-15 -5 -31 -5 q-16 0 -24 7 q-8 7 -8 18 q0 10 6.5 21 q6.5 11 18.5 19 q32 17 61 36 q-124 69 -124 200 q0 51 18 111 l-58 7 q-19 2 -29 11.5 q-10 9.5 -10 21.5 q0 16 13.5 27 q13.5 11 35.5 9 l71 -8 q30 72 78 153 q18 31 43 31 q12 0 19.5 -7.5 q7.5 -7.5 7.5 -20.5 q0 -11 -6 -23 q-46 -91 -67 -142 l141 -16 l0 63 q0 27 10 41 q10 14 24 14 q14 0 24.5 -13 q10.5 -13 11.5 -34 q1 -28 1 -79 l49 -6 ZM824 508 q41 0 68 -20.5 q27 -20.5 27 -52.5 l0 -207 q0 -37 -26.5 -57 q-26.5 -20 -68.5 -20 l-162 0 q-44 0 -69.5 19.5 q-25.5 19.5 -25.5 57.5 l0 207 q0 33 26 53 q26 20 69 20 l162 0 ZM849 399 q0 19 -15 29 q-15 10 -40 10 l-102 0 q-24 0 -39.5 -10 q-15.5 -10 -15.5 -29 l0 -133 q0 -23 15 -34 q15 -11 40 -11 l102 0 q25 0 40 11 q15 11 15 34 l0 133 ZM308 181 q41 44 55 96.5 q14 52.5 16 136.5 l-167 19 q-20 -63 -20 -105 q0 -51 28 -86 q28 -35 88 -61 Z" /><glyph glyph-name="uni5B57" unicode="&#x5b57;" d="M903 586 q3 -8 1 -19 l-11 -121 q-2 -20 -12.5 -31 q-10.5 -11 -23.5 -11 q-15 0 -25.5 12 q-10.5 12 -8.5 32 l10 108 q-125 32 -319 32 q-173 0 -301 -24 l11 -88 q1 -4 1 -10 q0 -19 -10 -29.5 q-10 -10.5 -24 -10.5 q-13 0 -23.5 9 q-10.5 9 -12.5 26 l-21 167 q-3 24 7 37.5 q10 13.5 26 13.5 q14 0 24 -9.5 q10 -9.5 12 -26.5 l1 -11 q111 22 271 25 l-14 50 q-3 9 -3 18 q0 16 9 25 q9 9 23 9 q12 0 23 -8 q11 -8 15 -24 l18 -69 q204 -3 317 -40 q10 -3 17 -7 q18 -5 23 -25 ZM805 206 q20 1 31 -8.5 q11 -9.5 11 -23.5 q0 -14 -11 -25 q-11 -11 -30 -12 l-181 -9 l0 -46 q0 -16 -1 -24 q-1 -55 -7 -84 q-6 -29 -30 -47 q-24 -18 -76 -18 l-19 0 q-23 0 -36.5 9.5 q-13.5 9.5 -13.5 26.5 q0 16 13.5 25.5 q13.5 9.5 36.5 8.5 l10 0 q28 0 39 10 q11 10 12.5 25 q1.5 15 1.5 61 l0 49 l-284 -14 q-24 -1 -39 10 q-15 11 -15 26 q0 13 13.5 22.5 q13.5 9.5 40.5 10.5 l284 14 l0 52 q0 9 1 13 q-5 10 -5 17 q0 11 9 17 q11 7 18.5 22.5 q7.5 15.5 7.5 33.5 q0 25 -18 42.5 q-18 17.5 -57 17.5 q-48 0 -115 -26 q-3 -1 -10 -1 q-12 0 -22 7 q-10 7 -13 19 q-2 8 -2 12 q0 11 7.5 20 q7.5 9 19.5 13 q79 23 135 23 q74 0 107.5 -34.5 q33.5 -34.5 33.5 -87.5 q0 -25 -7.5 -50.5 q-7.5 -25.5 -19.5 -45.5 l0 -12 l0 -48 l180 9 Z" /><glyph glyph-name="uni5B66" unicode="&#x5b66;" d="M410 736 q-3 9 -3 16 q0 16 10 26.5 q10 10.5 23 10.5 q11 0 21 -8.5 q10 -8.5 16 -25.5 l22 -69 q2 -5 2 -14 q0 -16 -10.5 -26.5 q-10.5 -10.5 -24.5 -10.5 q-11 0 -21 8.5 q-10 8.5 -15 25.5 l-20 67 ZM661 672 q-6 -17 -16 -25 q-10 -8 -22 -8 q-14 0 -24 10 q-10 10 -10 25 q0 8 3 15 l24 66 q6 17 16.5 25.5 q10.5 8.5 21.5 8.5 q13 0 22.5 -10 q9.5 -10 9.5 -25 q0 -9 -3 -18 l-22 -64 ZM235 691 q-4 9 -4 20 q0 15 9.5 25.5 q9.5 10.5 22.5 10.5 q10 0 20 -7.5 q10 -7.5 16 -22.5 l29 -66 q4 -8 4 -18 q0 -15 -10 -25.5 q-10 -10.5 -23 -10.5 q-10 0 -20.5 7.5 q-10.5 7.5 -16.5 22.5 l-27 64 ZM846 535 q3 -10 1 -20 l-15 -99 q-2 -20 -12.5 -31 q-10.5 -11 -23.5 -11 q-15 0 -25.5 12 q-10.5 12 -8.5 32 l13 87 q-96 25 -243 25 q-87 0 -175.5 -8.5 q-88.5 -8.5 -159.5 -22.5 l15 -111 q1 -4 1 -10 q0 -19 -10 -29.5 q-10 -10.5 -24 -10.5 q-13 0 -23.5 9 q-10.5 9 -12.5 26 l-26 190 q-3 24 7 37.5 q10 13.5 26 13.5 q13 0 23.5 -9.5 q10.5 -9.5 12.5 -26.5 l1 -11 q73 15 164 24 q91 9 181 9 q172 0 274 -33 q10 -3 17 -7 q18 -5 23 -25 ZM771 207 q20 1 31 -8.5 q11 -9.5 11 -23.5 q0 -14 -11 -25 q-11 -11 -30 -12 l-181 -9 l0 -9 q0 -16 -1 -24 q-1 -55 -7 -84 q-6 -29 -30 -47 q-24 -18 -76 -18 l-21 0 q-23 0 -36.5 9.5 q-13.5 9.5 -13.5 26.5 q0 16 13.5 25.5 q13.5 9.5 36.5 8.5 l12 0 q24 0 35.5 5.5 q11.5 5.5 14.5 18 q3 12.5 3 38.5 l0 34 l0 13 l-276 -13 q-21 -1 -33.5 8.5 q-12.5 9.5 -12.5 23.5 q0 14 12.5 25 q12.5 11 33.5 12 l276 13 l0 47 q0 9 1 13 q-5 10 -5 17 q0 11 9 17 q18 11 18 35 q0 23 -20.5 40 q-20.5 17 -60.5 17 q-45 0 -103 -22 q-3 -1 -10 -1 q-12 0 -22 7 q-10 7 -13 19 q-2 8 -2 12 q0 12 7.5 21.5 q7.5 9.5 19.5 11.5 q70 14 127 14 q81 0 116.5 -28.5 q35.5 -28.5 35.5 -73.5 q0 -22 -7.5 -45 q-7.5 -23 -20.5 -42 l0 -12 l0 -44 l180 9 Z" /><glyph glyph-name="uni5B83" unicode="&#x5b83;" d="M858 580 q3 -8 1 -19 l-11 -91 q-2 -20 -12.5 -31 q-10.5 -11 -23.5 -11 q-15 0 -25.5 12 q-10.5 12 -8.5 32 l9 78 q-122 33 -299 33 q-147 0 -265 -22 l10 -68 q1 -4 1 -10 q0 -19 -10 -29.5 q-10 -10.5 -24 -10.5 q-13 0 -23.5 9 q-10.5 9 -12.5 26 l-21 147 q-3 24 7 37.5 q10 13.5 26 13.5 q13 0 23.5 -9.5 q10.5 -9.5 12.5 -26.5 l2 -11 q106 22 255 24 l-10 85 q-3 23 7 36 q10 13 25 13 q13 0 24 -10 q11 -10 13 -27 l11 -95 l0 -2 q175 -7 279 -41 q10 -3 17 -7 q18 -5 23 -25 ZM698 55 q24 1 37.5 -9.5 q13.5 -10.5 13.5 -25.5 q0 -14 -13.5 -24.5 q-13.5 -10.5 -37.5 -10.5 l-273 0 q-52 0 -76 18 q-24 18 -30 47 q-6 29 -7 84 q-1 8 -1 24 l0 216 q-1 23 9.5 37 q10.5 14 25.5 14 q15 0 25 -13.5 q10 -13.5 10 -37.5 l0 -69 l299 52 q21 3 34 -7.5 q13 -10.5 13 -25.5 q0 -12 -11 -22.5 q-11 -10.5 -31 -13.5 l-304 -54 l0 -83 l0 -34 q0 -26 3 -38.5 q3 -12.5 14.5 -18 q11.5 -5.5 35.5 -5.5 l264 0 Z" /><glyph glyph-name="uni5B89" unicode="&#x5b89;" d="M887 565 q3 -8 1 -19 l-11 -121 q-2 -20 -12.5 -31 q-10.5 -11 -23.5 -11 q-15 0 -25.5 12 q-10.5 12 -8.5 32 l10 108 q-108 28 -273 28 q-84 0 -165.5 -7 q-81.5 -7 -146.5 -20 l10 -68 q1 -4 1 -10 q0 -19 -10 -29.5 q-10 -10.5 -24 -10.5 q-13 0 -23.5 9 q-10.5 9 -12.5 26 l-21 147 q-3 24 7 37.5 q10 13.5 26 13.5 q14 0 24 -9.5 q10 -9.5 12 -26.5 l2 -11 q112 23 266 28 l-9 63 q-3 23 7 36 q10 13 25 13 q13 0 24 -10 q11 -10 13 -27 l10 -74 q182 -2 288 -36 q10 -3 17 -7 q18 -5 23 -25 ZM804 323 q20 -1 31.5 -12 q11.5 -11 11.5 -25 q0 -15 -12 -25.5 q-12 -10.5 -31 -8.5 l-141 5 q-22 -110 -55 -168 q44 -5 126 -5 q17 0 28 -8.5 q11 -8.5 11 -20.5 q0 -14 -15.5 -25.5 q-15.5 -11.5 -45.5 -15.5 q-14 -1 -42 -1 q-56 0 -117 9 q-36 -30 -85 -47 q-28 -2 -43 7 q-15 9 -15 24 q0 12 10.5 23 q10.5 11 27.5 15 q8 4 12 5 q-72 33 -100 89.5 q-28 56.5 -30 129.5 l-103 4 q-21 1 -32.5 12 q-11.5 11 -11.5 25 q0 15 11.5 24.5 q11.5 9.5 31.5 8.5 l107 -4 l3 29 l3 40 q1 21 12 33 q11 12 25 12 q12 0 21.5 -12 q9.5 -12 10.5 -34 q1 -30 -2 -70 l195 -6 q1 7 3 17 q2 10 4 22 q4 18 14 27.5 q10 9.5 23 9.5 q15 0 25.5 -13 q10.5 -13 7.5 -35 l-4 -31 l130 -4 ZM532 103 q20 25 32 60.5 q12 35.5 24 95.5 l-185 7 q1 -60 28.5 -101 q27.5 -41 100.5 -62 Z" /><glyph glyph-name="uni5B9A" unicode="&#x5b9a;" d="M893 584 q2 -6 0 -12 l-11 -132 q-2 -20 -12.5 -31 q-10.5 -11 -23.5 -11 q-15 0 -25.5 12 q-10.5 12 -8.5 32 l10 119 q-121 32 -295 32 q-155 0 -287 -25 l-6 -99 q-1 -22 -11.5 -33.5 q-10.5 -11.5 -24.5 -11.5 q-14 0 -24.5 11.5 q-10.5 11.5 -9.5 30.5 l10 178 q1 22 11.5 33.5 q10.5 11.5 24.5 11.5 q14 0 24.5 -11.5 q10.5 -11.5 9.5 -30.5 l0 -8 q107 20 249 23 l-4 56 q-2 23 7.5 35 q9.5 12 24.5 12 q14 0 25 -10.5 q11 -10.5 12 -28.5 l5 -65 q179 -3 289 -39 l17 -6 q10 -3 16.5 -11.5 q6.5 -8.5 7.5 -20.5 ZM778 23 q18 -3 27 -12.5 q9 -9.5 9 -22.5 q0 -14 -10.5 -24 q-10.5 -10 -28.5 -10 q-8 0 -12 1 q-104 13 -233 44 q-129 31 -226 67 l-26 -79 q-6 -16 -16.5 -23.5 q-10.5 -7.5 -21.5 -7.5 q-13 0 -22.5 9 q-9.5 9 -9.5 24 q0 10 4 19 l67 200 q7 16 17 24 q10 8 22 8 q13 0 22 -9 q9 -9 9 -24 q0 -10 -4 -19 l-19 -57 q51 -19 149 -47 l-18 286 q0 2 -0.5 4.5 q-0.5 2.5 0.5 5.5 l-117 0 q-27 -3 -42 7 q-15 10 -15 26 q0 13 12 23.5 q12 10.5 33 12.5 l370 1 q27 1 42 -10.5 q15 -11.5 15 -26.5 q0 -13 -12 -22.5 q-12 -9.5 -33 -9.5 l-185 -1 l1 -8 l8 -123 l170 1 q23 2 36 -8 q13 -10 13 -26 q0 -13 -9.5 -23.5 q-9.5 -10.5 -27.5 -11.5 l-178 -1 l7 -108 l0 -6 q124 -28 233 -43 Z" /><glyph glyph-name="uni5B9E" unicode="&#x5b9e;" d="M827 656 q19 -5 28.5 -12.5 q9.5 -7.5 11.5 -19.5 l-9 -138 q-1 -21 -11 -31.5 q-10 -10.5 -24 -10.5 q-15 0 -25.5 12 q-10.5 12 -9.5 32 l9 106 q-121 31 -320 31 q-180 0 -301 -23 l12 -108 q3 -24 -7.5 -37.5 q-10.5 -13.5 -26.5 -13.5 q-13 0 -23 9.5 q-10 9.5 -12 26.5 l-21 187 q-3 24 8 37.5 q11 13.5 27 13.5 q13 0 23 -9.5 q10 -9.5 11 -26.5 l1 -11 q112 23 285 26 l-13 44 q-3 11 -3 19 q0 16 9 25 q9 9 22 9 q13 0 24 -8.5 q11 -8.5 15 -24.5 l17 -65 q193 -3 303 -39 ZM453 435 q20 -20 20 -39 q0 -12 -9 -20 q-9 -8 -21 -8 q-20 0 -34 17 l-70 77 q-16 17 -16 34 q0 13 10 21.5 q10 8.5 23 8.5 q17 0 29 -13 l68 -78 ZM781 239 q19 -1 31 -12.5 q12 -11.5 12 -25.5 q0 -14 -10.5 -23 q-10.5 -9 -31.5 -9 l-275 4 q-27 -45 -60.5 -87 q-33.5 -42 -100.5 -120 q-20 -23 -46 -23 q-13 0 -22 6.5 q-9 6.5 -9 17.5 q0 14 13 28 q54 61 86 101 q32 40 57 78 l-218 3 q-21 1 -32.5 12 q-11.5 11 -11.5 26 q0 14 11 23 q11 9 32 9 l260 -4 q44 87 93 239 q5 15 15 23 q10 8 21 8 q13 0 22 -10 q9 -10 9 -28 q0 -9 -3 -21 q-37 -126 -78 -212 l236 -3 ZM226 373 q-16 17 -16 34 q0 13 10 21.5 q10 8.5 23 8.5 q17 0 29 -13 l68 -78 q20 -20 20 -39 q0 -12 -9 -20 q-9 -8 -21 -8 q-20 0 -34 17 l-70 77 ZM756 -13 q30 -18 30 -40 q0 -12 -9.5 -20 q-9.5 -8 -23.5 -8 q-15 0 -27 8 l-171 105 q-26 16 -26 35 q0 13 11 22.5 q11 9.5 25 9.5 q11 0 21 -6 l170 -106 Z" /><glyph glyph-name="uni5BA2" unicode="&#x5ba2;" d="M885 634 q2 -6 0 -12 l-11 -132 q-2 -20 -12.5 -31 q-10.5 -11 -23.5 -11 q-15 0 -25.5 12 q-10.5 12 -8.5 32 l10 119 q-121 32 -295 32 q-155 0 -287 -25 l-6 -99 q-1 -22 -11.5 -33.5 q-10.5 -11.5 -24.5 -11.5 q-14 0 -24.5 11.5 q-10.5 11.5 -9.5 30.5 l10 178 q1 22 11.5 33.5 q10.5 11.5 24.5 11.5 q14 0 24.5 -11.5 q10.5 -11.5 9.5 -30.5 l0 -8 q107 20 250 23 l-5 58 q-2 23 7.5 35 q9.5 12 24.5 12 q14 0 25 -10.5 q11 -10.5 12 -28.5 l5 -67 q179 -3 289 -39 l17 -6 q10 -3 16.5 -11.5 q6.5 -8.5 7.5 -20.5 ZM792 295 q29 -11 29 -35 q0 -14 -10.5 -24.5 q-10.5 -10.5 -24.5 -10.5 q-8 0 -16 4 l-194 59 q-106 -61 -273 -117 q-11 -4 -23 -4 q-18 0 -30 9 q-12 9 -12 21 q0 9 7.5 17 q7.5 8 21.5 14 q16 7 48 19 q20 8 74.5 30 q54.5 22 92.5 39 l-104 32 q-16 6 -24 16 q-8 10 -8 21 q0 13 10 23 q10 10 25 10 q10 0 18 -4 l171 -52 q57 36 57 63 q0 47 -178 81 q-14 3 -22 7 q-35 -40 -62.5 -61.5 q-27.5 -21.5 -84.5 -52.5 q-14 -10 -29 -10 q-15 0 -25 9.5 q-10 9.5 -10 22.5 q0 7 4.5 14.5 q4.5 7.5 13.5 12.5 q68 42 95.5 67 q27.5 25 85.5 94 q12 14 29 14 q15 0 26.5 -9.5 q11.5 -9.5 11.5 -23.5 q0 -7 -5 -17 q121 -22 180.5 -56.5 q59.5 -34.5 59.5 -77.5 q0 -47 -66 -101 l141 -43 ZM611 209 q40 0 66.5 -20 q26.5 -20 26.5 -53 l0 -124 q0 -38 -26 -59 q-26 -21 -67 -21 l-132 0 q-41 0 -66 20.5 q-25 20.5 -25 59.5 l0 124 q0 33 25.5 53 q25.5 20 65.5 20 l132 0 ZM642 104 q0 20 -15 30.5 q-15 10.5 -40 10.5 l-81 0 q-24 0 -39 -10.5 q-15 -10.5 -15 -30.5 l0 -68 q0 -24 15 -35.5 q15 -11.5 39 -11.5 l81 0 q25 0 40 11.5 q15 11.5 15 35.5 l0 68 Z" /><glyph glyph-name="uni5BB9" unicode="&#x5bb9;" d="M876 595 q3 -8 1 -19 l-11 -102 q-2 -20 -12.5 -31 q-10.5 -11 -23.5 -11 q-15 0 -25.5 12 q-10.5 12 -8.5 32 l9 89 q-122 33 -299 33 q-147 0 -265 -22 l10 -68 q1 -4 1 -10 q0 -19 -10 -29.5 q-10 -10.5 -24 -10.5 q-13 0 -23.5 9 q-10.5 9 -12.5 26 l-21 147 q-3 24 7 37.5 q10 13.5 26 13.5 q14 0 24 -9.5 q10 -9.5 12 -26.5 l2 -11 q106 22 255 24 l-6 55 q-3 23 7 36 q10 13 26 13 q13 0 24 -10 q11 -10 12 -27 l7 -65 l0 -2 q175 -7 279 -41 q10 -3 17 -7 q18 -5 23 -25 ZM308 387 q-16 -12 -31 -12 q-14 0 -23.5 10 q-9.5 10 -9.5 23 q0 20 19 33 l122 95 q15 11 31 11 q15 0 24 -9.5 q9 -9.5 9 -22.5 q0 -18 -19 -33 l-122 -95 ZM596 471 q-24 11 -24 34 q0 13 9.5 22.5 q9.5 9.5 24.5 9.5 q13 0 27 -7 l130 -69 q11 -6 17 -15 q6 -9 6 -19 q0 -13 -9 -23 q-9 -10 -24 -10 q-14 0 -27 8 l-130 69 ZM771 234 q26 -12 26 -36 q0 -13 -9 -22.5 q-9 -9.5 -25 -9.5 q-11 0 -24 6 l-254 124 l-8 4 q-61 -54 -107.5 -89 q-46.5 -35 -119.5 -80 q-16 -10 -29 -10 q-14 0 -23.5 10 q-9.5 10 -9.5 23 q0 20 21 33 q78 48 125 84.5 q47 36.5 126 106.5 l44 39 q17 9 29 9 q15 0 24 -9.5 q9 -9.5 9 -22.5 q0 -21 -21 -34 l-11 -10 l237 -116 ZM592 199 q38 0 63.5 -21 q25.5 -21 25.5 -56 l0 -126 q0 -40 -25 -61.5 q-25 -21.5 -64 -21.5 l-169 0 q-41 0 -64.5 21.5 q-23.5 21.5 -23.5 61.5 l0 126 q0 35 24 56 q24 21 64 21 l169 0 ZM611 88 q0 20 -14 30.5 q-14 10.5 -38 10.5 l-103 0 q-23 0 -37 -10.5 q-14 -10.5 -14 -30.5 l0 -57 q0 -24 14 -36 q14 -12 37 -12 l103 0 q24 0 38 12 q14 12 14 36 l0 57 Z" /><glyph glyph-name="uni5BF9" unicode="&#x5bf9;" d="M860 533 q19 1 31 -9.5 q12 -10.5 12 -25.5 q0 -14 -10.5 -24 q-10.5 -10 -31.5 -11 l-64 -4 l9 -272 l1 -54 q0 -41 -7.5 -65.5 q-7.5 -24.5 -31 -39.5 q-23.5 -15 -69.5 -17 l-90 -4 q-25 -1 -39 9.5 q-14 10.5 -14 25.5 q0 14 13.5 24.5 q13.5 10.5 36.5 10.5 l81 3 q32 1 41.5 11.5 q9.5 10.5 9.5 39.5 q0 28 -1 47 l-10 277 l-213 -13 q-20 -1 -32 9 q-12 10 -12 25 q0 14 11 24.5 q11 10.5 32 11.5 l212 13 l-4 106 q-1 25 9.5 39 q10.5 14 25.5 14 q14 0 24.5 -13.5 q10.5 -13.5 10.5 -36.5 l4 -105 l65 4 ZM417 212 q22 -15 22 -37 q0 -13 -9 -22 q-9 -9 -23 -9 q-15 0 -31 10 l-81 54 q-56 -69 -108 -98 q-16 -9 -30 -9 q-14 0 -23 8 q-9 8 -9 19 q0 22 26 39 q31 21 83 83 l-104 69 q-20 13 -20 32 q0 15 10 26 q10 11 25 11 q13 0 28 -12 l104 -70 q47 64 59 105 q5 17 5 31 q0 22 -11 36 q-11 14 -34 15 l-116 2 q-23 -1 -36.5 8.5 q-13.5 9.5 -13.5 25.5 q0 17 13.5 26.5 q13.5 9.5 36.5 9.5 l125 -2 q52 -1 80 -32.5 q28 -31.5 28 -79.5 q0 -25 -7 -47 q-20 -66 -69 -138 l80 -54 ZM602 269 q17 -17 17 -34 q0 -13 -10 -22 q-10 -9 -24 -9 q-17 0 -31 13 l-84 82 q-17 17 -17 35 q0 13 9 22 q9 9 23 9 q17 0 31 -14 l86 -82 Z" /><glyph glyph-name="uni5BFC" unicode="&#x5bfc;" d="M280 697 q-23 -1 -36.5 8.5 q-13.5 9.5 -13.5 25.5 q0 17 13.5 26.5 q13.5 9.5 36.5 9.5 l325 0 q75 0 101 -42.5 q26 -42.5 26 -94.5 q0 -63 -33 -91 q-33 -28 -101 -28 l-198 0 q-23 -1 -36.5 8.5 q-13.5 9.5 -13.5 26.5 q0 17 13 26 q13 9 37 9 l192 0 q35 0 52 12.5 q17 12.5 18 43.5 q0 21 -12 40.5 q-12 19.5 -41 19.5 l-329 0 ZM357 359 q-52 0 -76 18 q-24 18 -30 47 q-6 29 -7 84 q-1 8 -1 24 l0 105 q-1 23 8.5 36.5 q9.5 13.5 26.5 13.5 q17 0 26 -13 q9 -13 9 -37 l0 -112 l0 -34 q0 -26 3 -38.5 q3 -12.5 14.5 -18 q11.5 -5.5 35.5 -5.5 l305 0 q23 1 36.5 -8.5 q13.5 -9.5 13.5 -25.5 q0 -17 -13.5 -26.5 q-13.5 -9.5 -36.5 -9.5 l-314 0 ZM780 243 q19 1 31 -9.5 q12 -10.5 12 -25.5 q0 -14 -11 -24 q-11 -10 -31 -11 l-128 -6 l3 -50 l1 -54 q0 -41 -7.5 -65.5 q-7.5 -24.5 -31 -39.5 q-23.5 -15 -69.5 -17 l-90 -4 q-25 -1 -39 9.5 q-14 10.5 -14 25.5 q0 14 13.5 24.5 q13.5 10.5 36.5 10.5 l81 3 q32 1 41.5 11.5 q9.5 10.5 9.5 39.5 q0 28 -1 47 l-4 55 l-315 -15 q-20 -1 -32 9.5 q-12 10.5 -12 25.5 q0 14 11 24 q11 10 32 11 l311 15 l-2 29 q-2 25 8.5 39 q10.5 14 25.5 14 q15 0 25.5 -13.5 q10.5 -13.5 10.5 -36.5 l2 -28 l132 6 ZM343 46 q17 -17 17 -34 q0 -13 -10 -22 q-10 -9 -24 -9 q-17 0 -31 13 l-59 59 q-17 17 -17 35 q0 13 9 22 q9 9 23 9 q17 0 31 -14 l61 -59 Z" /><glyph glyph-name="uni5C01" unicode="&#x5c01;" d="M490 427 q23 0 35 -9 q12 -9 12 -23 q0 -14 -13 -25 q-13 -11 -34 -12 l-347 -6 q-23 0 -35 9 q-12 9 -12 23 q0 14 13 25 q13 11 34 12 l125 2 l0 6 l-1 117 l-96 3 q-23 1 -35 11 q-12 10 -12 23 q0 14 13 25 q13 11 34 10 l95 -3 l-1 53 q0 24 10 37 q10 13 24 13 q14 0 24.5 -13.5 q10.5 -13.5 11.5 -36.5 l0 -54 l101 -3 q23 -1 35 -11 q12 -10 12 -23 q0 -14 -13 -25 q-13 -11 -34 -10 l-100 3 l1 -116 l0 -5 l153 3 ZM927 484 q23 1 35 -8 q12 -9 12 -23 q0 -14 -13 -25.5 q-13 -11.5 -34 -12.5 l-77 -3 l15 -212 q2 -50 2 -69 q0 -55 -20.5 -82 q-20.5 -27 -83.5 -29 l-93 -3 q-24 -1 -38.5 10.5 q-14.5 11.5 -14.5 26.5 q0 14 12.5 23.5 q12.5 9.5 35.5 10.5 l84 0 q29 2 39.5 11.5 q10.5 9.5 10.5 32.5 q0 8 -4 56 l-15 221 l-183 -7 q-23 -1 -35 8 q-12 9 -12 23 q0 14 13 25.5 q13 11.5 34 12.5 l179 7 l-6 83 q-1 25 9 39 q10 14 25 14 q14 0 24 -12.5 q10 -12.5 11 -35.5 l6 -85 l82 3 ZM460 48 q23 0 35 -9 q12 -9 12 -23 q0 -14 -13 -25 q-13 -11 -34 -12 l-297 -6 q-23 0 -35 9 q-12 9 -12 23 q0 14 13 25 q13 11 34 12 l121 2 l-6 126 l-106 2 q-23 0 -35 10 q-12 10 -12 24 q0 14 13 25 q13 11 34 10 l102 -2 l-2 40 q-1 23 8.5 36.5 q9.5 13.5 23.5 13.5 q14 0 25.5 -13 q11.5 -13 12.5 -37 l2 -41 l78 -2 q23 0 35 -10 q12 -10 12 -24 q0 -14 -13 -25 q-13 -11 -34 -10 l-75 1 l6 -122 l107 2 ZM700 255 q23 -16 23 -36 q0 -12 -10 -20.5 q-10 -8.5 -24 -8.5 q-16 0 -33 12 l-67 49 q-21 15 -21 34 q0 13 9.5 21 q9.5 8 23.5 8 q15 0 32 -11 l67 -48 Z" /><glyph glyph-name="uni5C06" unicode="&#x5c06;" d="M469 547 q-15 -21 -35 -21 q-13 0 -22.5 10 q-9.5 10 -9.5 24 q0 14 10 27 l148 195 q15 21 35 21 q13 0 22.5 -9.5 q9.5 -9.5 9.5 -23.5 q0 -13 -9 -25 l64 -1 q52 -1 82.5 -33.5 q30.5 -32.5 30.5 -78.5 q0 -26 -8 -47 q-22 -61 -66.5 -99.5 q-44.5 -38.5 -118.5 -78.5 q-16 -9 -30 -9 q-14 0 -23 8 q-9 8 -9 19 q0 22 26 39 l47 31 q-16 -2 -33 12 l-49 40 q-17 17 -17 35 q0 13 9 22 q9 9 23 9 q17 0 31 -14 l51 -40 q17 -16 17 -33 q0 -6 -1 -9 q48 37 62 75 q7 21 7 37 q0 44 -40 45 l-95 2 l-12 0 l-97 -129 ZM296 609 q1 21 12 32 q11 11 24 11 q15 0 25 -11.5 q10 -11.5 9 -31.5 l-25 -504 q-1 -21 -11.5 -32 q-10.5 -11 -24.5 -11 q-15 0 -25 11.5 q-10 11.5 -9 31.5 l8 153 q-3 -3 -6 -4.5 q-3 -1.5 -5 -3.5 l-110 -69 q-15 -9 -27 -9 q-14 0 -23 10 q-9 10 -9 23 q0 23 20 34 l113 69 q15 9 28 9 q13 0 21 -8 l5 100 q-8 -13 -26 -13 q-13 0 -28 9 l-113 69 q-20 11 -20 34 q0 13 9 23 q9 10 23 10 q12 0 27 -9 l110 -69 q14 -8 20 -21 l8 167 ZM865 356 q19 1 31 -10 q12 -11 12 -26 q0 -14 -10.5 -23.5 q-10.5 -9.5 -31.5 -10.5 l-75 -2 l6 -86 l1 -54 q0 -40 -7.5 -64 q-7.5 -24 -30.5 -39 q-23 -15 -70 -19 l-49 -4 q-25 -2 -39 8.5 q-14 10.5 -14 25.5 q0 15 13.5 25.5 q13.5 10.5 36.5 10.5 l40 3 q32 1 41.5 11.5 q9.5 10.5 9.5 39.5 q0 28 -1 47 l-7 92 l-203 -6 q-21 -1 -32.5 10 q-11.5 11 -11.5 26 q0 13 11 23 q11 10 32 11 l199 6 l-4 53 q-2 25 8.5 39 q10.5 14 25.5 14 q15 0 25.5 -13.5 q10.5 -13.5 10.5 -36.5 l4 -54 l79 3 ZM559 172 q17 -17 17 -34 q0 -13 -9.5 -21.5 q-9.5 -8.5 -23.5 -8.5 q-19 0 -32 12 l-49 40 q-17 17 -17 35 q0 13 9 22 q9 9 23 9 q17 0 31 -14 l51 -40 Z" /><glyph glyph-name="uni5C0F" unicode="&#x5c0f;" d="M540 677 q18 0 27.5 -13.5 q9.5 -13.5 7.5 -37.5 l-15 -434 l-1 -22 q-3 -57 -10 -86 q-7 -29 -31.5 -46.5 q-24.5 -17.5 -77.5 -15.5 l-68 2 q-24 2 -36.5 11.5 q-12.5 9.5 -11.5 26.5 q0 16 14 24.5 q14 8.5 37 7.5 l59 -2 q26 -1 37.5 5 q11.5 6 14 20 q2.5 14 3.5 48 l1 21 l15 442 q3 49 35 49 ZM228 434 q13 29 35 29 q14 0 23.5 -10 q9.5 -10 9.5 -26 q0 -11 -4 -20 l-86 -203 q-12 -30 -36 -30 q-13 0 -23 10 q-10 10 -10 25 q0 10 4 19 l87 206 ZM870 242 q7 -11 7 -23 q0 -14 -9.5 -24 q-9.5 -10 -22.5 -10 q-21 0 -36 25 l-114 189 q-8 14 -8 25 q0 14 9.5 24 q9.5 10 22.5 10 q22 0 36 -24 l115 -192 Z" /><glyph glyph-name="uni5C24" unicode="&#x5c24;" d="M844 58 q24 1 37.5 -9.5 q13.5 -10.5 13.5 -25.5 q0 -14 -13.5 -24.5 q-13.5 -10.5 -37.5 -10.5 l-217 0 q-52 0 -76 18 q-24 18 -30 47 q-6 29 -7 84 q-1 8 -1 24 l0 244 q0 9 1 13 l-77 -1 q-39 -123 -88 -238.5 q-49 -115.5 -77 -158.5 q-15 -25 -37 -25 q-12 0 -20.5 9 q-8.5 9 -8.5 22 q0 14 8 26 q27 44 72 147 q45 103 81 218 l-179 -1 q-21 0 -32 10 q-11 10 -11 24 q0 14 12 24.5 q12 10.5 34 10.5 l198 1 q33 115 46 219 q3 23 14 36 q11 13 25 13 q12 0 20.5 -10.5 q8.5 -10.5 8.5 -31.5 l-1 -11 q-9 -93 -44 -214 l316 2 q16 0 26.5 -11.5 q10.5 -11.5 10.5 -25.5 q0 -13 -10.5 -23 q-10.5 -10 -30.5 -10 l-188 -1 q1 -4 1 -13 l0 -251 l0 -34 q0 -26 3 -38.5 q3 -12.5 14.5 -18 q11.5 -5.5 35.5 -5.5 l208 0 ZM730 646 q-13 16 -13 30 q0 13 10 21.5 q10 8.5 24 8.5 q19 0 35 -17 l52 -66 q13 -16 13 -30 q0 -13 -9.5 -22 q-9.5 -9 -23.5 -9 q-20 0 -36 19 l-52 65 Z" /><glyph glyph-name="uni5C31" unicode="&#x5c31;" d="M281 740 q-5 12 -5 21 q0 15 9 24.5 q9 9.5 22 9.5 q26 0 41 -34 l19 -43 q4 -9 4 -20 q0 -15 -9 -25.5 q-9 -10.5 -21 -10.5 q-25 0 -40 36 l-20 42 ZM114 586 q-19 0 -32 12.5 q-13 12.5 -13 27.5 q0 13 11.5 21.5 q11.5 8.5 34.5 8.5 l423 -4 q21 -1 34 -11.5 q13 -10.5 13 -23.5 q0 -12 -12 -21.5 q-12 -9.5 -35 -11.5 l-424 2 ZM923 131 q24 1 37.5 -9.5 q13.5 -10.5 13.5 -25.5 q0 -14 -13.5 -24.5 q-13.5 -10.5 -37.5 -10.5 l-51 0 q-52 0 -76 18 q-24 18 -30 47 q-6 29 -7 84 q-1 8 -1 24 l0 122 l0 11 l-20 0 q-15 -89 -38.5 -161.5 q-23.5 -72.5 -47.5 -120.5 q-7 -14 -17.5 -21.5 q-10.5 -7.5 -20.5 -7.5 q-12 0 -20.5 9 q-8.5 9 -8.5 23 q0 11 6 23 q25 51 45 111.5 q20 60.5 34 142.5 l-78 -2 q-21 0 -32 9.5 q-11 9.5 -11 23.5 q0 14 12 24.5 q12 10.5 34 11.5 l85 2 q7 73 8 146 q1 24 11.5 38.5 q10.5 14.5 24.5 14.5 q13 0 22 -13 q9 -13 9 -37 q0 -73 -8 -147 l121 4 q16 1 26.5 -10 q10.5 -11 10.5 -25 q0 -14 -10.5 -24 q-10.5 -10 -30.5 -11 l-37 -1 q1 -4 1 -13 l0 -129 l0 -34 q0 -26 3 -38.5 q3 -12.5 14.5 -18 q11.5 -5.5 35.5 -5.5 l42 0 ZM838 546 q-13 16 -13 30 q0 13 10 21.5 q10 8.5 24 8.5 q19 0 35 -17 l52 -66 q13 -16 13 -30 q0 -13 -9.5 -22 q-9.5 -9 -23.5 -9 q-20 0 -36 19 l-52 65 ZM494 341 q0 -62 -30.5 -87 q-30.5 -25 -96.5 -26 l0 -108 q0 -16 -1 -24 q-1 -55 -7 -84 q-6 -29 -30 -47 q-24 -18 -76 -18 l-14 0 q-24 0 -37.5 10.5 q-13.5 10.5 -13.5 25.5 q0 14 13.5 24.5 q13.5 10.5 37.5 9.5 l5 0 q24 0 35.5 5.5 q11.5 5.5 14.5 18 q3 12.5 3 38.5 l0 34 l0 115 l-17 0 q-69 0 -101 24.5 q-32 24.5 -32 88.5 l0 106 q0 57 32 80 q32 23 101 23 l81 0 q69 0 101 -23 q32 -23 32 -80 l0 -106 ZM217 379 q0 -34 10.5 -51.5 q10.5 -17.5 31.5 -23.5 q21 -6 59 -6 l5 0 q38 0 59 6 q21 6 31.5 23.5 q10.5 17.5 10.5 51.5 l0 30 q0 43 -22.5 57 q-22.5 14 -78.5 14 l-5 0 q-56 0 -78.5 -14 q-22.5 -14 -22.5 -57 l0 -30 ZM163 172 q15 18 35 18 q14 0 23 -8.5 q9 -8.5 9 -21.5 q0 -16 -14 -31 l-80 -91 q-12 -15 -32 -15 q-14 0 -24 8.5 q-10 8.5 -10 21.5 q0 15 13 29 l80 90 ZM540 75 q12 -13 12 -28 q0 -13 -10 -22 q-10 -9 -24 -9 q-18 0 -31 15 l-80 91 q-14 15 -14 31 q0 13 9 21.5 q9 8.5 23 8.5 q19 0 35 -18 l80 -90 Z" /><glyph glyph-name="uni5C4B" unicode="&#x5c4b;" d="M301 485 q-12 -125 -44 -230 q-32 -105 -93 -156 q-18 -15 -34 -15 q-12 0 -20 7.5 q-8 7.5 -8 20.5 q0 22 24 47 q63 66 85.5 186 q22.5 120 25.5 274 q0 16 10.5 25.5 q10.5 9.5 24.5 9.5 q15 0 25 -9.5 q10 -9.5 10 -27.5 q0 -39 -1 -62 l385 0 q27 0 40.5 3 q13.5 3 21.5 16 q8 13 8 42 q0 7 -4.5 21.5 q-4.5 14.5 -16.5 26.5 q-12 12 -32 12 l-444 0 q-23 -1 -36.5 8.5 q-13.5 9.5 -13.5 25.5 q0 17 13.5 26.5 q13.5 9.5 36.5 9.5 l440 0 q75 0 101 -43.5 q26 -43.5 26 -93.5 q0 -69 -32 -96.5 q-32 -27.5 -102 -27.5 l-396 0 ZM768 446 q21 -1 32 -12 q11 -11 11 -24 q0 -15 -11.5 -25 q-11.5 -10 -31.5 -9 l-329 13 q-13 -34 -13 -52 q0 -16 8 -29.5 q8 -13.5 28 -28.5 q11 -8 32 -13 q21 -5 46 -5 l19 1 q30 2 42 5 q12 3 38 14 l-15 25 q-6 14 -6 25 q0 15 10 25 q10 10 23 10 q21 0 34 -25 l66 -110 q6 -13 6 -25 q0 -15 -9.5 -24 q-9.5 -9 -22.5 -9 q-24 0 -35 24 l-13 21 q-38 -15 -61.5 -20.5 q-23.5 -5.5 -59.5 -8.5 l-3 0 q19 -16 19 -52 l0 -2 l129 -3 q23 0 36 -10.5 q13 -10.5 13 -25.5 q0 -14 -14 -24 q-14 -10 -40 -10 l-117 2 l5 -57 l147 14 q28 3 44 -7.5 q16 -10.5 16 -26.5 q0 -13 -12.5 -23.5 q-12.5 -10.5 -35.5 -12.5 l-370 -37 q-26 -3 -42 8.5 q-16 11.5 -16 27.5 q0 13 11.5 23 q11.5 10 34.5 12 l154 15 l-6 65 l-115 2 q-23 0 -36 10.5 q-13 10.5 -13 25.5 q0 15 14 25.5 q14 10.5 40 9.5 l105 -2 l-1 9 q0 29 15 44 q-30 2 -56.5 11 q-26.5 9 -43.5 20 q-32 22 -47.5 48 q-15.5 26 -15.5 60 q0 24 10 64 l-17 1 q-21 1 -32.5 12 q-11.5 11 -11.5 25 q0 14 12 24 q12 10 32 9 l420 -17 Z" /></font>
</defs>
</svg>
