<?xml version="1.0" standalone="no"?><!DOCTYPE svg PUBLIC "-//W3C//DTD SVG 1.1//EN" "http://www.w3.org/Graphics/SVG/1.1/DTD/svg11.dtd" ><svg xmlns="http://www.w3.org/2000/svg"><metadata></metadata><defs><font id="1.000;SJ  ;SJcuyuan-Regular" horiz-adv-x="1000"><font-face font-family="海报粗圆体" font-weight="400" font-stretch="normal" units-per-em="1000" panose-1="0 0 5 0 0 0 0 0 0 0" ascent="1095" descent="-282" x-height="0" bbox="-71 -212 994 828" underline-thickness="50" underline-position="-282" unicode-range="U+0020-ff1a" /><missing-glyph horiz-adv-x="1000"  /><glyph glyph-name="A" unicode="A" d="M481 180 l-306 0 l-79 -172 q-11 -24 -24 -30.5 q-13 -6.5 -33.5 0.5 q-20.5 7 -28.5 18.5 q-8 11.5 -9.5 19.5 q-1.5 8 2.5 16 l263 602 q23 52 36.5 62 q13.5 10 26.5 10 q12 0 26 -8.5 q14 -8.5 21 -24.5 l267 -614 q12 -28 8.5 -41 q-3.5 -13 -12 -22 q-8.5 -9 -23.5 -13 q-25 -9 -39.5 1.5 q-14.5 10.5 -26.5 37.5 l-69 158 ZM210 278 l236 0 l-108 262 q-6 15 -8.5 14.5 q-2.5 -0.5 -6.5 -9.5 l-113 -267 Z" /><glyph glyph-name="B" unicode="B" d="M328 705 q70 0 99 -12.5 q29 -12.5 55 -36 q26 -23.5 39.5 -56 q13.5 -32.5 14 -68 q0.5 -35.5 -6.5 -61.5 q-8 -28 -22 -47.5 q-14 -19.5 -36 -33.5 l-28 -18 q14 -6 25.5 -12 q11.5 -6 33 -26 q21.5 -20 36 -56 q14.5 -36 15 -77 q0.5 -41 -20.5 -85 q-16 -34 -42 -60.5 q-26 -26.5 -64 -41.5 q-38 -15 -119 -15 l-51 0 q-127 0 -139.5 4 q-12.5 4 -24.5 14.5 q-12 10.5 -17 25.5 q-5 15 -5 83 l0 487 q0 32 5 50.5 q5 18.5 21.5 30 q16.5 11.5 45.5 11.5 l186 0 ZM173 318 l0 -184 q0 -24 7 -31 q7 -7 25 -7 l109 0 q35 0 58 8 q23 8 38 22.5 q15 14.5 25 33.5 q10 19 10 43 q-1 19 -7 38.5 q-6 19.5 -16.5 33 q-10.5 13.5 -22.5 21.5 q-12 8 -34.5 15 q-22.5 7 -34.5 7 l-157 0 ZM171 421 l141 0 q26 0 51 8.5 q25 8.5 38.5 22 q13.5 13.5 22.5 34 q9 20.5 8 40.5 q-1 21 -9.5 37.5 q-8.5 16.5 -20 27 q-11.5 10.5 -31.5 18 q-20 7.5 -46 7.5 l-120 0 q-18 0 -26 -6 q-8 -6 -8 -28 l0 -161 Z" /><glyph glyph-name="C" unicode="C" d="M30 330 q0 116 41 204 q20 42 62 81 q41 40 96.5 62.5 q55.5 22.5 109.5 22.5 q74 0 143 -30 q44 -21 73 -49 q34 -32 56 -76.5 q22 -44.5 22 -87.5 q0 -25 -17.5 -40.5 q-17.5 -15.5 -39.5 -15.5 q-16 0 -28 9 q-12 9 -14 26 q-4 43 -29 78.5 q-25 35.5 -66.5 56 q-41.5 20.5 -92.5 20.5 q-64 0 -114.5 -33.5 q-50.5 -33.5 -70.5 -75.5 q-19 -39 -23 -64 q-7 -30 -7 -73 q0 -48 9 -83 q9 -30 24 -54.5 q15 -24.5 29 -36.5 q55 -55 148 -61 q79 -5 122.5 39.5 q43.5 44.5 65.5 105.5 q11 31 43 31 q23 0 41.5 -16.5 q18.5 -16.5 18.5 -41.5 q0 -8 -3 -19 q-12 -36 -33.5 -71 q-21.5 -35 -50.5 -63 q-32 -31 -88 -53 q-56 -22 -115 -22 q-46 0 -94 14 q-46 14 -86.5 44 q-40.5 30 -66.5 68 q-27 38 -40 80 q-14 39 -19.5 66 q-5.5 27 -5.5 58 Z" /><glyph glyph-name="D" unicode="D" d="M125 1 q-48 0 -63 24.5 q-15 24.5 -15 74.5 l0 467 l0 44 q0 50 12.5 73.5 q12.5 23.5 54.5 23.5 l194 0 q44 0 83 -9 q47 -11 91 -39 q44 -28 74 -79 q29 -50 38 -80.5 q9 -30.5 13 -68.5 q4 -36 4 -72 q0 -45 -5 -80 q-9 -68 -30.5 -114.5 q-21.5 -46.5 -60.5 -85.5 q-39 -39 -78 -54 q-69 -26 -133 -26 l-179 1 ZM189 592 q-20 0 -30 -3 q-10 -3 -11 -12 l1 -26 l0 -376 q0 -7 -0.5 -24 q-0.5 -17 5 -24.5 q5.5 -7.5 18.5 -7.5 l135 1 q41 0 69 9 q27 10 51.5 28.5 q24.5 18.5 35.5 34.5 q19 30 30 65 q13 43 13 103 q0 66 -18 114 q-17 46 -60.5 82 q-43.5 36 -114.5 36 l-124 0 Z" /><glyph glyph-name="E" unicode="E" d="M150 413 l353 0 q17 0 32.5 -12.5 q15.5 -12.5 12.5 -42.5 q1 -25 -14.5 -35.5 q-15.5 -10.5 -30.5 -10.5 l-353 0 l0 -138 q0 -43 1 -51 q1 -8 8 -15 q7 -7 23 -7 l354 0 q10 0 23 -10 q13 -10 13 -41.5 q0 -31.5 -13.5 -40 q-13.5 -8.5 -22.5 -8.5 l-399 0 q-50 0 -68.5 18.5 q-18.5 18.5 -18.5 55.5 l0 519 q0 47 2 60 q2 13 18 29.5 q16 16.5 49 16.5 l404 0 q15 0 28.5 -7.5 q13.5 -7.5 14.5 -34.5 q0 -43 -15.5 -50.5 q-15.5 -7.5 -28.5 -6.5 l-338 0 q-19 0 -26.5 -8 q-7.5 -8 -7.5 -28 l0 -152 Z" /><glyph glyph-name="F" unicode="F" d="M160 41 q-2 -34 -16 -41 q-14 -7 -44 -3 q-19 0 -29.5 11.5 q-10.5 11.5 -10.5 34.5 l0 555 q0 51 3.5 63.5 q3.5 12.5 15.5 25.5 q12 13 24.5 15 q12.5 2 29.5 2 l396 0 q17 0 31 -10.5 q14 -10.5 13.5 -43.5 q-0.5 -33 -13 -39.5 q-12.5 -6.5 -31.5 -6.5 l-309 1 q-34 0 -42.5 -3.5 q-8.5 -3.5 -13 -11 q-4.5 -7.5 -4.5 -23.5 l1 -116 l-1 -17 q-1 -14 4 -18 q5 -4 20 -4 l324 0 q29 0 36 -24 q7 -24 -1 -50 q-7 -16 -15.5 -19.5 q-8.5 -3.5 -19.5 -3.5 l-278 0 q-42 0 -52.5 -1 q-10.5 -1 -14 -3 q-3.5 -2 -3.5 -23 l0 -247 Z" /><glyph glyph-name="G" unicode="G" d="M552 405 q38 0 56 -5 q18 -5 26 -20.5 q8 -15.5 8 -49.5 q0 -41 -8.5 -89.5 q-8.5 -48.5 -26.5 -82.5 q-20 -38 -57 -74 q-42 -40 -96 -60.5 q-54 -20.5 -117 -20.5 q-47 0 -82 12 q-48 16 -74.5 31.5 q-26.5 15.5 -57.5 47.5 q-53 54 -73 117.5 q-20 63.5 -20 136.5 q0 62 8 113 q8 51 34 97 q35 65 99 108 q30 20 78.5 35 q48.5 15 95.5 15 q32 0 73 -9.5 q41 -9.5 74 -28.5 q36 -22 67 -53 q30 -30 52 -75.5 q22 -45.5 20 -64.5 q-2 -23 -19 -37.5 q-17 -14.5 -39 -14.5 q-11 0 -20 3 q-8 3 -13.5 12 q-5.5 9 -14.5 28 q-12 26 -20 40 q-29 42 -69.5 65 q-40.5 23 -90.5 23 q-40 0 -75 -12 q-32 -11 -61 -35.5 q-29 -24.5 -44 -48.5 q-20 -35 -29 -76.5 q-9 -41.5 -7 -78.5 q0 -36 8.5 -80 q8.5 -44 30.5 -73 q39 -51 84.5 -72 q45.5 -21 111.5 -21 q35 0 64 11.5 q29 11.5 58 39.5 q29 29 41.5 63.5 q12.5 34.5 12.5 67.5 q-2 11 -6 15 l-177 1 q-19 0 -29.5 14 q-10.5 14 -10.5 33 q0 21 11 37 q11 16 30 16 l194 0 Z" /><glyph glyph-name="H" unicode="H" d="M503 723 q24 0 37 -13 q13 -13 13 -37 l0 -611 q0 -24 -13 -37 q-13 -13 -37 -13 q-24 0 -37 13 q-13 13 -13 37 l0 266 l-303 0 l0 -266 q0 -24 -13 -37 q-13 -13 -37 -13 q-24 0 -37 13 q-13 13 -13 37 l0 611 q0 24 13 37 q13 13 37 13 q24 0 37 -13 q13 -13 13 -37 l0 -245 l303 0 l0 245 q0 24 13 37 q13 13 37 13 Z" /><glyph glyph-name="I" unicode="I" d="M117 0 q-24 0 -37 13 q-13 13 -13 37 l0 607 q0 24 13 37 q13 13 37 13 q24 0 37 -13 q13 -13 13 -37 l0 -607 q0 -24 -13 -37 q-13 -13 -37 -13 Z" /><glyph glyph-name="J" unicode="J" d="M594 311 q0 -103 -10.5 -156 q-10.5 -53 -48.5 -88 q-69 -67 -199 -67 q-110 0 -167.5 71.5 q-57.5 71.5 -57.5 184.5 q0 32 16 48 q16 16 39 16 q17 0 30.5 -9.5 q13.5 -9.5 14.5 -23.5 l1 -14 q2 -43 11 -70 q29 -92 125 -92 q28 0 58.5 12 q30.5 12 46.5 30 q8 8 16 21 q8 13 12 24 q13 33 13 124 l0 358 q0 21 15 32.5 q15 11.5 35 11.5 q20 0 35 -11.5 q15 -11.5 15 -31.5 l0 -370 Z" /><glyph glyph-name="K" unicode="K" d="M110 10 q-24 0 -37 13 q-13 13 -13 37 l0 622 q0 24 13 37 q13 13 37 13 q24 0 37 -13 q13 -13 13 -37 l0 -622 q0 -24 -13 -37 q-13 -13 -37 -13 ZM463 698 q17 17 34 17 q17 0 36 -17 q18 -16 18 -35 q0 -18 -17 -35 l-215 -223 q-16 -16 -16 -25 q0 -9 16 -26 l241 -261 q16 -16 16 -35 q0 -20 -19 -36 q-19 -16 -35 -16 q-18 0 -35 18 l-294 319 q-12 14 -12 34 q0 29 22 52 l260 269 Z" /><glyph glyph-name="L" unicode="L" d="M150 163 q-1 -26 1.5 -38.5 q2.5 -12.5 8 -19 q5.5 -6.5 28.5 -5.5 q23 1 89 1 l185 -1 q30 -3 34.5 -26 q4.5 -23 1.5 -40.5 q-3 -17.5 -12.5 -25.5 q-9.5 -8 -22.5 -8 l-338 0 q-24 0 -34.5 3 q-10.5 3 -20 12 q-9.5 9 -13.5 24.5 q-4 15.5 -5 47.5 l-2 53 l0 524 q0 16 12 26 q12 10 30 12.5 q18 2.5 37.5 -7 q19.5 -9.5 19.5 -34.5 l1 -498 Z" /><glyph glyph-name="M" unicode="M" d="M30 682 q0 51 63 51 q42 0 57 -33 l240 -524 l247 525 q8 16 18 22.5 q10 6.5 19 7.5 q9 1 30 1 q24 0 37 -13 q13 -13 13 -37 l0 -622 q0 -24 -13 -37 q-13 -13 -37 -13 q-24 0 -37 13 q-13 13 -13 37 l0 349 l6 76 l0 2 q0 14 -7 14 q-6 0 -10 -11 l-22 -63 l-181 -376 q-15 -30 -42 -30 q-5 -2 -16 -2 q-27 0 -41 30 l-176 370 l-23 68 q-3 11 -10 11 q-3 0 -5.5 -4.5 q-2.5 -4.5 -1.5 -11.5 l5 -66 l0 -356 q0 -24 -13 -37 q-13 -13 -37 -13 q-24 0 -37 13 q-13 13 -13 37 l0 622 Z" /><glyph glyph-name="N" unicode="N" d="M211 488 l-14 24 q-5 3 -6.5 2 q-1.5 -1 -1.5 -3.5 q0 -2.5 0 -14.5 l1 -54 l0 -396 q0 -47 -50 -47 q-50 0 -50 47 l0 476 q0 128 3 146 q3 18 7 24.5 q4 6.5 10.5 12.5 q6.5 6 14.5 8.5 q8 2.5 17.5 1.5 q9.5 -1 25 -5.5 q15.5 -4.5 33.5 -33.5 l34 -54 l273 -392 l17 -29 q4 -6 6 -5 q2 1 2.5 3 q0.5 2 0.5 74 l0 400 q0 17 13 31 q13 14 42 13 q21 -1 33 -16 q12 -15 12 -28 l0 -580 q0 -39 -4 -53 q-4 -14 -19 -28 q-15 -14 -33 -14.5 q-18 -0.5 -33 16.5 q-15 17 -40 53 l-294 421 Z" /><glyph glyph-name="O" unicode="O" d="M31 358 q0 47 9 93.5 q9 46.5 34 95.5 q29 54 77 87 q48 34 96.5 50 q48.5 16 101.5 16 q52 0 103 -17 q50 -18 101 -61 q51 -43 69 -86 q17 -42 25 -80 q11 -70 11 -109 q0 -16 -1 -24 l-6 -39 q-6 -40 -13.5 -67.5 q-7.5 -27.5 -31.5 -68.5 q-29 -48 -69 -81 q-40 -32 -92 -50.5 q-52 -18.5 -106 -18.5 q-44 0 -83 12 q-40 12 -74 31 q-34 19 -66 52 q-36 34 -51 71 q-19 44 -27 73.5 q-8 29.5 -8 71.5 l1 49 ZM129 353 q0 -43 5 -71.5 q5 -28.5 20 -61.5 q13 -29 45 -61 q58 -57 145 -57 q41 0 70 13 q32 12 64 40 q32 28 47 57 q32 66 32 135 q0 15 -1 23 q-4 35 -8 57.5 q-4 22.5 -14 49.5 q-11 30 -42 60 q-63 60 -146 60 q-42 0 -79 -14 q-36 -14 -64.5 -39 q-28.5 -25 -42.5 -54 q-15 -33 -22 -64 q-9 -44 -9 -73 Z" /><glyph glyph-name="P" unicode="P" d="M186 307 l0 -273 q0 -29 -21 -35.5 q-21 -6.5 -51 -1.5 q-13 1 -20.5 13 q-7.5 12 -7.5 24 l0 584 q0 45 6 56.5 q6 11.5 13.5 17.5 q7.5 6 23 10 q15.5 4 37.5 4 l226 1 q43 0 81 -6.5 q38 -6.5 60 -19.5 q22 -13 42 -34.5 q20 -21.5 34.5 -54 q14.5 -32.5 15 -77.5 q0.5 -45 -11.5 -76 q-10 -26 -35 -56.5 q-25 -30.5 -54 -44.5 q-29 -14 -77.5 -22.5 q-48.5 -8.5 -86.5 -8.5 l-174 0 ZM186 402 l174 1 q48 0 81.5 8.5 q33.5 8.5 46.5 21.5 q13 13 21 33.5 q8 20.5 9.5 47 q1.5 26.5 -6.5 42.5 q-6 13 -21 27.5 q-15 14.5 -39 23.5 q-24 9 -60 9 l-164 1 q-22 0 -27 -1.5 q-5 -1.5 -7.5 -4 q-2.5 -2.5 -5 -6 q-2.5 -3.5 -2.5 -7.5 l0 -196 Z" /><glyph glyph-name="Q" unicode="Q" d="M299 -38 q-57 0 -98.5 -24.5 q-41.5 -24.5 -43.5 -25.5 q-10 -3 -23 3 q-13 6 -22 18.5 q-9 12.5 -9 27.5 q0 23 23 42 q8 7 29.5 19 q21.5 12 37.5 16 q17 4 22 7.5 q5 3.5 -2 10.5 q-76 43 -107 88.5 q-31 45.5 -42 95.5 q-9 42 -9 98 q0 38 3 68 q3 39 12 70 q9 31 33 80 q24 49 68 81 q44 32 87.5 47.5 q43.5 15.5 92.5 15.5 q52 0 99 -15 q47 -15 89.5 -47 q42.5 -32 61.5 -69 q50 -97 50 -199 q0 -28 -5 -65 q-17 -80 -17 -71 q-22 -78 -60.5 -120.5 q-38.5 -42.5 -94.5 -64.5 q-6 -2 -32 -10 q-19 -4 -25.5 -8 q-6.5 -4 1.5 -10 l49 -27 l34 -22 q9 -6 25.5 -12 q16.5 -6 29.5 -7 q5 -1 18 -1 q16 0 24 2 q17 3 32 3 q26 0 26 -37 q2 -28 -11 -40.5 q-13 -12.5 -30 -15 q-17 -2.5 -43 -2.5 q-45 0 -75 6 q-30 6 -60 28 l-64 49 q-21 12 -30 14.5 q-9 2.5 -23 2.5 q-14 0 -21 0 ZM355 125 q29 0 57 10 q30 11 57.5 32 q27.5 21 41.5 45 q17 29 19 37 l6 23 q7 25 10 42 q3 17 3 46 q0 22 -1 35 q-3 69 -27 104 q-16 23 -33 40 q-22 22 -58.5 37 q-36.5 15 -78.5 15 q-42 0 -74 -14 q-56 -24 -90 -79 q-13 -22 -20 -46 q-1 -5 -4.5 -17.5 q-3.5 -12.5 -5 -25.5 q-1.5 -13 -1.5 -29 q0 -61 7 -97.5 q7 -36.5 19.5 -58 q12.5 -21.5 33.5 -43.5 q27 -28 60.5 -42 q33.5 -14 78.5 -14 Z" /><glyph glyph-name="R" unicode="R" d="M176 332 l0 -295 q0 -26 -15.5 -33 q-15.5 -7 -52.5 -5 q-15 1 -21.5 13 q-6.5 12 -6.5 25 l0 563 q0 40 1 55.5 q1 15.5 18.5 34 q17.5 18.5 57.5 18.5 l193 0 q102 0 134 -9.5 q32 -9.5 51.5 -21 q19.5 -11.5 40.5 -33.5 q21 -22 34 -57 q13 -35 12 -64 q-1 -31 -10 -55.5 q-9 -24.5 -19 -40 q-10 -15.5 -22.5 -26.5 q-12.5 -11 -26.5 -19.5 q-14 -8.5 -22 -11.5 q-8 -3 -11.5 -6.5 q-3.5 -3.5 -3.5 -8.5 q0 -4 7.5 -10 q7.5 -6 14.5 -13 q7 -7 14.5 -21 q7.5 -14 12.5 -27.5 q5 -13.5 9 -32.5 l11 -66 l11 -49 q2 -11 7.5 -27.5 q5.5 -16.5 10 -27 q4.5 -10.5 7.5 -29.5 q0 -19 -15 -31.5 q-15 -12.5 -25 -15.5 q-41 -7 -54.5 14 q-13.5 21 -19.5 38.5 q-6 17.5 -10 40.5 q-4 23 -9 61 l-9 64 q-5 32 -14.5 50.5 q-9.5 18.5 -23 31 q-13.5 12.5 -32 20 q-18.5 7.5 -42.5 7.5 l-182 0 ZM176 415 l198 0 q28 0 49.5 3.5 q21.5 3.5 42.5 14 q21 10.5 33.5 26.5 q12.5 16 18.5 32 q6 16 6 31 q0 15 -8.5 35.5 q-8.5 20.5 -21 33 q-12.5 12.5 -26 19.5 q-13.5 7 -27.5 11 q-14 4 -40 4 l-168 0 q-25 0 -34.5 -0.5 q-9.5 -0.5 -16 -7.5 q-6.5 -7 -6.5 -22 l0 -180 Z" /><glyph glyph-name="S" unicode="S" d="M479 391 q45 -10 80.5 -40 q35.5 -30 55 -71.5 q19.5 -41.5 19.5 -83.5 q0 -52 -20 -81 q-37 -53 -88 -80 q-36 -18 -86 -26 q-50 -8 -85 -8 q-40 0 -68.5 6 q-28.5 6 -67.5 20 q-40 14 -70 38 q-29 22 -49 51.5 q-20 29.5 -26 50.5 l-5 18 q-10 37 -9 48 l0 8 q0 16 8 23.5 q8 7.5 25 10.5 q15 3 27 3 q12 0 20.5 -5.5 q8.5 -5.5 13.5 -20.5 l7 -29 q11 -44 43 -72 q33 -28 71.5 -39 q38.5 -11 92.5 -11 q70 0 119 29 q49 29 49 74 q0 24 -18 53 q-11 17 -24.5 25 q-13.5 8 -44.5 20 q-50 15 -128 28 q-81 14 -122.5 29.5 q-41.5 15.5 -61.5 41.5 q-19 25 -30 61.5 q-11 36.5 -11 72.5 q0 36 10 60 q10 26 40 55 q28 28 84 45.5 q56 17.5 118 17.5 q53 0 117 -16 q64 -16 95 -47 q35 -35 49.5 -58.5 q14.5 -23.5 20.5 -62.5 q4 -25 -13.5 -37.5 q-17.5 -12.5 -41.5 -12.5 q-19 0 -26 7 q-4 2 -7 8 l-13 42 q-25 82 -183 78 q-68 -1 -111.5 -26 q-43.5 -25 -43.5 -63 q0 -32 31 -63 l13 -12 q23 -11 43.5 -17.5 q20.5 -6.5 62.5 -14.5 q68 -12 138 -27 Z" /><glyph glyph-name="T" unicode="T" d="M576 695 q24 0 37 -12.5 q13 -12.5 13 -37.5 q0 -23 -13 -36.5 q-13 -13.5 -37 -13.5 l-198 0 l0 -562 q0 -24 -13 -37 q-13 -13 -37 -13 q-24 0 -37 13 q-13 13 -13 37 l0 562 l-188 0 q-24 0 -37 13.5 q-13 13.5 -13 36.5 q0 25 13 37.5 q13 12.5 37 12.5 l486 0 Z" /><glyph glyph-name="U" unicode="U" d="M623 277 q0 -67 -21.5 -119.5 q-21.5 -52.5 -54.5 -84.5 q-31 -29 -62 -47 q-63 -36 -136 -36 q-56 0 -109 23.5 q-53 23.5 -91.5 66 q-38.5 42.5 -54.5 96.5 q-18 62 -14 105 l1 387 q0 18 14 27.5 q14 9.5 33 9.5 q18 0 31 -8.5 q13 -8.5 13 -22.5 l0 -353 q0 -94 31 -146 q20 -35 59 -57.5 q39 -22.5 81 -22.5 q42 0 72.5 12.5 q30.5 12.5 56.5 35.5 q19 17 33 37 q15 22 21 55 q6 33 6 90 l0 352 q0 16 13 24.5 q13 8.5 31 8.5 q19 0 33 -9.5 q14 -9.5 14 -27.5 l0 -396 Z" /><glyph glyph-name="V" unicode="V" d="M307 -4 q-3 -1 -9 -1 q-17 0 -31 8.5 q-14 8.5 -20 24.5 l-224 616 q-5 13 -5 23 q0 30 33 42 q11 4 22 4 q31 0 43 -32 l181 -502 q4 -13 13 -13 q9 0 13 12 l196 512 q14 33 42 33 q13 0 23 -5 q33 -14 33 -43 q0 -9 -5 -22 l-247 -625 q-7 -17 -24 -25.5 q-17 -8.5 -34 -6.5 Z" /><glyph glyph-name="W" unicode="W" d="M17 670 q-2 6 -2 17 q0 21 14.5 34 q14.5 13 40.5 13 q35 0 44 -37 l109 -452 q5 -15 8 -15 q5 0 8 14 l132 442 q6 19 21 29 q15 10 34 10 q19 0 34.5 -10 q15.5 -10 20.5 -27 l123 -444 q5 -14 9 -14 q6 0 9 14 l122 444 q4 16 15.5 25.5 q11.5 9.5 27.5 9.5 q11 0 20 -4 q36 -14 36 -44 q0 -7 -3 -18 l-176 -617 q-5 -18 -19.5 -28 q-14.5 -10 -31.5 -10 q-17 0 -31.5 10 q-14.5 10 -20.5 28 l-128 458 q-3 14 -9 14 q-5 0 -10 -14 l-140 -453 q-12 -37 -44 -37 q-4 0 -16 2 q-19 3 -29 17 q-8 9 -9 22 l-159 621 Z" /><glyph glyph-name="X" unicode="X" d="M600 83 q12 -16 12 -33 q0 -20 -21 -37 q-17 -13 -34 -13 q-19 0 -36 21 l-213 273 l-209 -269 q-16 -21 -36 -21 q-17 0 -34 13 q-21 17 -21 37 q0 17 12 33 l225 289 l-202 259 q-13 16 -13 33 q0 22 22 38 q15 12 31 12 q21 0 39 -21 l186 -239 l190 243 q18 21 39 21 q16 0 31 -12 q22 -16 22 -38 q0 -17 -13 -33 l-205 -263 l228 -293 Z" /><glyph glyph-name="Y" unicode="Y" d="M593 731 q23 -17 23 -38 q0 -15 -11 -32 l-236 -323 l-1 -1 l0 -264 q0 -24 -13 -37 q-13 -13 -37 -13 q-24 0 -37 13 q-13 13 -13 37 l0 265 l-243 329 q-12 17 -12 32 q0 21 22 38 q17 12 32 12 q21 0 39 -23 l198 -270 q6 -8 14 -8 q8 0 14 8 l191 263 q17 23 39 23 q16 0 31 -11 Z" /><glyph glyph-name="Z" unicode="Z" d="M34 50 q0 24 14 38 l355 468 l15 17 q7 8 7 15 q0 9 -13 8 l-20 -1 l-275 0 q-24 0 -37.5 13 q-13.5 13 -13.5 37 q0 24 13.5 37 q13.5 13 37.5 13 l415 0 q48 0 50 -49 l0 -4 q0 -5 -2 -13 q-3 -13 -11 -21 l-359 -473 l-11 -15 q-7 -8 -7 -14 q0 -6 14 -6 l326 0 q24 0 37 -13 q13 -13 13 -37 q0 -24 -13 -37 q-13 -13 -37 -13 l-447 0 q-24 0 -37.5 13 q-13.5 13 -13.5 37 Z" /><glyph glyph-name="a" unicode="a" d="M522 129 q-1 -23 2 -60 q3 -37 3 -39 q0 -29 -35 -29 q-27 0 -36.5 15.5 q-9.5 15.5 -8.5 30.5 l1 23 q0 6 -4 1 q-4 -5 -10.5 -12.5 q-6.5 -7.5 -19.5 -15.5 q-13 -9 -33 -19 q-48 -24 -123 -24 q-66 0 -115.5 20.5 q-49.5 20.5 -76 58 q-26.5 37.5 -26.5 85.5 q0 45 28 86 q23 33 71.5 53 q48.5 20 92.5 23 l86 3 q49 2 71.5 4.5 q22.5 2.5 37.5 7.5 q18 6 18 23 q0 24 -31 51 q-41 25 -104 25 q-47 0 -77 -9 q-27 -9 -44 -27 l-23 -26 q-7 -7 -22 -14.5 q-15 -7.5 -28 -7.5 q-3 0 -11 2 q-14 6 -23 15.5 q-9 9.5 -9 22.5 q0 16 17 36 q88 82 199 82 q63 0 117.5 -17 q54.5 -17 87.5 -50 q33 -33 33 -80 l-1 -98 l-4 -140 ZM277 258 q-72 -4 -109.5 -30 q-37.5 -26 -37.5 -62 q0 -14 8 -32 q6 -14 25 -30 q16 -13 41.5 -20.5 q25.5 -7.5 55.5 -7.5 q14 0 21 1 q52 3 91.5 28.5 q39.5 25.5 52.5 63.5 q12 36 12 104 q0 7 -3 7 q-3 -1 -10.5 -5 q-7.5 -4 -16.5 -7 q-20 -4 -20 -4 l-35 -3 l-75 -3 Z" /><glyph glyph-name="b" unicode="b" d="M68 658 q4 21 17.5 33.5 q13.5 12.5 30.5 12.5 q18 0 31 -15.5 q13 -15.5 13 -43.5 l0 -194 l-1 -20 q2 -2 5 -1 q4 2 9 8 q3 3 12.5 13.5 q9.5 10.5 22.5 20.5 q39 27 106 27 q67 0 123 -27 q65 -32 99 -102 q28 -59 28 -138 q0 -68 -28 -121 q-28 -53 -78 -84 q-57 -37 -132 -37 q-65 0 -123 45 l-19 16 q-15 13 -19 14 l-1 0 q-7 0 -6 -20 l1 -21 q1 -15 -12 -24 q-13 -9 -31 -9 q-19 -1 -33.5 8 q-14.5 9 -14.5 25 l0 634 ZM166 250 q0 -73 39 -119.5 q39 -46.5 111 -46.5 q73 0 112.5 43 q39.5 43 39.5 112 q0 39 -18 78 q-18 39 -53 64.5 q-35 25.5 -85 25.5 q-46 0 -78 -25 q-32 -25 -49 -61.5 q-17 -36.5 -19 -70.5 Z" /><glyph glyph-name="c" unicode="c" d="M532 152 q-22 -67 -77.5 -109.5 q-55.5 -42.5 -155.5 -42.5 q-46 0 -89 16 q-44 16 -75.5 43.5 q-31.5 27.5 -49.5 62.5 q-20 40 -27.5 73 q-7.5 33 -7.5 78 q0 32 18 81.5 q18 49.5 41 77.5 q34 40 85.5 64 q51.5 24 110.5 24 q35 0 84 -13.5 q49 -13.5 71 -33.5 q26 -24 50 -58.5 q24 -34.5 24 -57.5 q0 -22 -16.5 -34 q-16.5 -12 -37.5 -12 q-14 0 -24.5 5.5 q-10.5 5.5 -14.5 15.5 l-7 19 q-2 5 -14 26 q-41 53 -116 53 q-60 0 -95 -29 q-63 -55 -63 -145 q0 -21 5.5 -48.5 q5.5 -27.5 14.5 -42.5 q18 -31 52 -51 q34 -20 75 -22 q25 0 39 3.5 q14 3.5 24 8 q10 4.5 15 6.5 q27 13 38 26.5 q11 13.5 18 33.5 q5 13 10 22 q5 9 14 17 q11 10 30 10 q21 0 38 -12.5 q17 -12.5 17 -34.5 q0 -6 -4 -20 Z" /><glyph glyph-name="d" unicode="d" d="M536 24 q0 -16 -13.5 -24.5 q-13.5 -8.5 -32.5 -8.5 q-19 0 -32.5 9 q-13.5 9 -12.5 24 l1 21 l0 7 q0 13 -6 13 q-6 -1 -21 -15 q-3 -2 -7 -5.5 q-4 -3.5 -10 -8.5 q-25 -19 -48 -29 q-36 -17 -76 -17 q-41 0 -83 13 q-46 16 -82 49 q-31 30 -51 72 q-22 49 -22 108 q0 65 18 114 q21 58 63 94 q32 29 75.5 44 q43.5 15 93.5 15 q51 0 89 -17 q24 -12 36.5 -26.5 q12.5 -14.5 15.5 -17.5 q5 -6 9 -8 q3 -1 5 1 l-1 20 l0 206 q0 25 13 37.5 q13 12.5 32 12.5 q17 0 30 -10 q13 -10 17 -27 l0 -646 ZM438 250 q-2 34 -19 70.5 q-17 36.5 -49 61.5 q-32 25 -78 25 q-50 0 -85 -25.5 q-35 -25.5 -53 -64.5 q-18 -39 -18 -78 q0 -69 39.5 -112 q39.5 -43 112.5 -43 q72 0 111 46.5 q39 46.5 39 119.5 Z" /><glyph glyph-name="e" unicode="e" d="M541 308 q0 -31 -21 -48 q-21 -17 -55 -17 l-328 0 q0 -44 22 -83 q20 -34 50 -55 q30 -21 85 -21 q28 0 53 7 q21 6 48 27 q27 21 38 41 l16 28 q2 5 8.5 8 q6.5 3 13.5 3 q28 0 44.5 -12 q16.5 -12 16.5 -33 q0 -23 -22 -51 q-82 -106 -214 -106 q-42 0 -85.5 12.5 q-43.5 12.5 -78.5 43.5 q-44 37 -65 86 q-21 49 -21 105 q0 27 4 50 q11 72 44 120 q16 22 43 45 q27 24 72 39.5 q45 15.5 90 15.5 q45 0 89.5 -16 q44.5 -16 74.5 -42 q37 -34 57.5 -74.5 q20.5 -40.5 20.5 -72.5 ZM382 315 q30 0 39.5 2 q9.5 2 9.5 14 q0 8 -4 19 q-5 14 -10 22.5 q-5 8.5 -17 20.5 q-41 43 -103 43 q-31 0 -63 -14 q-32 -14 -54.5 -36 q-22.5 -22 -26.5 -44 l-1 -5 l-1 -5 q0 -7 5.5 -12 q5.5 -5 13.5 -5 l212 0 Z" /><glyph glyph-name="f" unicode="f" d="M272 637 q-32 2 -52 -15 q-20 -17 -23 -70 q-2 -18 -2 -25 l134 0 q22 0 33.5 -11.5 q11.5 -11.5 11.5 -33.5 q0 -22 -11.5 -34 q-11.5 -12 -33.5 -12 l-133 0 l0 -392 q0 -16 -15 -26 q-15 -10 -35 -10 q-18 0 -31 10.5 q-13 10.5 -13 30.5 l0 387 l-55 0 q-45 0 -45 49 q0 20 11.5 31 q11.5 11 33.5 11 l54 0 q0 47 6.5 75 q6.5 28 19.5 49 q22 35 56.5 55.5 q34.5 20.5 76.5 20.5 q35 0 77 -17 q42 -17 58 -35 q10 -11 10 -26 q0 -19 -14 -36.5 q-14 -17.5 -30 -17.5 q-8 0 -15 6 q-7 4 -20.5 13 q-13.5 9 -27 15 q-13.5 6 -26.5 8 Z" /><glyph glyph-name="g" unicode="g" d="M287 -187 q-101 0 -169 37 q-33 18 -53.5 55 q-20.5 37 -20.5 78 q0 23 7 43 q6 23 25 44.5 q19 21.5 38 29.5 l21 8 q8 3 8 7 q0 2 -6 6 l-26 11 q-13 5 -21.5 19 q-8.5 14 -8.5 30 q0 18 10 32 q12 17 32 24 l13 3 q9 3 9 7 q0 2 -5 7 l-9 9 l-14 15 q-8 11 -13.5 32 q-5.5 21 -5.5 45 q0 40 20 74 q20 34 60.5 54.5 q40.5 20.5 97.5 20.5 q38 0 64 -8 l44 -14 q14 14 28 26.5 q14 12.5 26 18.5 q10 4 17 4 q17 0 31.5 -11 q14.5 -11 14.5 -26 q0 -17 -5.5 -24 q-5.5 -7 -18.5 -17 q-15 -12 -17 -14 l-18 -17 q2 -4 8 -18.5 q6 -14.5 8 -25.5 q2 -11 2 -24 q0 -41 -20 -78 q-20 -37 -57 -52 q-31 -12 -57 -12 l-25 1 q-6 0 -24 -2 q-31 -3 -56 -10 q-25 -7 -25 -20 q0 -7 8 -15 q6 -8 31.5 -11.5 q25.5 -3.5 30.5 -4.5 l42 -6 l40 -4 q165 -24 165 -151 q0 -42 -12 -69.5 q-12 -27.5 -39 -51.5 q-30 -27 -76.5 -42 q-46.5 -15 -98.5 -13 ZM281 287 q92 0 92 61 q0 40 -26.5 60.5 q-26.5 20.5 -62.5 18.5 q-44 -4 -72.5 -18.5 q-28.5 -14.5 -28.5 -49.5 q0 -38 28 -55 q28 -17 70 -17 ZM288 -104 q51 0 74 12 q56 26 56 75 q0 28 -17 48 q-17 17 -51 27 q-34 10 -74 10 q-60 0 -97.5 -21.5 q-37.5 -21.5 -37.5 -65.5 q0 -25 19 -49 q17 -20 53 -28 q36 -8 75 -8 Z" /><glyph glyph-name="h" unicode="h" d="M139 41 q0 -21 -12 -30 q-12 -9 -30 -9 q-20 0 -33.5 10.5 q-13.5 10.5 -13.5 28.5 l0 642 q0 24 14 32.5 q14 8.5 31 8.5 q16 0 31.5 -8.5 q15.5 -8.5 15.5 -32.5 l-1 -180 q0 -22 1 -23 q2 -2 4 -1 q2 3 8.5 8 q6.5 5 10.5 8 q53 33 110 33 q48 0 92 -20 q41 -19 70.5 -63 q29.5 -44 29.5 -94 l0 -304 q0 -24 -15 -33.5 q-15 -9.5 -31 -8.5 q-16 0 -30 9 q-14 9 -14 32 l-1 219 q0 75 -19.5 116.5 q-19.5 41.5 -73.5 48.5 q-5 1 -15 1 q-18 0 -34 -6 q-16 -6 -41 -20 q-29 -17 -41.5 -56 q-12.5 -39 -12.5 -88 l0 -220 Z" /><glyph glyph-name="i" unicode="i" d="M75 9 q-16 2 -29.5 11.5 q-13.5 9.5 -12.5 25.5 l1 412 q0 17 14 27.5 q14 10.5 27.5 12 q13.5 1.5 29.5 -8.5 q16 -10 16 -31 l2 -412 q0 -18 -15.5 -28 q-15.5 -10 -32.5 -9 ZM80 568 q-25 0 -42 17.5 q-17 17.5 -17 43.5 q0 24 17 41.5 q17 17.5 42 17.5 q25 0 42 -17.5 q17 -17.5 17 -41.5 q0 -26 -17 -43.5 q-17 -17.5 -42 -17.5 Z" /><glyph glyph-name="j" unicode="j" d="M176 594 q-21 0 -36 15 q-15 15 -15 37 q0 21 15 36 q15 15 36 15 q21 0 36 -15 q15 -15 15 -36 q0 -22 -15 -37 q-15 -15 -36 -15 ZM129 464 q-2 19 11.5 32 q13.5 13 31.5 13 q18 0 34 -12 q16 -12 16 -33 l-2 -361 q0 -104 -15 -164.5 q-15 -60.5 -48 -89.5 q-33 -29 -90 -35 q-24 -2 -34 -2 q-49 0 -76.5 16 q-27.5 16 -27.5 45 q0 12 2 18 q4 14 12.5 21 q8.5 7 30.5 7 q3 0 12 -3.5 q9 -3.5 16 -5.5 q17 -5 41 -5 q16 0 24 1 q31 4 48 45.5 q17 41.5 14 111.5 l1 100 l-1 301 Z" /><glyph glyph-name="k" unicode="k" d="M97 3 q-22 0 -33.5 11.5 q-11.5 11.5 -11.5 33.5 l0 618 q0 22 11.5 33.5 q11.5 11.5 33.5 11.5 q22 0 33.5 -11.5 q11.5 -11.5 11.5 -33.5 l0 -618 q0 -22 -11.5 -33.5 q-11.5 -11.5 -33.5 -11.5 ZM370 566 q15 13 30 13 q17 0 34 -17 q13 -14 13 -31 q0 -19 -17 -33 l-130 -136 q-7 -7 -7 -16 q0 -7 4 -12 l174 -255 q9 -15 9 -29 q0 -21 -23 -34 q-12 -8 -26 -8 q-22 0 -36 23 l-203 297 q-7 11 -7 25 q0 12 5 22.5 q5 10.5 14 17.5 l166 173 Z" /><glyph glyph-name="l" unicode="l" d="M98 3 q-22 0 -33.5 11.5 q-11.5 11.5 -11.5 33.5 l0 618 q0 22 11.5 33.5 q11.5 11.5 33.5 11.5 q22 0 33.5 -11.5 q11.5 -11.5 11.5 -33.5 l0 -618 q0 -22 -11.5 -33.5 q-11.5 -11.5 -33.5 -11.5 Z" /><glyph glyph-name="m" unicode="m" d="M722 28 q0 -13 -8.5 -23 q-8.5 -10 -23.5 -10 q-36 0 -47 8 q-11 8 -11 25 l0 237 q0 66 -4.5 96 q-4.5 30 -21 45.5 q-16.5 15.5 -54.5 18.5 q-42 4 -82 -38 q-17 -17 -24 -34 q-7 -17 -8 -34.5 q-1 -17.5 -1 -64.5 l0 -226 q0 -37 -47 -37 q-22 0 -31.5 10.5 q-9.5 10.5 -9.5 26.5 l1 222 q1 90 -21.5 131.5 q-22.5 41.5 -71.5 41.5 q-45 0 -72 -33 q-27 -33 -27 -84 l0 -278 q0 -25 -17.5 -32 q-17.5 -7 -43.5 -6 q-11 1 -19 12.5 q-8 11.5 -8 25.5 l0 444 q0 13 12 20.5 q12 7.5 33 7.5 q20 0 32 -5 q12 -5 12 -23 l0 -1 q0 -7 4 -7 q4 0 8 6 q16 22 37 31 q21 9 59 9 q42 0 70 -16.5 q28 -16.5 58 -62.5 q4 5 26.5 31 q22.5 26 53 38.5 q30.5 12.5 71.5 12.5 q71 0 120.5 -42.5 q49.5 -42.5 52.5 -112.5 l2 -69 l1 -261 Z" /><glyph glyph-name="n" unicode="n" d="M141 32 q0 -21 -13 -32 q-13 -11 -32 -11 q-19 0 -32.5 11.5 q-13.5 11.5 -13.5 31.5 l0 441 q0 12 9.5 20 q9.5 8 21.5 8 q60 0 60 -22 l0 -29 q0 -2 -0.5 -7.5 q-0.5 -5.5 3.5 -0.5 q4 5 12.5 17 q8.5 12 19.5 19 q22 13 46 19.5 q24 6.5 56 8.5 q16 0 41.5 -5.5 q25.5 -5.5 45.5 -14.5 q22 -11 45 -31 q26 -24 40 -58 q14 -34 14 -89 l0 -276 q0 -21 -13 -33 q-13 -12 -32 -12 q-19 0 -33.5 12 q-14.5 12 -14.5 33 l0 214 q0 81 -17.5 121.5 q-17.5 40.5 -71.5 40.5 q-74 0 -107.5 -46 q-33.5 -46 -33.5 -124 l0 -206 Z" /><glyph glyph-name="o" unicode="o" d="M285 500 q71 0 121 -35.5 q50 -35.5 75 -92 q25 -56.5 25 -120.5 q0 -66 -25 -123.5 q-25 -57.5 -76 -93 q-51 -35.5 -125 -35.5 q-70 0 -122.5 35 q-52.5 35 -80 93 q-27.5 58 -27.5 127 q0 65 25.5 120.5 q25.5 55.5 78.5 90 q53 34.5 131 34.5 ZM279 393 q-59 0 -97.5 -39.5 q-38.5 -39.5 -39.5 -106.5 q0 -71 42 -109 q42 -38 100 -38 q31 0 60 17.5 q29 17.5 47.5 49.5 q18.5 32 18.5 74 q0 71 -36.5 111.5 q-36.5 40.5 -94.5 40.5 Z" /><glyph glyph-name="p" unicode="p" d="M68 469 q0 15 12 23.5 q12 8.5 29 9.5 q20 2 35 -7 q15 -9 15 -26 l0 -11 q0 -13 2.5 -17.5 q2.5 -4.5 7.5 -2.5 q5 1 15 9 q10 8 16 12 q60 44 126 44 q59 0 108.5 -23.5 q49.5 -23.5 81.5 -66.5 q48 -64 48 -152 q0 -73 -23.5 -127.5 q-23.5 -54.5 -65.5 -87.5 q-64 -52 -161 -52 q-52 0 -90 18 q-23 11 -35.5 25.5 q-12.5 14.5 -15.5 17.5 q-5 6 -9 8 q-3 1 -5 -1 l1 -20 l0 -206 q0 -22 -13.5 -34 q-13.5 -12 -31.5 -12 q-19 -1 -33 10.5 q-14 11.5 -14 32.5 l0 636 ZM166 243 q2 -34 19 -70.5 q17 -36.5 49 -61.5 q32 -25 78 -25 q50 0 85 25.5 q35 25.5 53 64.5 q18 39 18 78 q0 69 -39.5 112 q-39.5 43 -112.5 43 q-72 0 -111 -46.5 q-39 -46.5 -39 -119.5 Z" /><glyph glyph-name="q" unicode="q" d="M539 -155 q0 -27 -13.5 -42 q-13.5 -15 -32.5 -15 q-19 0 -32.5 16 q-13.5 16 -13.5 44 l0 194 l1 20 q-2 2 -5 1 q-4 -2 -9 -8 q-3 -3 -13 -15 q-10 -12 -26 -22 q-39 -24 -102 -24 q-60 0 -110.5 21.5 q-50.5 21.5 -84.5 63.5 q-55 71 -55 182 q0 61 23 110 q23 49 64 82 q64 50 151 50 q58 0 106 -31 q13 -8 27 -18.5 q14 -10.5 21 -14.5 q4 -2 6 -2 q7 0 7 21 l0 11 q0 19 13.5 30 q13.5 11 31.5 11 q19 0 32.5 -10.5 q13.5 -10.5 13.5 -30.5 l0 -624 ZM441 243 q0 73 -39 119.5 q-39 46.5 -111 46.5 q-73 0 -112.5 -43 q-39.5 -43 -39.5 -112 q0 -39 18 -78 q18 -39 53 -64.5 q35 -25.5 85 -25.5 q46 0 78 25 q32 25 49 61.5 q17 36.5 19 70.5 Z" /><glyph glyph-name="r" unicode="r" d="M159 29 q0 -19 -12 -30.5 q-12 -11.5 -29 -12.5 q-19 -2 -33.5 10 q-14.5 12 -14.5 33 l0 442 q0 18 12.5 28.5 q12.5 10.5 30.5 12.5 q19 2 33.5 -8.5 q14.5 -10.5 14.5 -32.5 l0 -9 l0 -17 q0 -12 2 -12 q1 0 6 10 q20 36 44 51 q28 17 74 17 q34 0 65 -13.5 q31 -13.5 54 -35.5 q40 -38 40 -81 q0 -18 -7.5 -29 q-7.5 -11 -24.5 -17 q-13 -4 -29 7 q-16 11 -25 31 q-10 23 -24.5 34 q-14.5 11 -42.5 11 q-57 0 -95 -54 q-17 -24 -26 -54 q-13 -38 -13 -75 l0 -206 Z" /><glyph glyph-name="s" unicode="s" d="M397 283 q38 -15 65.5 -51.5 q27.5 -36.5 27.5 -77.5 q0 -42 -17 -68.5 q-17 -26.5 -57 -48.5 q-22 -14 -45 -21 q-30 -12 -110 -12 q-48 0 -92.5 13 q-44.5 13 -75.5 41 q-26 21 -39 44 q-13 23 -13 43 q0 32 30 44 q12 5 25 5 q29 0 34 -19 l8 -18 q16 -36 52.5 -51 q36.5 -15 80.5 -13 q43 0 68.5 4.5 q25.5 4.5 37.5 24.5 q13 22 13 41 q0 33 -35 49 q-4 0 -10 2 l-65 13 l-18 2 q-204 23 -204 142 q0 24 11.5 47 q11.5 23 30.5 39 q21 16 41 24 q22 10 62.5 16.5 q40.5 6.5 79.5 5.5 q50 -3 90.5 -17 q40.5 -14 60.5 -31 q18 -16 32 -44 q14 -28 12 -44 q-3 -21 -18 -33 q-15 -12 -34 -12 q-14 0 -24 8 q-8 4 -13 14 l-8 26 q-7 17 -29.5 28.5 q-22.5 11.5 -57.5 15.5 q-17 2 -46 2 q-100 0 -92 -53 q2 -12 4.5 -18 q2.5 -6 11.5 -12 q4 -1 15.5 -6 q11.5 -5 27.5 -7 l83 -13 q54 -8 99 -24 Z" /><glyph glyph-name="t" unicode="t" d="M341 160 q7 10 23 10 q18 0 35 -14 q17 -14 17 -33 q0 -6 -3 -14 q-24 -56 -66 -78.5 q-42 -22.5 -87 -22.5 q-42 0 -76.5 20.5 q-34.5 20.5 -56.5 55.5 q-15 24 -21 56 q-6 32 -4 89 l0 196 l-35 0 q-45 0 -45 49 q0 20 11.5 31 q11.5 11 33.5 11 l35 0 l0 93 q0 22 14 33.5 q14 11.5 34 11.5 q19 0 32.5 -10.5 q13.5 -10.5 13.5 -29.5 l0 -98 l133 0 q22 0 33.5 -11.5 q11.5 -11.5 11.5 -33.5 q0 -22 -11.5 -34 q-11.5 -12 -33.5 -12 l-133 0 l0 -162 l-1 -49 l0 -6 q0 -68 21 -90 q21 -22 56 -20 q20 3 34.5 17.5 q14.5 14.5 34.5 44.5 Z" /><glyph glyph-name="u" unicode="u" d="M70 450 q0 19 12 32.5 q12 13.5 30 13.5 q18 0 33 -9.5 q15 -9.5 15 -36.5 l0 -204 q0 -81 22 -118.5 q22 -37.5 80 -37.5 q34 0 64 25 q30 25 47.5 63.5 q17.5 38.5 17.5 76.5 l-2 195 q0 23 11.5 36 q11.5 13 41.5 13 q19 0 29.5 -13.5 q10.5 -13.5 10.5 -35.5 l0 -414 q0 -14 -8.5 -23.5 q-8.5 -9.5 -21.5 -10.5 q-27 -2 -42 4 q-15 6 -15 30 l0 26 q0 8 -3 10 q-3 2 -7 -5 l-6 -11 q-12 -21 -45.5 -39 q-33.5 -18 -76.5 -18 q-52 0 -94.5 24.5 q-42.5 24.5 -67.5 70.5 q-25 46 -25 107 l0 249 Z" /><glyph glyph-name="v" unicode="v" d="M18 436 q-6 12 -6 23 q0 25 28 37 q10 5 23 5 q25 0 37 -26 l145 -310 q6 -12 14 -12 q9 0 13 12 l125 308 q12 29 38 29 q8 0 21 -5 q29 -14 29 -38 q0 -8 -5 -21 l-170 -404 q-7 -14 -19.5 -22 q-12.5 -8 -27.5 -8 q-16 0 -29.5 8 q-13.5 8 -20.5 21 l-195 403 Z" /><glyph glyph-name="w" unicode="w" d="M13 432 q-3 11 -3 19 q0 29 30 39 q9 4 20 4 q28 0 38 -31 l89 -268 q5 -13 13 -13 q8 0 13 13 l94 263 q9 30 35 32 q10 2 15 2 q27 0 38 -32 l101 -280 q4 -13 13 -13 q9 0 14 14 l96 282 q10 31 38 31 q11 0 20 -4 q30 -10 30 -39 q0 -8 -3 -19 l-148 -406 q-4 -13 -16.5 -21 q-12.5 -8 -27.5 -8 q-14 0 -26 7.5 q-12 7.5 -18 22.5 l-102 279 q-4 13 -13 13 q-9 0 -13 -13 l-97 -282 q-4 -14 -17 -21.5 q-13 -7.5 -28 -7.5 q-32 0 -43 28 l-142 409 Z" /><glyph glyph-name="x" unicode="x" d="M473 78 q14 -17 14 -32 q0 -17 -15 -32 q-15 -14 -32 -14 q-17 0 -32 16 l-159 169 l-160 -172 q-17 -17 -33 -17 q-14 0 -30 14 q-17 15 -17 33 q0 15 14 31 l165 177 l-158 168 q-14 16 -14 31 q0 18 17 33 q16 14 30 14 q18 0 33 -17 l153 -163 l150 161 q15 16 33 16 q17 0 31 -14 q16 -15 16 -32 q0 -17 -14 -31 l-154 -166 l162 -173 Z" /><glyph glyph-name="y" unicode="y" d="M470 501 q30 -10 30 -38 q0 -11 -4 -20 l-198 -534 q-38 -102 -141 -102 q-40 0 -96 17 q-33 10 -33 40 q0 4 2 16 q10 33 40 33 q4 0 16 -2 q40 -10 61 -10 q52 0 70 50 l10 28 l-189 460 q-5 13 -5 22 q0 25 29 37 q13 5 22 5 q25 0 37 -29 l153 -371 l138 372 q11 30 38 30 q11 0 20 -4 Z" /><glyph glyph-name="z" unicode="z" d="M21 47 q0 7 1 11 q3 15 14 23 l253 304 l6 7 q4 5 4 10 q0 10 -11 10 l-204 0 q-22 0 -33.5 11.5 q-11.5 11.5 -11.5 33.5 q0 22 11.5 33.5 q11.5 11.5 33.5 11.5 l318 0 q22 0 33.5 -11.5 q11.5 -11.5 11.5 -33.5 q0 -7 -2 -17 q-3 -10 -12 -21 l-247 -296 l-11 -11 q-7 -7 -7 -13 q0 -9 8 -9 l228 0 q22 0 33.5 -11.5 q11.5 -11.5 11.5 -33.5 q0 -22 -11.5 -33.5 q-11.5 -11.5 -33.5 -11.5 l-338 0 q-22 0 -33.5 11.5 q-11.5 11.5 -11.5 33.5 l0 2 Z" /><glyph glyph-name="uni4E00" unicode="&#x4e00;" d="M54 375 q0 24 13 37 q13 13 37 13 l791 0 q24 0 37 -13 q13 -13 13 -37 q0 -24 -13 -37 q-13 -13 -37 -13 l-791 0 q-24 0 -37 13 q-13 13 -13 37 Z" /><glyph glyph-name="uni4E09" unicode="&#x4e09;" d="M119 662 q0 24 13 37 q13 13 37 13 l659 0 q24 0 37 -13 q13 -13 13 -37 q0 -24 -13 -37 q-13 -13 -37 -13 l-659 0 q-24 0 -37 13 q-13 13 -13 37 ZM165 360 q0 24 13 37 q13 13 37 13 l568 0 q24 0 37 -13 q13 -13 13 -37 q0 -24 -13 -37 q-13 -13 -37 -13 l-568 0 q-24 0 -37 13 q-13 13 -13 37 ZM64 21 q0 24 13 37 q13 13 37 13 l771 0 q24 0 37 -13 q13 -13 13 -37 q0 -24 -13 -37 q-13 -13 -37 -13 l-771 0 q-24 0 -37 13 q-13 13 -13 37 Z" /><glyph glyph-name="uni4E0A" unicode="&#x4e0a;" d="M895 29 q24 0 37 -13 q13 -13 13 -37 q0 -24 -13 -37 q-13 -13 -37 -13 l-791 0 q-24 0 -37 13 q-13 13 -13 37 q0 24 13 37 q13 13 37 13 l326 0 l0 704 q0 24 13 37 q13 13 37 13 q24 0 37 -13 q13 -13 13 -37 l0 -210 l309 0 q24 0 37 -13 q13 -13 13 -37 q0 -24 -13 -37 q-13 -13 -37 -13 l-309 0 l0 -394 l365 0 Z" /><glyph glyph-name="uni4E0B" unicode="&#x4e0b;" d="M884 735 q24 0 37 -13 q13 -13 13 -37 q0 -24 -13 -37 q-13 -13 -37 -13 l-360 0 l0 -113 q10 5 20 5 q14 0 29 -9 q53 -35 147.5 -108 q94.5 -73 129.5 -105 q18 -18 18 -36 q0 -18 -16 -35 q-16 -17 -35 -17 q-19 0 -36 16 q-37 33 -125.5 103 q-88.5 70 -131.5 96 l0 -476 q0 -24 -13 -37 q-13 -13 -37 -13 q-24 0 -37 13 q-13 13 -13 37 l0 679 l-307 0 q-24 0 -37 13 q-13 13 -13 37 q0 24 13 37 q13 13 37 13 l767 0 Z" /><glyph glyph-name="uni4E0D" unicode="&#x4e0d;" d="M511 482 q20 -2 30.5 -14.5 q10.5 -12.5 10.5 -34.5 l0 -487 q0 -24 -13 -37 q-13 -13 -37 -13 q-24 0 -37 13 q-13 13 -13 37 l0 469 q-76 -84 -155 -157.5 q-79 -73.5 -138 -118.5 q-19 -14 -35 -14 q-19 0 -36 21 q-13 16 -13 32 q0 22 23 39 q98 69 210 180.5 q112 111.5 200 237.5 l-371 0 q-24 0 -37 13 q-13 13 -13 37 q0 24 13 37 q13 13 37 13 l727 0 q24 0 37 -13 q13 -13 13 -37 q0 -24 -13 -37 q-13 -13 -37 -13 l-237 0 q-1 0 -1 -0.5 q0 -0.5 0 -0.5 q-48 -71 -115 -152 ZM913 215 q15 -18 15 -35 q0 -18 -19 -36 q-15 -14 -33 -14 q-20 0 -38 19 q-37 38 -119.5 114 q-82.5 76 -121.5 105 q-23 17 -23 38 q0 15 11 32 q17 23 37 23 q16 0 32 -12 q48 -37 136.5 -117.5 q88.5 -80.5 122.5 -116.5 Z" /><glyph glyph-name="uni4E0E" unicode="&#x4e0e;" d="M284 456 l0 -2 q0 -18 20 -18 l465 0 q48 0 74.5 -25.5 q26.5 -25.5 26.5 -72.5 q0 -30 -2 -64 l-2 -35 q-5 -109 -17 -187 q-6 -42 -13.5 -68 q-7.5 -26 -21.5 -43 q-16 -20 -41 -29.5 q-25 -9.5 -64 -9.5 l-183 0 q-24 0 -37 13 q-13 13 -13 37 q0 24 13 37 q13 13 37 13 l133 0 q40 0 59 13 q19 13 23.5 28.5 q4.5 15.5 9.5 48.5 q8 59 12 148 q2 43 2 76 q0 20 -20 20 l-461 0 q-50 0 -77 26 q-27 26 -23 74 l22 288 q3 50 50 50 q25 0 38.5 -13 q13.5 -13 11.5 -37 l-5 -58 l553 0 q24 0 37 -13 q13 -13 13 -37 q0 -24 -13 -37 q-13 -13 -37 -13 l-561 0 l-9 -110 ZM696 175 q0 -24 -13 -37 q-13 -13 -37 -13 l-543 0 q-24 0 -37 13 q-13 13 -13 37 q0 24 13 37 q13 13 37 13 l543 0 q24 0 37 -13 q13 -13 13 -37 Z" /><glyph glyph-name="uni4E14" unicode="&#x4e14;" d="M894 24 q24 0 37 -13 q13 -13 13 -37 q0 -24 -13 -37 q-13 -13 -37 -13 l-789 0 q-24 0 -37 13 q-13 13 -13 37 q0 24 13 37 q13 13 37 13 l88 0 l0 645 q0 49 25.5 74.5 q25.5 25.5 74.5 25.5 l414 0 q49 0 74.5 -25.5 q25.5 -25.5 25.5 -74.5 l0 -645 l87 0 ZM313 669 q-20 0 -20 -20 l0 -139 l414 0 l0 139 q0 20 -20 20 l-374 0 ZM293 410 l0 -136 l414 0 l0 136 l-414 0 ZM293 174 l0 -150 l414 0 l0 150 l-414 0 Z" /><glyph glyph-name="uni4E1A" unicode="&#x4e1a;" d="M886 31 q24 0 37 -13 q13 -13 13 -37 q0 -24 -13 -37 q-13 -13 -37 -13 l-773 0 q-24 0 -37 13 q-13 13 -13 37 q0 24 13 37 q13 13 37 13 l225 0 l0 694 q0 24 13 37 q13 13 37 13 q24 0 37 -13 q13 -13 13 -37 l0 -694 l124 0 l0 694 q0 24 13 37 q13 13 37 13 q24 0 37 -13 q13 -13 13 -37 l0 -694 l224 0 ZM207 237 q-18 52 -57.5 150 q-39.5 98 -65.5 147 q-7 14 -7 27 q0 23 29 40 q14 8 26 8 q26 0 41 -30 q29 -56 70.5 -158.5 q41.5 -102.5 60.5 -158.5 q2 -12 2 -16 q0 -34 -39 -45 q-12 -2 -16 -2 q-33 0 -44 38 ZM712 214 q-24 15 -24 39 q0 14 10 30 q24 32 69 129.5 q45 97.5 67 161.5 q14 33 42 33 q11 0 22 -4 q16 -5 25 -16 q9 -11 9 -25 q0 -10 -5 -23 q-27 -73 -73 -174 q-46 -101 -72 -137 q-19 -25 -39 -25 q-14 0 -31 11 Z" /><glyph glyph-name="uni4E24" unicode="&#x4e24;" d="M662 665 l0 -97 l129 0 q49 0 74.5 -25.5 q25.5 -25.5 25.5 -74.5 l0 -403 q0 -150 -100 -150 l-102 0 q-24 0 -37 13 q-13 13 -13 37 q0 24 13 37 q13 13 37 13 l52 0 q31 0 40.5 21 q9.5 21 9.5 69 l0 343 q0 20 -20 20 l-113 0 q-4 -52 -14 -109 l1 -2 q67 -70 114 -142 q11 -15 11 -31 q0 -22 -23 -39 q-16 -10 -31 -10 q-23 0 -38 23 q-24 37 -66 86 q-41 -116 -115 -193 l-1 -1 q-16 -21 -36 -21 q-16 0 -33 14 q-22 17 -22 38 q0 16 13 32 l1 1 q67 72 98 157 q31 85 40 197 l-151 0 q-1 -31 -6 -61 q37 -38 83 -108 q11 -17 11 -34 q0 -21 -19 -37 q-16 -13 -32 -13 q-21 0 -38 21 l-18 26 l-15 22 q-34 -97 -104 -177 l-1 -1 q-16 -21 -36 -21 q-16 0 -33 14 l-8 7 l0 -145 q0 -24 -13 -37 q-13 -13 -37 -13 q-24 0 -37 13 q-13 13 -13 37 l0 507 q0 49 25.5 74.5 q25.5 25.5 74.5 25.5 l119 0 l0 97 l-200 0 q-24 0 -37 13 q-13 13 -13 37 q0 24 13 37 q13 13 37 13 l763 0 q24 0 37 -13 q13 -13 13 -37 q0 -24 -13 -37 q-13 -13 -37 -13 l-210 0 ZM562 568 l0 97 l-153 0 l0 -97 l153 0 ZM190 170 q61 80 84.5 142 q23.5 62 30.5 156 l-95 0 q-20 0 -20 -20 l0 -278 Z" /><glyph glyph-name="uni4E2A" unicode="&#x4e2a;" d="M64 361 q-11 16 -11 31 q0 23 23 39 q45 22 119.5 86.5 q74.5 64.5 145.5 141 q71 76.5 107 134.5 q9 14 22 21 q13 7 28 7 q14 0 27 -7 q13 -7 21 -21 q35 -57 106 -133.5 q71 -76.5 146 -141.5 q75 -65 120 -87 q23 -16 23 -39 q0 -15 -11 -31 q-17 -23 -39 -23 q-15 0 -31 11 q-75 42 -175.5 132.5 q-100.5 90.5 -173.5 181.5 q-5 8 -14 8 q-7 0 -14 -8 q-73 -91 -173.5 -181.5 q-100.5 -90.5 -175.5 -132.5 q-16 -11 -31 -11 q-22 0 -39 23 ZM500 -88 q-24 0 -37 13 q-13 13 -13 37 l0 466 q0 24 13 37 q13 13 37 13 q24 0 37 -13 q13 -13 13 -37 l0 -466 q0 -24 -13 -37 q-13 -13 -37 -13 Z" /><glyph glyph-name="uni4E2D" unicode="&#x4e2d;" d="M809 627 q49 0 74.5 -25.5 q25.5 -25.5 25.5 -74.5 l0 -275 q0 -49 -25.5 -74.5 q-25.5 -25.5 -74.5 -25.5 l-259 0 l0 -190 q0 -24 -13 -37 q-13 -13 -37 -13 q-24 0 -37 13 q-13 13 -13 37 l0 190 l-262 0 q-49 0 -74.5 25.5 q-25.5 25.5 -25.5 74.5 l0 275 q0 49 25.5 74.5 q25.5 25.5 74.5 25.5 l262 0 l0 107 q0 24 13 37 q13 13 37 13 q24 0 37 -13 q13 -13 13 -37 l0 -107 l259 0 ZM450 527 l-242 0 q-20 0 -20 -20 l0 -235 q0 -20 20 -20 l242 0 l0 275 ZM809 507 q0 20 -20 20 l-239 0 l0 -275 l239 0 q20 0 20 20 l0 235 Z" /><glyph glyph-name="uni4E34" unicode="&#x4e34;" d="M894 681 q24 0 37 -13 q13 -13 13 -37 q0 -24 -13 -37 q-13 -13 -37 -13 l-346 0 q-43 -87 -83 -152 q-16 -26 -39 -26 q-13 0 -30 9 q-26 15 -26 39 q0 14 9 29 q26 36 78.5 140.5 q52.5 104.5 69.5 155.5 q12 35 42 35 q11 0 21 -3 q35 -9 35 -42 q0 -10 -3 -21 q-12 -35 -25 -64 l297 0 ZM314 778 q24 0 37 -13 q13 -13 13 -37 l0 -764 q0 -24 -13 -37 q-13 -13 -37 -13 q-24 0 -37 13 q-13 13 -13 37 l0 764 q0 24 13 37 q13 13 37 13 ZM128 698 q24 0 37 -13 q13 -13 13 -37 l0 -591 q0 -24 -13 -37 q-13 -13 -37 -13 q-24 0 -37 13 q-13 13 -13 37 l0 591 q0 24 13 37 q13 13 37 13 ZM698 419 q-12 18 -31.5 37 q-19.5 19 -26.5 26 q-21 23 -21 40 q0 15 13 31 q17 20 36 20 q17 0 34 -13 q18 -15 38.5 -37 q20.5 -22 34.5 -40 q14 -17 14 -33 q0 -20 -20 -38 q-16 -13 -35 -13 q-23 0 -36 20 ZM817 387 q49 0 74.5 -25.5 q25.5 -25.5 25.5 -74.5 l0 -262 q0 -49 -25.5 -74.5 q-25.5 -25.5 -74.5 -25.5 l-314 0 q-49 0 -74.5 25.5 q-25.5 25.5 -25.5 74.5 l0 262 q0 49 25.5 74.5 q25.5 25.5 74.5 25.5 l314 0 ZM503 45 q0 -20 20 -20 l87 0 l0 262 l-87 0 q-20 0 -20 -20 l0 -222 ZM817 267 q0 20 -20 20 l-87 0 l0 -262 l87 0 q20 0 20 20 l0 222 Z" /><glyph glyph-name="uni4E3A" unicode="&#x4e3a;" d="M900 472 q1 -45 -8 -202 q-9 -146 -19 -209 q-6 -42 -13.5 -68 q-7.5 -26 -21.5 -43 q-16 -20 -41 -29.5 q-25 -9.5 -64 -9.5 l-173 0 q-24 0 -37 13 q-13 13 -13 37 q0 24 13 37 q13 13 37 13 l123 0 q40 0 59 13 q19 13 24 29.5 q5 16.5 9 47.5 q8 71 13 178 q7 137 7 174 q0 20 -20 20 l-269 0 q-33 -189 -116 -322 q-83 -133 -235 -235 l-1 -1 q-16 -13 -32 -13 q-20 0 -37 21 q-14 15 -14 33 q0 21 20 37 l1 1 q138 101 209.5 209 q71.5 108 102.5 270 l-260 0 q-24 0 -37 13 q-13 13 -13 37 q0 24 13 37 q13 13 37 13 l275 0 q8 68 13 159 q0 24 13 37 q13 13 37 13 q24 0 37 -13 q13 -13 13 -37 q-3 -84 -12 -159 l279 0 q48 0 74 -26 q26 -26 27 -75 ZM257 615 q-25 28 -44 49 q-8 7 -22 23 q-18 21 -18 39 q0 16 13 32 q17 18 36 18 q18 0 36 -15 q36 -33 72 -79 q15 -21 15 -35 q0 -16 -17 -35 q-18 -15 -37 -15 q-20 0 -34 18 ZM589 231 l-61 71 q-18 21 -18 39 q0 16 13 32 q17 18 36 18 q18 0 36 -15 q31 -27 94 -110 q15 -21 15 -35 q0 -16 -17 -35 q-18 -15 -37 -15 q-20 0 -34 18 l-27 32 Z" /><glyph glyph-name="uni4E3B" unicode="&#x4e3b;" d="M886 26 q24 0 37 -13 q13 -13 13 -37 q0 -24 -13 -37 q-13 -13 -37 -13 l-773 0 q-24 0 -37 13 q-13 13 -13 37 q0 24 13 37 q13 13 37 13 l338 0 l0 224 l-266 0 q-24 0 -37 13 q-13 13 -13 37 q0 24 13 37 q13 13 37 13 l266 0 l0 195 l-307 0 q-24 0 -37 13 q-13 13 -13 37 q0 24 13 37 q13 13 37 13 l329 0 q-6 6 -9 13 q-15 23 -35 57 q-10 17 -10 33 q0 21 21 37 q14 10 30 10 q23 0 41 -23 q28 -42 39 -65 q8 -19 8 -30 q0 -17 -17 -32 l312 0 q24 0 37 -13 q13 -13 13 -37 q0 -24 -13 -37 q-13 -13 -37 -13 l-302 0 l0 -195 l262 0 q24 0 37 -13 q13 -13 13 -37 q0 -24 -13 -37 q-13 -13 -37 -13 l-262 0 l0 -224 l335 0 Z" /><glyph glyph-name="uni4E48" unicode="&#x4e48;" d="M165 305 q-15 -18 -34 -18 q-17 0 -36 14 q-20 17 -20 37 q0 18 15 34 q36 30 95 95.5 q59 65.5 114.5 142 q55.5 76.5 84.5 138.5 q12 35 45 35 q10 0 21 -3 q35 -13 35 -43 q0 -9 -5 -22 q-45 -92 -141 -216 q-96 -124 -174 -194 ZM916 -11 q6 -14 6 -26 q0 -26 -31 -41 q-13 -6 -25 -6 q-28 0 -40 30 l-14 30 l-9 19 l-602 -44 q-47 -3 -53 42 q-1 3 -1 8 q0 22 25 44 q52 41 148.5 150 q96.5 109 184.5 226 q88 117 120 184 q7 16 18.5 25 q11.5 9 25.5 9 q9 0 24 -5 q33 -14 33 -42 q0 -10 -6 -24 q-41 -82 -149.5 -223 q-108.5 -141 -216.5 -259 q-6 -7 -6 -13 q0 -5 4.5 -8 q4.5 -3 13.5 -2 l383 28 q-65 111 -103 164 q-11 14 -11 30 q0 20 21 38 q17 14 32 14 q22 0 38 -22 q36 -48 102.5 -163.5 q66.5 -115.5 87.5 -162.5 Z" /><glyph glyph-name="uni4E49" unicode="&#x4e49;" d="M486 561 q-13 32 -35.5 70.5 q-22.5 38.5 -44.5 65.5 q-10 17 -10 28 q0 20 24 39 q15 12 31 12 q22 0 38 -24 q28 -35 51.5 -74.5 q23.5 -39.5 35.5 -73.5 q6 -13 6 -26 q0 -26 -31 -41 q-13 -6 -25 -6 q-28 0 -40 30 ZM910 -1 q25 -15 25 -40 q0 -16 -10 -30 q-15 -25 -39 -25 q-16 0 -30 10 q-87 34 -174.5 79 q-87.5 45 -178.5 119 q-89 -72 -175.5 -116.5 q-86.5 -44.5 -180.5 -81.5 q-14 -10 -30 -10 q-24 0 -39 25 q-10 14 -10 30 q0 25 25 40 q88 36 169.5 78 q81.5 42 162.5 105 q-194 192 -258 468 q-3 23 8 38 q11 15 34 19 l10 1 q20 0 32 -11 q12 -11 15 -32 q59 -242 237 -415 q175 172 234 415 q3 21 15 32 q12 11 32 11 l10 -1 q21 -3 32 -15.5 q11 -12.5 11 -31.5 l-1 -10 q-64 -277 -255 -468 q82 -64 161.5 -105 q79.5 -41 167.5 -78 Z" /><glyph glyph-name="uni4E5F" unicode="&#x4e5f;" d="M909 184 q27 0 41 -14.5 q14 -14.5 11 -39.5 l-13 -96 q-8 -51 -28 -77 q-33 -43 -99 -43 l-536 0 q-49 0 -74.5 25.5 q-25.5 25.5 -25.5 74.5 l0 385 l-70 -17 q-5 -1 -13 -1 q-21 0 -34 14.5 q-13 14.5 -13 40.5 q0 36 41 44 l89 22 l0 123 q0 24 13 37 q13 13 37 13 q24 0 37 -13 q13 -13 13 -37 l0 -99 l169 41 l0 169 q0 24 13 37 q13 13 37 13 q24 0 37 -13 q13 -13 13 -37 l0 -144 l222 54 q12 3 23 3 q37 0 58 -29.5 q21 -29.5 19 -73.5 l-13 -217 q-4 -72 -25.5 -111 q-21.5 -39 -74.5 -39 l-103 0 q-24 0 -37 13 q-13 13 -13 37 q0 24 13 37 q13 13 37 13 l53 0 q21 0 31.5 10.5 q10.5 10.5 13.5 27.5 q3 17 5 52 l7 149 l0 2 q0 9 -5.5 14.5 q-5.5 5.5 -14.5 3.5 l-196 -48 l0 -342 q0 -24 -13 -37 q-13 -13 -37 -13 q-24 0 -37 13 q-13 13 -13 37 l0 317 l-169 -41 l0 -360 q0 -24 13 -37 q13 -13 37 -13 l446 0 q41 0 55 17 q5 7 8.5 19 q3.5 12 4.5 21 q1 9 2 13 l10 53 q5 24 16 35.5 q11 11.5 32 11.5 Z" /><glyph glyph-name="uni4E60" unicode="&#x4e60;" d="M101 699 q0 24 13 37 q13 13 37 13 l638 0 q48 0 74.5 -25.5 q26.5 -25.5 26.5 -72.5 q0 -85 -11 -316 q-9 -189 -20 -274 q-6 -42 -13.5 -68 q-7.5 -26 -21.5 -43 q-16 -20 -41 -29.5 q-25 -9.5 -64 -9.5 l-203 0 q-24 0 -37 13 q-13 13 -13 37 q0 24 13 37 q13 13 37 13 l153 0 q40 0 59 13 q19 13 23.5 28.5 q4.5 15.5 9.5 48.5 q11 76 18 247 q6 168 6 281 q0 20 -20 20 l-614 0 q-24 0 -37 13 q-13 13 -13 37 ZM493 369 q-16 -18 -36 -18 q-15 0 -34 14 q-28 28 -85.5 67.5 q-57.5 39.5 -110.5 69.5 q-27 17 -27 40 q0 14 7 28 q13 28 39 28 q15 0 28 -8 q57 -31 118.5 -74 q61.5 -43 96.5 -75 q20 -18 20 -37 q0 -16 -16 -35 ZM95 101 q-2 10 -2 15 q0 33 37 45 q47 9 154 49.5 q107 40.5 210.5 87 q103.5 46.5 138.5 69.5 q14 7 27 7 q24 0 40 -28 q9 -13 9 -27 q0 -25 -29 -39 q-41 -27 -147 -75.5 q-106 -48.5 -215 -89.5 q-109 -41 -160 -51 q-7 -2 -19 -2 q-32 0 -44 39 Z" /><glyph glyph-name="uni4E86" unicode="&#x4e86;" d="M865 749 q24 0 37 -13 q13 -13 13 -37 q0 -16 -5.5 -27 q-5.5 -11 -19.5 -21 l-329 -228 l0 -370 q0 -150 -100 -150 l-153 0 q-24 0 -37 13 q-13 13 -13 37 q0 24 13 37 q13 13 37 13 l103 0 q31 0 40.5 21 q9.5 21 9.5 69 l0 354 l-1 6 q0 12 8 23 q5 8 15 15 l2 1 l203 133 q10 6 10 13 q0 5 -5 8 q-5 3 -13 3 l-532 0 q-24 0 -37 13 q-13 13 -13 37 q0 24 13 37 q13 13 37 13 l717 0 Z" /><glyph glyph-name="uni4E8E" unicode="&#x4e8e;" d="M886 432 q24 0 37 -13 q13 -13 13 -37 q0 -24 -13 -37 q-13 -13 -37 -13 l-315 0 l0 -279 q0 -150 -100 -150 l-153 0 q-24 0 -37 13 q-13 13 -13 37 q0 24 13 37 q13 13 37 13 l103 0 q31 0 40.5 21 q9.5 21 9.5 69 l0 239 l-359 0 q-24 0 -37 13 q-13 13 -13 37 q0 24 13 37 q13 13 37 13 l359 0 l0 224 l-276 0 q-24 0 -37 13 q-13 13 -13 37 q0 24 13 37 q13 13 37 13 l601 0 q24 0 37 -13 q13 -13 13 -37 q0 -24 -13 -37 q-13 -13 -37 -13 l-225 0 l0 -224 l315 0 Z" /><glyph glyph-name="uni4E91" unicode="&#x4e91;" d="M198 654 q-24 0 -37 13 q-13 13 -13 37 q0 24 13 37 q13 13 37 13 l601 0 q24 0 37 -13 q13 -13 13 -37 q0 -24 -13 -37 q-13 -13 -37 -13 l-601 0 ZM484 379 q-49 -92 -88.5 -157 q-39.5 -65 -85.5 -129 q-6 -9 -6 -14 q0 -12 17 -10 l385 28 q-65 83 -114 138 q-15 18 -15 34 q0 19 18 35 q17 17 34 17 q20 0 37 -20 q58 -68 131 -158.5 q73 -90.5 93 -124.5 q7 -15 7 -29 q0 -24 -27 -41 q-13 -8 -25 -8 q-24 0 -43 28 q-14 23 -23 34 l-2 0 l-602 -44 q-24 -2 -38 10 q-14 12 -16 36 l0 8 q0 13 4 21 q5 10 15 21 q60 60 116 142.5 q56 82.5 117 189.5 l-251 0 q-24 0 -37 13 q-13 13 -13 37 q0 24 13 37 q13 13 37 13 l755 0 q24 0 37 -13 q13 -13 13 -37 q0 -24 -13 -37 q-13 -13 -37 -13 l-389 0 l-4 -7 Z" /><glyph glyph-name="uni4EA4" unicode="&#x4ea4;" d="M125 577 q-24 0 -37 13 q-13 13 -13 37 q0 24 13 37 q13 13 37 13 l334 0 l-21 50 q-6 15 -6 27 q0 24 26 41 q14 6 25 6 q27 0 44 -29 q21 -46 29 -70 q4 -13 4 -25 l312 0 q24 0 37 -13 q13 -13 13 -37 q0 -24 -13 -37 q-13 -13 -37 -13 l-747 0 ZM662 537 q52 -29 117 -79.5 q65 -50.5 101 -87.5 q17 -19 17 -37 q0 -18 -16 -34 q-18 -18 -37 -18 q-17 0 -33 16 q-28 31 -90 79 q-62 48 -111 77 q-25 17 -25 39 q0 13 9 29 q15 26 38 26 q16 0 30 -10 ZM317 529 q17 17 35 17 q17 0 34 -16 q18 -18 18 -37 q0 -19 -17 -33 q-40 -45 -104.5 -97 q-64.5 -52 -108.5 -78 q-18 -10 -31 -10 q-21 0 -38 24 q-10 16 -10 31 q0 23 24 38 q37 21 98 70.5 q61 49.5 100 90.5 ZM895 -20 q32 -12 32 -42 q0 -10 -5 -23 q-7 -16 -18 -24.5 q-11 -8.5 -25 -8.5 q-10 0 -23 5 q-210 59 -356 175 q-141 -116 -353 -179 q-13 -5 -23 -5 q-14 0 -25 8.5 q-11 8.5 -18 24.5 q-5 13 -5 23 q0 30 32 42 q177 44 316 154 q-66 67 -124 157 q-9 17 -9 30 q0 25 23 39 q16 10 31 10 q24 0 39 -25 q50 -78 116 -143 q63 65 114 146 q15 25 39 25 q14 0 31 -9 q23 -14 23 -39 q0 -13 -9 -30 q-56 -90 -123 -160 q140 -108 320 -151 Z" /><glyph glyph-name="uni4EAB" unicode="&#x4eab;" d="M129 621 q-24 0 -37 13 q-13 13 -13 37 q0 24 13 37 q13 13 37 13 l324 0 l-2 6 q-7 16 -7 26 q0 25 28 40 q16 8 28 8 q25 0 41 -28 q18 -40 22 -52 l327 0 q24 0 37 -13 q13 -13 13 -37 q0 -24 -13 -37 q-13 -13 -37 -13 l-761 0 ZM738 586 q49 0 74.5 -25.5 q25.5 -25.5 25.5 -74.5 l0 -17 q0 -49 -25.5 -74.5 q-25.5 -25.5 -74.5 -25.5 l-477 0 q-49 0 -74.5 25.5 q-25.5 25.5 -25.5 74.5 l0 17 q0 49 25.5 74.5 q25.5 25.5 74.5 25.5 l477 0 ZM738 486 q0 20 -20 20 l-437 0 q-20 0 -20 -20 l0 -17 q0 -20 20 -20 l437 0 q20 0 20 20 l0 17 ZM894 181 q24 0 37 -13 q13 -13 13 -37 q0 -24 -13 -37 q-13 -13 -37 -13 l-333 0 l0 -34 q0 -150 -100 -150 l-135 0 q-24 0 -37 13 q-13 13 -13 37 q0 24 13 37 q13 13 37 13 l85 0 q30 0 40 20.5 q10 20.5 10 63.5 l-357 0 q-24 0 -37 13 q-13 13 -13 37 q0 24 13 37 q13 13 37 13 l357 0 q1 11 7.5 19.5 q6.5 8.5 18.5 11.5 l3 1 l8 2 l80 21 q9 2 9 5 q0 2 -9 2 l-392 0 q-24 0 -37 13 q-13 13 -13 37 q0 24 13 37 q13 13 37 13 l630 0 q24 0 37 -13 q13 -13 13 -37 q0 -32 -22 -43 l-175 -69 l225 0 Z" /><glyph glyph-name="uni4EBA" unicode="&#x4eba;" d="M889 -13 q16 -17 16 -37 q0 -20 -17 -34 q-17 -16 -37 -16 q-18 0 -34 17 q-225 207 -320 460 q-54 -149 -152.5 -267.5 q-98.5 -118.5 -198.5 -185.5 l-1 -1 q-17 -12 -32 -12 q-22 0 -36 23 q-13 16 -13 33 q0 21 22 37 l1 1 q127 89 238 246.5 q111 157.5 119 388.5 l0 83 q0 24 13 37 q13 13 37 13 q24 0 37 -13 q13 -13 13 -37 l0 -78 q0 -20 -2 -56 q18 -126 73.5 -238 q55.5 -112 122.5 -195 q67 -83 151 -169 Z" /><glyph glyph-name="uni4ED6" unicode="&#x4ed6;" d="M908 184 q27 0 41 -14.5 q14 -14.5 11 -39.5 l-13 -96 q-8 -51 -28 -77 q-33 -43 -99 -43 l-356 0 q-49 0 -74.5 25.5 q-25.5 25.5 -25.5 74.5 l0 375 l-22 -7 q-5 -1 -13 -1 q-21 0 -34 14.5 q-13 14.5 -13 40.5 q0 36 41 44 l41 13 l0 132 q0 24 13 37 q13 13 37 13 q24 0 37 -13 q13 -13 13 -37 l0 -101 l104 32 l0 180 q0 24 13 37 q13 13 37 13 q24 0 37 -13 q13 -13 13 -37 l0 -149 l127 39 q12 4 26 4 q35 0 55.5 -30.5 q20.5 -30.5 18.5 -73.5 l-6 -207 q-2 -71 -24.5 -110.5 q-22.5 -39.5 -75.5 -39.5 l-43 0 q-24 0 -37 13 q-13 13 -13 37 q0 24 13 37 q13 13 37 13 l3 0 q21 0 29.5 10 q8.5 10 9.5 23.5 q1 13.5 1 56.5 l0 139 q0 10 -5.5 16.5 q-5.5 6.5 -14.5 3.5 l-101 -32 l0 -338 q0 -24 -13 -37 q-13 -13 -37 -13 q-24 0 -37 13 q-13 13 -13 37 l0 306 l-104 -33 l0 -357 q0 -24 13 -37 q13 -13 37 -13 l266 0 q41 0 55 17 q5 7 8.5 19 q3.5 12 4.5 21 q1 9 2 13 l10 53 q5 24 16 35.5 q11 11.5 32 11.5 ZM334 714 q-15 -56 -59 -146 l0 -6 l0 -606 q0 -24 -13 -37 q-13 -13 -37 -13 q-24 0 -37 13 q-13 13 -13 37 l0 436 q-23 -37 -46 -64 q-19 -19 -37 -19 q-17 0 -34 17 q-18 15 -18 35 q0 18 15 34 q54 63 109.5 170 q55.5 107 74.5 177 q13 36 45 36 q12 0 18 -2 q36 -9 36 -41 q0 -10 -4 -21 Z" /><glyph glyph-name="uni4EE4" unicode="&#x4ee4;" d="M919 465 q26 -15 26 -41 q0 -15 -8 -28 q-8 -13 -18.5 -20.5 q-10.5 -7.5 -22.5 -7.5 q-14 0 -28 10 q-105 75 -191 143.5 q-86 68.5 -163 155.5 q-5 8 -14 8 q-7 0 -14 -8 q-75 -82 -180.5 -170 q-105.5 -88 -173.5 -129 q-15 -9 -28 -9 q-25 0 -41 27 q-8 13 -8 28 q0 26 26 41 q86 51 195 150.5 q109 99.5 170 176.5 q7 13 22 20 q15 7 32 7 q17 0 32 -7 q15 -7 22 -20 q66 -86 173.5 -181.5 q107.5 -95.5 191.5 -145.5 ZM559 396 q-14 -10 -30 -10 q-24 0 -40 22 q-12 19 -33 47.5 q-21 28.5 -37 49.5 q-15 20 -15 36 q0 17 18 36 q17 14 33 14 q18 0 36 -21 q54 -66 79 -102 q12 -19 12 -35 q0 -21 -23 -37 ZM796 364 q28 0 44.5 -20.5 q16.5 -20.5 16.5 -47.5 q0 -27 -19 -44 l-244 -215 q52 -30 80 -49 q26 -20 26 -41 q0 -15 -10 -29 q-15 -24 -39 -24 q-17 0 -31 10 q-32 25 -174 105 q-142 80 -180 94 q-31 11 -31 40 q0 13 6 28 q15 25 38 25 q13 0 30 -7 q63 -28 194 -100 l183 151 q7 6 7 12 q0 5 -5.5 8.5 q-5.5 3.5 -13.5 3.5 l-482 0 q-24 0 -37 13 q-13 13 -13 37 q0 24 13 37 q13 13 37 13 l604 0 Z" /><glyph glyph-name="uni4EE5" unicode="&#x4ee5;" d="M448 515 q-10 27 -40 86 q-30 59 -44 82 q-12 20 -12 34 q0 19 21 37 q16 12 31 12 q21 0 39 -21 q17 -24 52 -91.5 q35 -67.5 45 -99.5 q6 -12 6 -24 q0 -26 -32 -41 q-11 -5 -25 -5 q-15 0 -26 8 q-11 8 -15 23 ZM921 9 q10 -13 10 -27 q0 -23 -27 -40 q-18 -10 -32 -10 q-25 0 -37 26 q-55 89 -128 187 q-53 -88 -117.5 -139.5 q-64.5 -51.5 -138.5 -91.5 q-16 -10 -31 -10 q-22 0 -37 25 q-11 15 -11 31 q0 21 23 38 q85 47 148 100 q63 53 116 169.5 q53 116.5 53 302.5 l0 143 q0 24 13 37 q13 13 37 13 q24 0 37 -13 q13 -13 13 -37 l0 -138 q0 -189 -56 -331 q22 -23 78.5 -102.5 q56.5 -79.5 86.5 -132.5 ZM489 295 q13 -16 13 -33 q0 -20 -20 -37 l-295 -234 q-17 -13 -39 -13 q-21 0 -35 13 q-14 13 -14 36 l0 655 q0 24 13 37 q13 13 37 13 q24 0 37 -13 q13 -13 13 -37 l0 -523 q0 -8 3.5 -13 q3.5 -5 8.5 -5 q6 0 12 6 l196 156 q18 13 32 13 q22 0 38 -21 Z" /><glyph glyph-name="uni4EEC" unicode="&#x4eec;" d="M475 770 q31 -28 67 -86 q9 -15 9 -29 q0 -24 -23 -41 q-16 -9 -31 -9 q-26 0 -39 23 q-29 45 -50 68 q-17 20 -17 38 q0 16 14 33 q14 17 35 17 q20 0 35 -14 ZM286 775 q37 -8 37 -42 q0 -8 -3 -19 q-13 -59 -55 -149 l0 -3 l0 -612 q0 -24 -13 -37 q-13 -13 -37 -13 q-24 0 -37 13 q-13 13 -13 37 l0 429 q-13 -21 -34 -50 q-19 -21 -38 -21 q-15 0 -33 16 q-20 15 -20 36 q0 16 14 33 q53 66 103.5 171.5 q50.5 105.5 66.5 173.5 q12 38 47 38 q10 0 15 -1 ZM820 747 q49 0 74.5 -25.5 q25.5 -25.5 25.5 -74.5 l0 -598 q0 -150 -100 -150 l-123 0 q-24 0 -37 13 q-13 13 -13 37 q0 24 13 37 q13 13 37 13 l73 0 q31 0 40.5 21 q9.5 21 9.5 69 l0 538 q0 20 -20 20 l-167 0 q-24 0 -37 13 q-13 13 -13 37 q0 24 13 37 q13 13 37 13 l187 0 ZM391 611 q24 0 37 -13 q13 -13 13 -37 l0 -613 q0 -24 -13 -37 q-13 -13 -37 -13 q-24 0 -37 13 q-13 13 -13 37 l0 613 q0 24 13 37 q13 13 37 13 Z" /><glyph glyph-name="uni4EF6" unicode="&#x4ef6;" d="M896 298 q24 0 37 -13 q13 -13 13 -37 q0 -24 -13 -37 q-13 -13 -37 -13 l-195 0 l0 -243 q0 -24 -13 -37 q-13 -13 -37 -13 q-24 0 -37 13 q-13 13 -13 37 l0 243 l-240 0 q-24 0 -37 13 q-13 13 -13 37 q0 24 13 37 q13 13 37 13 l240 0 l0 208 l-154 0 q-18 -51 -52 -120 q-13 -29 -38 -29 q-14 0 -29 8 q-29 14 -29 39 q0 13 7 26 q33 72 50.5 122 q17.5 50 37.5 137 q9 41 48 41 l11 -1 q19 -3 29.5 -14.5 q10.5 -11.5 10.5 -30.5 q0 -9 -1 -14 l-5 -22 l-9 -42 l123 0 l0 127 q0 24 13 37 q13 13 37 13 q24 0 37 -13 q13 -13 13 -37 l0 -127 l162 0 q24 0 37 -13 q13 -13 13 -37 q0 -24 -13 -37 q-13 -13 -37 -13 l-162 0 l0 -208 l195 0 ZM320 714 q-17 -58 -55 -144 l0 -8 l0 -612 q0 -24 -13 -37 q-13 -13 -37 -13 q-24 0 -37 13 q-13 13 -13 37 l0 430 q-20 -33 -34 -51 q-19 -21 -38 -21 q-15 0 -33 16 q-20 15 -20 36 q0 16 14 33 q50 63 98.5 166 q48.5 103 71.5 179 q12 38 47 38 q10 0 15 -1 q37 -8 37 -42 q0 -8 -3 -19 Z" /><glyph glyph-name="uni4EFB" unicode="&#x4efb;" d="M338 719 q-12 -64 -63 -162 l0 -2 l0 -606 q0 -24 -13 -37 q-13 -13 -37 -13 q-24 0 -37 13 q-13 13 -13 37 l0 443 q-28 -41 -46 -63 q-20 -20 -38 -20 q-16 0 -33 17 q-19 16 -19 36 q0 17 15 33 q60 73 116 174.5 q56 101.5 72 175.5 q14 37 46 37 q25 0 39 -11.5 q14 -11.5 14 -31.5 q0 -9 -3 -20 ZM680 302 l0 -268 l187 0 q24 0 37 -13 q13 -13 13 -37 q0 -24 -13 -37 q-13 -13 -37 -13 l-478 0 q-24 0 -37 13 q-13 13 -13 37 q0 24 13 37 q13 13 37 13 l191 0 l0 268 l-216 0 q-24 0 -37 13 q-13 13 -13 37 q0 24 13 37 q13 13 37 13 l216 0 l0 227 q-63 -7 -175 -14 q-25 -1 -39 12.5 q-14 13.5 -14 38.5 q0 23 12 35.5 q12 12.5 35 13.5 q101 4 180.5 14 q79.5 10 186.5 28 l70 11 q26 2 40.5 -12 q14.5 -14 14.5 -42 q0 -40 -45 -46 l-43 -7 q-105 -17 -123 -19 l0 -240 l215 0 q24 0 37 -13 q13 -13 13 -37 q0 -24 -13 -37 q-13 -13 -37 -13 l-215 0 Z" /><glyph glyph-name="uni4EFD" unicode="&#x4efd;" d="M942 451 q17 -17 17 -34 q0 -17 -16 -35 q-19 -17 -36 -17 q-16 0 -35 17 q-23 15 -63.5 65.5 q-40.5 50.5 -82.5 123.5 q-42 73 -69 153 q-4 9 -4 20 q0 19 15.5 31.5 q15.5 12.5 39.5 12.5 q30 0 44 -36 q42 -117 87.5 -183 q45.5 -66 102.5 -118 ZM320 715 q-17 -66 -56 -153 q1 -4 1 -12 l0 -601 q0 -24 -13 -37 q-13 -13 -37 -13 q-24 0 -37 13 q-13 13 -13 37 l0 423 q-23 -38 -36 -55 q-18 -22 -38 -22 q-16 0 -32 15 q-21 15 -21 37 q0 18 13 32 q51 67 100.5 171.5 q49.5 104.5 71.5 186.5 q12 39 47 39 q24 0 38 -11.5 q14 -11.5 14 -31.5 q0 -12 -2 -18 ZM752 437 q48 0 74.5 -25.5 q26.5 -25.5 26.5 -72.5 q0 -46 -7 -138 q-7 -92 -14 -140 q-6 -42 -13.5 -68 q-7.5 -26 -21.5 -43 q-16 -20 -41 -29.5 q-25 -9.5 -64 -9.5 l-86 0 q-24 0 -37 13 q-13 13 -13 37 q0 24 13 37 q13 13 37 13 l36 0 q40 0 59 13 q19 13 23.5 28.5 q4.5 15.5 9.5 48.5 q6 40 10 106.5 q4 66.5 4 109.5 q0 20 -20 20 l-150 0 q-8 -123 -49.5 -236 q-41.5 -113 -120.5 -175 q-15 -14 -33 -14 q-21 0 -37 19 q-15 16 -15 35 q0 18 18 35 q62 52 97 132.5 q35 80.5 41 203.5 l-61 0 q-24 0 -37 13 q-13 13 -13 37 l0 5 q-7 -7 -10 -9 q-15 -14 -34 -14 q-20 0 -37 20 q-13 14 -13 32 q0 21 18 37 q48 42 95 115 q47 73 78 151 q14 33 43 33 q11 0 22 -4 q32 -12 32 -41 q0 -13 -5 -23 q-19 -53 -63 -126 q-44 -73 -87 -127 q4 1 11 1 l334 0 Z" /><glyph glyph-name="uni4F01" unicode="&#x4f01;" d="M920 472 q28 -13 28 -41 q0 -13 -7 -26 q-15 -30 -42 -30 q-9 0 -25 7 q-97 57 -194.5 136 q-97.5 79 -164.5 153 q-6 7 -14 7 q-7 0 -14 -8 q-59 -72 -161 -151.5 q-102 -79.5 -204 -136.5 q-16 -7 -25 -7 q-27 0 -42 30 q-7 13 -7 26 q0 28 28 41 q109 58 207.5 138 q98.5 80 166.5 170 q8 12 23 18 q15 6 29 5 q13 1 28 -5 q15 -6 23 -18 q67 -90 162 -168.5 q95 -78.5 205 -139.5 ZM879 24 q24 0 37 -13 q13 -13 13 -37 q0 -24 -13 -37 q-13 -13 -37 -13 l-772 0 q-24 0 -37 13 q-13 13 -13 37 q0 24 13 37 q13 13 37 13 l89 0 l0 303 q0 24 13 37 q13 13 37 13 q24 0 37 -13 q13 -13 13 -37 l0 -303 l171 0 l0 454 q0 24 13 37 q13 13 37 13 q24 0 37 -13 q13 -13 13 -37 l0 -144 l221 0 q24 0 37 -13 q13 -13 13 -37 q0 -24 -13 -37 q-13 -13 -37 -13 l-221 0 l0 -210 l312 0 Z" /><glyph glyph-name="uni4F18" unicode="&#x4f18;" d="M595 478 q-15 -200 -72 -330 q-57 -130 -144 -213 q-17 -17 -35 -17 q-17 0 -34 17 q-19 17 -19 36 q0 18 17 35 q51 54 86.5 109.5 q35.5 55.5 63.5 144.5 q28 89 38 218 l-126 0 q-24 0 -37 13 q-13 13 -13 37 q0 24 13 37 q13 13 37 13 l130 0 l0 29 l0 132 q0 24 13 37 q13 13 37 13 q24 0 37 -13 q13 -13 13 -37 l0 -127 l0 -34 l277 0 q24 0 37 -13 q13 -13 13 -37 q0 -24 -13 -37 q-13 -13 -37 -13 l-282 0 ZM320 714 q-13 -59 -55 -149 l0 -3 l0 -612 q0 -24 -13 -37 q-13 -13 -37 -13 q-24 0 -37 13 q-13 13 -13 37 l0 429 q-13 -21 -34 -50 q-19 -21 -38 -21 q-15 0 -33 16 q-20 15 -20 36 q0 16 14 33 q53 66 103.5 171.5 q50.5 105.5 66.5 173.5 q12 38 47 38 q10 0 15 -1 q37 -8 37 -42 q0 -8 -3 -19 ZM710 663 q-26 20 -26 43 q0 13 7 27 q15 24 40 24 q15 0 29 -7 q21 -13 47 -38 q26 -25 41 -45 q16 -22 16 -38 q0 -16 -15 -34 q-17 -16 -37 -16 q-21 0 -34 17 l-24 25 q-24 26 -44 42 ZM902 206 q26 0 40 -14 q14 -14 12 -40 l-7 -115 q-3 -45 -28 -77 q-33 -43 -99 -43 l-95 0 q-49 0 -74.5 25.5 q-25.5 25.5 -25.5 74.5 l0 368 q0 24 13 37 q13 13 37 13 q24 0 37 -13 q13 -13 13 -37 l0 -318 q0 -24 13 -37 q13 -13 37 -13 l12 0 q22 0 31 4 q9 4 17 13 q13 18 15 53 l4 72 q2 23 14 35 q12 12 34 12 Z" /><glyph glyph-name="uni4F1A" unicode="&#x4f1a;" d="M909 488 q26 -20 26 -42 q0 -14 -8 -26 q-17 -27 -41 -27 q-14 0 -29 7 q-43 25 -89 59 l0 -3 q0 -24 -13 -37 q-13 -13 -37 -13 l-431 0 q-24 0 -37 13 q-13 13 -13 37 l0 8 q-42 -32 -95 -64 q-15 -7 -30 -7 q-24 0 -41 26 q-8 14 -8 26 q0 24 27 43 q66 38 139.5 95.5 q73.5 57.5 133 114 q59.5 56.5 86.5 91.5 q14 20 48 20 q35 0 49 -20 q26 -34 87 -90.5 q61 -56.5 135.5 -114.5 q74.5 -58 140.5 -96 ZM705 506 q-113 88 -193 172 q-6 8 -14 8 q-6 0 -14 -8 q-86 -90 -191 -172 l412 0 ZM867 307 q24 0 37 -13 q13 -13 13 -37 q0 -24 -13 -37 q-13 -13 -37 -13 l-407 0 q-18 -28 -43 -57.5 q-25 -29.5 -48 -55.5 q-18 -20 -26 -30 q-7 -9 -7 -14 q0 -5 5 -8 q5 -3 13 -2 l318 17 q-25 32 -42 50 q-15 16 -15 33 q0 20 18 36 q18 18 34 18 q19 0 37 -21 q36 -42 74.5 -91.5 q38.5 -49.5 63.5 -87.5 q7 -15 7 -29 q0 -24 -27 -41 q-13 -8 -25 -8 q-24 0 -43 28 l-11 17 l-535 -32 q-24 -2 -38 10 q-14 12 -16 36 l0 8 q0 13 4 21 q5 10 15 21 q62 62 97 99.5 q35 37.5 68 82.5 l-206 0 q-24 0 -37 13 q-13 13 -13 37 q0 24 13 37 q13 13 37 13 l735 0 Z" /><glyph glyph-name="uni4F20" unicode="&#x4f20;" d="M532 348 q-1 -3 -1 -7 q0 -16 17 -16 l303 0 q24 0 37 -13 q13 -13 13 -37 q0 -28 -19 -53 l-132 -182 q64 -33 83 -49 q23 -17 23 -38 q0 -17 -11 -32 q-17 -23 -39 -23 q-15 0 -31 11 q-38 26 -164.5 85 q-126.5 59 -185.5 78 q-32 13 -32 42 q0 9 5 24 q12 32 41 32 q11 0 24 -6 q67 -20 198 -81 l88 118 q5 7 5 12 q0 12 -15 12 l-277 0 q-26 -2 -42 12.5 q-16 14.5 -16 38.5 q0 13 6 28 l23 92 l-76 0 q-24 0 -37 13 q-13 13 -13 37 q0 24 13 37 q13 13 37 13 l102 0 l22 87 l-74 0 q-24 0 -37 13 q-13 13 -13 37 q0 24 13 37 q13 13 37 13 l99 0 l17 65 q4 20 15.5 30.5 q11.5 10.5 28.5 10.5 q5 0 15 -2 q41 -9 41 -44 q0 -5 -2 -15 l-11 -45 l250 0 q24 0 37 -13 q13 -13 13 -37 q0 -24 -13 -37 q-13 -13 -37 -13 l-273 0 l-20 -87 l328 0 q24 0 37 -13 q13 -13 13 -37 q0 -24 -13 -37 q-13 -13 -37 -13 l-352 0 l-11 -48 ZM320 714 q-12 -50 -55 -145 l0 -7 l0 -612 q0 -24 -13 -37 q-13 -13 -37 -13 q-24 0 -37 13 q-13 13 -13 37 l0 430 q-13 -21 -34 -51 q-19 -21 -38 -21 q-15 0 -33 16 q-20 15 -20 36 q0 16 14 33 q50 63 101 171.5 q51 108.5 69 173.5 q12 38 47 38 q10 0 15 -1 q37 -8 37 -42 q0 -8 -3 -19 Z" /><glyph glyph-name="uni4F53" unicode="&#x4f53;" d="M951 185 q21 -16 21 -38 q0 -17 -13 -33 q-19 -20 -40 -20 q-17 0 -31 13 q-107 97 -237 307 l0 -255 l100 0 q24 0 37 -13 q13 -13 13 -37 q0 -24 -13 -37 q-13 -13 -37 -13 l-100 0 l0 -104 q0 -24 -13 -37 q-13 -13 -37 -13 q-24 0 -37 13 q-13 13 -13 37 l0 104 l-106 0 q-24 0 -37 13 q-13 13 -13 37 q0 24 13 37 q13 13 37 13 l106 0 l0 266 q-42 -86 -93.5 -168 q-51.5 -82 -101.5 -136 q-15 -16 -34 -16 q-18 0 -37 16 q-16 16 -16 35 q0 20 17 37 q48 55 108 152.5 q60 97.5 96 188.5 l-123 0 q-24 0 -37 13 q-13 13 -13 37 q0 24 13 37 q13 13 37 13 l184 0 l0 101 q0 24 13 37 q13 13 37 13 q24 0 37 -13 q13 -13 13 -37 l0 -101 l224 0 q24 0 37 -13 q13 -13 13 -37 q0 -24 -13 -37 q-13 -13 -37 -13 l-183 0 q49 -87 127.5 -191 q78.5 -104 131.5 -158 ZM320 714 q-13 -59 -55 -149 l0 -3 l0 -612 q0 -24 -13 -37 q-13 -13 -37 -13 q-24 0 -37 13 q-13 13 -13 37 l0 429 q-13 -21 -34 -50 q-19 -21 -38 -21 q-15 0 -33 16 q-20 15 -20 36 q0 16 14 33 q53 66 103.5 171.5 q50.5 105.5 66.5 173.5 q12 38 47 38 q10 0 15 -1 q37 -8 37 -42 q0 -8 -3 -19 Z" /><glyph glyph-name="uni4F5C" unicode="&#x4f5c;" d="M635 575 l0 -140 l191 0 q24 0 37 -13 q13 -13 13 -37 q0 -24 -13 -37 q-13 -13 -37 -13 l-191 0 l0 -144 l211 0 q24 0 37 -13 q13 -13 13 -37 q0 -24 -13 -37 q-13 -13 -37 -13 l-211 0 l0 -134 q0 -24 -13 -37 q-13 -13 -37 -13 q-24 0 -37 13 q-13 13 -13 37 l0 618 l-50 0 q-49 -93 -104 -172 q-17 -23 -38 -23 q-16 0 -33 13 q-22 16 -22 37 q0 16 12 32 q60 80 89 137 q29 57 68 154 q14 33 42 33 q11 0 22 -4 q16 -5 25 -16 q9 -11 9 -25 q0 -10 -5 -23 l-17 -43 l345 0 q24 0 37 -13 q13 -13 13 -37 q0 -24 -13 -37 q-13 -13 -37 -13 l-243 0 ZM320 714 q-13 -59 -55 -149 l0 -3 l0 -612 q0 -24 -13 -37 q-13 -13 -37 -13 q-24 0 -37 13 q-13 13 -13 37 l0 429 q-13 -21 -34 -50 q-19 -21 -38 -21 q-15 0 -33 16 q-20 15 -20 36 q0 16 14 33 q53 66 103.5 171.5 q50.5 105.5 66.5 173.5 q12 38 47 38 q10 0 15 -1 q37 -8 37 -42 q0 -8 -3 -19 Z" /><glyph glyph-name="uni4F60" unicode="&#x4f60;" d="M311 407 q-21 17 -21 37 q0 15 13 34 q36 46 77.5 124.5 q41.5 78.5 59.5 139.5 q11 39 44 39 q5 0 15 -2 q40 -10 40 -43 q0 -11 -2 -17 q-9 -30 -14 -41 l393 0 q24 0 37 -13 q13 -13 13 -37 q0 -17 -16 -44 l-88 -142 q-15 -24 -38 -24 q-15 0 -32 11 q-24 17 -24 40 q0 16 11 30 l42 55 q6 8 6 13 q0 11 -18 11 l-332 0 q-47 -92 -97 -163 q-16 -22 -36 -22 q-16 0 -33 14 ZM320 714 q-13 -59 -55 -149 l0 -3 l0 -612 q0 -24 -13 -37 q-13 -13 -37 -13 q-24 0 -37 13 q-13 13 -13 37 l0 429 q-13 -21 -34 -50 q-19 -21 -38 -21 q-15 0 -33 16 q-20 15 -20 36 q0 16 14 33 q53 66 103.5 171.5 q50.5 105.5 66.5 173.5 q12 38 47 38 q10 0 15 -1 q37 -8 37 -42 q0 -8 -3 -19 ZM636 527 q24 0 37 -13 q13 -13 13 -37 l0 -427 q0 -150 -100 -150 l-83 0 q-24 0 -37 13 q-13 13 -13 37 q0 24 13 37 q13 13 37 13 l33 0 q31 0 40.5 21 q9.5 21 9.5 69 l0 387 q0 24 13 37 q13 13 37 13 ZM824 338 q39 -54 74.5 -132.5 q35.5 -78.5 52.5 -134.5 q3 -12 3 -21 q0 -31 -35 -43 q-6 -2 -17 -2 q-32 0 -46 35 q-19 56 -51.5 128.5 q-32.5 72.5 -66.5 118.5 q-9 15 -9 28 q0 22 27 41 q15 9 28 9 q24 0 40 -27 ZM464 360 q36 -9 36 -44 q0 -8 -3 -19 q-18 -62 -54 -139 q-36 -77 -65 -126 q-18 -29 -41 -29 q-14 0 -29 9 q-25 16 -25 41 q0 14 7 27 q27 46 61 120 q34 74 49 129 q14 33 46 33 q4 0 18 -2 Z" /><glyph glyph-name="uni4F6C" unicode="&#x4f6c;" d="M698 373 q-70 -70 -163 -135 l0 -32 q65 20 144.5 53 q79.5 33 109.5 50 q13 8 27 8 q23 0 40 -31 q8 -14 8 -27 q0 -26 -29 -39 q-42 -20 -133 -57 q-91 -37 -167 -62 l0 -42 q0 -24 13 -37 q13 -13 37 -13 l150 0 q41 0 55 17 q12 16 15 53 l3 32 q5 47 48 47 q26 0 40 -14.5 q14 -14.5 12 -39.5 l-8 -75 q-6 -48 -28 -77 q-33 -43 -99 -43 l-238 0 q-49 0 -74.5 25.5 q-25.5 25.5 -25.5 74.5 l0 164 l-65 -38 q-14 -10 -31 -10 q-24 0 -38 24 q-9 15 -9 30 q0 25 24 39 q144 78 240 155 l-205 0 q-24 0 -37 13 q-13 13 -13 37 q0 24 13 37 q13 13 37 13 l150 0 l0 103 l-91 0 q-24 0 -37 13 q-13 13 -13 37 q0 24 13 37 q13 13 37 13 l91 0 l0 62 q0 24 13 37 q13 13 37 13 q24 0 37 -13 q13 -13 13 -37 l0 -62 l99 0 q24 0 37 -13 q13 -13 13 -37 q0 -24 -13 -37 q-13 -13 -37 -13 l-99 0 l0 -103 l64 0 q91 97 147 210 q16 28 41 28 q11 0 27 -8 q29 -14 29 -41 q0 -12 -7 -25 q-54 -89 -114 -164 l106 0 q24 0 37 -13 q13 -13 13 -37 q0 -24 -13 -37 q-13 -13 -37 -13 l-196 0 ZM320 714 q-13 -59 -55 -149 l0 -3 l0 -612 q0 -24 -13 -37 q-13 -13 -37 -13 q-24 0 -37 13 q-13 13 -13 37 l0 429 q-13 -21 -34 -50 q-19 -21 -38 -21 q-15 0 -33 16 q-20 15 -20 36 q0 16 14 33 q53 66 103.5 171.5 q50.5 105.5 66.5 173.5 q12 38 47 38 q10 0 15 -1 q37 -8 37 -42 q0 -8 -3 -19 Z" /><glyph glyph-name="uni4F7F" unicode="&#x4f7f;" d="M900 20 q21 -3 32.5 -15.5 q11.5 -12.5 11.5 -31.5 q0 -7 -1 -11 q-12 -42 -49 -42 q-8 0 -12 1 q-104 22 -179.5 44.5 q-75.5 22.5 -141.5 55.5 q-34 -39 -81.5 -65.5 q-47.5 -26.5 -113.5 -45.5 q-9 -4 -21 -4 q-31 0 -42 35 q-5 13 -5 23 q0 14 9 25 q9 11 25 16 q46 15 79 31.5 q33 16.5 58 38.5 q-46 32 -95 76 q-19 16 -19 37 q0 19 15 35 q9 11 19 15 q-32 8 -49 32 q-17 24 -17 64 l0 98 q0 49 25.5 74.5 q25.5 25.5 74.5 25.5 l147 0 l0 61 l-203 0 q-24 0 -37 13 q-13 13 -13 37 q0 24 13 37 q13 13 37 13 l203 0 l0 50 q0 24 13 37 q13 13 37 13 q24 0 37 -13 q13 -13 13 -37 l0 -50 l209 0 q24 0 37 -13 q13 -13 13 -37 q0 -24 -13 -37 q-13 -13 -37 -13 l-209 0 l0 -61 l145 0 q49 0 74.5 -25.5 q25.5 -25.5 25.5 -74.5 l0 -98 q0 -49 -25.5 -74.5 q-25.5 -25.5 -74.5 -25.5 l-165 0 q-13 -72 -36 -129 q117 -54 286 -85 ZM307 723 q-10 -56 -49 -145 q2 -10 2 -16 l0 -612 q0 -24 -13 -37 q-13 -13 -37 -13 q-24 0 -37 13 q-13 13 -13 37 l0 434 q-26 -41 -33 -51 q-18 -21 -38 -21 q-17 0 -33 15 q-21 16 -21 36 q0 16 14 33 q51 67 99.5 173.5 q48.5 106.5 62.5 174.5 q12 40 48 40 q8 0 13 -1 q38 -9 38 -42 q0 -9 -3 -18 ZM423 354 q0 -20 20 -20 l120 0 q5 45 6 98 l-126 0 q-20 0 -20 -20 l0 -58 ZM668 432 q-1 -40 -5 -98 l132 0 q20 0 20 20 l0 58 q0 20 -20 20 l-127 0 ZM443 226 q38 -39 83 -70 q14 35 23 78 l-117 0 q1 0 11 -8 Z" /><glyph glyph-name="uni4F8B" unicode="&#x4f8b;" d="M289 726 q-9 -59 -45 -155 q1 -3 1 -9 l0 -612 q0 -24 -13 -37 q-13 -13 -37 -13 q-24 0 -37 13 q-13 13 -13 37 l0 405 l-13 -21 q-18 -23 -38 -23 q-16 0 -33 14 q-22 14 -22 36 q0 16 12 32 q47 68 88 173.5 q41 105.5 53 177.5 q11 42 49 42 l10 -1 q19 -3 29.5 -14 q10.5 -11 10.5 -29 q0 -4 -2 -16 ZM868 772 q24 0 37 -13 q13 -13 13 -37 l0 -671 q0 -150 -100 -150 l-113 0 q-24 0 -37 13 q-13 13 -13 37 q0 24 13 37 q13 13 37 13 l63 0 q31 0 40.5 21 q9.5 21 9.5 69 l0 631 q0 24 13 37 q13 13 37 13 ZM483 657 q-6 -56 -18 -109 l124 0 q23 0 36.5 -11 q13.5 -11 13.5 -31 q0 -13 -5 -40 q-36 -195 -100.5 -319.5 q-64.5 -124.5 -167.5 -213.5 q-20 -17 -37 -17 q-19 0 -36 20 q-14 15 -14 33 q0 22 19 38 q39 33 78.5 83.5 q39.5 50.5 72.5 111.5 l-43 40 q-22 16 -22 39 q0 14 11 30 q17 23 40 23 q14 0 31 -11 l27 -24 q23 64 32 126 l0 6 q0 17 -17 17 l-70 0 q-20 -63 -45.5 -119 q-25.5 -56 -51.5 -95 q-19 -24 -39 -24 q-14 0 -32 12 q-22 17 -22 41 q0 14 9 29 q43 65 75 163.5 q32 98.5 48 201.5 l-14 0 q-24 0 -37 13 q-13 13 -13 37 q0 24 13 37 q13 13 37 13 l230 0 q24 0 37 -13 q13 -13 13 -37 q0 -24 -13 -37 q-13 -13 -37 -13 l-113 0 ZM705 118 q-24 0 -37 13 q-13 13 -13 37 l0 459 q0 24 13 37 q13 13 37 13 q24 0 37 -13 q13 -13 13 -37 l0 -459 q0 -24 -13 -37 q-13 -13 -37 -13 Z" /><glyph glyph-name="uni4F9B" unicode="&#x4f9b;" d="M885 306 q24 0 37 -13 q13 -13 13 -37 q0 -24 -13 -37 q-13 -13 -37 -13 l-522 0 q-24 0 -37 13 q-13 13 -13 37 q0 24 13 37 q13 13 37 13 l80 0 l0 217 l-50 0 q-24 0 -37 13 q-13 13 -13 37 q0 24 13 37 q13 13 37 13 l50 0 l0 116 q0 24 13 37 q13 13 37 13 q24 0 37 -13 q13 -13 13 -37 l0 -116 l164 0 l0 116 q0 24 13 37 q13 13 37 13 q24 0 37 -13 q13 -13 13 -37 l0 -116 l58 0 q24 0 37 -13 q13 -13 13 -37 q0 -24 -13 -37 q-13 -13 -37 -13 l-58 0 l0 -217 l78 0 ZM320 714 q-13 -59 -55 -149 l0 -3 l0 -612 q0 -24 -13 -37 q-13 -13 -37 -13 q-24 0 -37 13 q-13 13 -13 37 l0 429 q-13 -21 -34 -50 q-19 -21 -38 -21 q-15 0 -33 16 q-20 15 -20 36 q0 16 14 33 q53 66 103.5 171.5 q50.5 105.5 66.5 173.5 q12 38 47 38 q10 0 15 -1 q37 -8 37 -42 q0 -8 -3 -19 ZM543 523 l0 -217 l164 0 l0 217 l-164 0 ZM543 164 q20 -17 20 -39 q0 -14 -11 -30 q-25 -33 -78.5 -89 q-53.5 -56 -72.5 -70 q-15 -14 -33 -14 q-21 0 -39 18 q-15 18 -15 36 q0 20 19 35 q18 15 64.5 62 q46.5 47 74.5 79 q20 22 41 22 q14 0 30 -10 ZM774 159 q19 -17 68.5 -79 q49.5 -62 60.5 -82 q10 -14 10 -29 q0 -23 -24 -42 q-17 -10 -31 -10 q-26 0 -39 25 q-11 18 -52.5 71 q-41.5 53 -59.5 74 q-17 22 -17 38 q0 17 14 34 q17 15 35 15 q19 0 35 -15 Z" /><glyph glyph-name="uni4FA7" unicode="&#x4fa7;" d="M262 739 q-10 -53 -31 -125 q4 -8 4 -23 l0 -642 q0 -24 -13 -37 q-13 -13 -37 -13 q-24 0 -37 13 q-13 13 -13 37 l0 433 l-15 -25 q-19 -24 -39 -24 q-14 0 -31 12 q-23 15 -23 38 q0 16 11 30 q44 68 76 159 q32 91 50 182 q9 43 48 43 q24 0 38 -11 q14 -11 14 -32 q0 -5 -2 -15 ZM865 765 q24 0 37 -13 q13 -13 13 -37 l0 -657 q0 -150 -100 -150 l-73 0 q-24 0 -37 13 q-13 13 -13 37 q0 24 13 37 q13 13 37 13 l23 0 q31 0 40.5 21 q9.5 21 9.5 69 l0 617 q0 24 13 37 q13 13 37 13 ZM334 155 q-19 0 -30 11 q-11 11 -11 31 l0 463 q0 41 21.5 62 q21.5 21 61.5 21 l171 0 q40 0 61 -21.5 q21 -21.5 21 -61.5 l0 -463 q0 -20 -10.5 -31 q-10.5 -11 -30.5 -11 q-19 0 -30 11 q-11 11 -11 31 l0 430 q0 16 -17 16 l-138 0 q-16 0 -16 -16 l0 -430 q0 -20 -11 -31 q-11 -11 -31 -11 ZM769 187 q0 -24 -13 -37 q-13 -13 -37 -13 q-24 0 -37 13 q-13 13 -13 37 l0 445 q0 24 13 37 q13 13 37 13 q24 0 37 -13 q13 -13 13 -37 l0 -445 ZM497 200 q37 -37 81.5 -87 q44.5 -50 64.5 -79 q12 -16 12 -31 q0 -21 -24 -39 q-15 -12 -30 -12 q-19 0 -38 22 q-18 25 -98 115 q-42 -98 -125 -161 q-16 -13 -32 -13 q-20 0 -37 21 q-14 15 -14 33 q0 21 20 37 q64 52 93 115 q29 63 35 123 q6 60 6 154 l0 153 q0 24 13 37 q13 13 37 13 q24 0 37 -13 q13 -13 13 -37 l0 -148 q0 -125 -14 -203 Z" /><glyph glyph-name="uni4FE1" unicode="&#x4fe1;" d="M317 734 q-16 -61 -61 -163 l0 -6 l0 -606 q0 -24 -13 -37 q-13 -13 -37 -13 q-24 0 -37 13 q-13 13 -13 37 l0 417 l-27 -42 q-20 -21 -38 -21 q-16 0 -33 14 q-21 16 -21 37 q0 15 14 32 q48 65 99 177.5 q51 112.5 70 181.5 q12 40 47 40 q9 0 14 -1 q39 -8 39 -42 q0 -9 -3 -18 ZM892 689 q24 0 37 -13 q13 -13 13 -37 q0 -24 -13 -37 q-13 -13 -37 -13 l-530 0 q-24 0 -37 13 q-13 13 -13 37 q0 24 13 37 q13 13 37 13 l225 0 l-8 26 q-10 17 -10 33 q0 24 25 36 q16 8 29 8 q27 0 40 -29 q12 -24 17.5 -38.5 q5.5 -14.5 9.5 -35.5 l202 0 ZM417 443 q-24 0 -37 13 q-13 13 -13 37 q0 24 13 37 q13 13 37 13 l396 0 q24 0 37 -13 q13 -13 13 -37 q0 -24 -13 -37 q-13 -13 -37 -13 l-396 0 ZM415 300 q-24 0 -37 13 q-13 13 -13 37 q0 24 13 37 q13 13 37 13 l399 0 q24 0 37 -13 q13 -13 13 -37 q0 -24 -13 -37 q-13 -13 -37 -13 l-399 0 ZM794 258 q49 0 74.5 -25.5 q25.5 -25.5 25.5 -74.5 l0 -129 q0 -49 -25.5 -74.5 q-25.5 -25.5 -74.5 -25.5 l-359 0 q-49 0 -74.5 25.5 q-25.5 25.5 -25.5 74.5 l0 129 q0 49 25.5 74.5 q25.5 25.5 74.5 25.5 l359 0 ZM794 138 q0 20 -20 20 l-319 0 q-20 0 -20 -20 l0 -89 q0 -20 20 -20 l319 0 q20 0 20 20 l0 89 Z" /><glyph glyph-name="uni4FEE" unicode="&#x4fee;" d="M911 429 q32 -14 32 -43 q0 -10 -5 -23 q-13 -31 -42 -31 q-11 0 -24 5 q-68 23 -116 43 q10 -14 10 -29 q0 -21 -23 -39 q-130 -73 -244 -111 q-9 -3 -18 -3 q-16 0 -26.5 10 q-10.5 10 -15.5 29 q-3 11 -3 18 q0 30 37 43 q62 21 97 37 q35 16 114 59 q9 6 18 9 q-4 3 -25 13 q-47 -26 -99.5 -46 q-52.5 -20 -118.5 -40 q-12 -2 -16 -2 q-32 0 -43 39 q-3 9 -3 18 q0 34 39 43 q94 31 146 55 q-35 33 -70 84 q-22 -28 -43 -49 q-17 -16 -36 -16 q-18 0 -35 17 q-5 6 -10 13 l0 -402 q0 -24 -13 -37 q-13 -13 -37 -13 q-24 0 -37 13 q-13 13 -13 37 l0 468 q0 24 13 37 q13 13 37 13 q24 0 37 -13 q13 -13 13 -37 l0 -21 q9 12 10 13 q32 30 70.5 83 q38.5 53 60.5 96 q7 16 15.5 22.5 q8.5 6.5 20.5 6.5 q13 0 29 -6 q30 -12 30 -38 q0 -9 -5 -22 l244 0 q17 0 29.5 -9.5 q12.5 -9.5 18.5 -23.5 q4 -9 4 -27 q0 -19 -6 -30 q-63 -99 -141 -163 q55 -25 143 -50 ZM294 730 q-14 -65 -53 -155 q1 -3 1 -9 l0 -616 q0 -24 -13 -37 q-13 -13 -37 -13 q-24 0 -37 13 q-13 13 -13 37 l0 427 q-17 -30 -31 -49 q-19 -22 -38 -22 q-15 0 -32 14 q-22 16 -22 37 q0 16 13 32 q50 69 97.5 174 q47.5 105 67.5 187 q12 40 46 40 q26 0 39.5 -11 q13.5 -11 13.5 -32 q0 -5 -2 -17 ZM584 632 q32 -58 90 -101 q68 44 105 89 q2 2 2 6 q0 2 -2 4 q-2 2 -6 2 l-189 0 ZM490 55 q-9 -4 -19 -4 q-16 0 -26.5 10 q-10.5 10 -15.5 27 q-4 9 -4 20 q0 29 36 42 q110 38 164 64.5 q54 26.5 136 77.5 q17 14 34 14 q21 0 36 -21 q14 -15 14 -33 q0 -20 -20 -38 q-93 -60 -156 -90 q-63 -30 -179 -69 ZM842 184 q17 14 34 14 q21 0 36 -21 q14 -15 14 -33 q0 -20 -20 -38 q-89 -58 -211.5 -111.5 q-122.5 -53.5 -248.5 -94.5 q-12 -5 -21 -5 q-14 0 -25.5 9.5 q-11.5 9.5 -16.5 25.5 q-5 13 -5 22 q0 27 34 42 q117 37 229.5 86 q112.5 49 200.5 104 Z" /><glyph glyph-name="uni503C" unicode="&#x503c;" d="M300 737 q-14 -61 -56 -162 q1 -3 1 -10 l0 -616 q0 -24 -13 -37 q-13 -13 -37 -13 q-24 0 -37 13 q-13 13 -13 37 l0 419 q-14 -25 -22 -36 q-17 -23 -38 -23 q-16 0 -32 13 q-22 16 -22 37 q0 16 12 32 q47 67 94.5 180.5 q47.5 113.5 64.5 183.5 q10 41 47 41 q25 0 39 -11.5 q14 -11.5 14 -32.5 q0 -5 -2 -15 ZM899 27 q24 0 37 -13 q13 -13 13 -37 q0 -24 -13 -37 q-13 -13 -37 -13 l-571 0 q-24 0 -37 13 q-13 13 -13 37 q0 24 13 37 q13 13 37 13 l18 0 l0 451 q0 49 25.5 74.5 q25.5 25.5 74.5 25.5 l123 0 l0 48 l-184 0 q-24 0 -37 13 q-13 13 -13 37 q0 24 13 37 q13 13 37 13 l184 0 l0 11 q0 50 53 50 q23 0 35 -13 q12 -13 12 -37 l0 -11 l199 0 q24 0 37 -13 q13 -13 13 -37 q0 -24 -13 -37 q-13 -13 -37 -13 l-199 0 l0 -48 l120 0 q49 0 74.5 -25.5 q25.5 -25.5 25.5 -74.5 l0 -451 l10 0 ZM466 478 q-20 0 -20 -20 l0 -24 l343 0 l0 24 q0 20 -20 20 l-303 0 ZM789 295 l0 49 l-343 0 l0 -49 l343 0 ZM446 205 l0 -49 l343 0 l0 49 l-343 0 ZM446 66 l0 -39 l343 0 l0 39 l-343 0 Z" /><glyph glyph-name="uni5077" unicode="&#x5077;" d="M917 577 q26 -15 26 -39 q0 -14 -9 -28 q-15 -28 -40 -28 q-15 0 -27 8 q-52 32 -116 78 q14 -12 14 -38 q0 -24 -13 -37 q-13 -13 -37 -13 l-244 0 q-24 0 -37 13 q-13 13 -13 37 q0 13 5 25 q-54 -38 -97 -64 q-16 -7 -26 -7 q-26 0 -42 31 q-7 14 -7 24 q0 26 30 42 q68 38 123.5 82.5 q55.5 44.5 128.5 116.5 q23 23 61 23 q38 0 62 -23 q51 -54 89.5 -87.5 q38.5 -33.5 71.5 -55.5 q33 -22 97 -60 ZM305 716 q-18 -69 -61 -162 q1 -3 1 -9 l0 -602 q0 -24 -13 -37 q-13 -13 -37 -13 q-24 0 -37 13 q-13 13 -13 37 l0 426 q-21 -33 -33 -50 q-19 -21 -38 -21 q-17 0 -33 15 q-21 16 -21 37 q0 15 14 32 q52 68 102 171.5 q50 103.5 73 185.5 q12 39 46 39 q10 0 15 -1 q38 -9 38 -42 q0 -8 -3 -19 ZM715 580 q18 0 28 -7 q-75 57 -132 108 q-9 7 -13 7 q-5 0 -15 -8 q-46 -42 -124 -101 q4 1 12 1 l244 0 ZM838 461 q24 0 37 -13 q13 -13 13 -37 l0 -358 q0 -150 -100 -150 l-83 0 q-24 0 -37 13 q-13 13 -13 37 q0 24 13 37 q13 13 37 13 l33 0 q31 0 40.5 21 q9.5 21 9.5 69 l0 318 q0 24 13 37 q13 13 37 13 ZM518 455 q49 0 74.5 -25.5 q25.5 -25.5 25.5 -74.5 l0 -304 q0 -150 -100 -150 l-32 0 q-24 0 -37 13 q-13 13 -13 37 q0 24 13 37 q13 13 37 13 l2 0 q19 0 24.5 13.5 q5.5 13.5 5.5 45.5 l-114 0 l0 -113 q0 -24 -13 -37 q-13 -13 -37 -13 q-24 0 -37 13 q-13 13 -13 37 l0 408 q0 49 25.5 74.5 q25.5 25.5 74.5 25.5 l114 0 ZM701 79 q-24 0 -37 13 q-13 13 -13 37 l0 244 q0 24 13 37 q13 13 37 13 q24 0 37 -13 q13 -13 13 -37 l0 -244 q0 -24 -13 -37 q-13 -13 -37 -13 ZM424 355 q-20 0 -20 -20 l0 -29 l114 0 l0 29 q0 20 -20 20 l-74 0 ZM404 206 l0 -46 l114 0 l0 46 l-114 0 Z" /><glyph glyph-name="uni50CF" unicode="&#x50cf;" d="M933 38 q16 -16 16 -33 q0 -17 -17 -36 q-17 -17 -35 -17 q-18 0 -36 18 q-53 53 -84.5 105.5 q-31.5 52.5 -55.5 118.5 q-14 -7 -17 -8 q19 -61 19 -120 q0 -75 -35.5 -120.5 q-35.5 -45.5 -105.5 -45.5 l-73 0 q-24 0 -37 13 q-13 13 -13 37 q0 24 13 37 q13 13 37 13 l23 0 q45 0 65 27 q20 27 18 74 q-130 -102 -270 -166 q-13 -6 -24 -6 q-24 0 -37 26 q-6 13 -6 24 q0 23 26 38 q100 50 161.5 85 q61.5 35 128.5 90 q-4 12 -7 18 q-74 -50 -122 -78.5 q-48 -28.5 -109 -54.5 q-13 -5 -22 -5 q-23 0 -38 28 q-5 13 -5 22 q0 24 27 39 q80 36 125.5 60 q45.5 24 104.5 65 l-10 16 q-71 -50 -180 -90 q-9 -4 -21 -4 q-18 0 -30 13.5 q-12 13.5 -12 38.5 q0 30 32 42 q86 28 136 59 l-22 0 q-49 0 -74.5 25.5 q-25.5 25.5 -25.5 74.5 l0 35 q0 8 2 22 q-12 -5 -21 -5 q-24 0 -39 25 q-8 13 -8 30 q0 24 24 39 q45 31 92.5 80.5 q47.5 49.5 77.5 97.5 q16 23 38 23 q14 0 30 -9 q27 -16 27 -38 q0 -15 -10 -29 l231 0 q24 0 37 -13 q13 -13 13 -37 q0 -13 -4.5 -25 q-4.5 -12 -11.5 -19 l-34 -42 l26 0 q49 0 74.5 -25.5 q25.5 -25.5 25.5 -74.5 l0 -35 q0 -83 -72 -97 q22 -1 39 -26 q10 -14 10 -29 q0 -24 -26 -39 q-11 -8 -55 -34 q18 -54 48 -101 q30 -47 78 -97 ZM301 738 q-19 -77 -56 -172 l0 -8 l0 -609 q0 -24 -13 -37 q-13 -13 -37 -13 q-24 0 -37 13 q-13 13 -13 37 l0 400 q-11 -20 -24 -40 q-20 -23 -39 -23 q-17 0 -31 13 q-23 14 -23 37 q0 16 12 32 q49 71 97 186 q48 115 66 201 q11 41 46 41 q8 0 13 -1 q19 -2 30 -13.5 q11 -11.5 11 -29.5 q0 -4 -2 -14 ZM490 642 q-13 -16 -43 -46 l208 0 l17 22 q6 6 6 12 q0 5 -5 8.5 q-5 3.5 -13 3.5 l-170 0 ZM441 471 q0 -20 20 -20 l95 0 q16 25 28 55 l-123 0 q-20 0 -20 -20 l0 -15 ZM811 486 q0 20 -20 20 l-107 0 q-12 -36 -21 -55 l128 0 q20 0 20 20 l0 15 ZM616 361 q29 -42 50 -83 q85 36 143 76 q4 3 17 8 q-5 -1 -15 -1 l-195 0 Z" /><glyph glyph-name="uni5145" unicode="&#x5145;" d="M894 169 q26 0 40 -14 q14 -14 12 -40 l-5 -82 q-3 -45 -28 -77 q-33 -43 -99 -43 l-175 0 q-49 0 -74.5 25.5 q-25.5 25.5 -25.5 74.5 l0 295 l-124 -4 q-10 -136 -74.5 -245 q-64.5 -109 -195.5 -167 q-14 -8 -27 -8 q-26 0 -39 28 q-9 15 -9 29 q0 24 27 39 q115 55 163 138 q48 83 55 183 l-129 -4 q-24 -1 -38 11.5 q-14 12.5 -14 36.5 q0 9 1 13 q0 17 15 30 q36 32 92.5 94.5 q56.5 62.5 95.5 111.5 l-220 0 q-24 0 -37 13 q-13 13 -13 37 q0 24 13 37 q13 13 37 13 l336 0 q-4 20 -8 31 q-5 17 -5 27 q0 25 27 41 q13 7 25 7 q25 0 42 -29 q15 -27 24 -77 l306 0 q24 0 37 -13 q13 -13 13 -37 q0 -24 -13 -37 q-13 -13 -37 -13 l-403 0 q-18 -26 -58 -74.5 q-40 -48.5 -81 -92.5 q-6 -7 -6 -13 q0 -5 4.5 -8.5 q4.5 -3.5 12.5 -2.5 l357 11 q-30 36 -49 53 q-19 19 -19 37 q0 17 15 35 q15 18 35 18 q18 0 36 -15 q32 -30 82.5 -89.5 q50.5 -59.5 73.5 -104.5 q9 -18 9 -31 q0 -20 -23 -38 q-18 -10 -32 -10 q-25 0 -37 25 l-13 22 l-130 -4 l0 -249 q0 -24 13 -37 q13 -13 37 -13 l85 0 q41 0 55 17 q13 18 15 53 l2 39 q2 23 14 35 q12 12 34 12 Z" /><glyph glyph-name="uni5148" unicode="&#x5148;" d="M894 177 q26 0 40 -14 q14 -14 12 -40 l-5 -90 q-1 -20 -8 -40.5 q-7 -20.5 -20 -36.5 q-33 -43 -99 -43 l-145 0 q-49 0 -74.5 25.5 q-25.5 25.5 -25.5 74.5 l0 288 l-149 0 l0 -32 q0 -143 -63.5 -235.5 q-63.5 -92.5 -192.5 -144.5 q-14 -8 -27 -8 q-25 0 -39 29 q-8 12 -8 28 q0 25 28 40 q101 45 151.5 110 q50.5 65 50.5 176 l0 37 l-207 0 q-24 0 -37 13 q-13 13 -13 37 q0 24 13 37 q13 13 37 13 l356 0 l0 155 l-213 0 q-35 -72 -66 -111 q-15 -25 -38 -25 q-13 0 -32 11 q-24 15 -24 38 q0 14 10 30 q62 89 104 223 q12 37 44 37 q9 0 19 -3 q35 -10 35 -42 q0 -9 -3 -21 l-10 -37 l174 0 l0 87 q0 24 13 37 q13 13 37 13 q24 0 37 -13 q13 -13 13 -37 l0 -87 l267 0 q24 0 37 -13 q13 -13 13 -37 q0 -24 -13 -37 q-13 -13 -37 -13 l-267 0 l0 -155 l313 0 q24 0 37 -13 q13 -13 13 -37 q0 -24 -13 -37 q-13 -13 -37 -13 l-213 0 l0 -238 q0 -24 13 -37 q13 -13 37 -13 l55 0 q41 0 55 17 q13 18 15 53 l2 47 q1 22 13.5 34.5 q12.5 12.5 34.5 12.5 Z" /><glyph glyph-name="uni5165" unicode="&#x5165;" d="M910 10 q22 -16 22 -37 q0 -17 -13 -33 q-14 -23 -36 -23 q-16 0 -32 12 l-1 1 q-120 80 -209.5 191 q-89.5 111 -139.5 291 q-51 -147 -139 -266.5 q-88 -119.5 -215 -227.5 q-17 -14 -32 -14 q-20 0 -39 22 q-13 13 -13 31 q0 20 21 40 q127 109 225.5 246.5 q98.5 137.5 130.5 320.5 q6 24 24 32 q-6 33 -17.5 50 q-11.5 17 -28.5 27 q-12 4 -37 5 q-25 1 -31 1 q-37 0 -60 1 q-24 1 -37 13 q-13 12 -13 34 q0 53 50 53 q73 -1 108.5 -3 q35.5 -2 67.5 -9 q36 -13 55.5 -37.5 q19.5 -24.5 28 -56 q8.5 -31.5 17.5 -86.5 q16 -156 73.5 -271 q57.5 -115 125.5 -184 q68 -69 143 -122 l1 -1 Z" /><glyph glyph-name="uni5168" unicode="&#x5168;" d="M915 485 q28 -13 28 -41 q0 -13 -7 -26 q-15 -30 -42 -30 q-9 0 -25 7 q-37 21 -68 42 l0 -7 q0 -24 -13 -37 q-13 -13 -37 -13 l-202 0 l0 -115 l230 0 q24 0 37 -13 q13 -13 13 -37 q0 -24 -13 -37 q-13 -13 -37 -13 l-230 0 l0 -135 l318 0 q24 0 37 -13 q13 -13 13 -37 q0 -24 -13 -37 q-13 -13 -37 -13 l-733 0 q-24 0 -37 13 q-13 13 -13 37 q0 24 13 37 q13 13 37 13 l315 0 l0 135 l-228 0 q-24 0 -37 13 q-13 13 -13 37 q0 24 13 37 q13 13 37 13 l228 0 l0 115 l-201 0 q-24 0 -37 13 q-13 13 -13 37 l0 6 q-23 -15 -69 -41 q-16 -7 -25 -7 q-27 0 -42 30 q-7 13 -7 26 q0 28 28 41 q243 130 367 295 q8 12 23 18 q15 6 29 5 q13 1 28 -5 q15 -6 23 -18 q65 -88 156 -159.5 q91 -71.5 206 -135.5 ZM737 480 q-136 96 -222 191 q-6 7 -14 7 q-7 0 -14 -8 q-76 -92 -220 -190 l470 0 Z" /><glyph glyph-name="uni516C" unicode="&#x516c;" d="M918 410 q21 -16 21 -38 q0 -14 -11 -30 q-18 -23 -39 -23 q-14 0 -32 13 q-35 26 -86.5 80 q-51.5 54 -104.5 130 q-53 76 -87 160 q-7 13 -7 26 q0 26 30 39 q14 6 25 6 q27 0 42 -30 q54 -116 119.5 -198 q65.5 -82 129.5 -135 ZM408 688 q-31 -66 -86 -141.5 q-55 -75.5 -109.5 -134 q-54.5 -58.5 -79.5 -73.5 q-16 -12 -31 -12 q-21 0 -39 24 q-11 16 -11 30 q0 22 22 38 q58 44 127.5 128.5 q69.5 84.5 117.5 183.5 q15 29 41 29 q13 0 26 -6 q29 -14 29 -40 q0 -13 -7 -26 ZM681 273 q31 -43 92 -139 q61 -96 78 -131 q5 -15 5 -24 q0 -27 -34 -42 q-13 -5 -22 -5 q-28 0 -42 32 q-5 13 -8 18 l-559 -34 q-26 -2 -40 11.5 q-14 13.5 -14 39.5 q0 21 10 32 l5 6 q54 53 125.5 164.5 q71.5 111.5 131.5 235.5 q14 32 41 32 q11 0 25 -6 q30 -12 30 -39 q0 -11 -6 -25 q-36 -73 -88 -161 q-52 -88 -101 -159 q-5 -8 -5 -12 q0 -5 5 -8.5 q5 -3.5 13 -2.5 l370 22 q-58 90 -92 137 q-11 17 -11 31 q0 21 22 39 q17 12 31 12 q22 0 38 -24 Z" /><glyph glyph-name="uni5171" unicode="&#x5171;" d="M885 306 q24 0 37 -13 q13 -13 13 -37 q0 -24 -13 -37 q-13 -13 -37 -13 l-782 0 q-24 0 -37 13 q-13 13 -13 37 q0 24 13 37 q13 13 37 13 l160 0 l0 217 l-130 0 q-24 0 -37 13 q-13 13 -13 37 q0 24 13 37 q13 13 37 13 l130 0 l0 116 q0 24 13 37 q13 13 37 13 q24 0 37 -13 q13 -13 13 -37 l0 -116 l260 0 l0 116 q0 24 13 37 q13 13 37 13 q24 0 37 -13 q13 -13 13 -37 l0 -116 l132 0 q24 0 37 -13 q13 -13 13 -37 q0 -24 -13 -37 q-13 -13 -37 -13 l-132 0 l0 -217 l162 0 ZM363 523 l0 -217 l260 0 l0 217 l-260 0 ZM678 179 q22 -15 106 -88 q84 -73 98 -90 q15 -15 15 -33 q0 -19 -17 -39 q-16 -15 -37 -15 q-20 0 -34 18 q-14 16 -81 74.5 q-67 58.5 -104 89.5 q-24 22 -24 42 q0 13 9 29 q17 22 40 22 q15 0 29 -10 ZM319 168 q22 16 38 16 q16 0 34 -15 q14 -17 14 -35 q0 -19 -16 -35 q-31 -29 -116.5 -95 q-85.5 -66 -106.5 -77 q-13 -9 -28 -9 q-23 0 -42 25 q-9 15 -9 31 q0 25 25 38 q19 11 94.5 68.5 q75.5 57.5 112.5 87.5 Z" /><glyph glyph-name="uni5173" unicode="&#x5173;" d="M889 -22 q14 -8 21.5 -19.5 q7.5 -11.5 7.5 -23.5 q0 -14 -7 -25 q-17 -30 -43 -30 q-11 0 -25 8 q-125 78 -202 147.5 q-77 69.5 -132 167.5 q-82 -181 -353 -305 q-13 -7 -26 -7 q-27 0 -39 30 q-8 16 -8 28 q0 25 29 39 q102 37 189.5 112 q87.5 75 123.5 170 l-304 0 q-24 0 -37 13 q-13 13 -13 37 q0 24 13 37 q13 13 37 13 l326 0 l0 15 l0 135 l-279 0 q-24 0 -37 13 q-13 13 -13 37 q0 24 13 37 q13 13 37 13 l146 0 l-6 9 q-29 45 -52 71 q-18 21 -18 38 q0 18 14 33 q17 16 36 16 q18 0 37 -15 q16 -15 36 -41.5 q20 -26.5 29 -44.5 q11 -14 11 -30 q0 -20 -19 -36 l197 0 q0 15 12 27 q66 85 79 109 q18 32 43 32 q11 0 22 -4 q31 -17 31 -45 q0 -9 -5 -24 q-7 -15 -24.5 -42 q-17.5 -27 -37.5 -53 l117 0 q24 0 37 -13 q13 -13 13 -37 q0 -24 -13 -37 q-13 -13 -37 -13 l-269 0 l0 -140 l0 -10 l319 0 q24 0 37 -13 q13 -13 13 -37 q0 -24 -13 -37 q-13 -13 -37 -13 l-282 0 q85 -169 305 -292 Z" /><glyph glyph-name="uni5176" unicode="&#x5176;" d="M895 219 q24 0 37 -13 q13 -13 13 -37 q0 -24 -13 -37 q-13 -13 -37 -13 l-793 0 q-24 0 -37 13 q-13 13 -13 37 q0 24 13 37 q13 13 37 13 l108 0 l0 386 l-78 0 q-24 0 -37 13 q-13 13 -13 37 q0 24 13 37 q13 13 37 13 l78 0 l0 27 q0 24 13 37 q13 13 37 13 q24 0 37 -13 q13 -13 13 -37 l0 -27 l379 0 l0 27 q0 24 13 37 q13 13 37 13 q24 0 37 -13 q13 -13 13 -37 l0 -27 l76 0 q24 0 37 -13 q13 -13 13 -37 q0 -24 -13 -37 q-13 -13 -37 -13 l-76 0 l0 -386 l106 0 ZM689 605 l-379 0 l0 -62 l379 0 l0 62 ZM310 443 l0 -61 l379 0 l0 61 l-379 0 ZM310 282 l0 -63 l379 0 l0 63 l-379 0 ZM879 -11 q26 -16 26 -39 q0 -14 -9 -30 q-14 -26 -39 -26 q-14 0 -29 9 q-36 24 -98 54 q-62 30 -115 48 q-34 12 -34 42 q0 9 3 21 q9 35 40 35 q11 0 22 -4 q59 -20 125.5 -51.5 q66.5 -31.5 107.5 -58.5 ZM329 92 q14 10 29 10 q22 0 40 -25 q11 -16 11 -29 q0 -22 -26 -39 q-54 -34 -120 -65.5 q-66 -31.5 -112 -46.5 q-11 -4 -22 -4 q-30 0 -43 34 q-4 9 -4 21 q0 29 34 43 q41 12 103.5 41.5 q62.5 29.5 109.5 59.5 Z" /><glyph glyph-name="uni5177" unicode="&#x5177;" d="M943 151 q0 -24 -13 -37 q-13 -13 -37 -13 l-237 0 q47 -18 129.5 -55.5 q82.5 -37.5 93.5 -47.5 q26 -14 26 -37 q0 -14 -9 -29 q-15 -28 -40 -28 q-13 0 -28 9 q-13 9 -106 50 q-93 41 -113 48 q-32 14 -32 42 q0 8 5 21 q6 19 17 27 l-204 0 q7 -7 12 -16 q10 -14 10 -28 q0 -24 -27 -40 q-34 -20 -130 -66.5 q-96 -46.5 -112 -48.5 q-13 -5 -22 -5 q-29 0 -40 34 q-5 13 -5 23 q0 30 34 41 q15 4 100 46 q85 42 119 60 l-226 0 q-24 0 -37 13 q-13 13 -13 37 q0 24 13 37 q13 13 37 13 l72 0 l0 457 q0 49 25.5 74.5 q25.5 25.5 74.5 25.5 l440 0 q49 0 74.5 -25.5 q25.5 -25.5 25.5 -74.5 l0 -457 l73 0 q24 0 37 -13 q13 -13 13 -37 ZM300 658 q-20 0 -20 -20 l0 -26 l440 0 l0 26 q0 20 -20 20 l-400 0 ZM720 475 l0 46 l-440 0 l0 -46 l440 0 ZM280 384 l0 -46 l440 0 l0 46 l-440 0 ZM280 247 l0 -46 l440 0 l0 46 l-440 0 Z" /><glyph glyph-name="uni5185" unicode="&#x5185;" d="M799 668 q49 0 74.5 -25.5 q25.5 -25.5 25.5 -74.5 l0 -523 q0 -150 -100 -150 l-103 0 q-24 0 -37 13 q-13 13 -13 37 q0 24 13 37 q13 13 37 13 l53 0 q31 0 40.5 21 q9.5 21 9.5 69 l0 463 q0 20 -20 20 l-228 0 q-3 -71 -19 -130 l7 -6 q61 -53 128.5 -118.5 q67.5 -65.5 91.5 -100.5 q12 -16 12 -33 q0 -21 -23 -38 q-15 -12 -30 -12 q-23 0 -39 22 q-20 29 -76.5 86 q-56.5 57 -108.5 104 q-57 -106 -183 -207 l-1 -1 q-16 -13 -32 -13 q-20 0 -37 21 q-14 15 -14 33 q0 21 20 37 l1 1 q70 58 110 104.5 q40 46.5 63 105.5 q23 59 29 145 l-230 0 q-20 0 -20 -20 l0 -607 q0 -24 -13 -37 q-13 -13 -37 -13 q-24 0 -37 13 q-13 13 -13 37 l0 627 q0 49 25.5 74.5 q25.5 25.5 74.5 25.5 l251 0 l0 68 q0 24 13 37 q13 13 37 13 q24 0 37 -13 q13 -13 13 -37 l0 -68 l248 0 Z" /><glyph glyph-name="uni518C" unicode="&#x518c;" d="M895 424 q24 0 37 -13 q13 -13 13 -37 q0 -24 -13 -37 q-13 -13 -37 -13 l-30 0 l0 -276 q0 -150 -100 -150 l-84 0 q-24 0 -37 13 q-13 13 -13 37 q0 24 13 37 q13 13 37 13 l34 0 q31 0 40.5 21 q9.5 21 9.5 69 l0 236 l-140 0 q-1 -114 -6.5 -183.5 q-5.5 -69.5 -20.5 -118.5 q-15 -49 -44 -92 q-15 -25 -39 -25 q-15 0 -29 10 q-26 14 -26 40 q0 14 9 29 q25 42 36.5 83 q11.5 41 15 97 q3.5 56 4.5 160 l-52 0 l0 -256 q0 -150 -100 -150 l-84 0 q-24 0 -37 13 q-13 13 -13 37 q0 24 13 37 q13 13 37 13 l34 0 q31 0 40.5 21 q9.5 21 9.5 69 l0 216 l-126 0 q-1 -109 -8.5 -177.5 q-7.5 -68.5 -24 -115.5 q-16.5 -47 -46.5 -91 q-15 -25 -39 -25 q-15 0 -29 10 q-26 14 -26 40 q0 14 9 29 q26 44 39 83 q13 39 18.5 95 q5.5 56 6.5 152 l-44 0 q-24 0 -37 13 q-13 13 -13 37 q0 24 13 37 q13 13 37 13 l44 0 l0 235 q0 49 25.5 74.5 q25.5 25.5 74.5 25.5 l126 0 q49 0 74.5 -25.5 q25.5 -25.5 25.5 -74.5 l0 -235 l52 0 l0 235 q0 49 25.5 74.5 q25.5 25.5 74.5 25.5 l140 0 q49 0 74.5 -25.5 q25.5 -25.5 25.5 -74.5 l0 -235 l30 0 ZM373 424 l0 215 q0 20 -20 20 l-86 0 q-20 0 -20 -20 l0 -215 l126 0 ZM765 424 l0 215 q0 20 -20 20 l-100 0 q-20 0 -20 -20 l0 -215 l140 0 Z" /><glyph glyph-name="uni518D" unicode="&#x518d;" d="M896 223 q24 0 37 -13 q13 -13 13 -37 q0 -24 -13 -37 q-13 -13 -37 -13 l-40 0 l0 -77 q0 -150 -100 -150 l-124 0 q-24 0 -37 13 q-13 13 -13 37 q0 24 13 37 q13 13 37 13 l74 0 q31 0 40.5 21 q9.5 21 9.5 69 l0 37 l-510 0 l0 -184 q0 -24 -13 -37 q-13 -13 -37 -13 q-24 0 -37 13 q-13 13 -13 37 l0 184 l-42 0 q-24 0 -37 13 q-13 13 -13 37 q0 24 13 37 q13 13 37 13 l42 0 l0 264 q0 49 25.5 74.5 q25.5 25.5 74.5 25.5 l205 0 l0 62 l-316 0 q-24 0 -37 13 q-13 13 -13 37 q0 24 13 37 q13 13 37 13 l732 0 q24 0 37 -13 q13 -13 13 -37 q0 -24 -13 -37 q-13 -13 -37 -13 l-316 0 l0 -62 l205 0 q49 0 74.5 -25.5 q25.5 -25.5 25.5 -74.5 l0 -264 l40 0 ZM266 487 q-20 0 -20 -20 l0 -58 l205 0 l0 78 l-185 0 ZM551 487 l0 -78 l205 0 l0 58 q0 20 -20 20 l-185 0 ZM246 309 l0 -86 l205 0 l0 86 l-205 0 ZM551 223 l205 0 l0 86 l-205 0 l0 -86 Z" /><glyph glyph-name="uni5199" unicode="&#x5199;" d="M821 756 q49 0 74.5 -25.5 q25.5 -25.5 25.5 -74.5 l0 -78 q0 -24 -13 -37 q-13 -13 -37 -13 q-24 0 -37 13 q-13 13 -13 37 l0 38 q0 24 -8 32 q-8 8 -32 8 l-552 0 q-24 0 -32 -8 q-8 -8 -8 -32 l0 -38 q0 -24 -13 -37 q-13 -13 -37 -13 q-24 0 -37 13 q-13 13 -13 37 l0 78 q0 49 25.5 74.5 q25.5 25.5 74.5 25.5 l632 0 ZM769 356 q47 0 74 -24.5 q27 -24.5 27 -71.5 q0 -57 -18 -183 l-3 -22 q-6 -42 -13.5 -68 q-7.5 -26 -21.5 -43 q-16 -20 -41 -29.5 q-25 -9.5 -64 -9.5 l-153 0 q-24 0 -37 13 q-13 13 -13 37 q0 24 13 37 q13 13 37 13 l103 0 q40 0 59 13 q19 13 24 29 q5 16 10 48 q10 72 13 141 l0 2 q0 18 -20 18 l-431 0 q-50 0 -77 26 q-27 26 -23 74 l15 205 q3 50 50 50 q25 0 38.5 -13 q13.5 -13 11.5 -37 l-2 -24 l411 0 q24 0 37 -13 q13 -13 13 -37 q0 -24 -13 -37 q-13 -13 -37 -13 l-419 0 l-5 -61 l0 -2 q0 -18 20 -18 l435 0 ZM693 123 q0 -24 -13 -37 q-13 -13 -37 -13 l-513 0 q-24 0 -37 13 q-13 13 -13 37 q0 24 13 37 q13 13 37 13 l513 0 q24 0 37 -13 q13 -13 13 -37 Z" /><glyph glyph-name="uni51FA" unicode="&#x51fa;" d="M856 298 q24 0 37 -13 q13 -13 13 -37 l0 -232 q0 -49 -25.5 -74.5 q-25.5 -25.5 -74.5 -25.5 l-607 0 q-49 0 -74.5 25.5 q-25.5 25.5 -25.5 74.5 l0 232 q0 24 13 37 q13 13 37 13 q24 0 37 -13 q13 -13 13 -37 l0 -212 q0 -20 20 -20 l234 0 l0 312 l-224 0 q-49 0 -74.5 25.5 q-25.5 25.5 -25.5 74.5 l0 222 q0 24 13 37 q13 13 37 13 q24 0 37 -13 q13 -13 13 -37 l0 -202 q0 -20 20 -20 l204 0 l0 310 q0 24 13 37 q13 13 37 13 q24 0 37 -13 q13 -13 13 -37 l0 -310 l203 0 q20 0 20 20 l0 202 q0 24 13 37 q13 13 37 13 q24 0 37 -13 q13 -13 13 -37 l0 -222 q0 -49 -25.5 -74.5 q-25.5 -25.5 -74.5 -25.5 l-223 0 l0 -312 l233 0 q20 0 20 20 l0 212 q0 24 13 37 q13 13 37 13 Z" /><glyph glyph-name="uni51FB" unicode="&#x51fb;" d="M888 428 q24 0 37 -13 q13 -13 13 -37 q0 -24 -13 -37 q-13 -13 -37 -13 l-340 0 l0 -312 l208 0 q20 0 20 20 l0 175 q0 24 13 37 q13 13 37 13 q24 0 37 -13 q13 -13 13 -37 l0 -195 q0 -49 -25.5 -74.5 q-25.5 -25.5 -74.5 -25.5 l-547 0 q-49 0 -74.5 25.5 q-25.5 25.5 -25.5 74.5 l0 195 q0 24 13 37 q13 13 37 13 q24 0 37 -13 q13 -13 13 -37 l0 -175 q0 -20 20 -20 l199 0 l0 312 l-332 0 q-24 0 -37 13 q-13 13 -13 37 q0 24 13 37 q13 13 37 13 l332 0 l0 138 l-272 0 q-24 0 -37 13 q-13 13 -13 37 q0 24 13 37 q13 13 37 13 l272 0 l0 72 q0 24 13 37 q13 13 37 13 q24 0 37 -13 q13 -13 13 -37 l0 -72 l280 0 q24 0 37 -13 q13 -13 13 -37 q0 -24 -13 -37 q-13 -13 -37 -13 l-280 0 l0 -138 l340 0 Z" /><glyph glyph-name="uni5206" unicode="&#x5206;" d="M924 448 q21 -16 21 -38 q0 -14 -11 -30 q-18 -23 -39 -23 q-14 0 -32 13 q-25 12 -80.5 65.5 q-55.5 53.5 -114.5 129 q-59 75.5 -96 150.5 q-7 13 -7 26 q0 26 30 39 q14 6 25 6 q27 0 42 -30 q57 -110 127 -186.5 q70 -76.5 135 -121.5 ZM692 441 q48 0 74.5 -25.5 q26.5 -25.5 26.5 -72.5 q0 -47 -7 -141.5 q-7 -94.5 -14 -141.5 q-6 -42 -13.5 -68 q-7.5 -26 -21.5 -43 q-16 -20 -41 -29.5 q-25 -9.5 -64 -9.5 l-156 0 q-24 0 -37 13 q-13 13 -13 37 q0 24 13 37 q13 13 37 13 l106 0 q40 0 59 13 q19 13 23.5 28.5 q4.5 15.5 9.5 48.5 q6 40 10 108.5 q4 68.5 4 112.5 q0 20 -20 20 l-264 0 l0 -15 q0 -136 -49 -243 q-49 -107 -187 -183 q-17 -10 -29 -10 q-24 0 -39 26 q-10 14 -10 30 q0 24 25 39 q66 42 104 78 q38 36 61.5 97.5 q23.5 61.5 23.5 160.5 l0 20 l-77 0 q-24 0 -37 13 q-13 13 -13 37 q0 10 3 19 q-33 -29 -47 -38 q-16 -12 -31 -12 q-21 0 -39 24 q-11 16 -11 30 q0 22 22 38 q63 48 130.5 124 q67.5 76 114.5 172 q15 29 41 29 q13 0 26 -6 q29 -14 29 -40 q0 -13 -7 -26 q-30 -65 -85.5 -136.5 q-55.5 -71.5 -113.5 -129.5 q12 2 18 2 l465 0 Z" /><glyph glyph-name="uni5207" unicode="&#x5207;" d="M427 204 q11 -17 11 -32 q0 -22 -22 -38 q-10 -6 -39 -25 q-81 -52 -129 -74 q-13 -6 -26 -6 q-22 0 -36.5 17 q-14.5 17 -14.5 46 l0 344 l-65 -8 q-27 -3 -42 11 q-15 14 -15 43 q0 40 44 46 l78 10 l0 193 q0 24 13 37 q13 13 37 13 q24 0 37 -13 q13 -13 13 -37 l0 -181 l111 14 l10 1 q22 0 34.5 -13.5 q12.5 -13.5 12.5 -38.5 q0 -42 -44 -48 l-124 -16 l0 -261 q0 -18 14 -18 q4 0 10 3 q17 10 33 22 l29 20 q17 11 30 11 q20 0 40 -22 ZM813 739 q48 0 74.5 -25.5 q26.5 -25.5 26.5 -72.5 q0 -107 -10.5 -307 q-10.5 -200 -19.5 -267 q-6 -42 -13.5 -68 q-7.5 -26 -21.5 -43 q-16 -20 -41 -29.5 q-25 -9.5 -64 -9.5 l-96 0 q-24 0 -37 13 q-13 13 -13 37 q0 24 13 37 q13 13 37 13 l46 0 q40 0 59 13 q19 13 23.5 28.5 q4.5 15.5 9.5 48.5 q11 75 17 232.5 q6 157.5 6 279.5 q0 20 -20 20 l-155 0 l0 -48 q0 -219 -62 -399 q-62 -180 -160 -283 q-17 -19 -36 -19 q-17 0 -33 16 q-20 16 -20 36 q0 18 14 33 q57 71 99 148.5 q42 77.5 70 193 q28 115.5 28 269.5 l0 53 l-83 0 q-24 0 -37 13 q-13 13 -13 37 q0 24 13 37 q13 13 37 13 l362 0 Z" /><glyph glyph-name="uni5219" unicode="&#x5219;" d="M852 776 q24 0 37 -13 q13 -13 13 -37 l0 -668 q0 -150 -100 -150 l-143 0 q-24 0 -37 13 q-13 13 -13 37 q0 24 13 37 q13 13 37 13 l93 0 q31 0 40.5 21 q9.5 21 9.5 69 l0 628 q0 24 13 37 q13 13 37 13 ZM140 163 q-24 0 -37 13 q-13 13 -13 37 l0 448 q0 49 25.5 74.5 q25.5 25.5 74.5 25.5 l248 0 q49 0 74.5 -25.5 q25.5 -25.5 25.5 -74.5 l0 -448 q0 -24 -13 -37 q-13 -13 -37 -13 q-24 0 -37 13 q-13 13 -13 37 l0 428 q0 20 -20 20 l-208 0 q-20 0 -20 -20 l0 -428 q0 -24 -13 -37 q-13 -13 -37 -13 ZM651 127 q-24 0 -37 13 q-13 13 -13 37 l0 479 q0 24 13 37 q13 13 37 13 q24 0 37 -13 q13 -13 13 -37 l0 -479 q0 -24 -13 -37 q-13 -13 -37 -13 ZM353 239 q37 -40 97.5 -113 q60.5 -73 79.5 -103 q10 -14 10 -29 q0 -23 -26 -40 q-14 -10 -29 -10 q-21 0 -39 24 q-11 16 -51.5 66.5 q-40.5 50.5 -77.5 95.5 q-55 -128 -177 -212 q-16 -13 -32 -13 q-20 0 -37 21 q-14 15 -14 33 q0 21 20 37 q79 58 120.5 124.5 q41.5 66.5 55 132.5 q13.5 66 13.5 145 l0 173 q0 24 13 37 q13 13 37 13 q24 0 37 -13 q13 -13 13 -37 l0 -168 q0 -88 -15 -162 l2 -2 Z" /><glyph glyph-name="uni521A" unicode="&#x521a;" d="M868 769 q24 0 37 -13 q13 -13 13 -37 l0 -673 q0 -150 -100 -150 l-103 0 q-24 0 -37 13 q-13 13 -13 37 q0 24 13 37 q13 13 37 13 l53 0 q31 0 40.5 21 q9.5 21 9.5 69 l0 633 q0 24 13 37 q13 13 37 13 ZM496 755 q49 0 74.5 -25.5 q25.5 -25.5 25.5 -74.5 l0 -601 q0 -150 -100 -150 l-93 0 q-24 0 -37 13 q-13 13 -13 37 q0 24 13 37 q13 13 37 13 l43 0 q31 0 40.5 21 q9.5 21 9.5 69 l0 541 q0 20 -20 20 l-276 0 q-20 0 -20 -20 l0 -516 q3 12 12 26 q39 59 100 187 q-56 107 -98 176 q-11 14 -11 31 q0 23 24 39 q14 10 29 10 q21 0 40 -24 q23 -32 69 -116 q26 62 43 109 q11 36 43 36 q7 0 21 -4 q33 -11 33 -42 q0 -10 -3 -22 q-21 -70 -79 -192 q63 -128 84 -195 q2 -6 2 -17 q0 -34 -40 -43 q-12 -2 -16 -2 q-32 0 -43 40 q-14 42 -43 103 q-47 -93 -76 -136 q-17 -21 -36 -21 q-16 0 -35 14 q-17 12 -20 28 l0 -157 q0 -24 -13 -37 q-13 -13 -37 -13 q-24 0 -37 13 q-13 13 -13 37 l0 708 q0 49 25.5 74.5 q25.5 25.5 74.5 25.5 l316 0 ZM702 115 q-24 0 -37 13 q-13 13 -13 37 l0 467 q0 24 13 37 q13 13 37 13 q24 0 37 -13 q13 -13 13 -37 l0 -467 q0 -24 -13 -37 q-13 -13 -37 -13 Z" /><glyph glyph-name="uni521B" unicode="&#x521b;" d="M323 673 q-33 -56 -65 -96.5 q-32 -40.5 -83 -86.5 q24 11 55 11 l190 0 q49 0 74 -26.5 q25 -26.5 24 -75.5 l-1 -114 q-1 -72 -23.5 -111 q-22.5 -39 -76.5 -39 l-75 0 q-24 0 -37 13 q-13 13 -13 37 q0 24 13 37 q13 13 37 13 l25 0 q31 0 40.5 20.5 q9.5 20.5 9.5 69.5 l0 56 q0 20 -20 20 l-147 0 q-20 0 -20 -20 l0 -317 q0 -24 13 -37 q13 -13 37 -13 l137 0 q31 0 45.5 8 q14.5 8 19 21.5 q4.5 13.5 5.5 40.5 l1 21 q2 23 14 35 q12 12 34 12 q26 0 40 -14 q14 -14 12 -40 l-4 -64 q-3 -50 -33 -85 q-30 -35 -94 -35 l-227 0 q-49 0 -74.5 25.5 q-25.5 25.5 -25.5 74.5 l0 387 q0 37 16 63 q1 1 -20 -17 q-16 -11 -30 -11 q-23 0 -40 24 q-10 14 -10 30 q0 24 23 40 l35 33 q62 57 95.5 97.5 q33.5 40.5 72.5 117.5 q9 14 25 21 q16 7 35 7 q19 0 34.5 -7 q15.5 -7 23.5 -21 q32 -52 63 -88.5 q31 -36.5 73 -78.5 l44 -45 q20 -17 20 -37 q0 -17 -14 -34 q-18 -19 -38 -19 q-18 0 -33 14 q-52 48 -89.5 90.5 q-37.5 42.5 -76.5 92.5 q-3 4 -8 4 q-5 0 -8 -4 ZM862 779 q24 0 37 -13 q13 -13 13 -37 l0 -683 q0 -150 -100 -150 l-103 0 q-24 0 -37 13 q-13 13 -13 37 q0 24 13 37 q13 13 37 13 l53 0 q31 0 40.5 21 q9.5 21 9.5 69 l0 643 q0 24 13 37 q13 13 37 13 ZM721 195 q0 -24 -13 -37 q-13 -13 -37 -13 q-24 0 -37 13 q-13 13 -13 37 l0 458 q0 24 13 37 q13 13 37 13 q24 0 37 -13 q13 -13 13 -37 l0 -458 Z" /><glyph glyph-name="uni522B" unicode="&#x522b;" d="M850 779 q24 0 37 -13 q13 -13 13 -37 l0 -683 q0 -150 -100 -150 l-133 0 q-24 0 -37 13 q-13 13 -13 37 q0 24 13 37 q13 13 37 13 l83 0 q31 0 40.5 21 q9.5 21 9.5 69 l0 643 q0 24 13 37 q13 13 37 13 ZM437 350 q49 0 76 -26 q27 -26 24 -75 l-3 -42 q-6 -98 -11 -132 q-12 -79 -45 -118 q-33 -39 -102 -39 l-69 0 q-24 0 -37 13 q-13 13 -13 37 q0 24 13 37 q13 13 37 13 l19 0 q41 0 64 19.5 q23 19.5 33 65.5 q9 42 9 127 q0 20 -20 20 l-131 0 q-19 -108 -53.5 -184.5 q-34.5 -76.5 -83.5 -133.5 q-16 -22 -37 -22 q-17 0 -31 13 q-24 16 -24 38 q0 16 12 31 q52 65 79 121.5 q27 56.5 41 136.5 l-73 0 q-24 0 -37 13 q-13 13 -13 37 q0 24 13 37 q13 13 37 13 l85 0 l1 19 q0 38 30 47 l-40 0 q-49 0 -74.5 25.5 q-25.5 25.5 -25.5 74.5 l0 147 q0 49 25.5 74.5 q25.5 25.5 74.5 25.5 l233 0 q49 0 74.5 -25.5 q25.5 -25.5 25.5 -74.5 l0 -147 q0 -49 -25.5 -74.5 q-25.5 -25.5 -74.5 -25.5 l-152 0 q30 -11 29 -48 l-2 -18 l142 0 ZM701 185 q0 -24 -13 -37 q-13 -13 -37 -13 q-24 0 -37 13 q-13 13 -13 37 l0 459 q0 24 13 37 q13 13 37 13 q24 0 37 -13 q13 -13 13 -37 l0 -459 ZM187 536 q0 -20 20 -20 l193 0 q20 0 20 20 l0 107 q0 20 -20 20 l-193 0 q-20 0 -20 -20 l0 -107 Z" /><glyph glyph-name="uni5230" unicode="&#x5230;" d="M862 779 q24 0 37 -13 q13 -13 13 -37 l0 -683 q0 -150 -100 -150 l-123 0 q-24 0 -37 13 q-13 13 -13 37 q0 24 13 37 q13 13 37 13 l73 0 q31 0 40.5 21 q9.5 21 9.5 69 l0 643 q0 24 13 37 q13 13 37 13 ZM117 647 q-24 0 -37 13 q-13 13 -13 37 q0 24 13 37 q13 13 37 13 l399 0 q24 0 37 -13 q13 -13 13 -37 q0 -24 -13 -37 q-13 -13 -37 -13 l-199 0 q-21 -44 -37.5 -73 q-16.5 -29 -46.5 -78 q-6 -10 -6 -16 q0 -8 15 -7 l180 16 l-22 29 q-13 16 -13 32 q0 20 20 38 q15 15 32 15 q20 0 38 -22 q52 -64 90 -149 q7 -17 7 -27 q0 -25 -29 -40 q-13 -7 -26 -7 q-25 0 -42 29 q-1 2 -2 5 q-1 3 -3 6 l-335 -28 q-24 -2 -39 14.5 q-15 16.5 -15 41.5 q0 26 18 51 q28 43 101 170 l-85 0 ZM711 185 q0 -24 -13 -37 q-13 -13 -37 -13 q-24 0 -37 13 q-13 13 -13 37 l0 459 q0 24 13 37 q13 13 37 13 q24 0 37 -13 q13 -13 13 -37 l0 -459 ZM511 86 q5 1 14 1 q37 0 47 -39 q2 -10 2 -15 q0 -35 -39 -44 q-224 -39 -443 -42 q-22 1 -34.5 13 q-12.5 12 -12.5 34 q0 27 13 40 q13 13 38 12 q86 2 173 9 l0 126 l-136 0 q-24 0 -37 13 q-13 13 -13 37 q0 24 13 37 q13 13 37 13 l136 0 l0 30 q0 24 13 37 q13 13 37 13 q24 0 37 -13 q13 -13 13 -37 l0 -30 l132 0 q24 0 37 -13 q13 -13 13 -37 q0 -24 -13 -37 q-13 -13 -37 -13 l-132 0 l0 -116 q70 9 142 21 Z" /><glyph glyph-name="uni5236" unicode="&#x5236;" d="M391 377 l0 -56 l101 0 q49 0 74.5 -25.5 q25.5 -25.5 25.5 -74.5 l0 -120 q0 -150 -100 -150 l-41 0 q-24 0 -37 13 q-13 13 -13 37 q0 24 13 37 q13 13 37 13 l1 0 q21 0 29.5 10 q8.5 10 9.5 23.5 q1 13.5 1 56.5 l0 60 q0 20 -20 20 l-81 0 l0 -285 q0 -24 -13 -37 q-13 -13 -37 -13 q-24 0 -37 13 q-13 13 -13 37 l0 285 l-78 0 q-20 0 -20 -20 l0 -206 q0 -24 -13 -37 q-13 -13 -37 -13 q-24 0 -37 13 q-13 13 -13 37 l0 226 q0 49 25.5 74.5 q25.5 25.5 74.5 25.5 l98 0 l0 56 l-179 0 q-24 0 -37 13 q-13 13 -13 37 q0 24 13 37 q13 13 37 13 l179 0 l0 92 l-106 0 q-11 -27 -24 -50 q-17 -29 -41 -29 q-10 0 -28 8 q-27 14 -27 40 q0 14 6 27 q17 34 25.5 59.5 q8.5 25.5 20.5 66.5 q1 5 3 11.5 q2 6.5 4 13.5 q10 37 43 37 q6 0 18 -2 q38 -9 38 -42 q0 -9 -3 -18 l-5 -22 l76 0 l0 62 q0 24 13 37 q13 13 37 13 q24 0 37 -13 q13 -13 13 -37 l0 -62 l132 0 q24 0 37 -13 q13 -13 13 -37 q0 -24 -13 -37 q-13 -13 -37 -13 l-132 0 l0 -92 l154 0 q24 0 37 -13 q13 -13 13 -37 q0 -24 -13 -37 q-13 -13 -37 -13 l-154 0 ZM871 767 q24 0 37 -13 q13 -13 13 -37 l0 -674 q0 -150 -100 -150 l-133 0 q-24 0 -37 13 q-13 13 -13 37 q0 24 13 37 q13 13 37 13 l83 0 q31 0 40.5 21 q9.5 21 9.5 69 l0 634 q0 24 13 37 q13 13 37 13 ZM679 111 q-24 0 -37 13 q-13 13 -13 37 l0 478 q0 24 13 37 q13 13 37 13 q24 0 37 -13 q13 -13 13 -37 l0 -478 q0 -24 -13 -37 q-13 -13 -37 -13 Z" /><glyph glyph-name="uni524D" unicode="&#x524d;" d="M884 676 q24 0 37 -13 q13 -13 13 -37 q0 -24 -13 -37 q-13 -13 -37 -13 l-778 0 q-24 0 -37 13 q-13 13 -13 37 q0 24 13 37 q13 13 37 13 l165 0 l-21 47 q-7 13 -7 26 q0 23 29 40 q16 8 28 8 q25 0 39 -29 q27 -58 38 -92 l214 0 l22 42 q0 0 28 52 q14 30 41 30 q9 0 24 -5 q32 -14 32 -41 q0 -11 -6 -25 q-14 -29 -28 -53 l180 0 ZM410 534 q49 0 74.5 -25.5 q25.5 -25.5 25.5 -74.5 l0 -388 q0 -150 -100 -150 l-70 0 q-24 0 -37 13 q-13 13 -13 37 q0 24 13 37 q13 13 37 13 l20 0 q31 0 40.5 21 q9.5 21 9.5 69 l0 2 l-207 0 l0 -146 q0 -24 -13 -37 q-13 -13 -37 -13 q-24 0 -37 13 q-13 13 -13 37 l0 492 q0 49 25.5 74.5 q25.5 25.5 74.5 25.5 l207 0 ZM822 531 q24 0 37 -13 q13 -13 13 -37 l0 -435 q0 -150 -100 -150 l-123 0 q-24 0 -37 13 q-13 13 -13 37 q0 24 13 37 q13 13 37 13 l73 0 q31 0 40.5 21 q9.5 21 9.5 69 l0 395 q0 24 13 37 q13 13 37 13 ZM674 134 q0 -24 -13 -37 q-13 -13 -37 -13 q-24 0 -37 13 q-13 13 -13 37 l0 309 q0 24 13 37 q13 13 37 13 q24 0 37 -13 q13 -13 13 -37 l0 -309 ZM223 434 q-20 0 -20 -20 l0 -50 l207 0 l0 50 q0 20 -20 20 l-167 0 ZM203 188 l207 0 l0 76 l-207 0 l0 -76 Z" /><glyph glyph-name="uni529F" unicode="&#x529f;" d="M808 618 q47 0 74 -24.5 q27 -24.5 27 -71.5 q0 -60 -7.5 -239 q-7.5 -179 -13.5 -222 q-6 -42 -13.5 -68 q-7.5 -26 -21.5 -43 q-16 -20 -41 -29.5 q-25 -9.5 -64 -9.5 l-110 0 q-24 0 -37 13 q-13 13 -13 37 q0 24 13 37 q13 13 37 13 l60 0 q40 0 59 13 q19 13 23.5 28.5 q4.5 15.5 9.5 48.5 q5 32 9.5 187 q4.5 155 4.5 210 q0 20 -20 20 l-161 0 q-11 -230 -61 -382 q-50 -152 -143 -227 q-15 -15 -32 -15 q-19 0 -36 20 q-15 18 -15 35 q0 18 18 35 q77 65 118.5 199 q41.5 134 50.5 335 l-46 0 q-24 0 -37 13 q-13 13 -13 37 q0 24 13 37 q13 13 37 13 l49 0 l0 24 l0 91 q0 24 13 37 q13 13 37 13 q24 0 37 -13 q13 -13 13 -37 l0 -86 l0 -29 l182 0 ZM435 188 q4 -11 4 -21 q0 -30 -34 -43 q-51 -17 -162.5 -44 q-111.5 -27 -142.5 -27 q-49 0 -49 52 q0 20 12 33 q12 13 33 14 q23 1 100 18 l0 427 l-81 0 q-24 0 -37 13 q-13 13 -13 37 q0 24 13 37 q13 13 37 13 l236 0 q24 0 37 -13 q13 -13 13 -37 q0 -24 -13 -37 q-13 -13 -37 -13 l-55 0 l0 -401 l75 22 q11 4 21 4 q28 0 43 -34 Z" /><glyph glyph-name="uni52A0" unicode="&#x52a0;" d="M405 641 q48 0 74 -25.5 q26 -25.5 27 -75.5 q2 -64 -5 -246 q-7 -182 -15 -236 q-6 -42 -13.5 -68 q-7.5 -26 -21.5 -43 q-16 -20 -41 -29.5 q-25 -9.5 -64 -9.5 l-70 0 q-24 0 -37 13 q-13 13 -13 37 q0 24 13 37 q13 13 37 13 l20 0 q40 0 59 13 q19 13 24 29.5 q5 16.5 9 47.5 q5 43 9 198 q4 155 4 225 q0 20 -20 20 l-104 0 q-14 -228 -50 -382.5 q-36 -154.5 -86 -230.5 q-15 -24 -39 -24 q-15 0 -29 10 q-26 15 -26 39 q0 16 10 30 q35 64 56.5 131.5 q21.5 67.5 36.5 167.5 q15 100 25 259 l-65 0 q-24 0 -37 13 q-13 13 -13 37 q0 24 13 37 q13 13 37 13 l71 0 l4 91 q0 24 13 37 q13 13 37 13 q24 0 37 -13 q13 -13 13 -37 l-3 -91 l123 0 ZM821 699 q49 0 74.5 -25.5 q25.5 -25.5 25.5 -74.5 l0 -569 q0 -49 -25.5 -74.5 q-25.5 -25.5 -74.5 -25.5 l-177 0 q-49 0 -74.5 25.5 q-25.5 25.5 -25.5 74.5 l0 569 q0 49 25.5 74.5 q25.5 25.5 74.5 25.5 l177 0 ZM821 579 q0 20 -20 20 l-137 0 q-20 0 -20 -20 l0 -529 q0 -20 20 -20 l137 0 q20 0 20 20 l0 529 Z" /><glyph glyph-name="uni52A1" unicode="&#x52a1;" d="M903 393 q18 -4 27.5 -15.5 q9.5 -11.5 9.5 -28.5 q0 -11 -2 -17 q-4 -18 -16 -28 q-12 -10 -28 -10 q-11 0 -17 2 q-105 19 -194.5 43 q-89.5 24 -171.5 58 q-130 -48 -325 -95 l-63 -16 q-12 -2 -16 -2 q-32 0 -43 39 q-3 9 -3 18 q0 34 38 43 q169 39 286 77 q-80 49 -142 117 q-60 -63 -92 -87 q-17 -11 -33 -11 q-20 0 -38 22 q-12 15 -12 31 q0 21 23 39 q42 29 98.5 88 q56.5 59 92.5 110 q15 25 36 25 q13 0 32 -11 q25 -15 25 -37 q0 -11 -4 -19 l453 0 q17 0 29.5 -9.5 q12.5 -9.5 18.5 -23.5 q5 -12 5 -28 q0 -19 -7 -29 q-73 -106 -231 -185 q110 -36 264 -60 ZM333 628 q69 -71 175 -123 q132 53 212 111 q3 3 3 5 q0 3 -2.5 5 q-2.5 2 -6.5 2 l-381 0 ZM750 268 q47 0 74 -24.5 q27 -24.5 27 -71.5 q0 -67 -12 -131.5 q-12 -64.5 -38 -96.5 q-17 -20 -41.5 -29.5 q-24.5 -9.5 -63.5 -9.5 l-160 0 q-24 0 -37 13 q-13 13 -13 37 q0 24 13 37 q13 13 37 13 l110 0 q53 0 76.5 33.5 q23.5 33.5 23.5 109.5 q0 20 -20 20 l-273 0 q-38 -108 -115 -167 q-77 -59 -171 -97 q-13 -6 -25 -6 q-28 0 -41 31 q-6 13 -6 25 q0 28 31 41 q4 3 21 10 q61 27 112 63 q51 36 85 100 l-150 0 q-24 0 -37 13 q-13 13 -13 37 q0 24 13 37 q13 13 37 13 l181 0 q1 7 2 17 q1 10 1 15 q0 24 13 37 q13 13 37 13 q24 0 37 -13 q13 -13 13 -37 q0 -5 -1 -15 q-1 -10 -2 -17 l275 0 Z" /><glyph glyph-name="uni52A8" unicode="&#x52a8;" d="M818 628 q47 0 74 -24.5 q27 -24.5 27 -71.5 q0 -72 -6 -246 q-6 -174 -13 -224 q-6 -42 -13.5 -68 q-7.5 -26 -21.5 -43 q-16 -20 -41 -29.5 q-25 -9.5 -64 -9.5 l-70 0 q-24 0 -37 13 q-13 13 -13 37 q0 24 13 37 q13 13 37 13 l20 0 q40 0 59 13 q19 13 23.5 28.5 q4.5 15.5 9.5 48.5 q5 34 8.5 183.5 q3.5 149.5 3.5 222.5 q0 20 -20 20 l-101 0 q-2 -162 -14 -269.5 q-12 -107.5 -43.5 -189.5 q-31.5 -82 -91.5 -146 q-16 -19 -35 -19 q-17 0 -34 17 q-19 16 -19 37 q0 18 14 32 q50 52 76 127 q26 75 36 172 q10 97 11 239 l-63 0 q-24 0 -37 13 q-13 13 -13 37 q0 24 13 37 q13 13 37 13 l64 0 l0 14 l0 106 q0 24 13 37 q13 13 37 13 q24 0 37 -13 q13 -13 13 -37 l0 -101 l0 -19 l124 0 ZM153 639 q-24 0 -37 13 q-13 13 -13 37 q0 24 13 37 q13 13 37 13 l261 0 q24 0 37 -13 q13 -13 13 -37 q0 -24 -13 -37 q-13 -13 -37 -13 l-261 0 ZM502 76 q2 -12 2 -18 q0 -17 -8.5 -27.5 q-8.5 -10.5 -28.5 -17.5 q-9 -3 -18 -3 q-26 0 -38 26 l-296 -32 q-25 -2 -39.5 12 q-14.5 14 -14.5 42 q0 10 3.5 17 q3.5 7 15.5 25 q42 80 65.5 139.5 q23.5 59.5 48.5 141.5 l-78 0 q-24 0 -37 13 q-13 13 -13 37 q0 24 13 37 q13 13 37 13 l332 0 q24 0 37 -13 q13 -13 13 -37 q0 -24 -13 -37 q-13 -13 -37 -13 l-143 0 q-41 -138 -93 -242 q-5 -10 -5 -15 q0 -10 16 -9 l150 16 q-15 38 -37 83 q-7 16 -7 26 q0 23 30 39 q14 9 28 9 q25 0 40 -31 q32 -69 47.5 -105.5 q15.5 -36.5 27.5 -75.5 Z" /><glyph glyph-name="uni533A" unicode="&#x533a;" d="M887 23 q24 0 37 -13 q13 -13 13 -37 q0 -24 -13 -37 q-13 -13 -37 -13 l-682 0 q-49 0 -74.5 25.5 q-25.5 25.5 -25.5 74.5 l0 635 q0 49 25.5 74.5 q25.5 25.5 74.5 25.5 l662 0 q24 0 37 -13 q13 -13 13 -37 q0 -24 -13 -37 q-13 -13 -37 -13 l-642 0 q-20 0 -20 -20 l0 -595 q0 -20 20 -20 l662 0 ZM270 101 q-12 17 -12 32 q0 21 22 38 q87 51 225 187 q-115 107 -185 156 q-24 17 -24 37 q0 15 10 31 q16 25 37 25 q15 0 32 -11 q85 -57 199 -167 q89 95 136 166 q17 24 37 24 q15 0 32 -11 q24 -15 24 -38 q0 -16 -11 -31 q-50 -76 -146 -180 q122 -122 185 -207 q12 -18 12 -33 q0 -21 -22 -37 q-16 -12 -33 -12 q-21 0 -37 20 q-58 81 -175 198 q-62 -62 -124.5 -114.5 q-62.5 -52.5 -111.5 -83.5 q-16 -12 -32 -12 q-20 0 -38 23 Z" /><glyph glyph-name="uni534F" unicode="&#x534f;" d="M235 451 l0 -502 q0 -24 -13 -37 q-13 -13 -37 -13 q-24 0 -37 13 q-13 13 -13 37 l0 502 l-34 0 q-24 0 -37 13 q-13 13 -13 37 q0 24 13 37 q13 13 37 13 l34 0 l0 181 q0 24 13 37 q13 13 37 13 q24 0 37 -13 q13 -13 13 -37 l0 -181 l41 0 q24 0 37 -13 q13 -13 13 -37 q0 -24 -13 -37 q-13 -13 -37 -13 l-41 0 ZM728 641 q48 0 74 -25.5 q26 -25.5 27 -75.5 q2 -59 -8.5 -244 q-10.5 -185 -18.5 -242 q-6 -42 -13.5 -68 q-7.5 -26 -21.5 -43 q-16 -20 -41 -29.5 q-25 -9.5 -64 -9.5 l-60 0 q-24 0 -37 13 q-13 13 -13 37 q0 24 13 37 q13 13 37 13 l10 0 q40 0 59 13 q19 13 23.5 29.5 q4.5 16.5 7.5 47.5 q7 72 14.5 225.5 q7.5 153.5 7.5 201.5 q0 20 -20 20 l-92 0 q-31 -458 -212 -618 q-17 -18 -35 -18 q-18 0 -34 17 q-19 16 -19 36 q0 18 16 34 q73 82 122.5 210.5 q49.5 128.5 63.5 338.5 l-113 0 q-24 0 -37 13 q-13 13 -13 37 q0 24 13 37 q13 13 37 13 l117 0 l0 60 l0 31 q0 24 13 37 q13 13 37 13 q24 0 37 -13 q13 -13 13 -37 l-1 -91 l111 0 ZM365 183 q-17 -27 -41 -27 q-13 0 -27 7 q-28 16 -28 41 q0 12 8 28 q25 49 45 97.5 q20 48.5 28 80.5 q11 37 42 37 q9 0 20 -3 q37 -9 37 -42 q0 -11 -2 -17 q-8 -36 -31.5 -94 q-23.5 -58 -50.5 -108 ZM972 247 q3 -49 -44 -56 q-23 -3 -38 8.5 q-15 11.5 -18 35.5 q-8 52 -15 78 q-7 26 -20 58 q-4 11 -4 21 q0 28 34 43 q13 5 23 5 q28 0 41 -33 q15 -35 24.5 -70.5 q9.5 -35.5 16.5 -89.5 Z" /><glyph glyph-name="uni5355" unicode="&#x5355;" d="M884 158 q24 0 37 -13 q13 -13 13 -37 q0 -24 -13 -37 q-13 -13 -37 -13 l-335 0 l0 -99 q0 -24 -12.5 -37 q-12.5 -13 -37.5 -13 q-23 0 -36.5 13 q-13.5 13 -13.5 37 l0 99 l-333 0 q-24 0 -37 13 q-13 13 -13 37 q0 24 13 37 q13 13 37 13 l333 0 l0 61 l-218 0 q-49 0 -74.5 25.5 q-25.5 25.5 -25.5 74.5 l0 261 q0 49 25.5 74.5 q25.5 25.5 74.5 25.5 l53 0 l-16 18 q-20 22 -20 40 q0 16 12 31 q17 20 37 20 q17 0 34 -13 q32 -27 77 -96 l176 0 q17 23 19 25 q23 30 37 53 q19 33 44 33 q9 0 22 -5 q31 -13 31 -43 q0 -12 -4 -23 q-5 -12 -23 -40 l59 0 q49 0 74.5 -25.5 q25.5 -25.5 25.5 -74.5 l0 -261 q0 -49 -25.5 -74.5 q-25.5 -25.5 -74.5 -25.5 l-220 0 l0 -61 l335 0 ZM251 580 q-20 0 -20 -20 l0 -60 l218 0 l0 80 l-198 0 ZM769 560 q0 20 -20 20 l-200 0 l0 -80 l220 0 l0 60 ZM449 319 l0 81 l-218 0 l0 -61 q0 -20 20 -20 l198 0 ZM749 319 q20 0 20 20 l0 61 l-220 0 l0 -81 l200 0 Z" /><glyph glyph-name="uni535A" unicode="&#x535a;" d="M375 610 q-24 0 -37 13 q-13 13 -13 37 q0 24 13 37 q13 13 37 13 l194 0 l0 28 q0 24 13 37 q13 13 37 13 q24 0 37 -13 q13 -13 13 -37 l0 -28 l83 0 l-9 17 q-7 13 -7 25 q0 28 30 41 q14 8 27 8 q25 0 40 -28 l25 -48 q5 -8 6 -15 l20 0 q24 0 37 -13 q13 -13 13 -37 q0 -24 -13 -37 q-13 -13 -37 -13 l-215 0 l0 -31 l133 0 q49 0 74.5 -25.5 q25.5 -25.5 25.5 -74.5 l0 -205 q0 -24 -13 -37 q-13 -13 -37 -13 q-22 0 -35 11.5 q-13 11.5 -15 32.5 l-133 0 q-2 -20 -15 -31 q-13 -11 -35 -11 q-22 0 -35 11 q-13 11 -15 31 l-139 0 q-2 -21 -15 -32.5 q-13 -11.5 -35 -11.5 q-24 0 -37 13 q-13 13 -13 37 l0 205 q0 49 25.5 74.5 q25.5 25.5 74.5 25.5 l139 0 l0 31 l-194 0 ZM312 516 q0 -24 -13 -37 q-13 -13 -37 -13 l-20 0 l0 -519 q0 -24 -13 -37 q-13 -13 -37 -13 q-24 0 -37 13 q-13 13 -13 37 l0 519 l-37 0 q-24 0 -37 13 q-13 13 -13 37 q0 24 13 37 q13 13 37 13 l37 0 l0 164 q0 24 13 37 q13 13 37 13 q24 0 37 -13 q13 -13 13 -37 l0 -164 l20 0 q24 0 37 -13 q13 -13 13 -37 ZM450 489 q-20 0 -20 -20 l0 -18 l139 0 l0 38 l-119 0 ZM669 489 l0 -38 l133 0 l0 18 q0 20 -20 20 l-113 0 ZM569 343 l0 33 l-139 0 l0 -33 l139 0 ZM802 343 l0 33 l-133 0 l0 -33 l133 0 ZM894 193 q24 0 37 -13 q13 -13 13 -37 q0 -24 -13 -37 q-13 -13 -37 -13 l-66 0 l0 -44 q0 -150 -100 -150 l-98 0 q-24 0 -37 13 q-13 13 -13 37 q0 24 13 37 q13 13 37 13 l48 0 q31 0 40.5 21 q9.5 21 9.5 69 l0 4 l-233 0 l51 -38 q23 -15 23 -38 q0 -15 -12 -32 q-17 -21 -38 -21 q-14 0 -33 11 l-69 50 q-21 15 -21 37 q0 16 12 31 l-68 0 q-24 0 -37 13 q-13 13 -13 37 q0 24 13 37 q13 13 37 13 l388 0 q2 20 15 31 q13 11 35 11 q22 0 35 -11 q13 -11 15 -31 l66 0 Z" /><glyph glyph-name="uni5361" unicode="&#x5361;" d="M885 444 q24 0 37 -13 q13 -13 13 -37 q0 -24 -13 -37 q-13 -13 -37 -13 l-362 0 l0 -385 q0 -24 -13 -37 q-13 -13 -37 -13 q-24 0 -37 13 q-13 13 -13 37 l0 385 l-309 0 q-24 0 -37 13 q-13 13 -13 37 q0 24 13 37 q13 13 37 13 l296 0 l0 302 q0 24 13 37 q13 13 37 13 q24 0 37 -13 q13 -13 13 -37 l0 -73 l291 0 q24 0 37 -13 q13 -13 13 -37 q0 -24 -13 -37 q-13 -13 -37 -13 l-291 0 l0 -129 l375 0 ZM845 128 q20 -18 20 -37 q0 -15 -14 -34 q-16 -19 -36 -19 q-15 0 -34 14 q-38 30 -102.5 74.5 q-64.5 44.5 -108.5 68.5 q-29 15 -29 40 q0 10 7 27 q14 29 39 29 q12 0 28 -8 q56 -34 125.5 -80.5 q69.5 -46.5 104.5 -74.5 Z" /><glyph glyph-name="uni538B" unicode="&#x538b;" d="M231 477 q0 -164 -17.5 -296 q-17.5 -132 -73.5 -258 q-14 -30 -40 -30 q-13 0 -26 7 q-15 7 -23 17.5 q-8 10.5 -8 23.5 q0 11 6 25 q51 118 66.5 252 q15.5 134 15.5 293 l0 69 l0 73 q0 49 25.5 74.5 q25.5 25.5 74.5 25.5 l654 0 q24 0 37 -13 q13 -13 13 -37 q0 -24 -13 -37 q-13 -13 -37 -13 l-634 0 q-20 0 -20 -20 l0 -48 l0 -108 ZM895 30 q24 0 37 -13 q13 -13 13 -37 q0 -24 -13 -37 q-13 -13 -37 -13 l-627 0 q-24 0 -37 13 q-13 13 -13 37 q0 24 13 37 q13 13 37 13 l255 0 l0 296 l-185 0 q-24 0 -37 13 q-13 13 -13 37 q0 24 13 37 q13 13 37 13 l185 0 l0 119 q0 24 13 37 q13 13 37 13 q24 0 37 -13 q13 -13 13 -37 l0 -119 l219 0 q24 0 37 -13 q13 -13 13 -37 q0 -24 -13 -37 q-13 -13 -37 -13 l-219 0 l0 -296 l272 0 ZM763 267 q44 -43 70 -72.5 q26 -29.5 46 -62.5 q10 -18 10 -32 q0 -24 -25 -39 q-18 -10 -32 -10 q-25 0 -38 25 q-27 35 -100 120 q-17 17 -17 35 q0 17 17 36 q15 16 33 16 q19 0 36 -16 Z" /><glyph glyph-name="uni539F" unicode="&#x539f;" d="M661 204 l0 -155 q0 -150 -100 -150 l-103 0 q-24 0 -37 13 q-13 13 -13 37 q0 24 13 37 q13 13 37 13 l53 0 q31 0 40.5 21 q9.5 21 9.5 69 l0 115 l-155 0 q-49 0 -74.5 25.5 q-25.5 25.5 -25.5 74.5 l0 192 q0 49 25.5 74.5 q25.5 25.5 74.5 25.5 l89 0 l22 67 l-256 0 q-20 0 -20 -20 l0 -58 l1 -129 q0 -156 -18 -284 q-18 -128 -74 -249 q-14 -30 -40 -30 q-13 0 -26 7 q-15 7 -23 17.5 q-8 10.5 -8 23.5 q0 11 6 25 q51 112 66.5 240 q15.5 128 15.5 281 l0 93 l0 83 q0 49 25.5 74.5 q25.5 25.5 74.5 25.5 l644 0 q24 0 37 -13 q13 -13 13 -37 q0 -24 -13 -37 q-13 -13 -37 -13 l-262 0 l-22 -67 l194 0 q49 0 74.5 -25.5 q25.5 -25.5 25.5 -74.5 l0 -192 q0 -49 -25.5 -74.5 q-25.5 -25.5 -74.5 -25.5 l-134 0 ZM426 496 q-20 0 -20 -20 l0 -31 l389 0 l0 31 q0 20 -20 20 l-349 0 ZM406 324 q0 -20 20 -20 l349 0 q20 0 20 20 l0 31 l-389 0 l0 -31 ZM436 171 q25 -17 25 -36 q0 -14 -12 -34 q-44 -60 -76.5 -94.5 q-32.5 -34.5 -62.5 -55.5 l-10 -7 q-17 -13 -34 -13 q-19 0 -36 17 q-15 15 -15 32 q0 20 19 39 l7 6 q35 30 67.5 63.5 q32.5 33.5 50.5 59.5 l6 9 q15 24 40 24 q17 0 31 -10 ZM931 21 q12 -16 12 -31 q0 -21 -22 -39 q-14 -13 -31 -13 q-20 0 -39 22 q-13 17 -49 54.5 q-36 37.5 -50 52.5 l-20 20 q-20 20 -20 39 q0 16 13 32 q17 21 37 21 q17 0 33 -15 q92 -86 136 -143 Z" /><glyph glyph-name="uni53C8" unicode="&#x53c8;" d="M898 -14 q16 -7 24.5 -18 q8.5 -11 8.5 -25 q0 -11 -6 -23 q-15 -32 -43 -32 q-10 0 -23 5 l-30 12 q-91 34 -172.5 76.5 q-81.5 42.5 -168.5 119.5 q-142 -115 -347 -201 q-14 -6 -25 -6 q-27 0 -42 32 q-6 12 -6 24 q0 13 8 24 q8 11 23 17 q184 82 315 182 q-133 143 -236 350 q-6 14 -6 24 q0 29 32 44 q13 5 23 5 q30 0 45 -32 q80 -186 219 -325 q92 87 148 181 q56 94 99 208 q1 3 1 8 q0 7 -5 11 q-5 4 -13 4 l-555 0 q-24 0 -37 13 q-13 13 -13 37 q0 24 13 37 q13 13 37 13 l645 0 q39 0 48 -37 q2 -6 2 -20 q0 -27 -9 -51 q-51 -144 -118.5 -260 q-67.5 -116 -167.5 -213 q90 -75 177 -118.5 q87 -43.5 155 -65.5 Z" /><glyph glyph-name="uni53C9" unicode="&#x53c9;" d="M898 -14 q16 -7 24.5 -18 q8.5 -11 8.5 -25 q0 -11 -6 -23 q-15 -32 -43 -32 q-10 0 -23 5 l-38 15 q-96 36 -173.5 76 q-77.5 40 -161.5 115 q-140 -113 -345 -199 q-14 -6 -25 -6 q-27 0 -42 32 q-6 12 -6 24 q0 13 8 24 q8 11 23 17 q184 81 313 181 q-132 147 -225 359 q-6 14 -6 24 q0 29 32 44 q13 5 23 5 q30 0 45 -32 q73 -194 208 -334 q92 87 148 180.5 q56 93.5 101 209.5 q1 3 1 8 q0 7 -5 11 q-5 4 -13 4 l-565 0 q-24 0 -37 13 q-13 13 -13 37 q0 24 13 37 q13 13 37 13 l655 0 q39 0 48 -37 q2 -6 2 -20 q0 -27 -9 -51 q-51 -144 -119.5 -261 q-68.5 -117 -168.5 -214 q144 -121 334 -182 ZM557 415 q-13 -8 -29 -8 q-27 0 -39 25 q-3 4 -6 9 q-3 5 -6 10 q-36 57 -50 75 q-17 20 -17 38 q0 15 15 33 q16 16 36 16 q19 0 35 -15 q17 -17 41 -53.5 q24 -36.5 37 -60.5 q9 -13 9 -27 q0 -24 -26 -42 Z" /><glyph glyph-name="uni53CB" unicode="&#x53cb;" d="M403 597 q-12 -57 -27 -111 l444 0 q27 0 42 -19 q15 -19 15 -46 q0 -22 -13 -45 q-94 -153 -211 -260 q98 -74 234 -127 q36 -14 36 -43 q0 -9 -3 -19 q-5 -18 -16.5 -27 q-11.5 -9 -26.5 -9 q-11 0 -20 4 q-158 65 -279 160 q-121 -91 -282 -161 q-15 -6 -26 -6 q-26 0 -41 31 q-6 12 -6 24 q0 28 32 42 q152 67 248 134 q-78 75 -136 165 q-11 17 -11 31 q0 22 23 37 q17 11 32 11 q23 0 37 -23 q62 -96 131 -161 q82 71 163 184 q3 5 3 9 q0 6 -6 10 q-6 4 -14 4 l-378 0 q-85 -263 -200 -433 q-20 -22 -41 -22 q-16 0 -31 11 q-22 18 -22 40 q0 14 10 30 q75 101 136.5 252 q61.5 151 101.5 333 l-173 0 q-24 0 -37 13 q-13 13 -13 37 q0 24 13 37 q13 13 37 13 l193 0 l9 52 q5 23 16.5 33 q11.5 10 33.5 10 q26 0 38.5 -14.5 q12.5 -14.5 10.5 -41.5 q-4 -26 -7 -39 l465 0 q24 0 37 -13 q13 -13 13 -37 q0 -24 -13 -37 q-13 -13 -37 -13 l-484 0 Z" /><glyph glyph-name="uni53CC" unicode="&#x53cc;" d="M420 69 q-16 -7 -25 -7 q-25 0 -41 28 q-15 30 -45 84 q-70 -117 -163 -222 q-18 -18 -36 -18 q-17 0 -36 17 q-18 15 -18 35 q0 17 16 35 q106 125 177 255 q-94 155 -145 213 q-13 14 -13 32 q0 19 19 38 q16 14 33 14 q21 0 37 -21 q36 -41 119 -170 q51 128 57 243 l0 4 q0 19 -17 19 l-216 0 q-24 0 -37 13 q-13 13 -13 37 q0 24 13 37 q13 13 37 13 l302 0 q25 0 37.5 -14.5 q12.5 -14.5 12.5 -37.5 q0 -12 -3.5 -29.5 q-3.5 -17.5 -5.5 -26.5 q-18 -103 -40 -187 q-22 -84 -63 -175 q51 -85 81 -141 q6 -13 6 -26 q0 -27 -30 -42 ZM924 -14 q20 -17 20 -37 q0 -18 -15 -33 q-18 -19 -38 -19 q-17 0 -33 13 q1 -1 -26 23 q-45 40 -79 75 q-34 35 -67 83 q-90 -109 -218 -192 q-14 -10 -29 -10 q-23 0 -41 26 q-10 15 -10 28 q0 23 25 40 q132 84 218 198 q-76 149 -118 368 q-1 24 11 38.5 q12 14.5 36 16.5 q23 1 38 -11.5 q15 -12.5 18 -36.5 q26 -158 80 -277 q47 85 71 169.5 q24 84.5 39 176.5 l0 5 q0 18 -17 18 l-241 0 q-24 0 -37 13 q-13 13 -13 37 q0 24 13 37 q13 13 37 13 l327 0 q25 0 37.5 -15 q12.5 -15 12.5 -38 q0 -17 -9 -55 q-23 -102 -41.5 -169 q-18.5 -67 -49 -144 q-30.5 -77 -75.5 -148 q38 -59 74 -96.5 q36 -37.5 100 -96.5 Z" /><glyph glyph-name="uni53D1" unicode="&#x53d1;" d="M654 700 q-31 20 -31 46 q0 12 6 25 q14 27 37 27 q13 0 27 -7 q61 -32 96 -61 q23 -18 23 -39 q0 -15 -12 -32 q-15 -21 -38 -21 q-17 0 -31 11 q0 0 -54 36 l-23 15 ZM886 -6 q18 -6 27.5 -17.5 q9.5 -11.5 9.5 -26.5 q0 -6 -4 -20 q-12 -35 -44 -35 q-8 0 -19 3 q-80 29 -147 59 q-67 30 -134 76 q-73 -43 -150 -75.5 q-77 -32.5 -142 -51.5 q-15 -5 -23 -5 q-28 0 -43 34 q-5 13 -5 22 q0 14 8.5 25 q8.5 11 23.5 17 q8 3 54 18.5 q46 15.5 97.5 37 q51.5 21.5 95.5 43.5 q-87 77 -146 180 q-49 -96 -102.5 -172.5 q-53.5 -76.5 -101.5 -129.5 q-16 -18 -36 -18 q-19 0 -35 15 q-18 16 -18 36 q0 17 15 35 q87 103 154 216 q67 113 115 253 l-193 0 q-21 0 -33.5 10 q-12.5 10 -15.5 29 q-1 4 -1 12 q0 11 2 17 l43 150 q11 38 45 38 q11 0 17 -2 q18 -4 28 -15.5 q10 -11.5 10 -27.5 q0 -9 -3 -18 l-20 -71 q-1 -2 -1 -7 q0 -7 5 -11 q5 -4 13 -4 l135 0 q17 61 30 127 q3 21 15 32 q12 11 32 11 l10 -1 q21 -3 32 -15.5 q11 -12.5 11 -31.5 l-1 -10 q-8 -43 -25 -112 l410 0 q24 0 37 -13 q13 -13 13 -37 q0 -24 -13 -37 q-13 -13 -37 -13 l-439 0 l-27 -76 l395 0 q39 0 48 -37 q2 -7 2 -22 q0 -25 -9 -49 q-50 -129 -187 -235 q104 -62 222 -100 ZM424 337 q47 -101 158 -187 q116 77 155 164 q2 6 2 8 q0 7 -5.5 11 q-5.5 4 -13.5 4 l-296 0 Z" /><glyph glyph-name="uni53D6" unicode="&#x53d6;" d="M477 82 l0 -135 q0 -24 -13 -37 q-13 -13 -37 -13 q-24 0 -37 13 q-13 13 -13 37 l0 116 l-280 -53 q-26 -2 -41 11 q-15 13 -15 41 q0 42 44 48 l35 7 l0 544 l-6 0 q-24 0 -37 13 q-13 13 -13 37 q0 24 13 37 q13 13 37 13 l356 0 q24 0 37 -13 q13 -13 13 -37 q0 -45 -43 -50 l0 -476 l17 3 q48 5 56 -43 q1 -4 1 -11 q0 -19 -11.5 -31 q-11.5 -12 -31.5 -15 l-31 -6 ZM927 11 q18 -18 18 -38 q0 -19 -16 -34 q-19 -17 -38 -17 q-18 0 -34 15 q-72 79 -127 166 q-55 -76 -137 -155 q-17 -17 -37 -17 q-19 0 -36 16 q-16 15 -16 34 q0 18 15 35 q86 83 154 186 q-81 155 -118 332 q-1 4 -1 12 q0 38 43 47 q4 1 11 1 q39 0 48 -42 q19 -121 75 -245 q66 137 84 294 l0 5 q0 18 -17 18 l-215 0 q-24 0 -37 13 q-13 13 -13 37 q0 24 13 37 q13 13 37 13 l287 0 q30 0 42.5 -16 q12.5 -16 12.5 -46 q0 -18 -5 -46 q-25 -137 -54 -234.5 q-29 -97.5 -77 -184.5 q60 -99 138 -186 ZM377 661 l-157 0 l0 -100 l157 0 l0 100 ZM220 461 l0 -103 l157 0 l0 103 l-157 0 ZM220 136 l157 30 l0 92 l-157 0 l0 -122 Z" /><glyph glyph-name="uni53D8" unicode="&#x53d8;" d="M130 599 q-24 0 -37 13 q-13 13 -13 37 q0 24 13 37 q13 13 37 13 l324 0 q-1 4 -8 20 q-9 18 -9 33 q0 20 21 37 q17 10 29 10 q23 0 42 -25 q18 -29 32 -75 l311 0 q24 0 37 -13 q13 -13 13 -37 q0 -24 -13 -37 q-13 -13 -37 -13 l-213 0 l0 -179 q0 -24 -13 -37 q-13 -13 -37 -13 q-24 0 -37 13 q-13 13 -13 37 l0 179 l-123 0 l0 -179 q0 -24 -13 -37 q-13 -13 -37 -13 q-24 0 -37 13 q-13 13 -13 37 l0 179 l-206 0 ZM931 431 q18 -21 18 -38 q0 -16 -13 -33 q-19 -19 -38 -19 q-19 0 -32 17 l-44 37 q-74 64 -96 79 q-29 21 -29 44 q0 9 7 25 q15 25 41 25 q15 0 29 -7 q28 -18 85 -65 q57 -47 72 -65 ZM134 349 q-19 -13 -35 -13 q-18 0 -37 18 q-13 16 -13 35 q0 23 22 35 l51 43 q71 57 89 76 q21 21 42 21 q15 0 30 -11 q19 -16 19 -36 q0 -15 -13 -35 q-21 -25 -78 -74 q-57 -49 -77 -59 ZM895 -24 q39 -9 39 -41 q0 -11 -4 -20 q-12 -39 -45 -39 q-5 0 -15 2 l-36 7 q-93 16 -178.5 39.5 q-85.5 23.5 -180.5 69.5 q-74 -30 -149.5 -53 q-75.5 -23 -188.5 -55 q-12 -2 -16 -2 q-32 0 -44 40 q-2 10 -2 14 q0 17 10 29 q10 12 29 16 q164 41 253 73 q-74 48 -133 104 q-12 17 -12 33 q0 21 19 39 q17 12 34 12 q22 0 40 -20 q68 -72 161 -125 q116 52 210 123 q6 5 6 11 q0 12 -14 12 l-495 0 q-24 0 -37 13 q-13 13 -13 37 q0 24 13 37 q13 13 37 13 l602 0 q39 0 48 -37 q4 -20 4 -32 q0 -24 -11 -39 q-79 -109 -236 -190 q69 -26 131 -39.5 q62 -13.5 137 -25.5 l37 -6 Z" /><glyph glyph-name="uni53EF" unicode="&#x53ef;" d="M899 742 q24 0 37 -13 q13 -13 13 -37 q0 -24 -13 -37 q-13 -13 -37 -13 l-65 0 l0 -593 q0 -150 -100 -150 l-163 0 q-24 0 -37 13 q-13 13 -13 37 q0 24 13 37 q13 13 37 13 l113 0 q31 0 40.5 21 q9.5 21 9.5 69 l0 553 l-625 0 q-24 0 -37 13 q-13 13 -13 37 q0 24 13 37 q13 13 37 13 l790 0 ZM598 209 q0 -49 -25.5 -74.5 q-25.5 -25.5 -74.5 -25.5 l-256 0 q-49 0 -74.5 25.5 q-25.5 25.5 -25.5 74.5 l0 228 q0 49 25.5 74.5 q25.5 25.5 74.5 25.5 l256 0 q49 0 74.5 -25.5 q25.5 -25.5 25.5 -74.5 l0 -228 ZM498 417 q0 20 -20 20 l-216 0 q-20 0 -20 -20 l0 -188 q0 -20 20 -20 l216 0 q20 0 20 20 l0 188 Z" /><glyph glyph-name="uni53F0" unicode="&#x53f0;" d="M900 471 q13 -17 13 -33 q0 -20 -22 -38 q-15 -12 -31 -12 q-22 0 -38 20 q-3 6 -9 12 l-658 -24 q-24 -1 -37 12 q-13 13 -15 37 l0 7 q0 3 2 11 q3 14 15 23 l5 4 q24 15 79 69.5 q55 54.5 108 115.5 q53 61 74 96 q16 23 38 23 q15 0 31 -10 q24 -16 24 -38 q0 -15 -12 -32 q-23 -35 -67.5 -85.5 q-44.5 -50.5 -95.5 -101.5 q-7 -7 -7 -14 q0 -5 4.5 -8 q4.5 -3 12.5 -2 l413 14 q-47 49 -97 92 q-21 18 -21 37 q0 14 13 33 q16 22 37 22 q16 0 33 -14 q50 -42 115 -110 q65 -68 93 -106 ZM753 338 q49 0 74.5 -25.5 q25.5 -25.5 25.5 -74.5 l0 -205 q0 -49 -25.5 -74.5 q-25.5 -25.5 -74.5 -25.5 l-509 0 q-49 0 -74.5 25.5 q-25.5 25.5 -25.5 74.5 l0 205 q0 49 25.5 74.5 q25.5 25.5 74.5 25.5 l509 0 ZM753 218 q0 20 -20 20 l-469 0 q-20 0 -20 -20 l0 -165 q0 -20 20 -20 l469 0 q20 0 20 20 l0 165 Z" /><glyph glyph-name="uni53F7" unicode="&#x53f7;" d="M256 458 q-49 0 -74.5 25.5 q-25.5 25.5 -25.5 74.5 l0 107 q0 49 25.5 74.5 q25.5 25.5 74.5 25.5 l487 0 q49 0 74.5 -25.5 q25.5 -25.5 25.5 -74.5 l0 -107 q0 -49 -25.5 -74.5 q-25.5 -25.5 -74.5 -25.5 l-487 0 ZM256 578 q0 -20 20 -20 l447 0 q20 0 20 20 l0 67 q0 20 -20 20 l-447 0 q-20 0 -20 -20 l0 -67 ZM893 423 q24 0 37 -13 q13 -13 13 -37 q0 -24 -13 -37 q-13 -13 -37 -13 l-588 0 l-9 -47 l-1 -4 q0 -8 6 -12 q6 -4 15 -4 l403 0 q47 0 74 -24.5 q27 -24.5 27 -69.5 q0 -82 -21 -143 q-39 -119 -140 -119 l-223 0 q-24 0 -37 13 q-13 13 -13 37 q0 24 13 37 q13 13 37 13 l173 0 q69 0 92 58 q10 25 14 78 l0 2 q0 18 -20 18 l-401 0 q-46 0 -74 21 q-28 21 -28 60 q0 7 2 19 l12 67 l-99 0 q-24 0 -37 13 q-13 13 -13 37 q0 24 13 37 q13 13 37 13 l786 0 Z" /><glyph glyph-name="uni5403" unicode="&#x5403;" d="M474 463 q-20 -23 -40 -23 q-14 0 -30 10 l-2 1 l0 -334 q0 -49 -25.5 -74.5 q-25.5 -25.5 -74.5 -25.5 l-121 0 q-49 0 -74.5 25.5 q-25.5 25.5 -25.5 74.5 l0 503 q0 49 25.5 74.5 q25.5 25.5 74.5 25.5 l121 0 q49 0 74.5 -25.5 q25.5 -25.5 25.5 -74.5 l0 -88 q29 40 65.5 114.5 q36.5 74.5 53.5 125.5 q15 33 44 33 q10 0 21 -4 q35 -14 35 -41 q0 -10 -6 -24 q-6 -18 -20 -53 l292 0 q24 0 37 -13 q13 -13 13 -37 q0 -24 -13 -37 q-13 -13 -37 -13 l-339 0 q-45 -87 -74 -120 ZM302 600 q0 20 -20 20 l-81 0 q-20 0 -20 -20 l0 -463 q0 -20 20 -20 l81 0 q20 0 20 20 l0 463 ZM893 172 q26 0 40 -14 q14 -14 12 -40 l-5 -82 q-3 -45 -28 -77 q-33 -43 -99 -43 l-262 0 q-63 0 -96.5 31.5 q-33.5 31.5 -33.5 79.5 q0 26 11 56 q35 89 101 152 q66 63 164 128 q9 6 9 13 q0 5 -5 8.5 q-5 3.5 -13 3.5 l-160 0 q-24 0 -37 13 q-13 13 -13 37 q0 24 13 37 q13 13 37 13 l282 0 q28 0 45.5 -19.5 q17.5 -19.5 17.5 -48.5 q0 -22 -11 -43.5 q-11 -21.5 -33 -37.5 l-56 -42 q-106 -79 -158 -127.5 q-52 -48.5 -71 -101.5 q-5 -15 -5 -24 q0 -28 34 -28 l200 0 q41 0 55 17 q13 18 15 53 l2 39 q2 23 14 35 q12 12 34 12 Z" /><glyph glyph-name="uni540C" unicode="&#x540c;" d="M806 756 q49 0 74.5 -25.5 q25.5 -25.5 25.5 -74.5 l0 -611 q0 -150 -100 -150 l-123 0 q-24 0 -37 13 q-13 13 -13 37 q0 24 13 37 q13 13 37 13 l73 0 q31 0 40.5 21 q9.5 21 9.5 69 l0 551 q0 20 -20 20 l-584 0 q-20 0 -20 -20 l0 -695 q0 -24 -13 -37 q-13 -13 -37 -13 q-24 0 -37 13 q-13 13 -13 37 l0 715 q0 49 25.5 74.5 q25.5 25.5 74.5 25.5 l624 0 ZM288 475 q-24 0 -37 13 q-13 13 -13 37 q0 24 13 37 q13 13 37 13 l412 0 q24 0 37 -13 q13 -13 13 -37 q0 -24 -13 -37 q-13 -13 -37 -13 l-412 0 ZM709 149 q0 -49 -25.5 -74.5 q-25.5 -25.5 -74.5 -25.5 l-230 0 q-49 0 -74.5 25.5 q-25.5 25.5 -25.5 74.5 l0 152 q0 49 25.5 74.5 q25.5 25.5 74.5 25.5 l230 0 q49 0 74.5 -25.5 q25.5 -25.5 25.5 -74.5 l0 -152 ZM609 281 q0 20 -20 20 l-190 0 q-20 0 -20 -20 l0 -112 q0 -20 20 -20 l190 0 q20 0 20 20 l0 112 Z" /><glyph glyph-name="uni540D" unicode="&#x540d;" d="M897 616 q-48 -73 -146.5 -144 q-98.5 -71 -226.5 -135 l262 0 q49 0 74.5 -25.5 q25.5 -25.5 25.5 -74.5 l0 -204 q0 -49 -25.5 -74.5 q-25.5 -25.5 -74.5 -25.5 l-465 0 q-49 0 -74.5 25.5 q-25.5 25.5 -25.5 74.5 l0 179 q-55 -18 -95 -29 q-15 -5 -24 -5 q-28 0 -41 34 q-5 13 -5 23 q0 29 32 41 q151 41 307 112 q-24 36 -41 56 q-17 20 -17 38 q0 17 16 33 q15 16 33 16 q18 0 38 -17 q24 -26 63 -83 q84 42 148.5 83.5 q64.5 41.5 95.5 72.5 q7 7 7 13 q0 10 -14 10 l-343 0 q-57 -55 -115.5 -103 q-58.5 -48 -88.5 -63 q-16 -7 -26 -7 q-26 0 -42 31 q-7 14 -7 24 q0 24 27 43 q55 38 138.5 112 q83.5 74 132.5 129 q18 22 37 22 q13 0 33 -13 q21 -21 21 -40 q0 -18 -15 -33 l-1 -2 l367 0 q28 0 46.5 -19 q18.5 -19 18.5 -44 q0 -17 -10 -31 ZM786 217 q0 20 -20 20 l-425 0 q-20 0 -20 -20 l0 -164 q0 -20 20 -20 l425 0 q20 0 20 20 l0 164 Z" /><glyph glyph-name="uni540E" unicode="&#x540e;" d="M875 515 q24 0 37 -13 q13 -13 13 -37 q0 -24 -13 -37 q-13 -13 -37 -13 l-616 0 q-3 -145 -25 -259 q-22 -114 -83 -213 q-14 -30 -40 -30 q-13 0 -26 7 q-15 7 -23 17.5 q-8 10.5 -8 23.5 q0 11 6 25 q63 110 81.5 214.5 q18.5 104.5 18.5 235.5 l0 74 l0 122 q0 48 27 74.5 q27 26.5 78 26.5 l33 1 q102 -1 233.5 10 q131.5 11 268.5 32 q5 1 13 1 q36 0 44 -41 q1 -5 1 -13 q0 -37 -41 -45 l-24 -3 q-179 -21 -293.5 -31.5 q-114.5 -10.5 -219.5 -10.5 q-9 0 -14.5 -6 q-5.5 -6 -5.5 -15 l0 -97 l615 0 ZM768 328 q49 0 74.5 -25.5 q25.5 -25.5 25.5 -74.5 l0 -195 q0 -49 -25.5 -74.5 q-25.5 -25.5 -74.5 -25.5 l-376 0 q-49 0 -74.5 25.5 q-25.5 25.5 -25.5 74.5 l0 195 q0 49 25.5 74.5 q25.5 25.5 74.5 25.5 l376 0 ZM768 208 q0 20 -20 20 l-336 0 q-20 0 -20 -20 l0 -155 q0 -20 20 -20 l336 0 q20 0 20 20 l0 155 Z" /><glyph glyph-name="uni5411" unicode="&#x5411;" d="M794 694 q49 0 74.5 -25.5 q25.5 -25.5 25.5 -74.5 l0 -539 q0 -150 -100 -150 l-121 0 q-24 0 -37 13 q-13 13 -13 37 q0 24 13 37 q13 13 37 13 l71 0 q31 0 40.5 21 q9.5 21 9.5 69 l0 479 q0 20 -20 20 l-559 0 q-20 0 -20 -20 l0 -626 q0 -24 -13 -37 q-13 -13 -37 -13 q-24 0 -37 13 q-13 13 -13 37 l0 646 q0 49 25.5 74.5 q25.5 25.5 74.5 25.5 l183 0 q10 23 23 64 q5 20 16 29 q11 9 28 9 q4 0 18 -2 q36 -9 36 -43 q0 -9 -3 -20 q0 -2 -10 -37 l308 0 ZM721 166 q0 -49 -25.5 -74.5 q-25.5 -25.5 -74.5 -25.5 l-253 0 q-49 0 -74.5 25.5 q-25.5 25.5 -25.5 74.5 l0 241 q0 49 25.5 74.5 q25.5 25.5 74.5 25.5 l253 0 q49 0 74.5 -25.5 q25.5 -25.5 25.5 -74.5 l0 -241 ZM621 387 q0 20 -20 20 l-213 0 q-20 0 -20 -20 l0 -201 q0 -20 20 -20 l213 0 q20 0 20 20 l0 201 Z" /><glyph glyph-name="uni5416" unicode="&#x5416;" d="M930 774 q26 -15 26 -40 q0 -16 -8 -29 q-29 -48 -67 -96.5 q-38 -48.5 -95 -116.5 q-19 -19 -37 -19 q-16 0 -35 17 q-18 15 -18 35 q0 17 16 35 q109 130 150 196 q15 26 39 26 q13 0 29 -8 ZM644 564 q9 -16 9 -30 q0 -22 -27 -39 q-15 -9 -28 -9 q-23 0 -40 26 q-17 36 -53 85 q-36 49 -76 94 q-15 17 -15 33 q0 16 17 36 q15 17 34 17 q19 0 38 -17 q43 -48 82 -101.5 q39 -53.5 59 -94.5 ZM311 732 q49 0 74.5 -25.5 q25.5 -25.5 25.5 -74.5 l0 -493 q0 -49 -25.5 -74.5 q-25.5 -25.5 -74.5 -25.5 l-137 0 q-49 0 -74.5 25.5 q-25.5 25.5 -25.5 74.5 l0 493 q0 49 25.5 74.5 q25.5 25.5 74.5 25.5 l137 0 ZM311 612 q0 20 -20 20 l-97 0 q-20 0 -20 -20 l0 -453 q0 -20 20 -20 l97 0 q20 0 20 20 l0 453 ZM674 464 q24 0 37 -13 q13 -13 13 -37 l0 -452 q0 -24 -13 -37 q-13 -13 -37 -13 q-24 0 -37 13 q-13 13 -13 37 l0 452 q0 24 13 37 q13 13 37 13 Z" /><glyph glyph-name="uni5426" unicode="&#x5426;" d="M452 536 q-80 -59 -152.5 -100.5 q-72.5 -41.5 -163.5 -88.5 q-15 -6 -27 -6 q-27 0 -40 29 q-6 14 -6 25 q0 29 32 42 q78 37 123.5 60.5 q45.5 23.5 106 63 q60.5 39.5 124.5 94.5 l-299 0 q-24 0 -37 13 q-13 13 -13 37 q0 24 13 37 q13 13 37 13 l696 0 q24 0 37 -13 q13 -13 13 -37 q0 -24 -13 -37 q-13 -13 -37 -13 l-252 0 l-7 -7 q-26 -25 -76 -67 q20 -2 30.5 -14.5 q10.5 -12.5 10.5 -34.5 l0 -150 q0 -24 -13 -37 q-13 -13 -37 -13 q-24 0 -37 13 q-13 13 -13 37 l0 150 l0 4 ZM908 438 q24 -18 24 -39 q0 -14 -11 -31 q-17 -23 -38 -23 q-15 0 -32 11 q-40 26 -113.5 66.5 q-73.5 40.5 -119.5 59.5 q-33 14 -33 42 q0 9 5 24 q14 32 40 32 q12 0 25 -6 q58 -27 136 -69 q78 -42 117 -67 ZM750 316 q49 0 74.5 -25.5 q25.5 -25.5 25.5 -74.5 l0 -176 q0 -49 -25.5 -74.5 q-25.5 -25.5 -74.5 -25.5 l-497 0 q-49 0 -74.5 25.5 q-25.5 25.5 -25.5 74.5 l0 176 q0 49 25.5 74.5 q25.5 25.5 74.5 25.5 l497 0 ZM750 196 q0 20 -20 20 l-457 0 q-20 0 -20 -20 l0 -136 q0 -20 20 -20 l457 0 q20 0 20 20 l0 136 Z" /><glyph glyph-name="uni5427" unicode="&#x5427;" d="M893 194 q28 0 41.5 -15.5 q13.5 -15.5 11.5 -42.5 l-10 -101 q-6 -48 -28 -77 q-33 -43 -99 -43 l-320 0 q-49 0 -74.5 25.5 q-25.5 25.5 -25.5 74.5 l0 642 q0 49 25.5 74.5 q25.5 25.5 74.5 25.5 l318 0 q49 0 74.5 -25.5 q25.5 -25.5 25.5 -74.5 l0 -261 q0 -49 -25.5 -74.5 q-25.5 -25.5 -74.5 -25.5 l-318 0 l0 -231 q0 -24 13 -37 q13 -13 37 -13 l230 0 q41 0 55 17 q14 19 17 53 l6 63 q2 22 14 34 q12 12 32 12 ZM251 722 q49 0 74.5 -25.5 q25.5 -25.5 25.5 -74.5 l0 -453 q0 -49 -25.5 -74.5 q-25.5 -25.5 -74.5 -25.5 l-78 0 q-49 0 -74.5 25.5 q-25.5 25.5 -25.5 74.5 l0 453 q0 49 25.5 74.5 q25.5 25.5 74.5 25.5 l78 0 ZM489 416 q0 -20 20 -20 l86 0 l0 261 l-86 0 q-20 0 -20 -20 l0 -221 ZM807 637 q0 20 -20 20 l-92 0 l0 -261 l92 0 q20 0 20 20 l0 221 ZM251 602 q0 20 -20 20 l-38 0 q-20 0 -20 -20 l0 -413 q0 -20 20 -20 l38 0 q20 0 20 20 l0 413 Z" /><glyph glyph-name="uni542F" unicode="&#x542f;" d="M816 713 q49 0 74.5 -25.5 q25.5 -25.5 25.5 -74.5 l0 -133 q0 -49 -25.5 -74.5 q-25.5 -25.5 -74.5 -25.5 l-565 0 q-3 -134 -29.5 -231.5 q-26.5 -97.5 -90.5 -203.5 q-16 -27 -41 -27 q-14 0 -27 8 q-29 16 -29 42 q0 14 8 26 q40 64 63.5 124.5 q23.5 60.5 35.5 138.5 q12 78 12 188 l0 168 q0 49 25.5 74.5 q25.5 25.5 74.5 25.5 l232 0 q-1 4 -5 12 q-8 18 -8 31 q0 22 23 38 q14 9 28 9 q24 0 42 -24 q12 -19 17.5 -33.5 q5.5 -14.5 8.5 -32.5 l225 0 ZM816 593 q0 20 -20 20 l-523 0 q-20 0 -20 -20 l0 -93 q0 -20 20 -20 l523 0 q20 0 20 20 l0 93 ZM797 312 q49 0 74.5 -25.5 q25.5 -25.5 25.5 -74.5 l0 -184 q0 -49 -25.5 -74.5 q-25.5 -25.5 -74.5 -25.5 l-436 0 q-49 0 -74.5 25.5 q-25.5 25.5 -25.5 74.5 l0 184 q0 49 25.5 74.5 q25.5 25.5 74.5 25.5 l436 0 ZM797 192 q0 20 -20 20 l-396 0 q-20 0 -20 -20 l0 -144 q0 -20 20 -20 l396 0 q20 0 20 20 l0 144 Z" /><glyph glyph-name="uni544A" unicode="&#x544a;" d="M886 447 q24 0 37 -13 q13 -13 13 -37 q0 -24 -13 -37 q-13 -13 -37 -13 l-769 0 q-24 0 -37 13 q-13 13 -13 37 q0 24 13 37 q13 13 37 13 l350 0 l0 128 l-230 0 q-24 -41 -55 -87 q-14 -21 -34 -21 q-17 0 -37 14 q-21 15 -21 36 q0 14 13 33 q31 43 60 95 q29 52 42 90 q5 16 16.5 24.5 q11.5 8.5 25.5 8.5 q11 0 24 -5 q32 -12 32 -41 q0 -11 -6 -25 l-9 -22 l179 0 l0 56 q0 24 13 37 q13 13 37 13 q24 0 37 -13 q13 -13 13 -37 l0 -56 l258 0 q24 0 37 -13 q13 -13 13 -37 q0 -24 -13 -37 q-13 -13 -37 -13 l-258 0 l0 -128 l319 0 ZM755 290 q49 0 74.5 -25.5 q25.5 -25.5 25.5 -74.5 l0 -180 q0 -49 -25.5 -74.5 q-25.5 -25.5 -74.5 -25.5 l-509 0 q-49 0 -74.5 25.5 q-25.5 25.5 -25.5 74.5 l0 180 q0 49 25.5 74.5 q25.5 25.5 74.5 25.5 l509 0 ZM755 170 q0 20 -20 20 l-469 0 q-20 0 -20 -20 l0 -140 q0 -20 20 -20 l469 0 q20 0 20 20 l0 140 Z" /><glyph glyph-name="uni548C" unicode="&#x548c;" d="M384 368 q68 -85 87 -122 q8 -14 8 -26 q0 -23 -25 -36 q-13 -7 -24 -7 q-22 0 -39 25 q-21 33 -68 96 l0 -336 q0 -24 -13 -37 q-13 -13 -37 -13 q-24 0 -37 13 q-13 13 -13 37 l0 325 q-31 -64 -60.5 -117 q-29.5 -53 -47.5 -74 q-17 -23 -37 -23 q-13 0 -27 9 q-22 15 -22 36 q0 14 9 27 q40 60 84.5 144 q44.5 84 69.5 148 l-77 0 q-24 0 -37 13 q-13 13 -13 37 q0 24 13 37 q13 13 37 13 l108 0 l0 108 q-88 -16 -109 -16 q-22 0 -35 13.5 q-13 13.5 -13 38.5 q0 21 11.5 33.5 q11.5 12.5 32.5 14.5 q39 3 137.5 20.5 q98.5 17.5 142.5 28.5 q5 1 14 1 q35 0 44 -40 q2 -12 2 -16 q0 -34 -39 -43 q-15 -4 -88 -18 l0 -125 l104 0 q24 0 37 -13 q13 -13 13 -37 q0 -24 -13 -37 q-13 -13 -37 -13 l-104 0 l0 -61 q13 10 27 10 q19 0 34 -18 ZM815 723 q49 0 74.5 -25.5 q25.5 -25.5 25.5 -74.5 l0 -575 q0 -49 -25.5 -74.5 q-25.5 -25.5 -74.5 -25.5 l-205 0 q-49 0 -74.5 25.5 q-25.5 25.5 -25.5 74.5 l0 575 q0 49 25.5 74.5 q25.5 25.5 74.5 25.5 l205 0 ZM815 603 q0 20 -20 20 l-165 0 q-20 0 -20 -20 l0 -535 q0 -20 20 -20 l165 0 q20 0 20 20 l0 535 Z" /><glyph glyph-name="uni54C8" unicode="&#x54c8;" d="M922 497 q24 -16 24 -39 q0 -15 -11 -31 q-16 -24 -39 -24 q-14 0 -31 11 q-32 23 -59 50 q2 -10 2 -18 q0 -24 -13 -37 q-13 -13 -37 -13 l-230 0 q-24 0 -37 13 q-13 13 -13 37 l0 8 q-11 -11 -39 -35 q-14 -11 -31 -11 q-17 0 -31 14 l0 -276 q0 -49 -25.5 -74.5 q-25.5 -25.5 -74.5 -25.5 l-107 0 q-49 0 -74.5 25.5 q-25.5 25.5 -25.5 74.5 l0 464 q0 49 25.5 74.5 q25.5 25.5 74.5 25.5 l107 0 q49 0 74.5 -25.5 q25.5 -25.5 25.5 -74.5 l0 -112 l5 4 q69 65 111 122 q42 57 92 154 q9 14 25 21 q16 7 35 7 q19 0 34.5 -7 q15.5 -7 23.5 -21 q56 -102 109.5 -170.5 q53.5 -68.5 109.5 -110.5 ZM758 496 q11 0 20 -3 q-59 66 -126 180 q-1 4 -8 4 q-5 0 -8 -4 l-17 -29 q-29 -49 -50.5 -82 q-21.5 -33 -50.5 -67 q3 1 10 1 l230 0 ZM277 590 q0 20 -20 20 l-67 0 q-20 0 -20 -20 l0 -424 q0 -20 20 -20 l67 0 q20 0 20 20 l0 424 ZM779 329 q49 0 74.5 -25.5 q25.5 -25.5 25.5 -74.5 l0 -196 q0 -49 -25.5 -74.5 q-25.5 -25.5 -74.5 -25.5 l-270 0 q-49 0 -74.5 25.5 q-25.5 25.5 -25.5 74.5 l0 196 q0 49 25.5 74.5 q25.5 25.5 74.5 25.5 l270 0 ZM779 209 q0 20 -20 20 l-230 0 q-20 0 -20 -20 l0 -156 q0 -20 20 -20 l230 0 q20 0 20 20 l0 156 Z" /><glyph glyph-name="uni54E5" unicode="&#x54e5;" d="M141 664 q-24 0 -37 13 q-13 13 -13 37 q0 24 13 37 q13 13 37 13 l738 0 q24 0 37 -13 q13 -13 13 -37 q0 -24 -13 -37 q-13 -13 -37 -13 l-39 0 l0 -222 q0 -24 -13 -37 q-13 -13 -37 -13 q-24 0 -37 13 q-13 13 -13 37 l0 222 l-599 0 ZM526 633 q49 0 74.5 -25.5 q25.5 -25.5 25.5 -74.5 l0 -30 q0 -49 -25.5 -74.5 q-25.5 -25.5 -74.5 -25.5 l-279 0 q-49 0 -74.5 25.5 q-25.5 25.5 -25.5 74.5 l0 30 q0 49 25.5 74.5 q25.5 25.5 74.5 25.5 l279 0 ZM526 523 q0 20 -20 20 l-239 0 q-20 0 -20 -20 l0 -10 q0 -20 20 -20 l239 0 q20 0 20 20 l0 10 ZM896 374 q24 0 37 -13 q13 -13 13 -37 q0 -24 -13 -37 q-13 -13 -37 -13 l-56 0 l0 -227 q0 -150 -100 -150 l-131 0 q-24 0 -37 13 q-13 13 -13 37 q0 24 13 37 q13 13 37 13 l81 0 q31 0 40.5 21 q9.5 21 9.5 69 l0 187 l-631 0 q-24 0 -37 13 q-13 13 -13 37 q0 24 13 37 q13 13 37 13 l787 0 ZM625 95 q0 -49 -25.5 -74.5 q-25.5 -25.5 -74.5 -25.5 l-287 0 q-49 0 -74.5 25.5 q-25.5 25.5 -25.5 74.5 l0 50 q0 49 25.5 74.5 q25.5 25.5 74.5 25.5 l287 0 q49 0 74.5 -25.5 q25.5 -25.5 25.5 -74.5 l0 -50 ZM525 125 q0 20 -20 20 l-247 0 q-20 0 -20 -20 l0 -10 q0 -20 20 -20 l247 0 q20 0 20 20 l0 10 Z" /><glyph glyph-name="uni54F2" unicode="&#x54f2;" d="M157 264 q-24 0 -37 13 q-13 13 -13 37 q0 24 13 37 q13 13 37 13 l23 0 q28 0 38 16.5 q10 16.5 12 51.5 l-112 -15 q-50 -2 -53 47 q-2 23 10 37.5 q12 14.5 36 15.5 l46 6 l73 10 l0 62 l-91 0 q-24 0 -37 13 q-13 13 -13 37 q0 24 13 37 q13 13 37 13 l91 0 l0 42 q0 24 13 37 q13 13 37 13 q24 0 37 -13 q13 -13 13 -37 l0 -42 l64 0 q24 0 37 -13 q13 -13 13 -37 q0 -24 -13 -37 q-13 -13 -37 -13 l-64 0 l0 -45 q30 7 46 12 q11 3 20 3 q29 0 42 -36 q4 -14 4 -20 q0 -30 -37 -42 q-24 -9 -75 -19 l0 -34 q0 -150 -100 -150 l-73 0 ZM890 562 q24 0 37 -13 q13 -13 13 -37 q0 -24 -13 -37 q-13 -13 -37 -13 l-77 0 l0 -144 q0 -24 -13 -37 q-13 -13 -37 -13 q-24 0 -37 13 q-13 13 -13 37 l0 144 l-137 0 q-16 -114 -87 -181 q-17 -17 -35 -17 q-17 0 -35 18 q-18 16 -18 36 q0 18 15 34 q4 5 25.5 31 q21.5 26 30 61 q8.5 35 8.5 86 l0 114 q0 48 27 73.5 q27 25.5 78 27.5 q90 3 240 34 q5 1 13 1 q21 0 33 -14 q12 -14 12 -40 q0 -19 -10.5 -31 q-10.5 -12 -30.5 -15 q-75 -16 -118.5 -22 q-43.5 -6 -123.5 -13 q-20 -2 -20 -21 l0 -62 l310 0 ZM742 247 q49 0 74.5 -25.5 q25.5 -25.5 25.5 -74.5 l0 -132 q0 -49 -25.5 -74.5 q-25.5 -25.5 -74.5 -25.5 l-487 0 q-49 0 -74.5 25.5 q-25.5 25.5 -25.5 74.5 l0 132 q0 49 25.5 74.5 q25.5 25.5 74.5 25.5 l487 0 ZM742 127 q0 20 -20 20 l-447 0 q-20 0 -20 -20 l0 -92 q0 -20 20 -20 l447 0 q20 0 20 20 l0 92 Z" /><glyph glyph-name="uni5546" unicode="&#x5546;" d="M884 714 q24 0 37 -13 q13 -13 13 -37 q0 -24 -13 -37 q-13 -13 -37 -13 l-768 0 q-24 0 -37 13 q-13 13 -13 37 q0 24 13 37 q13 13 37 13 l342 0 l-3 8 q-5 17 -5 28 q0 26 26 41 q14 6 25 6 q26 0 43 -29 q14 -29 20 -54 l320 0 ZM796 517 q49 0 74.5 -25.5 q25.5 -25.5 25.5 -74.5 l0 -368 q0 -150 -100 -150 l-121 0 q-24 0 -37 13 q-13 13 -13 37 q0 24 13 37 q13 13 37 13 l71 0 q31 0 40.5 21 q9.5 21 9.5 69 l0 308 q0 20 -20 20 l-151 0 q6 -1 11 -4 q36 -21 72.5 -52.5 q36.5 -31.5 58.5 -57.5 q16 -19 16 -34 q0 -14 -14 -30 q-15 -17 -34 -17 q-17 0 -29 15 q-5 6 -12 12 q9 -21 9 -49 l0 -105 q0 -49 -25.5 -74.5 q-25.5 -25.5 -74.5 -25.5 l-206 0 q-49 0 -74.5 25.5 q-25.5 25.5 -25.5 74.5 l0 105 q0 28 9 49 l-18 -13 q-13 -12 -28 -12 q-19 0 -36 20 q-11 16 -11 30 q0 22 20 33 l39 31 q13 10 43.5 34.5 q30.5 24.5 39.5 33.5 l13 11 l-143 0 q-20 0 -20 -20 l0 -446 q0 -24 -13 -37 q-13 -13 -37 -13 q-24 0 -37 13 q-13 13 -13 37 l0 466 q0 49 25.5 74.5 q25.5 25.5 74.5 25.5 l90 0 l-3 5 q-14 22 -14 38 q0 18 16 34 q17 15 34 15 q18 0 38 -18 q32 -35 46 -74 l175 0 q5 9 13 22 q8 13 17 32 q19 37 47 37 q4 0 16 -2 q35 -12 35 -46 q0 -12 -2 -18 l-9 -25 l92 0 ZM594 332 q-13 10 -19.5 18.5 q-6.5 8.5 -6.5 19.5 q0 11 7 24 q9 19 24 23 l-183 0 l3 -2 q20 -14 20 -34 q0 -14 -11 -30 q-13 -15 -60 -54 q14 3 29 3 l206 0 q21 0 36 -4 l-45 36 ZM603 180 q0 20 -20 20 l-166 0 q-20 0 -20 -20 l0 -65 q0 -20 20 -20 l166 0 q20 0 20 20 l0 65 Z" /><glyph glyph-name="uni5565" unicode="&#x5565;" d="M932 567 q22 -16 22 -38 q0 -15 -10 -29 q-18 -24 -39 -24 q-13 0 -32 11 q-27 16 -65 46 q3 -10 3 -22 q0 -24 -13 -37 q-13 -13 -37 -13 l-71 0 l0 -60 l184 0 q24 0 37 -13 q13 -13 13 -37 q0 -24 -13 -37 q-13 -13 -37 -13 l-184 0 l0 -50 l97 0 q49 0 74.5 -25.5 q25.5 -25.5 25.5 -74.5 l0 -133 q0 -49 -25.5 -74.5 q-25.5 -25.5 -74.5 -25.5 l-292 0 q-49 0 -74.5 25.5 q-25.5 25.5 -25.5 74.5 l0 133 q0 49 25.5 74.5 q25.5 25.5 74.5 25.5 l95 0 l0 50 l-156 0 q-24 0 -37 13 q-13 13 -13 37 q0 24 13 37 q13 13 37 13 l156 0 l0 60 l-68 0 q-24 0 -37 13 q-13 13 -13 37 q0 11 3 20 q-38 -29 -60 -44 q-18 -12 -32 -12 q-11 0 -22 8 l0 -342 q0 -49 -25.5 -74.5 q-25.5 -25.5 -74.5 -25.5 l-89 0 q-49 0 -74.5 25.5 q-25.5 25.5 -25.5 74.5 l0 471 q0 49 25.5 74.5 q25.5 25.5 74.5 25.5 l89 0 q49 0 74.5 -25.5 q25.5 -25.5 25.5 -74.5 l0 -42 q56 38 117.5 96.5 q61.5 58.5 110.5 122.5 q9 12 22 18 q13 6 28 6 q32 0 51 -24 q59 -73 113 -119.5 q54 -46.5 129 -102.5 ZM761 561 q8 0 12 -1 q-59 49 -109 102 q-12 12 -24 12 q-13 0 -24 -12 q-46 -51 -105 -102 q4 1 11 1 l239 0 ZM261 592 q0 20 -20 20 l-49 0 q-20 0 -20 -20 l0 -431 q0 -20 20 -20 l49 0 q20 0 20 20 l0 431 ZM787 131 q0 20 -20 20 l-252 0 q-20 0 -20 -20 l0 -93 q0 -20 20 -20 l252 0 q20 0 20 20 l0 93 Z" /><glyph glyph-name="uni5566" unicode="&#x5566;" d="M650 545 q-24 0 -37 13 q-13 13 -13 37 q0 24 13 37 q13 13 37 13 l66 0 l0 2 q-2 8 -5 25 q-3 17 -12 41 q-5 18 -5 28 q0 25 27 41 q13 6 25 6 q26 0 42 -28 q25 -48 26 -93 l0 -7 q0 -11 -1 -15 l66 0 q24 0 37 -13 q13 -13 13 -37 q0 -24 -13 -37 q-13 -13 -37 -13 l-229 0 ZM532 296 l0 -241 q0 -150 -100 -150 l-48 0 q-24 0 -37 13 q-13 13 -13 37 q0 24 13 37 q13 13 37 13 l8 0 q21 0 29.5 10 q8.5 10 9.5 23.5 q1 13.5 1 56.5 l0 151 l-17 -6 q-16 -4 -21 -4 q-29 0 -43 36 q-3 11 -3 20 q0 33 34 43 l50 22 l0 170 l-23 0 q-24 0 -37 13 q-13 13 -13 37 q0 24 13 37 q13 13 37 13 l23 0 l0 110 q0 24 13 37 q13 13 37 13 q24 0 37 -13 q13 -13 13 -37 l0 -110 l5 0 q24 0 37 -13 q13 -13 13 -37 q0 -24 -13 -37 q-13 -13 -37 -13 l-5 0 l0 -118 q8 2 13 2 q22 0 38 -24 q11 -16 11 -30 q0 -22 -26 -39 l-36 -22 ZM341 145 q0 -49 -25.5 -74.5 q-25.5 -25.5 -74.5 -25.5 l-67 0 q-49 0 -74.5 25.5 q-25.5 25.5 -25.5 74.5 l0 463 q0 49 25.5 74.5 q25.5 25.5 74.5 25.5 l67 0 q49 0 74.5 -25.5 q25.5 -25.5 25.5 -74.5 l0 -463 ZM241 588 q0 20 -20 20 l-27 0 q-20 0 -20 -20 l0 -423 q0 -20 20 -20 l27 0 q20 0 20 20 l0 423 ZM896 35 q24 0 37 -13 q13 -13 13 -37 q0 -24 -13 -37 q-13 -13 -37 -13 l-291 0 q-24 0 -37 13 q-13 13 -13 37 q0 24 13 37 q13 13 37 13 l118 0 q25 86 51.5 214 q26.5 128 34.5 207 q6 47 53 44 q23 0 35.5 -13.5 q12.5 -13.5 10.5 -38.5 q-6 -71 -30.5 -188.5 q-24.5 -117.5 -51.5 -224.5 l70 0 ZM645 143 q-5 43 -25 147 q-20 104 -30 138 q-3 11 -3 19 q0 31 35 43 q11 4 21 4 q30 0 45 -35 q15 -51 35 -158.5 q20 -107.5 22 -156.5 q-2 -49 -50 -50 q-49 1 -50 49 Z" /><glyph glyph-name="uni559C" unicode="&#x559c;" d="M118 635 q-22 0 -34 12.5 q-12 12.5 -12 34.5 q0 21 12.5 32.5 q12.5 11.5 33.5 11.5 l334 0 l0 9 q0 24 13 37 q13 13 37 13 q24 0 37 -13 q13 -13 13 -37 l0 -9 l328 0 q22 0 33.5 -12 q11.5 -12 11.5 -34 q0 -21 -11.5 -33 q-11.5 -12 -33.5 -12 l-328 0 l0 -37 l288 0 q20 0 30.5 -10.5 q10.5 -10.5 10.5 -30.5 q0 -19 -10.5 -30 q-10.5 -11 -30.5 -11 l-680 0 q-20 0 -30.5 11.5 q-10.5 11.5 -10.5 31.5 q0 19 11 29 q11 10 30 10 l292 0 l0 37 l-334 0 ZM757 492 q41 0 62 -21 q21 -21 21 -62 l0 -26 q0 -40 -21.5 -61 q-21.5 -21 -61.5 -21 l-515 0 q-40 0 -61.5 21 q-21.5 21 -21.5 61 l0 26 q0 41 21 62 q21 21 62 21 l515 0 ZM740 403 q0 16 -16 16 l-450 0 q-16 0 -16 -16 l0 -13 q0 -17 16 -17 l450 0 q16 0 16 17 l0 13 ZM899 254 q22 0 33.5 -12 q11.5 -12 11.5 -34 q0 -21 -11.5 -33 q-11.5 -12 -33.5 -12 l-801 0 q-22 0 -34 12.5 q-12 12.5 -12 34.5 q0 21 12.5 32.5 q12.5 11.5 33.5 11.5 l196 0 q3 19 29 33 q13 7 25 7 q25 0 41 -28 q2 -4 8 -12 l207 0 l5 10 q13 30 38 30 q10 0 26 -7 q26 -10 30 -33 l196 0 ZM757 138 q44 0 67.5 -23 q23.5 -23 23.5 -68 l0 -44 q0 -44 -23.5 -67 q-23.5 -23 -67.5 -23 l-517 0 q-44 0 -67.5 23 q-23.5 23 -23.5 67 l0 44 q0 45 23.5 68 q23.5 23 67.5 23 l517 0 ZM748 29 q0 18 -18 18 l-465 0 q-17 0 -17 -18 l0 -7 q0 -19 17 -19 l465 0 q8 0 13 5 q5 5 5 14 l0 7 Z" /><glyph glyph-name="uni561F" unicode="&#x561f;" d="M892 407 q38 -59 58.5 -123 q20.5 -64 20.5 -119 q0 -27 -4 -47 q-12 -56 -42 -83 q-36 -33 -105 -33 l-8 0 q-39 0 -48 33 l0 -81 q0 -24 -13 -37 q-13 -13 -37 -13 q-24 0 -37 13 q-13 13 -13 37 l0 699 l-1 -3 q-43 -95 -69 -143 q22 -1 33.5 -14 q11.5 -13 11.5 -36 q0 -24 -13 -37 q-13 -13 -37 -13 l-54 0 q-19 -28 -37 -52 l25 0 q49 0 74.5 -25.5 q25.5 -25.5 25.5 -74.5 l0 -210 q0 -49 -25.5 -74.5 q-25.5 -25.5 -74.5 -25.5 l-81 0 q-49 0 -74.5 25.5 q-25.5 25.5 -25.5 74.5 l0 172 q-17 3 -29 18 l-5 6 l0 -112 q0 -49 -25.5 -74.5 q-25.5 -25.5 -74.5 -25.5 l-34 0 q-49 0 -74.5 25.5 q-25.5 25.5 -25.5 74.5 l0 485 q0 49 25.5 74.5 q25.5 25.5 74.5 25.5 l34 0 q49 0 74.5 -25.5 q25.5 -25.5 25.5 -74.5 l0 -315 q0 0 8 8 q55 52 95 100 l-34 0 q-24 0 -37 13 q-13 13 -13 37 q0 24 13 37 q13 13 37 13 l13 0 l0 88 l-7 0 q-24 0 -37 13 q-13 13 -13 37 q0 24 13 37 q13 13 37 13 l7 0 l0 41 q0 24 13 37 q13 13 37 13 q24 0 37 -13 q13 -13 13 -37 l0 -41 l2 0 q24 0 37 -13 q13 -13 13 -37 q0 -24 -13 -37 q-13 -13 -37 -13 l-2 0 l0 -76 q42 71 78 162 q6 17 17 26 q11 9 25 9 q9 0 22 -5 q28 -9 33 -31 q5 38 30.5 58.5 q25.5 20.5 68.5 20.5 l119 0 q35 0 55.5 -19 q20.5 -19 20.5 -48 q0 -13 -5.5 -28.5 q-5.5 -15.5 -6.5 -19.5 l-9 -27 l-50 -182 q-2 -8 -2 -11 q0 -6 6 -17 ZM870 170 q0 46 -18 99.5 q-18 53.5 -52 102.5 q-13 20 -13 43 q0 8 2 20 l50 204 l1 4 q0 7 -6 11.5 q-6 4.5 -15 4.5 l-35 0 q-20 0 -20 -20 l0 -570 q9 33 48 33 l18 0 q40 0 40 68 ZM218 594 q0 20 -20 20 l-14 0 q-20 0 -20 -20 l0 -445 q0 -20 20 -20 l14 0 q20 0 20 20 l0 445 ZM523 235 q0 20 -20 20 l-41 0 q-20 0 -20 -20 l0 -53 l81 0 l0 53 ZM503 45 q20 0 20 20 l0 17 l-81 0 l0 -17 q0 -20 20 -20 l41 0 Z" /><glyph glyph-name="uni5668" unicode="&#x5668;" d="M898 254 q18 -6 27.5 -17.5 q9.5 -11.5 9.5 -26.5 q0 -6 -4 -20 q-13 -36 -42 -36 q2 -14 2 -22 l0 -95 q0 -49 -25.5 -74.5 q-25.5 -25.5 -74.5 -25.5 l-174 0 q-49 0 -74.5 25.5 q-25.5 25.5 -25.5 74.5 l0 95 q0 49 25.5 74.5 q25.5 25.5 74.5 25.5 l67 0 q-99 46 -161 107 l-42 0 q-53 -65 -149 -107 l43 0 q49 0 74.5 -25.5 q25.5 -25.5 25.5 -74.5 l0 -95 q0 -49 -25.5 -74.5 q-25.5 -25.5 -74.5 -25.5 l-169 0 q-49 0 -74.5 25.5 q-25.5 25.5 -25.5 74.5 l0 95 q0 21 4 36 q-3 -1 -9 -1 q-15 0 -25.5 9 q-10.5 9 -13.5 26 q-4 16 -4 22 q0 16 9 27 q9 11 25 15 q20 6 60 16 q66 18 101.5 29 q35.5 11 67.5 28 l-193 0 q-24 0 -37 13 q-13 13 -13 37 q0 24 13 37 q13 13 37 13 l299 0 q4 7 10 21 q9 39 44 39 q6 0 16 -2 q39 -9 39 -43 q0 -5 -2 -15 l116 0 q-11 11 -11 25 q0 10 6 20 l-27 0 q-49 0 -74.5 25.5 q-25.5 25.5 -25.5 74.5 l0 87 q0 49 25.5 74.5 q25.5 25.5 74.5 25.5 l178 0 q49 0 74.5 -25.5 q25.5 -25.5 25.5 -74.5 l0 -87 q0 -49 -25.5 -74.5 q-25.5 -25.5 -74.5 -25.5 l-69 0 l15 -14 q14 -15 12 -31 l116 0 q24 0 37 -13 q13 -13 13 -37 q0 -24 -13 -37 q-13 -13 -37 -13 l-187 0 q46 -25 91.5 -42.5 q45.5 -17.5 103.5 -36.5 l20 -6 ZM198 484 q-49 0 -74.5 25.5 q-25.5 25.5 -25.5 74.5 l0 87 q0 49 25.5 74.5 q25.5 25.5 74.5 25.5 l178 0 q49 0 74.5 -25.5 q25.5 -25.5 25.5 -74.5 l0 -87 q0 -49 -25.5 -74.5 q-25.5 -25.5 -74.5 -25.5 l-178 0 ZM198 604 q0 -20 20 -20 l138 0 q20 0 20 20 l0 47 q0 20 -20 20 l-138 0 q-20 0 -20 -20 l0 -47 ZM618 604 q0 -20 20 -20 l138 0 q20 0 20 20 l0 47 q0 20 -20 20 l-138 0 q-20 0 -20 -20 l0 -47 ZM375 112 q0 20 -20 20 l-129 0 q-20 0 -20 -20 l0 -55 q0 -20 20 -20 l129 0 q20 0 20 20 l0 55 ZM791 112 q0 20 -20 20 l-134 0 q-20 0 -20 -20 l0 -55 q0 -20 20 -20 l134 0 q20 0 20 20 l0 55 Z" /><glyph glyph-name="uni56DE" unicode="&#x56de;" d="M791 755 q49 0 74.5 -25.5 q25.5 -25.5 25.5 -74.5 l0 -642 q0 -49 -25.5 -74.5 q-25.5 -25.5 -74.5 -25.5 l-579 0 q-49 0 -74.5 25.5 q-25.5 25.5 -25.5 74.5 l0 642 q0 49 25.5 74.5 q25.5 25.5 74.5 25.5 l579 0 ZM791 635 q0 20 -20 20 l-539 0 q-20 0 -20 -20 l0 -602 q0 -20 20 -20 l539 0 q20 0 20 20 l0 602 ZM610 546 q49 0 74.5 -25.5 q25.5 -25.5 25.5 -74.5 l0 -223 q0 -49 -25.5 -74.5 q-25.5 -25.5 -74.5 -25.5 l-217 0 q-49 0 -74.5 25.5 q-25.5 25.5 -25.5 74.5 l0 223 q0 49 25.5 74.5 q25.5 25.5 74.5 25.5 l217 0 ZM610 426 q0 20 -20 20 l-177 0 q-20 0 -20 -20 l0 -183 q0 -20 20 -20 l177 0 q20 0 20 20 l0 183 Z" /><glyph glyph-name="uni56E0" unicode="&#x56e0;" d="M791 755 q49 0 74.5 -25.5 q25.5 -25.5 25.5 -74.5 l0 -642 q0 -49 -25.5 -74.5 q-25.5 -25.5 -74.5 -25.5 l-579 0 q-49 0 -74.5 25.5 q-25.5 25.5 -25.5 74.5 l0 642 q0 49 25.5 74.5 q25.5 25.5 74.5 25.5 l579 0 ZM791 635 q0 20 -20 20 l-539 0 q-20 0 -20 -20 l0 -602 q0 -20 20 -20 l539 0 q20 0 20 20 l0 602 ZM535 379 q58 -53 125.5 -125.5 q67.5 -72.5 90.5 -110.5 q10 -16 10 -31 q0 -22 -25 -40 q-15 -9 -29 -9 q-23 0 -41 24 q-16 30 -66.5 86.5 q-50.5 56.5 -102.5 105.5 q-31 -66 -76 -115 q-45 -49 -103 -93 q-19 -12 -34 -12 q-19 0 -34 19 q-16 16 -16 34 q0 19 19 35 q47 39 79.5 71.5 q32.5 32.5 61.5 81.5 q29 49 42 113 l-136 0 q-24 0 -37 13 q-13 13 -13 38 q0 23 13 36 q13 13 37 13 l147 0 l0 8 l0 63 q0 24 13 37 q13 13 37 13 q24 0 37 -13 q13 -13 13 -37 l0 -58 l0 -13 l157 0 q23 0 36 -13 q13 -13 13 -36 q0 -25 -13 -38 q-13 -13 -36 -13 l-166 0 l-6 -31 l3 -3 Z" /><glyph glyph-name="uni56FD" unicode="&#x56fd;" d="M801 765 q49 0 74.5 -25.5 q25.5 -25.5 25.5 -74.5 l0 -652 q0 -49 -25.5 -74.5 q-25.5 -25.5 -74.5 -25.5 l-599 0 q-49 0 -74.5 25.5 q-25.5 25.5 -25.5 74.5 l0 652 q0 49 25.5 74.5 q25.5 25.5 74.5 25.5 l599 0 ZM801 645 q0 20 -20 20 l-559 0 q-20 0 -20 -20 l0 -612 q0 -20 20 -20 l559 0 q20 0 20 20 l0 612 ZM717 192 q24 0 37 -13 q13 -13 13 -37 q0 -24 -13 -37 q-13 -13 -37 -13 l-433 0 q-24 0 -37 13 q-13 13 -13 37 q0 24 13 37 q13 13 37 13 l164 0 l0 134 l-121 0 q-24 0 -37 13 q-13 13 -13 37 q0 24 13 37 q13 13 37 13 l121 0 l0 83 l-134 0 q-24 0 -37 13 q-13 13 -13 37 q0 24 13 37 q13 13 37 13 l374 0 q24 0 37 -13 q13 -13 13 -37 q0 -24 -13 -37 q-13 -13 -37 -13 l-140 0 l0 -83 l130 0 q24 0 37 -13 q13 -13 13 -37 q0 -24 -13 -37 q-13 -13 -37 -13 l-130 0 l0 -134 l94 0 q-9 6 -18 18 q-16 20 -19 23 q-14 17 -14 33 q0 20 19 36 q18 16 34 16 q19 0 36 -20 q22 -24 27 -32 q11 -14 11 -30 q0 -23 -23 -41 l-6 -3 l28 0 Z" /><glyph glyph-name="uni56FE" unicode="&#x56fe;" d="M791 755 q49 0 74.5 -25.5 q25.5 -25.5 25.5 -74.5 l0 -642 q0 -49 -25.5 -74.5 q-25.5 -25.5 -74.5 -25.5 l-579 0 q-49 0 -74.5 25.5 q-25.5 25.5 -25.5 74.5 l0 642 q0 49 25.5 74.5 q25.5 25.5 74.5 25.5 l579 0 ZM791 635 q0 20 -20 20 l-539 0 q-20 0 -20 -20 l0 -145 q3 5 12 14 q39 33 58 52.5 q19 19.5 57 67.5 q18 25 38 25 q12 0 31 -11 q26 -14 26 -37 q0 -6 -1 -9 l275 0 q22 0 33.5 -16 q11.5 -16 11.5 -37 q0 -20 -9 -32 q-50 -64 -115 -111 q24 -9 102 -35 q32 -12 32 -42 q0 -11 -4 -22 q-6 -16 -17 -24.5 q-11 -8.5 -26 -8.5 q-12 0 -23 4 q-110 36 -176 66 q-38 -16 -73 -27 q55 -8 89.5 -15 q34.5 -7 74.5 -21 q34 -13 34 -42 q0 -11 -4 -23 q-13 -33 -45 -33 q-10 0 -20 3 q-33 13 -62.5 19 q-29.5 6 -85.5 14 l-31 5 q-46 6 -43 55 q0 5 2 11 q-40 -11 -67 -19 q-10 -3 -19 -3 q-20 0 -33.5 14 q-13.5 14 -13.5 40 q0 16 10 28 q10 12 28 17 q72 19 147 42 q-39 28 -72 65 q-28 -26 -43 -36 q-19 -14 -34 -14 q-19 0 -37 19 q-1 1 -7 10 l0 -410 q0 -20 20 -20 l539 0 q20 0 20 20 l0 602 ZM581 476 q5 3 5 7 q0 4 -3 6.5 q-3 2.5 -8 2.5 l-126 0 q28 -23 73 -48 q40 20 59 32 ZM650 124 q33 -14 33 -43 q0 -12 -4 -23 q-13 -34 -42 -34 q-9 0 -22 5 q-51 17 -145.5 36 q-94.5 19 -146.5 24 q-46 1 -48 51 q0 24 14 36.5 q14 12.5 40 10.5 q55 -3 155.5 -23 q100.5 -20 165.5 -40 Z" /><glyph glyph-name="uni5728" unicode="&#x5728;" d="M887 697 q24 0 37 -13 q13 -13 13 -37 q0 -24 -13 -37 q-13 -13 -37 -13 l-477 0 q-54 -112 -127 -215 l0 -4 l0 -417 q0 -24 -13 -37 q-13 -13 -37 -13 q-24 0 -37 13 q-13 13 -13 37 l0 295 q-32 -37 -60 -62 q-18 -15 -37 -15 q-19 0 -35 17 q-16 21 -16 37 q0 18 17 35 q67 56 132.5 143 q65.5 87 115.5 186 l-172 0 q-24 0 -37 13 q-13 13 -13 37 q0 24 13 37 q13 13 37 13 l218 0 q18 48 25 72 q13 33 41 33 q12 0 24 -4 q16 -4 24.5 -14.5 q8.5 -10.5 8.5 -25.5 q0 -11 -4 -22 l-13 -39 l435 0 ZM872 48 q24 0 37 -13 q13 -13 13 -37 q0 -24 -13 -37 q-13 -13 -37 -13 l-497 0 q-24 0 -37 13 q-13 13 -13 37 q0 24 13 37 q13 13 37 13 l190 0 l0 239 l-163 0 q-24 0 -37 13 q-13 13 -13 37 q0 24 13 37 q13 13 37 13 l163 0 l0 92 q0 24 13 37 q13 13 37 13 q24 0 37 -13 q13 -13 13 -37 l0 -92 l171 0 q24 0 37 -13 q13 -13 13 -37 q0 -24 -13 -37 q-13 -13 -37 -13 l-171 0 l0 -239 l207 0 Z" /><glyph glyph-name="uni5730" unicode="&#x5730;" d="M908 184 q27 0 41 -14.5 q14 -14.5 11 -39.5 l-13 -96 q-8 -51 -28 -77 q-33 -43 -99 -43 l-306 0 q-49 0 -74.5 25.5 q-25.5 25.5 -25.5 74.5 l0 377 q-10 -2 -15 -2 q-31 0 -42 36 q-3 11 -3 21 q0 32 36 42 l24 8 l0 140 q0 24 13 37 q13 13 37 13 q24 0 37 -13 q13 -13 13 -37 l0 -107 l84 28 l0 179 q0 24 13 37 q13 13 37 13 q24 0 37 -13 q13 -13 13 -37 l0 -146 l107 36 q17 5 27 5 q35 0 55 -31 q20 -31 18 -74 l-6 -207 q-2 -71 -24.5 -110.5 q-22.5 -39.5 -75.5 -39.5 l-43 0 q-24 0 -37 13 q-13 13 -13 37 q0 24 13 37 q13 13 37 13 l3 0 q19 0 27 7.5 q8 7.5 10 20 q2 12.5 3 39.5 l0 23 l4 139 q0 10 -5.5 16.5 q-5.5 6.5 -14.5 3.5 l-85 -29 l0 -341 q0 -24 -13 -37 q-13 -13 -37 -13 q-24 0 -37 13 q-13 13 -13 37 l0 306 l-84 -29 l0 -361 q0 -24 13 -37 q13 -13 37 -13 l216 0 q41 0 55 17 q5 7 8.5 19 q3.5 12 4.5 21 q1 9 2 13 l10 53 q5 24 16 35.5 q11 11.5 32 11.5 ZM298 163 q16 8 28 8 q22 0 40 -26 q9 -15 9 -28 q0 -25 -26 -41 q-85 -48 -225 -89 q-11 -3 -19 -3 q-32 0 -44 36 q-4 14 -4 20 q0 15 9.5 26.5 q9.5 11.5 27.5 15.5 l47 14 q6 3 20 7 l0 338 l-49 0 q-24 0 -37 13 q-13 13 -13 37 q0 24 13 37 q13 13 37 13 l49 0 l0 172 q0 24 13 37 q13 13 37 13 q24 0 37 -13 q13 -13 13 -37 l0 -172 l37 0 q24 0 37 -13 q13 -13 13 -37 q0 -24 -13 -37 q-13 -13 -37 -13 l-37 0 l0 -297 q21 10 37 19 Z" /><glyph glyph-name="uni5740" unicode="&#x5740;" d="M366 160 q8 -14 8 -27 q0 -24 -29 -41 q-87 -43 -240 -77 q-12 -2 -17 -2 q-33 0 -44 38 q-2 6 -2 17 q0 36 38 43 q40 9 81 21 l0 329 l-44 0 q-24 0 -37 13 q-13 13 -13 37 q0 24 13 37 q13 13 37 13 l44 0 l0 170 q0 24 13 37 q13 13 37 13 q24 0 37 -13 q13 -13 13 -37 l0 -170 l55 0 q24 0 37 -13 q13 -13 13 -37 q0 -24 -13 -37 q-13 -13 -37 -13 l-55 0 l0 -296 q26 10 38 16 q14 7 26 7 q25 0 41 -28 ZM892 32 q24 0 37 -13 q13 -13 13 -37 q0 -24 -13 -37 q-13 -13 -37 -13 l-550 0 q-24 0 -37 13 q-13 13 -13 37 q0 24 13 37 q13 13 37 13 l71 0 l0 520 q0 24 13 37 q13 13 37 13 q24 0 37 -13 q13 -13 13 -37 l0 -520 l110 0 l0 699 q0 24 13 37 q13 13 37 13 q24 0 37 -13 q13 -13 13 -37 l0 -218 l139 0 q24 0 37 -13 q13 -13 13 -37 q0 -24 -13 -37 q-13 -13 -37 -13 l-139 0 l0 -381 l169 0 Z" /><glyph glyph-name="uni57DF" unicode="&#x57df;" d="M926 182 q19 -3 29 -14.5 q10 -11.5 10 -28.5 q0 -6 -2 -16 q-20 -91 -41 -134 q-44 -89 -89 -89 q-43 0 -90 74 q-15 23 -24 44 q-38 -46 -75 -80 q-21 -16 -36 -16 q-18 0 -36 18 q-17 15 -17 34 q0 19 20 37 q60 64 103 125 q-38 155 -46 419 l-233 0 q-24 0 -37 13 q-13 13 -13 37 q0 24 13 37 q13 13 37 13 l230 0 l0 83 q0 24 13 37 q13 13 37 13 q24 0 37 -13 q13 -13 13 -37 l0 -83 l107 0 q-13 4 -29 25 q-14 16 -28 28 q-18 17 -18 35 q0 19 16 35 q17 18 36 18 q19 0 35 -16 q27 -27 41 -47 q12 -16 12 -29 q0 -22 -28 -40 q-13 -7 -18 -9 l33 0 q24 0 37 -13 q13 -13 13 -37 q0 -24 -13 -37 q-13 -13 -37 -13 l-157 0 q4 -181 23 -288 q40 83 67 191 q10 40 48 40 q9 0 13 -1 q38 -8 38 -41 q0 -8 -3 -19 q-36 -163 -124 -313 l16 -38 q14 -31 22 -31 q7 0 15 22 q14 39 20 70 q4 18 15 27.5 q11 9.5 28 9.5 q11 0 17 -2 ZM340 189 q8 -14 8 -27 q0 -24 -29 -41 q-52 -25 -96 -38 q-44 -13 -109 -28 q-12 -2 -17 -2 q-33 0 -44 38 q-2 6 -2 17 q0 36 38 43 q35 8 72 18 l0 286 l-44 0 q-24 0 -37 13 q-13 13 -13 37 q0 24 13 37 q13 13 37 13 l44 0 l0 165 q0 24 13 37 q13 13 37 13 q24 0 37 -13 q13 -13 13 -37 l0 -165 l25 0 q24 0 37 -13 q13 -13 13 -37 q0 -24 -13 -37 q-13 -13 -37 -13 l-25 0 l0 -251 l12 6 q14 7 26 7 q25 0 41 -28 ZM455 163 q-49 0 -74.5 25.5 q-25.5 25.5 -25.5 74.5 l0 134 q0 49 25.5 74.5 q25.5 25.5 74.5 25.5 l63 0 q49 0 74.5 -25.5 q25.5 -25.5 25.5 -74.5 l0 -134 q0 -49 -25.5 -74.5 q-25.5 -25.5 -74.5 -25.5 l-63 0 ZM455 283 q0 -20 20 -20 l23 0 q20 0 20 20 l0 94 q0 20 -20 20 l-23 0 q-20 0 -20 -20 l0 -94 ZM601 107 q5 -11 5 -24 q0 -29 -31 -40 q-87 -36 -233 -69 q-4 -1 -11 -1 q-22 0 -34.5 14.5 q-12.5 14.5 -12.5 40.5 q0 18 11 29.5 q11 11.5 32 14.5 q137 33 210 63 q11 4 22 4 q28 0 42 -32 Z" /><glyph glyph-name="uni586B" unicode="&#x586b;" d="M909 -4 q26 -14 26 -37 q0 -14 -9 -29 q-15 -28 -40 -28 q-13 0 -28 9 q-13 9 -68.5 32 q-55.5 23 -79.5 31 q-32 14 -32 42 q0 8 5 21 q9 29 33 34 l-182 0 q16 -5 27 -25 q10 -14 10 -28 q0 -24 -27 -40 q-34 -20 -95.5 -50 q-61.5 -30 -77.5 -32 q-13 -5 -22 -5 q-29 0 -40 34 q-5 13 -5 23 q0 30 34 41 q16 5 77.5 35.5 q61.5 30.5 79.5 41.5 q12 5 13 5 l-118 0 q-22 0 -33.5 11.5 q-11.5 11.5 -11.5 33.5 q0 22 11.5 33.5 q11.5 11.5 32.5 11.5 l0 336 q0 49 25.5 74.5 q25.5 25.5 74.5 25.5 l95 0 l0 29 l-170 0 q-24 0 -37 13 q-13 13 -13 37 q0 24 13 37 q13 13 37 13 l170 0 l0 11 q0 50 53 50 q23 0 35 -13 q12 -13 12 -37 l0 -11 l188 0 q24 0 37 -13 q13 -13 13 -37 q0 -24 -13 -37 q-13 -13 -37 -13 l-188 0 l0 -29 l100 0 q49 0 74.5 -25.5 q25.5 -25.5 25.5 -74.5 l0 -336 l14 0 q22 0 33.5 -11.5 q11.5 -11.5 11.5 -33.5 q0 -22 -11.5 -33.5 q-11.5 -11.5 -33.5 -11.5 l-164 0 l12 -3 q40 -14 95.5 -37.5 q55.5 -23.5 67.5 -34.5 ZM329 168 q11 -16 11 -31 q0 -22 -23 -39 q-88 -49 -192 -87 q-15 -5 -24 -5 q-27 0 -41 32 q-5 13 -5 23 q0 30 33 42 l19 8 q27 9 54 21 l0 318 l-44 0 q-24 0 -37 13 q-13 13 -13 37 q0 24 13 37 q13 13 37 13 l44 0 l0 181 q0 24 13 37 q13 13 37 13 q24 0 37 -13 q13 -13 13 -37 l0 -181 l35 0 q24 0 37 -13 q13 -13 13 -37 q0 -24 -13 -37 q-13 -13 -37 -13 l-35 0 l0 -269 q16 10 30 10 q19 0 38 -23 ZM509 507 q-20 0 -20 -20 l0 -12 l295 0 l0 12 q0 20 -20 20 l-255 0 ZM784 371 l0 31 l-295 0 l0 -31 l295 0 ZM489 297 l0 -33 l295 0 l0 33 l-295 0 ZM489 161 l295 0 l0 30 l-295 0 l0 -30 Z" /><glyph glyph-name="uni58C1" unicode="&#x58c1;" d="M888 536 q24 0 37 -13 q13 -13 13 -37 q0 -24 -13 -37 q-13 -13 -37 -13 l-132 0 l0 -42 l109 0 q24 0 37 -13 q13 -13 13 -37 q0 -24 -13 -37 q-13 -13 -37 -13 l-109 0 l0 -34 q0 -24 -13 -37 q-13 -13 -37 -13 q-24 0 -37 13 q-13 13 -13 37 l0 34 l-109 0 q-24 0 -37 13 q-13 13 -13 37 q0 24 13 37 q13 13 37 13 l109 0 l0 42 l-121 0 q-24 0 -37 13 q-13 13 -13 37 q0 24 13 37 q13 13 37 13 l32 0 l-2 3 q-14 17 -14 34 q0 21 20 37 q9 7 16 10 l-47 0 q-24 0 -37 13 q-13 13 -13 37 q0 24 13 37 q13 13 37 13 l117 0 q-10 18 -10 32 q0 24 26 36 q16 8 29 8 q27 0 40 -29 q15 -28 21 -47 l111 0 q24 0 37 -13 q13 -13 13 -37 q0 -24 -13 -37 q-13 -13 -37 -13 l-65 0 l2 -1 q16 -6 25.5 -17.5 q9.5 -11.5 9.5 -25.5 q0 -12 -5 -22 l-8 -18 l55 0 ZM130 307 q-16 -18 -37 -18 q-17 0 -33 13 q-20 18 -20 38 q0 17 13 33 q32 46 47.5 91.5 q15.5 45.5 15.5 110.5 l0 79 q0 49 25.5 74.5 q25.5 25.5 74.5 25.5 l162 0 q49 0 74.5 -25.5 q25.5 -25.5 25.5 -74.5 l0 -44 q0 -49 -25.5 -74.5 q-25.5 -25.5 -74.5 -25.5 l-164 0 q0 -15 -5 -42 q18 7 44 7 l123 0 q49 0 74.5 -25.5 q25.5 -25.5 25.5 -74.5 l0 -32 q0 -49 -25.5 -74.5 q-25.5 -25.5 -74.5 -25.5 l-123 0 q-46 0 -72 23.5 q-26 23.5 -28 67.5 q-14 -18 -23 -27 ZM216 630 q0 -20 20 -20 l122 0 q20 0 20 20 l0 4 q0 20 -20 20 l-122 0 q-20 0 -20 -20 l0 -4 ZM639 601 q15 -18 23 -31 q8 -13 17 -34 l44 0 q17 29 26 49 q9 26 26 35 l-157 0 q11 -4 21 -19 ZM253 343 q0 -20 20 -20 l83 0 q20 0 20 20 l0 32 q0 20 -20 20 l-83 0 q-20 0 -20 -20 l0 -32 ZM871 20 q24 0 37 -13 q13 -13 13 -37 q0 -24 -13 -37 q-13 -13 -37 -13 l-744 0 q-24 0 -37 13 q-13 13 -13 37 q0 24 13 37 q13 13 37 13 l322 0 l0 71 l-257 0 q-24 0 -37 13 q-13 13 -13 37 q0 24 13 37 q13 13 37 13 l257 0 l0 21 q0 24 13 37 q13 13 37 13 q24 0 37 -13 q13 -13 13 -37 l0 -21 l257 0 q24 0 37 -13 q13 -13 13 -37 q0 -24 -13 -37 q-13 -13 -37 -13 l-257 0 l0 -71 l322 0 Z" /><glyph glyph-name="uni5904" unicode="&#x5904;" d="M891 15 q22 -2 34 -14.5 q12 -12.5 12 -33.5 q0 -27 -14.5 -40.5 q-14.5 -13.5 -39.5 -11.5 q-168 0 -274.5 12 q-106.5 12 -188.5 51 q-64 30 -117 81 q-67 -83 -143 -140 q-19 -15 -35 -15 q-20 0 -36 19 q-15 16 -15 34 q0 19 18 36 q79 63 147 146 q-53 82 -90 204 q-12 -22 -22 -34 q-18 -25 -39 -25 q-15 0 -31 12 q-24 17 -24 39 q0 15 11 32 q46 67 87 181.5 q41 114.5 56 193.5 q6 44 46 44 l11 -1 q42 -6 42 -46 q0 -23 -15 -80 l219 0 q50 0 50 -59 q0 -18 -5 -41 q-47 -233 -172 -418 q43 -44 104 -71 q72 -31 167.5 -41.5 q95.5 -10.5 256.5 -13.5 ZM643 76 q-24 0 -37 13 q-13 13 -13 37 l0 600 q0 24 13 37 q13 13 37 13 q24 0 37 -13 q13 -13 13 -37 l0 -600 q0 -24 -13 -37 q-13 -13 -37 -13 ZM217 474 q31 -158 84 -251 q103 157 126 313 l0 5 q0 18 -17 18 l-170 0 q-5 -16 -10 -28.5 q-5 -12.5 -8 -21.5 l-9 -25 q1 -2 2 -4.5 q1 -2.5 2 -5.5 ZM727 439 q-24 16 -24 39 q0 15 9 30 q17 24 39 24 q16 0 31 -11 q41 -27 68 -52.5 q27 -25.5 72 -73.5 q16 -17 16 -35 q0 -19 -17 -36 q-16 -15 -34 -15 q-19 0 -37 18 l-17 17 q-32 32 -55 53 q-23 21 -51 42 Z" /><glyph glyph-name="uni5907" unicode="&#x5907;" d="M900 409 q18 -4 27.5 -15.5 q9.5 -11.5 9.5 -28.5 q0 -11 -2 -17 q-4 -18 -16 -28 q-12 -10 -28 -10 q-11 0 -17 2 l-51 9 q33 -25 33 -81 l0 -227 q0 -49 -25.5 -74.5 q-25.5 -25.5 -74.5 -25.5 l-516 0 q-49 0 -74.5 25.5 q-25.5 25.5 -25.5 74.5 l0 227 q0 54 32 80 l-55 -13 q-4 -1 -11 -1 q-36 0 -44 43 q-1 4 -1 13 q0 19 11 30.5 q11 11.5 31 13.5 q131 20 271 62 q-75 48 -130 110 q-61 -63 -93 -87 q-17 -11 -33 -11 q-20 0 -38 22 q-12 15 -12 31 q0 21 23 39 q43 29 110.5 98.5 q67.5 69.5 102.5 118.5 q15 25 36 25 q13 0 32 -11 q25 -15 25 -37 q0 -14 -12 -31 l439 0 q17 0 29.5 -9.5 q12.5 -9.5 18.5 -23.5 q5 -12 5 -28 q0 -19 -7 -29 q-70 -105 -226 -181 q48 -14 107 -26 q59 -12 113 -22 q12 -3 36 -7 ZM327 635 q70 -74 178 -122 q130 50 215 110 q3 3 3 5 q0 3 -2.5 5 q-2.5 2 -6.5 2 l-387 0 ZM725 340 q-135 29 -225 65 q-88 -30 -238 -65 l463 0 ZM448 240 l-188 0 q-20 0 -20 -20 l0 -43 l208 0 l0 63 ZM756 220 q0 20 -20 20 l-188 0 l0 -63 l208 0 l0 43 ZM448 13 l0 64 l-208 0 l0 -44 q0 -20 20 -20 l188 0 ZM736 13 q20 0 20 20 l0 44 l-208 0 l0 -64 l188 0 Z" /><glyph glyph-name="uni590D" unicode="&#x590d;" d="M884 -6 q19 -3 30 -15 q11 -12 11 -31 q0 -25 -12.5 -39.5 q-12.5 -14.5 -32.5 -14.5 q-4 0 -14 2 q-223 35 -348 73 q-92 -27 -176.5 -44 q-84.5 -17 -201.5 -37 q-4 -1 -11 -1 q-36 0 -44 43 q-3 24 8 39.5 q11 15.5 35 17.5 q106 15 231 44 q-68 35 -123 79 q-57 -44 -101 -67 q-15 -6 -26 -6 q-26 0 -42 29 q-7 16 -7 26 q0 26 30 41 q100 59 172 128 l-5 0 q-49 0 -74.5 25.5 q-25.5 25.5 -25.5 74.5 l0 129 q0 14 1 20 l-23 -22 q-18 -15 -35 -15 q-19 0 -37 19 q-14 15 -14 33 q0 20 19 38 q43 40 89 98.5 q46 58.5 79 114.5 q14 28 38 28 q12 0 30 -8 q28 -14 28 -37 q0 -15 -10 -29 q0 0 0 -0.5 q0 -0.5 -1 -0.5 l540 0 q24 0 37 -13 q13 -13 13 -37 q0 -24 -13 -37 q-13 -13 -37 -13 l-605 0 l-32 -43 q13 4 33 4 l496 0 q49 0 74.5 -25.5 q25.5 -25.5 25.5 -74.5 l0 -129 q0 -49 -25.5 -74.5 q-25.5 -25.5 -74.5 -25.5 l-405 0 q12 -15 9 -31 l457 0 q32 0 47 -14.5 q15 -14.5 15 -34.5 q0 -25 -16 -41 q-64 -64 -180 -114 q78 -16 204 -32 ZM277 500 q-20 0 -20 -20 l0 -17 l496 0 l0 17 q0 20 -20 20 l-456 0 ZM257 371 q0 -20 20 -20 l456 0 q20 0 20 20 l0 17 l-496 0 l0 -17 ZM366 140 q66 -41 146 -69 q100 29 172 60 q5 2 5.5 5.5 q0.5 3.5 -5.5 3.5 l-318 0 Z" /><glyph glyph-name="uni5927" unicode="&#x5927;" d="M901 -12 q21 -18 21 -40 q0 -17 -13 -31 q-19 -21 -39 -21 q-16 0 -32 14 q-126 109 -203 210 q-77 101 -131 244 q-49 -165 -147 -283 q-98 -118 -211 -177 l-1 -1 q-17 -12 -32 -12 q-22 0 -36 23 q-13 16 -13 33 q0 21 22 37 l1 1 q119 66 211 180 q92 114 128 309 l-298 0 q-24 0 -37 13 q-13 13 -13 37 q0 24 13 37 q13 13 37 13 l312 0 q2 22 4 66 l0 83 q0 24 13 37 q13 13 37 13 q24 0 37 -13 q13 -13 13 -37 l0 -78 q0 -25 -2 -71 l328 0 q24 0 37 -13 q13 -13 13 -37 q0 -24 -13 -37 q-13 -13 -37 -13 l-296 0 q50 -163 132.5 -278 q82.5 -115 194.5 -208 Z" /><glyph glyph-name="uni5929" unicode="&#x5929;" d="M895 -20 q25 -19 25 -42 q0 -14 -11 -28 q-19 -25 -41 -25 q-13 0 -29 11 q-88 63 -145 111.5 q-57 48.5 -102.5 104.5 q-45.5 56 -81.5 129 q-80 -190 -346 -340 q-16 -11 -30 -11 q-22 0 -37 25 q-12 16 -12 32 q0 23 23 37 q138 73 222.5 167.5 q84.5 94.5 107.5 201.5 l-312 0 q-24 0 -37 13 q-13 13 -13 37 q0 24 13 37 q13 13 37 13 l321 0 l0 187 l-269 0 q-24 0 -37 13 q-13 13 -13 37 q0 24 13 37 q13 13 37 13 l638 0 q24 0 37 -13 q13 -13 13 -37 q0 -24 -13 -37 q-13 -13 -37 -13 l-269 0 l0 -187 l324 0 q24 0 37 -13 q13 -13 13 -37 q0 -24 -13 -37 q-13 -13 -37 -13 l-303 0 q32 -86 81 -152.5 q49 -66.5 107 -115.5 q58 -49 139 -105 Z" /><glyph glyph-name="uni592A" unicode="&#x592a;" d="M899 2 q25 -18 25 -41 q0 -16 -10 -29 q-20 -24 -41 -24 q-15 0 -29 11 q-82 68 -142.5 129.5 q-60.5 61.5 -113 140 q-52.5 78.5 -88.5 176.5 q-46 -141 -139 -254.5 q-93 -113.5 -223 -194.5 q-16 -12 -32 -12 q-22 0 -36 23 q-13 16 -13 33 q0 21 22 37 q154 104 241 221.5 q87 117.5 113 275.5 l-305 0 q-24 0 -37 13 q-13 13 -13 37 q0 24 13 37 q13 13 37 13 l315 0 q1 15 1 46 l0 93 q0 24 13 37 q13 13 37 13 q24 0 37 -13 q13 -13 13 -37 l0 -88 q0 -34 -1 -51 l327 0 q24 0 37 -13 q13 -13 13 -37 q0 -24 -13 -37 q-13 -13 -37 -13 l-305 0 q65 -278 334 -492 ZM493 135 q34 -41 80 -104 q8 -13 8 -28 q0 -25 -27 -40 q-15 -9 -28 -9 q-24 0 -39 27 q-45 61 -67 85 q-16 17 -16 35 q0 19 18 35 q19 17 35 17 q20 0 36 -18 Z" /><glyph glyph-name="uni5934" unicode="&#x5934;" d="M597 217 l-7 -17 q57 -31 166.5 -102.5 q109.5 -71.5 132.5 -91.5 q22 -16 22 -38 q0 -16 -12 -32 q-18 -23 -41 -23 q-15 0 -29 12 q-27 21 -141 98 q-114 77 -147 93 q-42 -56 -97 -93 q-55 -37 -113 -60 q-58 -23 -149 -52 l-36 -12 q-9 -4 -21 -4 q-14 0 -25 9 q-11 9 -16 25 q-5 13 -5 23 q0 14 9 25 q9 11 25 16 q156 45 243.5 96.5 q87.5 51.5 132.5 127.5 l-370 0 q-24 0 -37 13 q-13 13 -13 37 q0 24 13 37 q13 13 37 13 l410 0 q23 88 23 239 l0 172 q0 24 13 37 q13 13 37 13 q24 0 37 -13 q13 -13 13 -37 l0 -167 q0 -142 -24 -244 l254 0 q24 0 37 -13 q13 -13 13 -37 q0 -24 -13 -37 q-13 -13 -37 -13 l-285 0 ZM234 652 q-35 19 -35 44 q0 9 5 22 q6 15 17.5 23 q11.5 8 25.5 8 q11 0 22 -4 q45 -21 100 -56.5 q55 -35.5 88 -63.5 q20 -13 20 -35 q0 -17 -12 -35 q-17 -22 -40 -22 q-16 0 -30 14 q-20 20 -75 55 q-55 35 -86 50 ZM170 461 q-35 19 -35 44 q0 9 5 22 q6 15 17.5 23 q11.5 8 25.5 8 q11 0 22 -4 q45 -21 100 -56.5 q55 -35.5 88 -63.5 q20 -13 20 -35 q0 -17 -12 -35 q-17 -22 -40 -22 q-16 0 -30 14 q-20 20 -75 55 q-55 35 -86 50 Z" /><glyph glyph-name="uni5956" unicode="&#x5956;" d="M894 708 q25 0 38.5 -17 q13.5 -17 13.5 -39 q0 -17 -7 -28 q-64 -116 -175.5 -194.5 q-111.5 -78.5 -247.5 -113.5 q-11 -5 -25 -5 q-28 0 -42 34 q-4 9 -4 21 q0 29 33 42 q85 24 134 46 q-33 30 -46 37 q-25 17 -25 40 q0 12 10 29 q15 25 39 25 q15 0 31 -9 q37 -25 82 -72 q48 35 97 90 q4 4 4 8 q0 6 -8 6 l-229 0 l-1 0 q-36 -46 -82 -82 q-18 -15 -34 -15 q-19 0 -37 20 q-15 15 -15 32 q0 20 19 37 q53 48 80 83.5 q27 35.5 58 90.5 q14 30 40 30 q11 0 26 -6 q30 -15 30 -41 q0 -11 -6 -25 l-12 -24 l261 0 ZM139 348 q-10 -5 -23 -5 q-28 0 -45 31 q-4 14 -4 21 q0 35 32 45 q35 17 101 50.5 q66 33.5 90 50.5 l0 183 q0 24 13 37 q13 13 37 13 q24 0 37 -13 q13 -13 13 -37 l0 -377 q0 -24 -13 -37 q-13 -13 -37 -13 q-24 0 -37 13 q-13 13 -13 37 l0 78 q-44 -25 -89.5 -48.5 q-45.5 -23.5 -61.5 -28.5 ZM174 577 q-28 46 -55 80 q-16 21 -16 37 q0 17 16 34 q16 16 35 16 q19 0 35 -16 q18 -18 39 -47.5 q21 -29.5 32 -51.5 q9 -15 9 -28 q0 -25 -26 -43 q-14 -7 -29 -7 q-28 0 -40 26 ZM888 -5 q18 -7 27.5 -19 q9.5 -12 9.5 -26 q0 -11 -4 -20 q-13 -36 -43 -36 q-10 0 -19 4 q-111 32 -203 76.5 q-92 44.5 -158 124.5 q-52 -67 -147 -112.5 q-95 -45.5 -219 -83.5 q-13 -5 -22 -5 q-14 0 -25 9 q-11 9 -15 25 q-6 13 -6 24 q0 28 33 41 l49 15 q102 31 169.5 61 q67.5 30 103.5 80 l-291 0 q-24 0 -37 13 q-13 13 -13 37 q0 24 13 37 q13 13 37 13 l319 0 l0 7 q0 24 13 37 q13 13 37 13 q24 0 37 -13 q13 -13 13 -37 l0 -7 l324 0 q24 0 37 -13 q13 -13 13 -37 q0 -24 -13 -37 q-13 -13 -37 -13 l-287 0 q53 -59 128 -93 q75 -34 176 -65 Z" /><glyph glyph-name="uni5979" unicode="&#x5979;" d="M916 171 q27 0 41 -14.5 q14 -14.5 11 -39.5 l-11 -83 q-6 -48 -28 -77 q-33 -43 -99 -43 l-286 0 q-49 0 -74.5 25.5 q-25.5 25.5 -25.5 74.5 l0 372 q-4 -1 -11 -1 q-34 0 -44 37 q-3 11 -3 19 q0 32 37 43 l21 8 l0 143 q0 24 13 37 q13 13 37 13 q24 0 37 -13 q13 -13 13 -37 l0 -107 l75 27 l0 181 q0 24 13 37 q13 13 37 13 q24 0 37 -13 q13 -13 13 -37 l0 -145 l98 35 q13 5 27 5 q35 0 55 -31 q20 -31 18 -74 l-6 -207 q-2 -71 -24.5 -110.5 q-22.5 -39.5 -75.5 -39.5 l-23 0 q-24 0 -37 13 q-13 13 -13 37 q0 24 13 37 q13 13 37 13 q12 0 17 20.5 q5 20.5 6 69.5 l2 129 q0 11 -5.5 17.5 q-5.5 6.5 -14.5 2.5 l-74 -26 l0 -334 q0 -24 -13 -37 q-13 -13 -37 -13 q-24 0 -37 13 q-13 13 -13 37 l0 299 l-75 -27 l0 -356 q0 -24 13 -37 q13 -13 37 -13 l196 0 q41 0 55 17 q7 9 10 27 q3 18 5 26 l8 40 q5 24 16 35.5 q11 11.5 32 11.5 ZM315 141 q35 -35 67 -71 q17 -22 17 -38 q0 -15 -16 -32 q-16 -18 -34 -18 q-17 0 -35 16 q-11 9 -26 26 l-19 19 q-43 -77 -112 -131 q-19 -16 -36 -16 q-18 0 -37 17 q-16 19 -16 36 q0 19 18 36 q67 54 110 131 q-46 44 -89 70 q-33 20 -33 63 q0 21 7 40 l3 9 q20 90 35 220 l-14 0 q-24 0 -37 13 q-13 13 -13 37 q0 24 13 37 q13 13 37 13 l25 0 l14 123 q3 24 16.5 34.5 q13.5 10.5 38.5 8.5 q24 -2 35 -16.5 q11 -14.5 8 -39.5 l-13 -110 l116 0 q48 0 48 -66 q0 -16 -1 -24 q-24 -244 -77 -387 ZM238 210 q38 112 51 288 l0 2 q0 18 -20 18 l-53 0 q-24 -174 -41 -239 q-1 -3 -1 -8 q0 -5 2.5 -9 q2.5 -4 8.5 -9 l53 -43 Z" /><glyph glyph-name="uni5982" unicode="&#x5982;" d="M447 633 q48 0 48 -66 q0 -16 -1 -24 q-27 -245 -127 -413 q69 -55 103 -91 q24 -21 24 -40 q0 -14 -11 -29 q-15 -24 -38 -24 q-16 0 -30 10 q-48 46 -105 94 q-57 -71 -145 -139 q-19 -16 -36 -16 q-18 0 -37 17 q-16 19 -16 36 q0 19 18 36 q81 60 138 128 q-64 47 -113 72 q-36 17 -36 54 q0 22 10 49 l3 9 q25 75 52 237 l-32 0 q-24 0 -37 13 q-13 13 -13 37 q0 24 13 37 q13 13 37 13 l47 0 q9 57 15 110 q4 43 45 43 q26 0 39.5 -11 q13.5 -11 13.5 -33 q0 -7 -1 -11 q-4 -41 -14 -98 l186 0 ZM813 698 q49 0 74.5 -25.5 q25.5 -25.5 25.5 -74.5 l0 -558 q0 -49 -25.5 -74.5 q-25.5 -25.5 -74.5 -25.5 l-188 0 q-49 0 -74.5 25.5 q-25.5 25.5 -25.5 74.5 l0 558 q0 49 25.5 74.5 q25.5 25.5 74.5 25.5 l188 0 ZM813 578 q0 20 -20 20 l-148 0 q-20 0 -20 -20 l0 -518 q0 -20 20 -20 l148 0 q20 0 20 20 l0 518 ZM391 515 q0 18 -20 18 l-128 0 q-25 -129 -56 -256 q-1 -4 -1 -10 q0 -9 11 -16 q31 -17 92 -61 q88 142 102 323 l0 2 Z" /><glyph glyph-name="uni5B57" unicode="&#x5b57;" d="M124 456 q-24 0 -37 13 q-13 13 -13 37 l0 93 q0 49 25.5 74.5 q25.5 25.5 74.5 25.5 l280 0 l-13 38 q-6 14 -6 25 q0 26 29 40 q13 7 27 7 q27 0 41 -29 q15 -26 25 -81 l269 0 q49 0 74.5 -25.5 q25.5 -25.5 25.5 -74.5 l0 -93 q0 -24 -13 -37 q-13 -13 -37 -13 q-24 0 -37 13 q-13 13 -13 37 l0 53 q0 24 -8 32 q-8 8 -32 8 l-572 0 q-24 0 -32 -8 q-8 -8 -8 -32 l0 -53 q0 -24 -13 -37 q-13 -13 -37 -13 ZM882 271 q24 0 37 -13 q13 -13 13 -37 q0 -24 -13 -37 q-13 -13 -37 -13 l-331 0 l0 -122 q0 -150 -100 -150 l-123 0 q-24 0 -37 13 q-13 13 -13 37 q0 24 13 37 q13 13 37 13 l73 0 q31 0 40.5 21 q9.5 21 9.5 69 l0 82 l-341 0 q-24 0 -37 13 q-13 13 -13 37 q0 24 13 37 q13 13 37 13 l341 0 l0 24 q0 8 2 18 q4 16 23 29 l86 53 q10 6 10 13 q0 5 -4.5 8 q-4.5 3 -12.5 3 l-270 0 q-24 0 -37 13 q-13 13 -13 37 q0 24 13 37 q13 13 37 13 l461 0 q24 0 37 -13 q13 -13 13 -37 q0 -32 -22 -43 l-223 -153 l0 -2 l331 0 Z" /><glyph glyph-name="uni5B66" unicode="&#x5b66;" d="M124 424 q-24 0 -37 13 q-13 13 -13 37 l0 66 q0 49 25.5 74.5 q25.5 25.5 74.5 25.5 l44 0 q-15 32 -34 57 q-13 18 -13 34 q0 19 20 35 q19 14 35 14 q20 0 36 -19 q14 -15 25.5 -35 q11.5 -20 24.5 -49 q6 -13 6 -24 q0 -9 -2 -13 l146 0 l-4 8 q-6 22 -30 64 q-9 15 -9 30 q0 22 23 38 q17 11 32 11 q23 0 38 -23 q20 -25 42 -89 q4 -9 4 -19 q0 -10 -5 -20 l109 0 q24 37 64 105 q7 14 17.5 22 q10.5 8 23.5 8 q13 0 23 -5 q33 -14 33 -43 q0 -12 -5 -21 q-5 -17 -37 -66 l45 0 q49 0 74.5 -25.5 q25.5 -25.5 25.5 -74.5 l0 -64 q0 -24 -13 -37 q-13 -13 -37 -13 q-24 0 -37 13 q-13 13 -13 37 l0 24 q0 24 -8 32 q-8 8 -32 8 l-572 0 q-24 0 -32 -8 q-8 -8 -8 -32 l0 -26 q0 -24 -13 -37 q-13 -13 -37 -13 ZM882 247 q24 0 37 -13 q13 -13 13 -37 q0 -24 -13 -37 q-13 -13 -37 -13 l-321 0 l0 -98 q0 -150 -100 -150 l-123 0 q-24 0 -37 13 q-13 13 -13 37 q0 24 13 37 q13 13 37 13 l73 0 q31 0 40.5 21 q9.5 21 9.5 69 l0 58 l-351 0 q-24 0 -37 13 q-13 13 -13 37 q0 24 13 37 q13 13 37 13 l351 0 q2 26 17 38 l8 6 l75 53 q10 7 10 14 q0 10 -17 10 l-279 0 q-24 0 -37 13 q-13 13 -13 37 q0 24 13 37 q13 13 37 13 l451 0 q24 0 37 -13 q13 -13 13 -37 q0 -32 -22 -43 l-163 -128 l291 0 Z" /><glyph glyph-name="uni5B83" unicode="&#x5b83;" d="M823 691 q49 0 74.5 -25.5 q25.5 -25.5 25.5 -74.5 l0 -92 q0 -24 -13 -37 q-13 -13 -37 -13 q-24 0 -37 13 q-13 13 -13 37 l0 52 q0 23 -6.5 31.5 q-6.5 8.5 -23.5 8.5 l-583 0 q-17 0 -23.5 -8.5 q-6.5 -8.5 -6.5 -31.5 l0 -52 q0 -24 -13 -37 q-13 -13 -37 -13 q-24 0 -37 13 q-13 13 -13 37 l0 92 q0 49 25.5 74.5 q25.5 25.5 74.5 25.5 l281 0 q-5 19 -15 42 q-7 16 -7 26 q0 25 28 40 q16 8 28 8 q25 0 41 -28 q10 -16 15.5 -34.5 q5.5 -18.5 13.5 -53.5 l258 0 ZM841 205 q26 0 40 -14 q14 -14 12 -40 l-8 -120 q-3 -45 -28 -77 q-33 -43 -99 -43 l-451 0 q-49 0 -74.5 25.5 q-25.5 25.5 -25.5 74.5 l0 447 q0 24 13 37 q13 13 37 13 q24 0 37 -13 q13 -13 13 -37 l0 -164 q87 21 194 57.5 q107 36.5 219 89.5 q15 9 26 9 q24 0 40 -31 q8 -16 8 -27 q0 -25 -29 -40 q-255 -117 -458 -167 l0 -124 q0 -24 13 -37 q13 -13 37 -13 l361 0 q41 0 55 17 q12 16 15 53 l5 77 q2 23 14 35 q12 12 34 12 Z" /><glyph glyph-name="uni5B89" unicode="&#x5b89;" d="M136 473 q-24 0 -37 13 q-13 13 -13 37 l0 76 q0 49 25.5 74.5 q25.5 25.5 74.5 25.5 l275 0 l-7 18 q-7 16 -7 26 q0 25 28 40 q16 8 28 8 q25 0 41 -28 q14 -23 23 -64 l253 0 q49 0 74.5 -25.5 q25.5 -25.5 25.5 -74.5 l0 -76 q0 -24 -13 -37 q-13 -13 -37 -13 q-24 0 -37 13 q-13 13 -13 37 l0 36 q0 23 -6.5 31.5 q-6.5 8.5 -23.5 8.5 l-574 0 q-17 0 -23.5 -8.5 q-6.5 -8.5 -6.5 -31.5 l0 -36 q0 -24 -13 -37 q-13 -13 -37 -13 ZM770 329 q-37 -120 -148 -219 q122 -56 240 -119 q27 -16 27 -39 q0 -15 -8 -30 q-15 -27 -40 -27 q-13 0 -29 8 q-117 62 -284 135 q-88 -57 -188.5 -95.5 q-100.5 -38.5 -193.5 -59.5 q-12 -2 -16 -2 q-22 0 -35 14 q-13 14 -13 40 q0 34 38 45 q157 41 290 109 q-152 64 -195 76 q-18 6 -27 18.5 q-9 12.5 -9 27.5 q0 23 15 41 q23 30 52 77 l-137 0 q-24 0 -37 13 q-13 13 -13 37 q0 24 13 37 q13 13 37 13 l195 0 q36 67 54 108 q16 31 41 31 q13 0 27 -7 q30 -14 30 -40 q0 -9 -7 -27 q-13 -30 -32 -65 l472 0 q24 0 37 -13 q13 -13 13 -37 q0 -24 -13 -37 q-13 -13 -37 -13 l-119 0 ZM333 232 q72 -27 185 -76 q109 80 147 173 l-301 0 l-40 -70 q-4 -8 -4 -12 q0 -10 13 -15 Z" /><glyph glyph-name="uni5B9A" unicode="&#x5b9a;" d="M130 510 q-24 0 -37 13 q-13 13 -13 37 l0 52 q0 49 25.5 74.5 q25.5 25.5 74.5 25.5 l280 0 q-4 18 -7 26 q-4 11 -4 22 q0 29 31 42 q15 5 25 5 q28 0 42 -32 q9 -17 17 -63 l261 0 q49 0 74.5 -25.5 q25.5 -25.5 25.5 -74.5 l0 -52 q0 -24 -13 -37 q-13 -13 -37 -13 q-24 0 -37 13 q-13 13 -13 37 l0 12 q0 24 -8 32 q-8 8 -32 8 l-575 0 q-17 0 -23.5 -8.5 q-6.5 -8.5 -6.5 -31.5 l0 -12 q0 -24 -13 -37 q-13 -13 -37 -13 ZM888 18 q24 0 37 -13 q13 -13 13 -37 q0 -24 -13 -37 q-13 -13 -37 -13 l-134 -1 q-60 0 -135 3 q-149 7 -231.5 37 q-82.5 30 -132.5 103 q-18 -37 -40 -64.5 q-22 -27.5 -42 -47 q-20 -19.5 -26 -26.5 q-20 -17 -39 -17 q-17 0 -31 14 q-21 16 -21 37 q0 16 15 33 l16 17 q34 37 56.5 69 q22.5 32 38.5 83.5 q16 51.5 16 124.5 q0 24 13 37 q13 13 37 13 q24 0 37 -13 q13 -13 13 -37 q0 -44 -4 -75 q23 -75 64 -114.5 q41 -39.5 107 -57.5 l0 355 l-300 0 q-24 0 -37 13 q-13 13 -13 37 q0 24 13 37 q13 13 37 13 l676 0 q24 0 37 -13 q13 -13 13 -37 q0 -24 -13 -37 q-13 -13 -37 -13 l-276 0 l0 -103 l268 0 q24 0 37 -13 q13 -13 13 -37 q0 -24 -13 -37 q-13 -13 -37 -13 l-268 0 l0 -167 l56 -3 q85 -3 143 -3 q58 0 124 3 Z" /><glyph glyph-name="uni5B9E" unicode="&#x5b9e;" d="M126 473 q-24 0 -37 13 q-13 13 -13 37 l0 76 q0 49 25.5 74.5 q25.5 25.5 74.5 25.5 l286 0 q-3 9 -13 34 q-7 16 -7 26 q0 25 28 40 q16 8 28 8 q25 0 41 -28 q15 -23 27 -80 l260 0 q49 0 74.5 -25.5 q25.5 -25.5 25.5 -74.5 l0 -76 q0 -24 -13 -37 q-13 -13 -37 -13 q-24 0 -37 13 q-13 13 -13 37 l0 36 q0 24 -8 32 q-8 8 -32 8 l-580 0 q-17 0 -23.5 -8.5 q-6.5 -8.5 -6.5 -31.5 l0 -36 q0 -24 -13 -37 q-13 -13 -37 -13 ZM334 571 q69 -28 147 -78 q25 -13 25 -39 q0 -15 -9 -30 q-19 -27 -43 -27 q-13 0 -26 10 q-20 16 -55.5 35 q-35.5 19 -68.5 34 q-37 17 -37 44 q0 10 4 21 q5 16 17 24.5 q12 8.5 28 8.5 q9 0 18 -3 ZM595 149 q-2 -4 -2 -5 q61 -26 160 -78.5 q99 -52.5 124 -69.5 q26 -14 26 -39 q0 -14 -9 -29 q-18 -28 -42 -28 q-15 0 -26 10 q-40 24 -150 83.5 q-110 59.5 -140 68.5 l-1 0 q-41 -44 -94.5 -74 q-53.5 -30 -105 -47.5 q-51.5 -17.5 -126.5 -38.5 l-46 -13 q-9 -4 -21 -4 q-14 0 -25 9 q-11 9 -16 25 q-5 13 -5 23 q0 14 9 25 q9 11 25 16 q143 42 223 79.5 q80 37.5 124 86.5 l-358 0 q-24 0 -37 13 q-13 13 -13 37 q0 24 13 37 q13 13 37 13 l240 0 l-4 3 q-21 16 -67.5 42.5 q-46.5 26.5 -76.5 40.5 q-37 17 -37 44 q0 10 4 21 q5 16 17 24.5 q12 8.5 28 8.5 q9 0 18 -3 q41 -16 81 -39 q40 -23 86 -53 q25 -13 25 -39 q0 -15 -9 -30 q-7 -11 -20 -20 l126 0 q17 60 17 150 l0 108 q0 24 13 37 q13 13 37 13 q24 0 37 -13 q13 -13 13 -37 l0 -103 q0 -83 -16 -155 l251 0 q24 0 37 -13 q13 -13 13 -37 q0 -24 -13 -37 q-13 -13 -37 -13 l-287 0 Z" /><glyph glyph-name="uni5BA2" unicode="&#x5ba2;" d="M893 276 q19 -3 30 -15 q11 -12 11 -31 q0 -25 -13 -39.5 q-13 -14.5 -34 -14.5 q-8 0 -12 1 q-40 5 -65 10 q20 -26 20 -68 l0 -99 q0 -49 -25.5 -74.5 q-25.5 -25.5 -74.5 -25.5 l-458 0 q-49 0 -74.5 25.5 q-25.5 25.5 -25.5 74.5 l0 99 q0 44 22 71 l-84 -15 q-4 -1 -11 -1 q-21 0 -33.5 15 q-12.5 15 -12.5 41 q0 18 11 30.5 q11 12.5 31 14.5 q138 18 262 50 q-70 38 -118 82 q-48 -37 -71 -50 q-18 -8 -29 -8 q-24 0 -40 28 q-8 12 -8 27 q0 25 28 41 q44 22 95 65.5 q51 43.5 96 91.5 q12 13 20 17 l-122 0 q-17 0 -23.5 -8.5 q-6.5 -8.5 -6.5 -31.5 l0 -19 q0 -24 -13 -37 q-13 -13 -37 -13 q-24 0 -37 13 q-13 13 -13 37 l0 59 q0 49 25.5 74.5 q25.5 25.5 74.5 25.5 l274 0 l-6 14 q-7 16 -7 26 q0 25 28 40 q16 8 28 8 q25 0 41 -28 q11 -16 23 -60 l265 0 q49 0 74.5 -25.5 q25.5 -25.5 25.5 -74.5 l0 -59 q0 -24 -13 -37 q-13 -13 -37 -13 q-24 0 -37 13 q-13 13 -13 37 l0 19 q0 20 -1 27 q-1 7 -7 10 q-6 3 -22 3 l-435 0 q11 -5 20 -12 q21 -16 21 -36 q0 -10 -8 -23 l370 0 q17 0 29.5 -9.5 q12.5 -9.5 18.5 -23.5 q5 -12 5 -28 q0 -19 -7 -29 q-51 -74 -164 -134 q118 -31 249 -48 ZM352 448 q59 -40 149 -77 q79 31 129 65 q3 2 3 5 q0 2 -2.5 4.5 q-2.5 2.5 -6.5 2.5 l-272 0 ZM649 219 q-91 22 -151 44 q-79 -25 -160 -44 l311 0 ZM730 99 q0 20 -20 20 l-418 0 q-20 0 -20 -20 l0 -59 q0 -20 20 -20 l418 0 q20 0 20 20 l0 59 Z" /><glyph glyph-name="uni5BB9" unicode="&#x5bb9;" d="M136 505 q-24 0 -37 13 q-13 13 -13 37 l0 56 q0 49 25.5 74.5 q25.5 25.5 74.5 25.5 l269 0 l-9 22 q-7 16 -7 26 q0 25 28 40 q16 8 28 8 q25 0 41 -28 q15 -23 24 -68 l250 0 q49 0 74.5 -25.5 q25.5 -25.5 25.5 -74.5 l0 -56 q0 -24 -13 -37 q-13 -13 -37 -13 q-24 0 -37 13 q-13 13 -13 37 l0 16 q0 23 -6.5 31.5 q-6.5 8.5 -23.5 8.5 l-564 0 q-17 0 -23.5 -8.5 q-6.5 -8.5 -6.5 -31.5 l0 -16 q0 -24 -13 -37 q-13 -13 -37 -13 ZM326 578 q16 10 30 10 q21 0 39 -22 q12 -15 12 -31 q0 -23 -24 -38 q-53 -36 -106.5 -65.5 q-53.5 -29.5 -96.5 -46.5 q-11 -5 -25 -5 q-26 0 -41 32 q-6 12 -6 24 q0 27 32 42 q40 15 90 41.5 q50 26.5 96 58.5 ZM654 580 q52 -24 112.5 -56.5 q60.5 -32.5 101.5 -58.5 q23 -18 23 -38 q0 -14 -12 -32 q-16 -24 -38 -24 q-15 0 -32 11 q-36 23 -92 54 q-56 31 -103 54 q-30 13 -30 41 q0 11 5 24 q13 32 40 32 q12 0 25 -7 ZM915 227 q28 -13 28 -41 q0 -13 -7 -26 q-15 -30 -42 -30 q-9 0 -25 7 l-48 24 q1 -5 1 -17 l0 -129 q0 -49 -25.5 -74.5 q-25.5 -25.5 -74.5 -25.5 l-442 0 q-49 0 -74.5 25.5 q-25.5 25.5 -25.5 74.5 l0 129 q0 13 1 20 q-23 -14 -45 -24 q-16 -7 -25 -7 q-27 0 -42 30 q-7 13 -7 26 q0 28 28 41 q217 104 360 229 q7 8 22 12.5 q15 4.5 31 4.5 q36 0 50 -17 q75 -66 160.5 -118 q85.5 -52 201.5 -114 ZM679 244 q-58 36 -140 90 q-8 6 -24 16 q-8 5 -13 5 q-6 0 -15 -6 q-77 -51 -165 -105 l357 0 ZM722 124 q0 20 -20 20 l-402 0 q-20 0 -20 -20 l0 -89 q0 -20 20 -20 l402 0 q20 0 20 20 l0 89 Z" /><glyph glyph-name="uni5BF9" unicode="&#x5bf9;" d="M897 617 q24 0 37 -13 q13 -13 13 -37 q0 -24 -13 -37 q-13 -13 -37 -13 l-59 0 l0 -470 q0 -150 -100 -150 l-130 0 q-24 0 -37 13 q-13 13 -13 37 q0 24 13 37 q13 13 37 13 l80 0 q31 0 40.5 21 q9.5 21 9.5 69 l0 430 l-215 0 q-24 0 -37 13 q-13 13 -13 37 q0 24 13 37 q13 13 37 13 l215 0 l0 119 q0 24 13 37 q13 13 37 13 q24 0 37 -13 q13 -13 13 -37 l0 -119 l59 0 ZM350 285 q104 -154 117 -179 q11 -17 11 -31 q0 -21 -26 -38 q-18 -10 -29 -10 q-23 0 -40 26 q-21 37 -85 130 q-59 -104 -155 -229 q-17 -17 -36 -17 q-19 0 -36 16 q-17 15 -17 34 q0 19 16 35 q99 125 166 253 q-102 145 -132 180 q-13 16 -13 33 q0 19 21 37 q16 14 32 14 q20 0 38 -22 q35 -44 102 -139 q46 114 54 209 l0 4 q0 19 -17 19 l-201 0 q-24 0 -37 13 q-13 13 -13 37 q0 24 13 37 q13 13 37 13 l263 0 q26 0 43.5 -11.5 q17.5 -11.5 20.5 -31.5 q2 -16 2 -26 q0 -20 -4 -39 q-19 -95 -41 -170.5 q-22 -75.5 -54 -146.5 ZM647 206 q-18 -8 -31 -8 q-28 0 -39 27 q-15 27 -43.5 67.5 q-28.5 40.5 -45.5 59.5 q-16 21 -16 37 q0 17 17 34 q16 16 34 16 q17 0 37 -18 q18 -17 53.5 -68 q35.5 -51 52.5 -80 q7 -13 7 -25 q0 -25 -26 -42 Z" /><glyph glyph-name="uni5BFC" unicode="&#x5bfc;" d="M891 233 q24 0 37 -13 q13 -13 13 -37 q0 -24 -13 -37 q-13 -13 -37 -13 l-110 0 l0 -85 q0 -150 -100 -150 l-123 0 q-24 0 -37 13 q-13 13 -13 37 q0 24 13 37 q13 13 37 13 l73 0 q31 0 40.5 21 q9.5 21 9.5 69 l0 45 l-383 0 q29 -17 66 -44.5 q37 -27.5 51 -44.5 q17 -16 17 -35 q0 -17 -15 -35 q-19 -19 -40 -19 q-19 0 -32 16 q-16 17 -49.5 42 q-33.5 25 -57.5 39 q-28 19 -28 41 q0 11 8 27 q6 10 9 13 l-129 0 q-24 0 -37 13 q-13 13 -13 37 q0 24 13 37 q13 13 37 13 l583 0 l0 25 q0 31 21 43 l-483 0 q-49 0 -74.5 25.5 q-25.5 25.5 -25.5 74.5 l0 269 q0 49 25.5 74.5 q25.5 25.5 74.5 25.5 l520 0 q49 0 74.5 -25.5 q25.5 -25.5 25.5 -74.5 l0 -91 q0 -49 -25.5 -74.5 q-25.5 -25.5 -74.5 -25.5 l-520 0 l0 -28 q0 -24 13 -37 q13 -13 37 -13 l496 0 q41 0 49 3 q8 3 9 11.5 q1 8.5 2 14.5 q5 24 16 35.5 q11 11.5 32 11.5 q26 0 40 -14.5 q14 -14.5 12 -39.5 q-3 -41 -11 -65 q-8 -24 -33 -40.5 q-25 -16.5 -76 -16.5 l-45 0 q21 -12 21 -43 l0 -25 l110 0 ZM219 599 q0 -20 20 -20 l480 0 q20 0 20 20 l0 51 q0 20 -20 20 l-480 0 q-20 0 -20 -20 l0 -51 Z" /><glyph glyph-name="uni5C01" unicode="&#x5c01;" d="M111 372 q-24 0 -37 13 q-13 13 -13 37 q0 24 13 37 q13 13 37 13 l135 0 l0 101 l-104 0 q-24 0 -37 13 q-13 13 -13 37 q0 24 13 37 q13 13 37 13 l104 0 l0 70 q0 24 13 37 q13 13 37 13 q24 0 37 -13 q13 -13 13 -37 l0 -70 l104 0 q24 0 37 -13 q13 -13 13 -37 q0 -24 -13 -37 q-13 -13 -37 -13 l-104 0 l0 -101 l126 0 q24 0 37 -13 q13 -13 13 -37 q0 -24 -13 -37 q-13 -13 -37 -13 l-361 0 ZM897 617 q24 0 37 -13 q13 -13 13 -37 q0 -24 -13 -37 q-13 -13 -37 -13 l-37 0 l0 -470 q0 -150 -100 -150 l-110 0 q-24 0 -37 13 q-13 13 -13 37 q0 24 13 37 q13 13 37 13 l60 0 q31 0 40.5 21 q9.5 21 9.5 69 l0 430 l-187 0 q-24 0 -37 13 q-13 13 -13 37 q0 24 13 37 q13 13 37 13 l187 0 l0 119 q0 24 13 37 q13 13 37 13 q24 0 37 -13 q13 -13 13 -37 l0 -119 l37 0 ZM683 193 q-16 -4 -23 -4 q-16 0 -27.5 9 q-11.5 9 -15.5 26 q-11 29 -32 74 q-21 45 -35 66 q-9 17 -9 32 q0 21 22 37 q14 10 30 10 q22 0 40 -23 q14 -20 40.5 -75.5 q26.5 -55.5 39.5 -88.5 q3 -10 3 -19 q0 -28 -33 -44 ZM473 86 q5 1 14 1 q22 0 34.5 -14.5 q12.5 -14.5 12.5 -39.5 q0 -18 -10.5 -29.5 q-10.5 -11.5 -29.5 -15.5 q-175 -34 -384 -45 q-24 0 -37.5 13.5 q-13.5 13.5 -13.5 38.5 q0 22 12.5 35 q12.5 13 35.5 14 q44 2 139 10 l0 119 l-103 0 q-24 0 -37 13 q-13 13 -13 37 q0 24 13 37 q13 13 37 13 l103 0 l0 14 q0 24 13 37 q13 13 37 13 q24 0 37 -13 q13 -13 13 -37 l0 -14 l104 0 q24 0 37 -13 q13 -13 13 -37 q0 -24 -13 -37 q-13 -13 -37 -13 l-104 0 l0 -108 q63 9 127 21 Z" /><glyph glyph-name="uni5C06" unicode="&#x5c06;" d="M437 525 q-15 -11 -31 -11 q-22 0 -39 24 q-11 16 -11 29 q0 22 23 39 q59 42 98.5 83.5 q39.5 41.5 75.5 92.5 q18 25 38 25 q13 0 31 -9 q25 -17 25 -39 q0 -14 -9 -29 l-9 -14 l275 0 q24 0 38.5 -21 q14.5 -21 14.5 -47 q0 -18 -8 -31 q-69 -109 -185.5 -175 q-116.5 -66 -294.5 -113 q-12 -3 -21 -3 q-33 0 -43 38 q-3 9 -3 17 q0 16 9.5 27 q9.5 11 26.5 16 q17 5 22 7 q67 19 111 34 q-29 25 -41 33 q-25 17 -25 40 q0 12 10 29 q15 25 39 25 q14 0 31 -9 q41 -29 87 -78 q91 43 138 97 q4 4 4 8 q0 6 -8 6 l-260 0 q-53 -55 -109 -91 ZM290 778 q24 0 37 -13 q13 -13 13 -37 l0 -783 q0 -24 -13 -37 q-13 -13 -37 -13 q-24 0 -37 13 q-13 13 -13 37 l0 281 q-83 -75 -105 -87 q-16 -15 -34 -15 q-20 0 -39 19 q-9 15 -9 33 q0 26 17 37 q38 27 87 69 q49 42 83 75 l0 371 q0 24 13 37 q13 13 37 13 ZM125 426 q-9 29 -28 79.5 q-19 50.5 -30 69.5 q-9 18 -9 32 q0 21 21 38 q17 10 30 10 q22 0 39 -22 q13 -19 37.5 -80.5 q24.5 -61.5 33.5 -90.5 q5 -13 5 -22 q0 -28 -34 -44 q-11 -3 -21 -3 q-34 0 -44 33 ZM906 321 q24 0 37 -13 q13 -13 13 -37 q0 -24 -13 -37 q-13 -13 -37 -13 l-51 0 l0 -165 q0 -150 -100 -150 l-113 0 q-24 0 -37 13 q-13 13 -13 37 q0 24 13 37 q13 13 37 13 l63 0 q31 0 40.5 21 q9.5 21 9.5 69 l0 125 l-326 0 q-24 0 -37 13 q-13 13 -13 37 q0 24 13 37 q13 13 37 13 l326 0 l0 53 q0 24 13 37 q13 13 37 13 q24 0 37 -13 q13 -13 13 -37 l0 -53 l51 0 ZM608 113 q16 -17 16 -35 q0 -17 -17 -37 q-20 -15 -37 -15 q-20 0 -35 18 q-39 47 -71 77 q-21 21 -21 40 q0 14 10 30 q18 21 40 21 q14 0 30 -11 q21 -18 46 -44 q25 -26 39 -44 Z" /><glyph glyph-name="uni5C0F" unicode="&#x5c0f;" d="M254 -50 q0 24 13 37 q13 13 37 13 l103 0 q31 0 40.5 21 q9.5 21 9.5 69 l0 637 q0 24 13 37 q13 13 37 13 q24 0 37 -13 q13 -13 13 -37 l0 -677 q0 -150 -100 -150 l-153 0 q-24 0 -37 13 q-13 13 -13 37 ZM925 90 q-6 -2 -17 -2 q-32 0 -45 36 q-8 28 -45 115.5 q-37 87.5 -77.5 172.5 q-40.5 85 -63.5 118 q-7 14 -7 27 q0 23 27 41 q15 9 28 9 q24 0 40 -28 q26 -38 68 -126.5 q42 -88.5 79.5 -178 q37.5 -89.5 46.5 -121.5 q3 -10 3 -19 q0 -32 -37 -44 ZM66 96 q-27 15 -27 42 q0 12 6 25 q24 44 80.5 192.5 q56.5 148.5 67.5 207.5 q11 35 45 35 q26 0 40 -12.5 q14 -12.5 14 -33.5 q0 -6 -2 -18 q-9 -45 -40 -133 q-31 -88 -65 -172 q-34 -84 -50 -112 q-17 -29 -41 -29 q-12 0 -28 8 Z" /><glyph glyph-name="uni5C24" unicode="&#x5c24;" d="M463 496 q-20 -203 -104 -343 q-84 -140 -222 -250 l-1 -1 q-16 -13 -32 -13 q-20 0 -37 21 q-14 15 -14 33 q0 21 20 37 l1 1 q74 61 130 124.5 q56 63.5 100.5 161 q44.5 97.5 57.5 229.5 l-234 0 q-24 0 -37 13 q-13 13 -13 37 q0 24 13 37 q13 13 37 13 l240 0 l0 11 l0 132 q0 24 13 37 q13 13 37 13 q24 0 37 -13 q13 -13 13 -37 l0 -127 l0 -16 l411 0 q24 0 37 -13 q13 -13 13 -37 q0 -24 -13 -37 q-13 -13 -37 -13 l-416 0 ZM635 688 q-26 20 -26 43 q0 13 7 27 q15 24 40 24 q15 0 29 -7 q21 -13 47 -38 q26 -25 41 -45 q16 -22 16 -38 q0 -16 -15 -34 q-17 -16 -37 -16 q-21 0 -34 17 l-24 25 q-24 26 -44 42 ZM899 223 q26 0 40 -14 q14 -14 12 -40 l-10 -132 q-3 -45 -28 -77 q-33 -43 -99 -43 l-195 0 q-49 0 -74.5 25.5 q-25.5 25.5 -25.5 74.5 l0 389 q0 24 13 37 q13 13 37 13 q24 0 37 -13 q13 -13 13 -37 l0 -339 q0 -24 13 -37 q13 -13 37 -13 l105 0 q41 0 55 17 q12 16 15 53 l7 89 q5 47 48 47 Z" /><glyph glyph-name="uni5C31" unicode="&#x5c31;" d="M119 596 q-24 0 -37 13 q-13 13 -13 37 q0 24 13 37 q13 13 37 13 l137 0 q-5 17 -8 29 q-3 11 -3 21 q0 31 33 42 q11 4 22 4 q31 0 43 -33 q13 -39 18 -63 l101 0 q24 0 37 -13 q13 -13 13 -37 q0 -24 -13 -37 q-13 -13 -37 -13 l-343 0 ZM684 482 q-22 -375 -173 -548 q-16 -19 -34 -19 q-17 0 -34 17 q-20 17 -20 36 q0 16 16 34 q127 149 146 480 l-18 0 q-24 0 -37 13 q-13 13 -13 37 q0 24 13 37 q13 13 37 13 l21 0 l0 25 l0 132 q0 24 13 37 q13 13 37 13 q24 0 37 -13 q13 -13 13 -37 l0 -127 l0 -30 l200 0 q24 0 37 -13 q13 -13 13 -37 q0 -24 -13 -37 q-13 -13 -37 -13 l-204 0 ZM780 646 l-22 26 q-17 17 -17 35 q0 18 16 34 q16 19 36 19 q19 0 35 -15 q39 -38 65 -80 q9 -13 9 -27 q0 -24 -26 -39 q-16 -10 -30 -10 q-23 0 -39 25 l-27 32 ZM361 259 l0 -198 q0 -150 -100 -150 l-63 0 q-24 0 -37 13 q-13 13 -13 37 q0 24 13 37 q13 13 37 13 l13 0 q31 0 40.5 21 q9.5 21 9.5 69 l0 158 l-60 0 q-49 0 -74.5 25.5 q-25.5 25.5 -25.5 74.5 l0 89 q0 49 25.5 74.5 q25.5 25.5 74.5 25.5 l197 0 q49 0 74.5 -25.5 q25.5 -25.5 25.5 -74.5 l0 -89 q0 -49 -25.5 -74.5 q-25.5 -25.5 -74.5 -25.5 l-37 0 ZM201 379 q0 -20 20 -20 l157 0 q20 0 20 20 l0 49 q0 20 -20 20 l-157 0 q-20 0 -20 -20 l0 -49 ZM912 188 q26 0 40 -14.5 q14 -14.5 12 -39.5 l-8 -97 q-5 -61 -31 -90.5 q-26 -29.5 -81 -29.5 l-45 0 q-49 0 -74.5 25.5 q-25.5 25.5 -25.5 74.5 l0 371 q0 24 13 37 q13 13 37 13 q24 0 37 -13 q13 -13 13 -37 l0 -351 q0 -20 20 -20 l15 0 q13 0 17 8.5 q4 8.5 6 38.5 l2 23 l5 54 q5 47 48 47 ZM477 107 q-15 -9 -29 -9 q-25 0 -40 27 l-19 32 q-9 15 -9 29 q0 25 27 40 q15 9 28 9 q25 0 40 -27 l20 -33 q8 -13 8 -28 q0 -25 -26 -40 ZM175 224 q32 -11 32 -42 q0 -12 -4 -23 q-2 -6 -5 -13.5 q-3 -7.5 -6 -15.5 q-16 -44 -27.5 -68 q-11.5 -24 -33.5 -54 q-18 -24 -39 -24 q-15 0 -33 12 q-21 15 -21 39 q0 16 9 29 q21 35 32 59 q11 24 19 46.5 q8 22.5 11 30.5 q14 29 41 29 q10 0 25 -5 Z" /><glyph glyph-name="uni5C4B" unicode="&#x5c4b;" d="M231 510 q-3 -140 -10.5 -236.5 q-7.5 -96.5 -27.5 -183 q-20 -86.5 -59 -158.5 q-17 -30 -42 -30 q-11 0 -24 7 q-32 14 -32 41 q0 12 7 25 q40 65 60 158.5 q20 93.5 25 189 q5 95.5 5 221.5 l0 110 q0 49 25.5 74.5 q25.5 25.5 74.5 25.5 l577 0 q49 0 74.5 -25.5 q25.5 -25.5 25.5 -74.5 l0 -44 q0 -49 -25.5 -74.5 q-25.5 -25.5 -74.5 -25.5 l-579 0 ZM233 630 q0 -20 20 -20 l537 0 q20 0 20 20 l0 4 q0 20 -20 20 l-537 0 q-20 0 -20 -20 l0 -4 ZM877 21 q24 0 37 -13 q13 -13 13 -37 q0 -24 -13 -37 q-13 -13 -37 -13 l-634 0 q-24 0 -37 13 q-13 13 -13 37 q0 24 13 37 q13 13 37 13 l278 0 l0 50 l-201 0 q-24 0 -37 13 q-13 13 -13 37 q0 24 13 37 q13 13 37 13 l201 0 l0 43 l-201 -6 q-17 0 -28.5 9.5 q-11.5 9.5 -16.5 22 q-5 12.5 -5 18.5 q0 35 26 46 q33 19 87 73 l-78 0 q-24 0 -37 13 q-13 13 -13 37 q0 24 13 37 q13 13 37 13 l547 0 q24 0 37 -13 q13 -13 13 -37 q0 -24 -13 -37 q-13 -13 -37 -13 l-114 0 q41 -30 103 -86 l17 -15 q16 -15 16 -33 q0 -20 -20 -38 q-16 -15 -35 -15 q-20 0 -36 18 l-13 13 l-149 -4 l0 -46 l206 0 q24 0 37 -13 q13 -13 13 -37 q0 -24 -13 -37 q-13 -13 -37 -13 l-206 0 l0 -50 l256 0 ZM458 320 q-4 -3 -4 -6 q0 -6 9 -6 l192 8 q-8 9 -8 23 q0 17 10 34 l2 4 l-138 0 l-63 -57 Z" /><glyph glyph-name="uni5C5E" unicode="&#x5c5e;" d="M898 647 q0 -49 -25.5 -74.5 q-25.5 -25.5 -74.5 -25.5 l-567 0 q-4 -145 -10 -234.5 q-6 -89.5 -24.5 -190 q-18.5 -100.5 -56.5 -191.5 q-12 -30 -40 -30 q-13 0 -26 7 q-32 14 -32 41 q0 12 7 25 q51 98 67.5 250.5 q16.5 152.5 16.5 320.5 l0 91 l0 28 q0 49 25.5 74.5 q25.5 25.5 74.5 25.5 l565 0 q49 0 74.5 -25.5 q25.5 -25.5 25.5 -74.5 l0 -17 ZM778 627 q20 0 20 20 l0 17 q0 20 -20 20 l-525 0 q-20 0 -20 -20 l0 -17 q0 -20 20 -20 l525 0 ZM803 217 q49 0 74.5 -25.5 q25.5 -25.5 25.5 -74.5 l0 -64 q0 -150 -100 -150 l-73 0 q-26 0 -38 8.5 q-12 8.5 -12 31.5 q0 23 12 31.5 q12 8.5 38 8.5 l23 0 q30 0 40 29 q10 29 10 81 l0 14 q0 20 -20 20 l-57 0 q7 -4 14 -16 q16 -29 30 -66 q2 -10 2 -15 q0 -24 -26 -34 q-5 -2 -14 -2 q-14 0 -23 10 l-287 -15 q-22 -1 -34.5 10.5 q-12.5 11.5 -12.5 33.5 q-2 22 9 34 q11 12 33 13 l100 5 l0 42 l-165 0 q-20 0 -20 -20 l0 -151 q0 -24 -13 -37 q-13 -13 -37 -13 q-24 0 -37 13 q-13 13 -13 37 l0 161 q0 49 25.5 74.5 q25.5 25.5 74.5 25.5 l185 0 l0 21 l-157 0 q-44 0 -67.5 23.5 q-23.5 23.5 -23.5 67.5 l0 1 q0 44 23.5 67.5 q23.5 23.5 67.5 23.5 l157 0 l0 25 l-222 -7 q-42 0 -42 41 q-1 20 10 31.5 q11 11.5 30 10.5 l31 0 q95 0 274.5 8 q179.5 8 223.5 13 q21 2 32.5 -9.5 q11.5 -11.5 11.5 -34.5 q0 -35 -38 -38 q-61 -6 -211 -11 l0 -29 l157 0 q44 0 67.5 -23.5 q23.5 -23.5 23.5 -67.5 l0 -1 q0 -44 -23.5 -67.5 q-23.5 -23.5 -67.5 -23.5 l-157 0 l0 -21 l186 0 ZM517 311 l0 37 l-139 0 q-18 0 -18 -18 l0 -1 q0 -18 18 -18 l139 0 ZM617 348 l0 -37 l139 0 q18 0 18 18 l0 1 q0 18 -18 18 l-139 0 ZM691 127 l-74 0 l0 -36 l51 2 q0 18 20 32 l3 2 Z" /><glyph glyph-name="uni5D4C" unicode="&#x5d4c;" d="M224 557 q-49 0 -74.5 25.5 q-25.5 25.5 -25.5 74.5 l0 47 q0 24 13 37 q13 13 37 13 q24 0 37 -13 q13 -13 13 -37 l0 -27 q0 -20 20 -20 l206 0 l0 86 q0 24 13 37 q13 13 37 13 q24 0 37 -13 q13 -13 13 -37 l0 -86 l206 0 q20 0 20 20 l0 27 q0 24 13 37 q13 13 37 13 q24 0 37 -13 q13 -13 13 -37 l0 -47 q0 -49 -25.5 -74.5 q-25.5 -25.5 -74.5 -25.5 l-552 0 ZM668 477 l223 0 q24 0 37 -13 q13 -13 13 -37 q0 -17 -18 -48 l-57 -115 q-12 -25 -37 -25 q-16 0 -34 10 q-23 13 -23 36 q0 14 10 34 l17 34 q4 8 4 14 q0 10 -16 10 l-156 0 q-34 -77 -60 -114 q-15 -25 -37 -25 q-15 0 -32 11 q-24 17 -24 40 q0 16 11 30 q31 45 49.5 88.5 q18.5 43.5 38.5 108.5 q10 35 39 35 q11 0 22 -4 q37 -9 37 -40 q0 -11 -4 -20 l-3 -10 ZM503 413 q0 -24 -13 -37 q-13 -13 -37 -13 l-3 0 l0 -306 q0 -49 -25.5 -74.5 q-25.5 -25.5 -74.5 -25.5 l-138 0 q-49 0 -74.5 25.5 q-25.5 25.5 -25.5 74.5 l0 306 l-9 0 q-24 0 -37 13 q-13 13 -13 37 q0 24 13 37 q13 13 37 13 l9 0 l0 17 q0 24 13 37 q13 13 37 13 q24 0 37 -13 q13 -13 13 -37 l0 -17 l138 0 l0 17 q0 24 13 37 q13 13 37 13 q24 0 37 -13 q13 -13 13 -37 l0 -17 l3 0 q24 0 37 -13 q13 -13 13 -37 ZM350 268 l0 95 l-138 0 l0 -95 l138 0 ZM904 9 q30 -19 30 -43 q0 -13 -9 -25 q-18 -29 -42 -29 q-11 0 -26 10 q-46 34 -80.5 71 q-34.5 37 -66.5 96 q-28 -67 -70 -107.5 q-42 -40.5 -89 -67.5 q-17 -14 -34 -14 q-20 0 -35 20 q-16 19 -16 35 q0 19 20 36 q50 32 79.5 57.5 q29.5 25.5 54 82.5 q24.5 57 24.5 149 l0 12 q0 24 13 37 q13 13 37 13 q24 0 37 -13 q13 -13 13 -37 l0 -12 q0 -25 -1 -38 q8 -60 57.5 -126.5 q49.5 -66.5 103.5 -106.5 ZM330 57 q20 0 20 20 l0 91 l-138 0 l0 -91 q0 -20 20 -20 l98 0 Z" /><glyph glyph-name="uni5DE5" unicode="&#x5de5;" d="M885 47 q24 0 37 -13 q13 -13 13 -37 q0 -24 -13 -37 q-13 -13 -37 -13 l-770 0 q-24 0 -37 13 q-13 13 -13 37 q0 24 13 37 q13 13 37 13 l334 0 l0 590 l-275 0 q-24 0 -37 13 q-13 13 -13 37 q0 24 13 37 q13 13 37 13 l653 0 q24 0 37 -13 q13 -13 13 -37 q0 -24 -13 -37 q-13 -13 -37 -13 l-278 0 l0 -590 l336 0 Z" /><glyph glyph-name="uni5DE6" unicode="&#x5de6;" d="M881 32 q24 0 37 -13 q13 -13 13 -37 q0 -24 -13 -37 q-13 -13 -37 -13 l-645 0 q-24 0 -37 13 q-13 13 -13 37 q0 24 13 37 q13 13 37 13 l291 0 l0 272 l-196 0 q-97 -182 -196 -287 q-20 -17 -39 -17 q-18 0 -34 16 q-18 18 -18 36 q0 18 16 34 q82 84 157.5 216.5 q75.5 132.5 123.5 266.5 l-208 0 q-24 0 -37 13 q-13 13 -13 37 q0 24 13 37 q13 13 37 13 l239 0 q12 46 17 79 q9 40 45 40 q9 0 14 -1 q19 -2 29.5 -13.5 q10.5 -11.5 10.5 -30.5 q0 -9 -1 -13 q-5 -35 -13 -61 l413 0 q24 0 37 -13 q13 -13 13 -37 q0 -24 -13 -37 q-13 -13 -37 -13 l-442 0 q-28 -81 -65 -165 l455 0 q24 0 37 -13 q13 -13 13 -37 q0 -24 -13 -37 q-13 -13 -37 -13 l-208 0 l0 -272 l254 0 Z" /><glyph glyph-name="uni5DE7" unicode="&#x5de7;" d="M597 453 l0 -3 q0 -8 5.5 -12.5 q5.5 -4.5 14.5 -4.5 l195 0 q49 0 76 -26 q27 -26 25 -75 q-3 -60 -10 -146 q-7 -86 -11 -115 q-11 -71 -43.5 -110.5 q-32.5 -39.5 -96.5 -39.5 l-178 0 q-24 0 -37 13 q-13 13 -13 37 q0 24 13 37 q13 13 37 13 l128 0 q50 0 66 19 q16 19 20 41.5 q4 22.5 6 29.5 q6 27 10 98 q4 71 4 104 q0 20 -20 20 l-193 0 q-46 0 -73.5 22 q-27.5 22 -27.5 62 q0 10 1 16 l29 207 l-41 0 q-24 0 -37 13 q-13 13 -13 37 q0 24 13 37 q13 13 37 13 l403 0 q24 0 37 -13 q13 -13 13 -37 q0 -24 -13 -37 q-13 -13 -37 -13 l-262 0 l-27 -187 ZM395 221 q11 3 20 3 q30 0 43 -35 q4 -14 4 -20 q0 -15 -9 -26 q-9 -11 -27 -17 q-40 -12 -147.5 -37 q-107.5 -25 -166.5 -37 q-5 -1 -15 -1 q-36 0 -43 40 q-2 10 -2 15 q0 18 10.5 29.5 q10.5 11.5 30.5 13.5 q49 9 106 23 l0 450 l-84 0 q-24 0 -37 13 q-13 13 -13 37 q0 24 13 37 q13 13 37 13 l247 0 q24 0 37 -13 q13 -13 13 -37 q0 -24 -13 -37 q-13 -13 -37 -13 l-63 0 l0 -426 q74 18 96 25 Z" /><glyph glyph-name="uni5DF1" unicode="&#x5df1;" d="M882 208 q26 0 40 -14.5 q14 -14.5 12 -39.5 l-13 -123 q-6 -48 -28 -77 q-33 -43 -99 -43 l-561 0 q-49 0 -74.5 25.5 q-25.5 25.5 -25.5 74.5 l0 326 q0 49 25.5 74.5 q25.5 25.5 74.5 25.5 l506 0 q20 0 20 20 l0 179 q0 20 -20 20 l-570 0 q-24 0 -37 13 q-13 13 -13 37 q0 24 13 37 q13 13 37 13 l590 0 q49 0 74.5 -25.5 q25.5 -25.5 25.5 -74.5 l0 -219 q0 -49 -25.5 -74.5 q-25.5 -25.5 -74.5 -25.5 l-506 0 q-20 0 -20 -20 l0 -256 q0 -24 13 -37 q13 -13 37 -13 l471 0 q41 0 55 17 q6 8 9 20.5 q3 12.5 6 32.5 l10 80 q6 47 48 47 Z" /><glyph glyph-name="uni5DF2" unicode="&#x5df2;" d="M119 706 q0 24 13 37 q13 13 37 13 l590 0 q49 0 74.5 -25.5 q25.5 -25.5 25.5 -74.5 l0 -240 q0 -49 -25.5 -74.5 q-25.5 -25.5 -74.5 -25.5 l-526 0 l0 -255 q0 -24 13 -37 q13 -13 37 -13 l471 0 q41 0 55 17 q6 8 9 20.5 q3 12.5 6 32.5 l10 80 q6 47 48 47 q26 0 40 -14.5 q14 -14.5 12 -39.5 l-13 -123 q-6 -48 -28 -77 q-33 -43 -99 -43 l-561 0 q-49 0 -74.5 25.5 q-25.5 25.5 -25.5 74.5 l0 497 q0 24 13 37 q13 13 37 13 q24 0 37 -13 q13 -13 13 -37 l0 -72 q0 -8 6 -14 q6 -6 14 -6 l486 0 q20 0 20 20 l0 200 q0 20 -20 20 l-570 0 q-24 0 -37 13 q-13 13 -13 37 Z" /><glyph glyph-name="uni5E03" unicode="&#x5e03;" d="M891 687 q24 0 37 -13 q13 -13 13 -37 q0 -24 -13 -37 q-13 -13 -37 -13 l-478 0 q-36 -67 -88 -142 l160 0 l0 51 q0 24 13 37 q13 13 37 13 q24 0 37 -13 q13 -13 13 -37 l0 -51 l204 0 q49 0 74.5 -25.5 q25.5 -25.5 25.5 -74.5 l0 -231 q0 -150 -100 -150 l-96 0 q-24 0 -37 13 q-13 13 -13 37 q0 24 13 37 q13 13 37 13 l46 0 q31 0 40.5 21 q9.5 21 9.5 69 l0 171 q0 20 -20 20 l-184 0 l0 -394 q0 -24 -13 -37 q-13 -13 -37 -13 q-24 0 -37 13 q-13 13 -13 37 l0 394 l-185 0 q-20 0 -20 -20 l0 -317 q0 -24 -13 -37 q-13 -13 -37 -13 q-24 0 -37 13 q-13 13 -13 37 l0 255 l-57 -58 q-19 -13 -35 -13 q-21 0 -37 20 q-14 19 -14 35 q0 18 19 36 q71 63 133.5 141.5 q62.5 78.5 111.5 162.5 l-173 0 q-24 0 -37 13 q-13 13 -13 37 q0 24 13 37 q13 13 37 13 l227 0 q22 45 35 82 q15 32 40 32 q13 0 26 -5 q15 -4 23 -15 q8 -11 8 -25 q0 -9 -5 -24 l-19 -45 l428 0 Z" /><glyph glyph-name="uni5E38" unicode="&#x5e38;" d="M823 655 q49 0 74.5 -25.5 q25.5 -25.5 25.5 -74.5 l0 -61 q0 -24 -13 -37 q-13 -13 -37 -13 q-24 0 -37 13 q-13 13 -13 37 l0 21 q0 24 -8 32 q-8 8 -32 8 l-577 0 q-17 0 -23.5 -8.5 q-6.5 -8.5 -6.5 -31.5 l0 -21 q0 -24 -13 -37 q-13 -13 -37 -13 q-24 0 -37 13 q-13 13 -13 37 l0 61 q0 49 25.5 74.5 q25.5 25.5 74.5 25.5 l71 0 q-15 18 -28 31 q-21 17 -21 36 q0 16 12 35 q16 21 35 21 q17 0 33 -16 q32 -27 51 -52 q13 -19 13 -33 q0 -11 -9 -22 l118 0 l0 89 q0 24 13 37 q13 13 37 13 q24 0 37 -13 q13 -13 13 -37 l0 -89 l108 0 q-8 13 -8 25 q0 21 20 39 q13 10 23.5 21 q10.5 11 17.5 18 q17 21 36 21 q15 0 34 -13 q21 -16 21 -35 q0 -16 -16 -33 q-20 -25 -38 -43 l74 0 ZM779 247 q49 0 74.5 -25.5 q25.5 -25.5 25.5 -74.5 l0 -58 q0 -150 -100 -150 l-97 0 q-24 0 -37 13 q-13 13 -13 37 q0 24 13 37 q13 13 37 13 l47 0 q31 0 40.5 18.5 q9.5 18.5 9.5 51.5 l0 18 q0 20 -20 20 l-208 0 l0 -197 q0 -24 -13 -37 q-13 -13 -37 -13 q-24 0 -37 13 q-13 13 -13 37 l0 197 l-207 0 q-20 0 -20 -20 l0 -141 q0 -24 -13 -37 q-13 -13 -37 -13 q-24 0 -37 13 q-13 13 -13 37 l0 161 q0 49 25.5 74.5 q25.5 25.5 74.5 25.5 l227 0 l0 27 l-142 0 q-49 0 -74.5 25.5 q-25.5 25.5 -25.5 74.5 l0 41 q0 49 25.5 74.5 q25.5 25.5 74.5 25.5 l382 0 q49 0 74.5 -25.5 q25.5 -25.5 25.5 -74.5 l0 -41 q0 -49 -25.5 -74.5 q-25.5 -25.5 -74.5 -25.5 l-140 0 l0 -27 l228 0 ZM309 394 q0 -20 20 -20 l342 0 q20 0 20 20 l0 1 q0 20 -20 20 l-342 0 q-20 0 -20 -20 l0 -1 Z" /><glyph glyph-name="uni5E73" unicode="&#x5e73;" d="M886 308 q24 0 37 -13 q13 -13 13 -37 q0 -24 -13 -37 q-13 -13 -37 -13 l-337 0 l0 -250 q0 -24 -13 -37 q-13 -13 -37 -13 q-24 0 -37 13 q-13 13 -13 37 l0 250 l-337 0 q-24 0 -37 13 q-13 13 -13 37 q0 24 13 37 q13 13 37 13 l337 0 l0 349 l-299 0 q-24 0 -37 13 q-13 13 -13 37 q0 24 13 37 q13 13 37 13 l697 0 q24 0 37 -13 q13 -13 13 -37 q0 -24 -13 -37 q-13 -13 -37 -13 l-298 0 l0 -349 l337 0 ZM321 351 q-16 -7 -25 -7 q-26 0 -42 29 q-18 35 -45.5 74.5 q-27.5 39.5 -50.5 64.5 q-13 16 -13 32 q0 19 19 38 q16 16 33 16 q20 0 38 -21 q79 -97 107 -156 q8 -18 8 -29 q0 -25 -29 -41 ZM822 590 q29 -14 29 -39 q0 -14 -7 -28 q-60 -110 -104 -160 q-17 -20 -37 -20 q-17 0 -34 14 q-20 15 -20 36 q0 17 14 34 q24 28 49.5 67.5 q25.5 39.5 42.5 73.5 q15 29 40 29 q9 0 27 -7 Z" /><glyph glyph-name="uni5E76" unicode="&#x5e76;" d="M894 323 q24 0 37 -13 q13 -13 13 -37 q0 -24 -13 -37 q-13 -13 -37 -13 l-159 0 l0 -268 q0 -24 -13 -37 q-13 -13 -37 -13 q-24 0 -37 13 q-13 13 -13 37 l0 268 l-265 0 q-32 -213 -158 -315 q-16 -13 -32 -13 q-20 0 -37 20 q-15 16 -15 34 q0 20 19 36 q56 55 85 107 q29 52 40 131 l-169 0 q-24 0 -37 13 q-13 13 -13 37 q0 24 13 37 q13 13 37 13 l176 0 q1 14 1 45 l0 170 l-137 0 q-24 0 -37 13 q-13 13 -13 37 q0 24 13 37 q13 13 37 13 l160 0 q-11 19 -31 43 q-8 11 -15 20 q-16 21 -16 38 q0 17 16 33 q17 15 34 15 q18 0 37 -17 q48 -53 64 -85 q9 -13 9 -26 q0 -12 -6 -21 l196 0 l3 4 q14 18 36 56 q22 38 32 60 q17 36 45 36 q9 0 19 -3 q16 -6 24.5 -17.5 q8.5 -11.5 8.5 -25.5 q0 -7 -4 -21 q-14 -39 -44 -89 l146 0 q24 0 37 -13 q13 -13 13 -37 q0 -24 -13 -37 q-13 -13 -37 -13 l-122 0 l0 -215 l159 0 ZM635 323 l0 215 l-255 0 l0 -165 q0 -34 -1 -50 l256 0 Z" /><glyph glyph-name="uni5E8F" unicode="&#x5e8f;" d="M936 661 q0 -24 -13 -37 q-13 -13 -37 -13 l-618 0 q-20 0 -20 -20 l0 -143 q0 -332 -90 -505 q-14 -30 -40 -30 q-13 0 -26 7 q-15 7 -23 17.5 q-8 10.5 -8 23.5 q0 11 6 25 q46 90 63.5 214.5 q17.5 124.5 17.5 242.5 l0 168 q0 49 25.5 74.5 q25.5 25.5 74.5 25.5 l256 0 q-7 19 -8 22 q-6 14 -6 25 q0 26 29 40 q13 7 27 7 q27 0 41 -29 q12 -20 22 -65 l277 0 q24 0 37 -13 q13 -13 13 -37 ZM909 326 q24 0 37 -13 q13 -13 13 -37 q0 -16 -7 -30 l-65 -147 q-16 -35 -43 -35 q-9 0 -22 5 q-16 7 -25 18.5 q-9 11.5 -9 25.5 q0 9 5 21 l28 60 q2 3 2 10 q0 9 -6.5 15.5 q-6.5 6.5 -16.5 6.5 l-148 0 l0 -190 q0 -150 -100 -150 l-133 0 q-24 0 -37 13 q-13 13 -13 37 q0 24 13 37 q13 13 37 13 l83 0 q31 0 40.5 21 q9.5 21 9.5 69 l0 150 l-214 0 q-24 0 -37 13 q-13 13 -13 37 q0 24 13 37 q13 13 37 13 l153 0 q-15 11 -52 34 q-26 18 -26 40 q0 14 9 29 q16 26 40 26 q13 0 28 -9 q45 -27 88 -60 l126 67 q6 3 6 8 q0 6 -14 6 l-340 0 q-24 0 -37 13 q-13 13 -13 37 q0 24 13 37 q13 13 37 13 l490 0 q29 0 46 -20.5 q17 -20.5 17 -48.5 q0 -17 -7.5 -32 q-7.5 -15 -21.5 -23 l-205 -117 l234 0 Z" /><glyph glyph-name="uni5E93" unicode="&#x5e93;" d="M251 606 q-20 0 -20 -20 l0 -138 l1 -113 q0 -110 -16 -205 q-16 -95 -66 -207 q-14 -30 -40 -30 q-13 0 -26 7 q-15 7 -23 17.5 q-8 10.5 -8 23.5 q0 11 6 25 q43 101 58 189 q15 88 15 180 l-1 108 l0 163 q0 49 25.5 74.5 q25.5 25.5 74.5 25.5 l262 0 q-3 9 -5.5 15.5 q-2.5 6.5 -4.5 12.5 q-6 14 -6 25 q0 26 29 40 q13 7 27 7 q27 0 41 -29 q14 -25 23 -71 l291 0 q24 0 37 -13 q13 -13 13 -37 q0 -24 -13 -37 q-13 -13 -37 -13 l-637 0 ZM892 128 q24 0 37 -13 q13 -13 13 -37 q0 -24 -13 -37 q-13 -13 -37 -13 l-227 0 l0 -87 q0 -24 -13 -37 q-13 -13 -37 -13 q-24 0 -37 13 q-13 13 -13 37 l0 87 l-273 0 q-24 0 -37 13 q-13 13 -13 37 q0 24 13 37 q13 13 37 13 l273 0 l0 78 l-234 0 q-47 0 -50 46 q0 22 11 38 q33 50 81 127 l-45 0 q-24 0 -37 13 q-13 13 -13 37 q0 24 13 37 q13 13 37 13 l105 0 l31 57 q15 27 39 27 q14 0 29 -9 q26 -14 26 -39 q0 -13 -8 -29 q-3 -6 -4 -7 l304 0 q24 0 37 -13 q13 -13 13 -37 q0 -24 -13 -37 q-13 -13 -37 -13 l-361 0 q-27 -43 -57 -87 q-4 -5 -4 -11 q0 -6 5 -9.5 q5 -3.5 13 -3.5 l119 0 l0 44 q0 24 13 37 q13 13 37 13 q24 0 37 -13 q13 -13 13 -37 l0 -44 l167 0 q24 0 37 -13 q13 -13 13 -37 q0 -24 -13 -37 q-13 -13 -37 -13 l-167 0 l0 -78 l227 0 Z" /><glyph glyph-name="uni5EA6" unicode="&#x5ea6;" d="M253 600 q-20 0 -20 -20 l0 -35 l112 0 q0 24 13 37 q13 13 37 13 q24 0 37 -13 q13 -13 13 -37 l248 0 q0 24 13 37 q13 13 37 13 q24 0 37 -13 q13 -13 13 -37 l83 0 q24 0 37 -13 q13 -13 13 -37 q0 -24 -13 -37 q-13 -13 -37 -13 l-83 0 l0 -44 q0 -49 -25.5 -74.5 q-25.5 -25.5 -74.5 -25.5 l-248 0 q-49 0 -74.5 25.5 q-25.5 25.5 -25.5 74.5 l0 44 l-112 0 l0 -17 q0 -137 -23.5 -270.5 q-23.5 -133.5 -75.5 -217.5 q-19 -30 -41 -30 q-12 0 -25 7 q-33 15 -33 41 q0 11 8 25 q57 95 73.5 203.5 q16.5 108.5 16.5 236.5 l0 177 q0 49 25.5 74.5 q25.5 25.5 74.5 25.5 l254 0 l-9 27 q-6 14 -6 25 q0 26 29 40 q13 7 27 7 q27 0 41 -29 q14 -26 23 -70 l297 0 q24 0 37 -13 q13 -13 13 -37 q0 -24 -13 -37 q-13 -13 -37 -13 l-636 0 ZM445 445 l0 -24 q0 -20 20 -20 l208 0 q20 0 20 20 l0 24 l-248 0 ZM878 -2 q44 -8 44 -46 q0 -7 -1 -11 q-9 -43 -46 -43 q-8 0 -12 1 q-98 17 -169.5 33.5 q-71.5 16.5 -140.5 42.5 q-78 -29 -156 -50 q-78 -21 -90 -24 q-36 -8 -59 -15 q-12 -2 -17 -2 q-32 0 -43 39 q-2 12 -2 16 q0 16 10 27.5 q10 11.5 28 16.5 q95 24 198 55 q-34 19 -79 53 q-22 19 -22 39 q0 17 12 30 q5 6 15 14 l-39 0 q-24 0 -37 13 q-13 13 -13 37 q0 24 13 37 q13 13 37 13 l492 0 q39 0 48 -37 q3 -13 3 -28 q0 -25 -10 -43 q-39 -71 -149 -129 q49 -14 154 -33 l31 -6 ZM404 170 q76 -50 157 -87 q102 36 141 68 q7 6 7 12 q0 5 -3.5 8 q-3.5 3 -10.5 3 l-296 0 l5 -4 Z" /><glyph glyph-name="uni5EFA" unicode="&#x5efa;" d="M563 597 l0 35 l-131 0 q-24 0 -37 13 q-13 13 -13 37 q0 24 13 37 q13 13 37 13 l131 0 l0 10 q0 24 13 37 q13 13 37 13 q24 0 37 -13 q13 -13 13 -37 l0 -10 l117 0 q49 0 74.5 -25.5 q25.5 -25.5 25.5 -74.5 l0 -35 l7 0 q24 0 37 -13 q13 -13 13 -37 q0 -24 -13 -37 q-13 -13 -37 -13 l-7 0 l0 -35 q0 -49 -25.5 -74.5 q-25.5 -25.5 -74.5 -25.5 l-117 0 l0 -37 l168 0 q24 0 37 -13 q13 -13 13 -37 q0 -24 -13 -37 q-13 -13 -37 -13 l-168 0 l0 -33 l203 0 q24 0 37 -13 q13 -13 13 -37 q0 -24 -13 -37 q-13 -13 -37 -13 l-203 0 l0 -3 q0 -24 -13 -37 q-13 -13 -37 -13 q-24 0 -37 13 q-13 13 -13 37 l0 3 l-179 0 q-24 0 -37 13 q-13 13 -13 37 q0 24 13 37 q13 13 37 13 l179 0 l0 33 l-132 0 q-24 0 -37 13 q-13 13 -13 37 q0 24 13 37 q13 13 37 13 l132 0 l0 37 l-132 0 q-24 0 -37 13 q-13 13 -13 37 q0 24 13 37 q13 13 37 13 l132 0 l0 35 l-157 0 q-24 0 -37 13 q-13 13 -13 37 q0 24 13 37 q13 13 37 13 l157 0 ZM888 15 q24 0 37 -13 q13 -13 13 -37 q0 -24 -13 -37 q-13 -13 -37 -13 l-183 -1 q-109 0 -156 3 q-152 9 -264 68 q-35 19 -77 52 q-36 -52 -92 -113 q-18 -20 -38 -20 q-15 0 -34 14 q-20 15 -20 36 q0 17 14 34 q62 66 101 124 q-48 67 -73 150 q-4 11 -4 23 q0 30 34 42 q11 4 21 4 q29 0 43 -34 q14 -50 37 -90 q34 68 49 134 q1 2 1 6 q0 17 -18 17 l-134 0 q-24 0 -37 13 q-13 13 -13 37 q0 9 1 13 q1 14 15 29 l135 159 q6 8 6 13 q0 5 -4.5 8.5 q-4.5 3.5 -12.5 3.5 l-69 0 q-24 0 -37 13 q-13 13 -13 37 q0 24 13 37 q13 13 37 13 l196 0 q24 0 37 -13 q13 -13 13 -37 l0 -1 q0 -25 -20 -42 l-131 -158 q-6 -7 -6 -14 q0 -5 4.5 -8 q4.5 -3 12.5 -3 l85 0 q23 0 36.5 -11 q13.5 -11 13.5 -31 q0 -10 -2 -19 q-2 -9 -3 -15 q-28 -148 -90 -263 q36 -33 79 -55 q89 -46 210 -55 q66 -5 165 -5 q94 0 172 5 ZM663 597 l117 0 l0 15 q0 20 -20 20 l-97 0 l0 -35 ZM780 497 l-117 0 l0 -35 l97 0 q20 0 20 20 l0 15 Z" /><glyph glyph-name="uni5F00" unicode="&#x5f00;" d="M894 392 q24 0 37 -13 q13 -13 13 -37 q0 -24 -13 -37 q-13 -13 -37 -13 l-159 0 l0 -337 q0 -24 -13 -37 q-13 -13 -37 -13 q-24 0 -37 13 q-13 13 -13 37 l0 337 l-265 0 q-13 -96 -42 -166.5 q-29 -70.5 -60 -112.5 q-31 -42 -73 -88 l-15 -16 q-16 -16 -34 -16 q-19 0 -35 18 q-18 16 -18 36 q0 17 17 34 q66 65 105.5 134.5 q39.5 69.5 54.5 176.5 l-167 0 q-24 0 -37 13 q-13 13 -13 37 q0 24 13 37 q13 13 37 13 l176 0 q1 15 1 46 l0 210 l-137 0 q-24 0 -37 13 q-13 13 -13 37 q0 24 13 37 q13 13 37 13 l704 0 q24 0 37 -13 q13 -13 13 -37 q0 -24 -13 -37 q-13 -13 -37 -13 l-112 0 l0 -256 l159 0 ZM635 392 l0 256 l-255 0 l0 -205 q0 -35 -1 -51 l256 0 Z" /><glyph glyph-name="uni5F02" unicode="&#x5f02;" d="M229 294 q-49 0 -74.5 25.5 q-25.5 25.5 -25.5 74.5 l0 270 q0 49 25.5 74.5 q25.5 25.5 74.5 25.5 l513 0 q49 0 74.5 -25.5 q25.5 -25.5 25.5 -74.5 l0 -84 q0 -49 -25.5 -74.5 q-25.5 -25.5 -74.5 -25.5 l-513 0 l0 -36 q0 -24 13 -37 q13 -13 37 -13 l486 0 q41 0 55 17 q15 20 15 53 l0 7 q0 22 13 34.5 q13 12.5 35 12.5 q26 0 40 -14 q14 -14 12 -40 l-3 -50 q-3 -45 -28 -77 q-33 -43 -99 -43 l-576 0 ZM229 600 q0 -20 20 -20 l473 0 q20 0 20 20 l0 44 q0 20 -20 20 l-473 0 q-20 0 -20 -20 l0 -44 ZM891 204 q24 0 37 -13 q13 -13 13 -37 q0 -24 -13 -37 q-13 -13 -37 -13 l-166 0 l0 -159 q0 -24 -13 -37 q-13 -13 -37 -13 q-24 0 -37 13 q-13 13 -13 37 l0 159 l-245 0 q-12 -67 -45 -110.5 q-33 -43.5 -68 -66.5 q-35 -23 -86 -47 q-16 -7 -26 -7 q-26 0 -39 29 q-8 14 -8 27 q0 12 7.5 22.5 q7.5 10.5 21.5 17.5 q50 22 86 50.5 q36 28.5 54 84.5 l-164 0 q-24 0 -37 13 q-13 13 -13 37 q0 24 13 37 q13 13 37 13 l174 0 l0 14 q0 24 13 37 q13 13 37 13 q24 0 37 -13 q13 -13 13 -37 l0 -14 l238 0 l0 14 q0 24 13 37 q13 13 37 13 q24 0 37 -13 q13 -13 13 -37 l0 -14 l166 0 Z" /><glyph glyph-name="uni5F0F" unicode="&#x5f0f;" d="M902 182 q19 -3 29 -14.5 q10 -11.5 10 -28.5 q0 -6 -2 -16 q-19 -83 -41 -134 q-22 -50 -52 -76 q-30 -26 -63 -26 q-30 0 -59.5 22 q-29.5 22 -54.5 65 q-52 88 -86.5 230 q-34.5 142 -46.5 331 l-427 0 q-24 0 -37 13 q-13 13 -13 37 q0 24 13 37 q13 13 37 13 l423 0 q-2 66 -2 103 q0 24 13 37 q13 13 37 13 q24 0 37 -13 q13 -13 13 -37 q0 -37 2 -103 l141 0 q-14 4 -30 32 q-6 9 -22 33 q-12 17 -12 31 q0 22 22 38 q17 12 32 12 q22 0 39 -23 q20 -28 32 -53 q6 -13 6 -25 q0 -25 -34 -40 q-10 -4 -15 -5 l97 0 q24 0 37 -13 q13 -13 13 -37 q0 -24 -13 -37 q-13 -13 -37 -13 l-251 0 q10 -146 35.5 -259.5 q25.5 -113.5 62.5 -189.5 q30 -64 51 -64 q18 0 36 55 q14 39 20 70 q4 18 15 27.5 q11 9.5 28 9.5 q11 0 17 -2 ZM505 124 q26 3 41.5 -10.5 q15.5 -13.5 15.5 -41.5 q0 -41 -44 -47 q-201 -42 -403 -54 q-27 -3 -42 11 q-15 14 -15 42 q0 40 45 46 q51 3 153 13 l0 241 l-113 0 q-24 0 -37 13 q-13 13 -13 37 q0 24 13 37 q13 13 37 13 l329 0 q24 0 37 -13 q13 -13 13 -37 q0 -24 -13 -37 q-13 -13 -37 -13 l-116 0 l0 -227 q70 11 149 27 Z" /></font>
</defs>
</svg>
